G75*
G70*
%OFA0B0*%
%FSLAX25Y25*%
%IPPOS*%
%LPD*%
%AMOC8*
5,1,8,0,0,1.08239X$1,22.5*
%
X0000000Y0000000D02*
%LPD*%
G01*
G36*
G01*
X0129429Y0267520D02*
X0134350Y0267520D01*
G75*
G02*
X0134744Y0267126I0000000J-000394D01*
G01*
X0134744Y0263976D01*
G75*
G02*
X0134350Y0263583I-000394J0000000D01*
G01*
X0129429Y0263583D01*
G75*
G02*
X0129035Y0263976I0000000J0000394D01*
G01*
X0129035Y0267126D01*
G75*
G02*
X0129429Y0267520I0000394J0000000D01*
G01*
G37*
G36*
G01*
X0129429Y0260039D02*
X0134350Y0260039D01*
G75*
G02*
X0134744Y0259646I0000000J-000394D01*
G01*
X0134744Y0256496D01*
G75*
G02*
X0134350Y0256102I-000394J0000000D01*
G01*
X0129429Y0256102D01*
G75*
G02*
X0129035Y0256496I0000000J0000394D01*
G01*
X0129035Y0259646D01*
G75*
G02*
X0129429Y0260039I0000394J0000000D01*
G01*
G37*
G36*
G01*
X0034035Y0267224D02*
X0034035Y0272146D01*
G75*
G02*
X0034429Y0272539I0000394J0000000D01*
G01*
X0037579Y0272539D01*
G75*
G02*
X0037972Y0272146I0000000J-000394D01*
G01*
X0037972Y0267224D01*
G75*
G02*
X0037579Y0266831I-000394J0000000D01*
G01*
X0034429Y0266831D01*
G75*
G02*
X0034035Y0267224I0000000J0000394D01*
G01*
G37*
G36*
G01*
X0041516Y0267224D02*
X0041516Y0272146D01*
G75*
G02*
X0041910Y0272539I0000394J0000000D01*
G01*
X0045059Y0272539D01*
G75*
G02*
X0045453Y0272146I0000000J-000394D01*
G01*
X0045453Y0267224D01*
G75*
G02*
X0045059Y0266831I-000394J0000000D01*
G01*
X0041910Y0266831D01*
G75*
G02*
X0041516Y0267224I0000000J0000394D01*
G01*
G37*
G36*
G01*
X0121555Y0267520D02*
X0126476Y0267520D01*
G75*
G02*
X0126870Y0267126I0000000J-000394D01*
G01*
X0126870Y0263976D01*
G75*
G02*
X0126476Y0263583I-000394J0000000D01*
G01*
X0121555Y0263583D01*
G75*
G02*
X0121161Y0263976I0000000J0000394D01*
G01*
X0121161Y0267126D01*
G75*
G02*
X0121555Y0267520I0000394J0000000D01*
G01*
G37*
G36*
G01*
X0121555Y0260039D02*
X0126476Y0260039D01*
G75*
G02*
X0126870Y0259646I0000000J-000394D01*
G01*
X0126870Y0256496D01*
G75*
G02*
X0126476Y0256102I-000394J0000000D01*
G01*
X0121555Y0256102D01*
G75*
G02*
X0121161Y0256496I0000000J0000394D01*
G01*
X0121161Y0259646D01*
G75*
G02*
X0121555Y0260039I0000394J0000000D01*
G01*
G37*
G36*
G01*
X0084154Y0267520D02*
X0089075Y0267520D01*
G75*
G02*
X0089469Y0267126I0000000J-000394D01*
G01*
X0089469Y0263976D01*
G75*
G02*
X0089075Y0263583I-000394J0000000D01*
G01*
X0084154Y0263583D01*
G75*
G02*
X0083760Y0263976I0000000J0000394D01*
G01*
X0083760Y0267126D01*
G75*
G02*
X0084154Y0267520I0000394J0000000D01*
G01*
G37*
G36*
G01*
X0084154Y0260039D02*
X0089075Y0260039D01*
G75*
G02*
X0089469Y0259646I0000000J-000394D01*
G01*
X0089469Y0256496D01*
G75*
G02*
X0089075Y0256102I-000394J0000000D01*
G01*
X0084154Y0256102D01*
G75*
G02*
X0083760Y0256496I0000000J0000394D01*
G01*
X0083760Y0259646D01*
G75*
G02*
X0084154Y0260039I0000394J0000000D01*
G01*
G37*
G36*
G01*
X0205118Y0260256D02*
X0205118Y0262972D01*
G75*
G02*
X0206024Y0263878I0000906J0000000D01*
G01*
X0211299Y0263878D01*
G75*
G02*
X0212205Y0262972I0000000J-000906D01*
G01*
X0212205Y0260256D01*
G75*
G02*
X0211299Y0259350I-000906J0000000D01*
G01*
X0206024Y0259350D01*
G75*
G02*
X0205118Y0260256I0000000J0000906D01*
G01*
G37*
G36*
G01*
X0205118Y0248839D02*
X0205118Y0251555D01*
G75*
G02*
X0206024Y0252461I0000906J0000000D01*
G01*
X0211299Y0252461D01*
G75*
G02*
X0212205Y0251555I0000000J-000906D01*
G01*
X0212205Y0248839D01*
G75*
G02*
X0211299Y0247933I-000906J0000000D01*
G01*
X0206024Y0247933D01*
G75*
G02*
X0205118Y0248839I0000000J0000906D01*
G01*
G37*
G36*
G01*
X0108760Y0267520D02*
X0113681Y0267520D01*
G75*
G02*
X0114075Y0267126I0000000J-000394D01*
G01*
X0114075Y0263976D01*
G75*
G02*
X0113681Y0263583I-000394J0000000D01*
G01*
X0108760Y0263583D01*
G75*
G02*
X0108366Y0263976I0000000J0000394D01*
G01*
X0108366Y0267126D01*
G75*
G02*
X0108760Y0267520I0000394J0000000D01*
G01*
G37*
G36*
G01*
X0108760Y0260039D02*
X0113681Y0260039D01*
G75*
G02*
X0114075Y0259646I0000000J-000394D01*
G01*
X0114075Y0256496D01*
G75*
G02*
X0113681Y0256102I-000394J0000000D01*
G01*
X0108760Y0256102D01*
G75*
G02*
X0108366Y0256496I0000000J0000394D01*
G01*
X0108366Y0259646D01*
G75*
G02*
X0108760Y0260039I0000394J0000000D01*
G01*
G37*
G36*
G01*
X0265748Y0262224D02*
X0265748Y0264941D01*
G75*
G02*
X0266654Y0265846I0000906J0000000D01*
G01*
X0271929Y0265846D01*
G75*
G02*
X0272835Y0264941I0000000J-000906D01*
G01*
X0272835Y0262224D01*
G75*
G02*
X0271929Y0261319I-000906J0000000D01*
G01*
X0266654Y0261319D01*
G75*
G02*
X0265748Y0262224I0000000J0000906D01*
G01*
G37*
G36*
G01*
X0265748Y0250807D02*
X0265748Y0253524D01*
G75*
G02*
X0266654Y0254429I0000906J0000000D01*
G01*
X0271929Y0254429D01*
G75*
G02*
X0272835Y0253524I0000000J-000906D01*
G01*
X0272835Y0250807D01*
G75*
G02*
X0271929Y0249902I-000906J0000000D01*
G01*
X0266654Y0249902D01*
G75*
G02*
X0265748Y0250807I0000000J0000906D01*
G01*
G37*
G36*
G01*
X0195276Y0260256D02*
X0195276Y0262972D01*
G75*
G02*
X0196181Y0263878I0000906J0000000D01*
G01*
X0201457Y0263878D01*
G75*
G02*
X0202362Y0262972I0000000J-000906D01*
G01*
X0202362Y0260256D01*
G75*
G02*
X0201457Y0259350I-000906J0000000D01*
G01*
X0196181Y0259350D01*
G75*
G02*
X0195276Y0260256I0000000J0000906D01*
G01*
G37*
G36*
G01*
X0195276Y0248839D02*
X0195276Y0251555D01*
G75*
G02*
X0196181Y0252461I0000906J0000000D01*
G01*
X0201457Y0252461D01*
G75*
G02*
X0202362Y0251555I0000000J-000906D01*
G01*
X0202362Y0248839D01*
G75*
G02*
X0201457Y0247933I-000906J0000000D01*
G01*
X0196181Y0247933D01*
G75*
G02*
X0195276Y0248839I0000000J0000906D01*
G01*
G37*
G36*
G01*
X0249508Y0263583D02*
X0254429Y0263583D01*
G75*
G02*
X0254823Y0263189I0000000J-000394D01*
G01*
X0254823Y0260039D01*
G75*
G02*
X0254429Y0259646I-000394J0000000D01*
G01*
X0249508Y0259646D01*
G75*
G02*
X0249114Y0260039I0000000J0000394D01*
G01*
X0249114Y0263189D01*
G75*
G02*
X0249508Y0263583I0000394J0000000D01*
G01*
G37*
G36*
G01*
X0249508Y0256102D02*
X0254429Y0256102D01*
G75*
G02*
X0254823Y0255709I0000000J-000394D01*
G01*
X0254823Y0252559D01*
G75*
G02*
X0254429Y0252165I-000394J0000000D01*
G01*
X0249508Y0252165D01*
G75*
G02*
X0249114Y0252559I0000000J0000394D01*
G01*
X0249114Y0255709D01*
G75*
G02*
X0249508Y0256102I0000394J0000000D01*
G01*
G37*
G36*
G01*
X0145177Y0267520D02*
X0150098Y0267520D01*
G75*
G02*
X0150492Y0267126I0000000J-000394D01*
G01*
X0150492Y0263976D01*
G75*
G02*
X0150098Y0263583I-000394J0000000D01*
G01*
X0145177Y0263583D01*
G75*
G02*
X0144783Y0263976I0000000J0000394D01*
G01*
X0144783Y0267126D01*
G75*
G02*
X0145177Y0267520I0000394J0000000D01*
G01*
G37*
G36*
G01*
X0145177Y0260039D02*
X0150098Y0260039D01*
G75*
G02*
X0150492Y0259646I0000000J-000394D01*
G01*
X0150492Y0256496D01*
G75*
G02*
X0150098Y0256102I-000394J0000000D01*
G01*
X0145177Y0256102D01*
G75*
G02*
X0144783Y0256496I0000000J0000394D01*
G01*
X0144783Y0259646D01*
G75*
G02*
X0145177Y0260039I0000394J0000000D01*
G01*
G37*
G36*
G01*
X0300689Y0263583D02*
X0305610Y0263583D01*
G75*
G02*
X0306004Y0263189I0000000J-000394D01*
G01*
X0306004Y0260039D01*
G75*
G02*
X0305610Y0259646I-000394J0000000D01*
G01*
X0300689Y0259646D01*
G75*
G02*
X0300295Y0260039I0000000J0000394D01*
G01*
X0300295Y0263189D01*
G75*
G02*
X0300689Y0263583I0000394J0000000D01*
G01*
G37*
G36*
G01*
X0300689Y0256102D02*
X0305610Y0256102D01*
G75*
G02*
X0306004Y0255709I0000000J-000394D01*
G01*
X0306004Y0252559D01*
G75*
G02*
X0305610Y0252165I-000394J0000000D01*
G01*
X0300689Y0252165D01*
G75*
G02*
X0300295Y0252559I0000000J0000394D01*
G01*
X0300295Y0255709D01*
G75*
G02*
X0300689Y0256102I0000394J0000000D01*
G01*
G37*
G36*
G01*
X0278642Y0263583D02*
X0283563Y0263583D01*
G75*
G02*
X0283957Y0263189I0000000J-000394D01*
G01*
X0283957Y0260039D01*
G75*
G02*
X0283563Y0259646I-000394J0000000D01*
G01*
X0278642Y0259646D01*
G75*
G02*
X0278248Y0260039I0000000J0000394D01*
G01*
X0278248Y0263189D01*
G75*
G02*
X0278642Y0263583I0000394J0000000D01*
G01*
G37*
G36*
G01*
X0278642Y0256102D02*
X0283563Y0256102D01*
G75*
G02*
X0283957Y0255709I0000000J-000394D01*
G01*
X0283957Y0252559D01*
G75*
G02*
X0283563Y0252165I-000394J0000000D01*
G01*
X0278642Y0252165D01*
G75*
G02*
X0278248Y0252559I0000000J0000394D01*
G01*
X0278248Y0255709D01*
G75*
G02*
X0278642Y0256102I0000394J0000000D01*
G01*
G37*
G36*
G01*
X0286122Y0263583D02*
X0291043Y0263583D01*
G75*
G02*
X0291437Y0263189I0000000J-000394D01*
G01*
X0291437Y0260039D01*
G75*
G02*
X0291043Y0259646I-000394J0000000D01*
G01*
X0286122Y0259646D01*
G75*
G02*
X0285728Y0260039I0000000J0000394D01*
G01*
X0285728Y0263189D01*
G75*
G02*
X0286122Y0263583I0000394J0000000D01*
G01*
G37*
G36*
G01*
X0286122Y0256102D02*
X0291043Y0256102D01*
G75*
G02*
X0291437Y0255709I0000000J-000394D01*
G01*
X0291437Y0252559D01*
G75*
G02*
X0291043Y0252165I-000394J0000000D01*
G01*
X0286122Y0252165D01*
G75*
G02*
X0285728Y0252559I0000000J0000394D01*
G01*
X0285728Y0255709D01*
G75*
G02*
X0286122Y0256102I0000394J0000000D01*
G01*
G37*
G36*
G01*
X0137303Y0267520D02*
X0142224Y0267520D01*
G75*
G02*
X0142618Y0267126I0000000J-000394D01*
G01*
X0142618Y0263976D01*
G75*
G02*
X0142224Y0263583I-000394J0000000D01*
G01*
X0137303Y0263583D01*
G75*
G02*
X0136909Y0263976I0000000J0000394D01*
G01*
X0136909Y0267126D01*
G75*
G02*
X0137303Y0267520I0000394J0000000D01*
G01*
G37*
G36*
G01*
X0137303Y0260039D02*
X0142224Y0260039D01*
G75*
G02*
X0142618Y0259646I0000000J-000394D01*
G01*
X0142618Y0256496D01*
G75*
G02*
X0142224Y0256102I-000394J0000000D01*
G01*
X0137303Y0256102D01*
G75*
G02*
X0136909Y0256496I0000000J0000394D01*
G01*
X0136909Y0259646D01*
G75*
G02*
X0137303Y0260039I0000394J0000000D01*
G01*
G37*
G36*
G01*
X0293209Y0263583D02*
X0298130Y0263583D01*
G75*
G02*
X0298524Y0263189I0000000J-000394D01*
G01*
X0298524Y0260039D01*
G75*
G02*
X0298130Y0259646I-000394J0000000D01*
G01*
X0293209Y0259646D01*
G75*
G02*
X0292815Y0260039I0000000J0000394D01*
G01*
X0292815Y0263189D01*
G75*
G02*
X0293209Y0263583I0000394J0000000D01*
G01*
G37*
G36*
G01*
X0293209Y0256102D02*
X0298130Y0256102D01*
G75*
G02*
X0298524Y0255709I0000000J-000394D01*
G01*
X0298524Y0252559D01*
G75*
G02*
X0298130Y0252165I-000394J0000000D01*
G01*
X0293209Y0252165D01*
G75*
G02*
X0292815Y0252559I0000000J0000394D01*
G01*
X0292815Y0255709D01*
G75*
G02*
X0293209Y0256102I0000394J0000000D01*
G01*
G37*
G36*
G01*
X0093996Y0267520D02*
X0098917Y0267520D01*
G75*
G02*
X0099311Y0267126I0000000J-000394D01*
G01*
X0099311Y0263976D01*
G75*
G02*
X0098917Y0263583I-000394J0000000D01*
G01*
X0093996Y0263583D01*
G75*
G02*
X0093602Y0263976I0000000J0000394D01*
G01*
X0093602Y0267126D01*
G75*
G02*
X0093996Y0267520I0000394J0000000D01*
G01*
G37*
G36*
G01*
X0093996Y0260039D02*
X0098917Y0260039D01*
G75*
G02*
X0099311Y0259646I0000000J-000394D01*
G01*
X0099311Y0256496D01*
G75*
G02*
X0098917Y0256102I-000394J0000000D01*
G01*
X0093996Y0256102D01*
G75*
G02*
X0093602Y0256496I0000000J0000394D01*
G01*
X0093602Y0259646D01*
G75*
G02*
X0093996Y0260039I0000394J0000000D01*
G01*
G37*
G36*
G01*
X0225098Y0263583D02*
X0230020Y0263583D01*
G75*
G02*
X0230413Y0263189I0000000J-000394D01*
G01*
X0230413Y0260039D01*
G75*
G02*
X0230020Y0259646I-000394J0000000D01*
G01*
X0225098Y0259646D01*
G75*
G02*
X0224705Y0260039I0000000J0000394D01*
G01*
X0224705Y0263189D01*
G75*
G02*
X0225098Y0263583I0000394J0000000D01*
G01*
G37*
G36*
G01*
X0225098Y0256102D02*
X0230020Y0256102D01*
G75*
G02*
X0230413Y0255709I0000000J-000394D01*
G01*
X0230413Y0252559D01*
G75*
G02*
X0230020Y0252165I-000394J0000000D01*
G01*
X0225098Y0252165D01*
G75*
G02*
X0224705Y0252559I0000000J0000394D01*
G01*
X0224705Y0255709D01*
G75*
G02*
X0225098Y0256102I0000394J0000000D01*
G01*
G37*
G36*
G01*
X0235728Y0263583D02*
X0240650Y0263583D01*
G75*
G02*
X0241043Y0263189I0000000J-000394D01*
G01*
X0241043Y0260039D01*
G75*
G02*
X0240650Y0259646I-000394J0000000D01*
G01*
X0235728Y0259646D01*
G75*
G02*
X0235335Y0260039I0000000J0000394D01*
G01*
X0235335Y0263189D01*
G75*
G02*
X0235728Y0263583I0000394J0000000D01*
G01*
G37*
G36*
G01*
X0235728Y0256102D02*
X0240650Y0256102D01*
G75*
G02*
X0241043Y0255709I0000000J-000394D01*
G01*
X0241043Y0252559D01*
G75*
G02*
X0240650Y0252165I-000394J0000000D01*
G01*
X0235728Y0252165D01*
G75*
G02*
X0235335Y0252559I0000000J0000394D01*
G01*
X0235335Y0255709D01*
G75*
G02*
X0235728Y0256102I0000394J0000000D01*
G01*
G37*
G36*
G01*
X0215256Y0263583D02*
X0220177Y0263583D01*
G75*
G02*
X0220571Y0263189I0000000J-000394D01*
G01*
X0220571Y0260039D01*
G75*
G02*
X0220177Y0259646I-000394J0000000D01*
G01*
X0215256Y0259646D01*
G75*
G02*
X0214862Y0260039I0000000J0000394D01*
G01*
X0214862Y0263189D01*
G75*
G02*
X0215256Y0263583I0000394J0000000D01*
G01*
G37*
G36*
G01*
X0215256Y0256102D02*
X0220177Y0256102D01*
G75*
G02*
X0220571Y0255709I0000000J-000394D01*
G01*
X0220571Y0252559D01*
G75*
G02*
X0220177Y0252165I-000394J0000000D01*
G01*
X0215256Y0252165D01*
G75*
G02*
X0214862Y0252559I0000000J0000394D01*
G01*
X0214862Y0255709D01*
G75*
G02*
X0215256Y0256102I0000394J0000000D01*
G01*
G37*
M02*
