G75*
G70*
%OFA0B0*%
%FSLAX25Y25*%
%IPPOS*%
%LPD*%
%AMOC8*
5,1,8,0,0,1.08239X$1,22.5*
%
%ADD10C,0.05906*%
%ADD11C,0.06000*%
%ADD12C,0.03150*%
%ADD13C,0.00787*%
%ADD14C,0.01969*%
%ADD15C,0.03937*%
X0000000Y0000000D02*
%LPD*%
G01*
D10*
X0304741Y0353214D03*
X0294899Y0353214D03*
X0285056Y0353214D03*
X0275214Y0353214D03*
X0265371Y0353214D03*
X0255529Y0353214D03*
X0245686Y0353214D03*
X0235844Y0353214D03*
X0226001Y0353214D03*
X0216159Y0353214D03*
X0206316Y0353214D03*
X0196473Y0353214D03*
X0304741Y0343372D03*
X0294899Y0343372D03*
X0285056Y0343372D03*
X0275214Y0343372D03*
X0265371Y0343372D03*
X0255529Y0343372D03*
X0245686Y0343372D03*
X0235844Y0343372D03*
X0226001Y0343372D03*
X0216159Y0343372D03*
X0206316Y0343372D03*
X0196473Y0343372D03*
X0304741Y0319750D03*
X0294899Y0319750D03*
X0285056Y0319750D03*
X0275214Y0319750D03*
X0265371Y0319750D03*
X0255529Y0319750D03*
X0245686Y0319750D03*
X0235844Y0319750D03*
X0226001Y0319750D03*
X0216159Y0319750D03*
X0206316Y0319750D03*
X0196473Y0319750D03*
X0304741Y0309907D03*
X0294899Y0309907D03*
X0285056Y0309907D03*
X0275214Y0309907D03*
X0265371Y0309907D03*
X0255529Y0309907D03*
X0245686Y0309907D03*
X0235844Y0309907D03*
X0226001Y0309907D03*
X0216159Y0309907D03*
X0206316Y0309907D03*
X0196473Y0309907D03*
X0302281Y0294159D03*
X0287517Y0294159D03*
X0272753Y0294159D03*
X0257989Y0294159D03*
X0243225Y0294159D03*
X0228462Y0294159D03*
X0213698Y0294159D03*
X0198934Y0294159D03*
X0143324Y0353214D03*
X0133481Y0353214D03*
X0123639Y0353214D03*
X0113796Y0353214D03*
X0103954Y0353214D03*
X0094111Y0353214D03*
X0084269Y0353214D03*
X0074426Y0353214D03*
X0064584Y0353214D03*
X0054741Y0353214D03*
X0044899Y0353214D03*
X0035056Y0353214D03*
X0143324Y0343372D03*
X0133481Y0343372D03*
X0123639Y0343372D03*
X0113796Y0343372D03*
X0103954Y0343372D03*
X0094111Y0343372D03*
X0084269Y0343372D03*
X0074426Y0343372D03*
X0064584Y0343372D03*
X0054741Y0343372D03*
X0044899Y0343372D03*
X0035056Y0343372D03*
X0143324Y0319750D03*
X0133481Y0319750D03*
X0123639Y0319750D03*
X0113796Y0319750D03*
X0103954Y0319750D03*
X0094111Y0319750D03*
X0084269Y0319750D03*
X0074426Y0319750D03*
X0064584Y0319750D03*
X0054741Y0319750D03*
X0044899Y0319750D03*
X0035056Y0319750D03*
X0143324Y0309907D03*
X0133481Y0309907D03*
X0123639Y0309907D03*
X0113796Y0309907D03*
X0103954Y0309907D03*
X0094111Y0309907D03*
X0084269Y0309907D03*
X0074426Y0309907D03*
X0064584Y0309907D03*
X0054741Y0309907D03*
X0044899Y0309907D03*
X0035056Y0309907D03*
X0140863Y0294159D03*
X0126099Y0294159D03*
X0111336Y0294159D03*
X0096572Y0294159D03*
X0081808Y0294159D03*
X0067044Y0294159D03*
X0052281Y0294159D03*
X0037517Y0294159D03*
D11*
X0131890Y0269311D03*
G36*
G01*
X0129429Y0267520D02*
X0134350Y0267520D01*
G75*
G02*
X0134744Y0267126I0000000J-000394D01*
G01*
X0134744Y0263976D01*
G75*
G02*
X0134350Y0263583I-000394J0000000D01*
G01*
X0129429Y0263583D01*
G75*
G02*
X0129035Y0263976I0000000J0000394D01*
G01*
X0129035Y0267126D01*
G75*
G02*
X0129429Y0267520I0000394J0000000D01*
G01*
G37*
G36*
G01*
X0129429Y0260039D02*
X0134350Y0260039D01*
G75*
G02*
X0134744Y0259646I0000000J-000394D01*
G01*
X0134744Y0256496D01*
G75*
G02*
X0134350Y0256102I-000394J0000000D01*
G01*
X0129429Y0256102D01*
G75*
G02*
X0129035Y0256496I0000000J0000394D01*
G01*
X0129035Y0259646D01*
G75*
G02*
X0129429Y0260039I0000394J0000000D01*
G01*
G37*
X0131890Y0254311D03*
X0032244Y0269685D03*
G36*
G01*
X0034035Y0267224D02*
X0034035Y0272146D01*
G75*
G02*
X0034429Y0272539I0000394J0000000D01*
G01*
X0037579Y0272539D01*
G75*
G02*
X0037972Y0272146I0000000J-000394D01*
G01*
X0037972Y0267224D01*
G75*
G02*
X0037579Y0266831I-000394J0000000D01*
G01*
X0034429Y0266831D01*
G75*
G02*
X0034035Y0267224I0000000J0000394D01*
G01*
G37*
G36*
G01*
X0041516Y0267224D02*
X0041516Y0272146D01*
G75*
G02*
X0041910Y0272539I0000394J0000000D01*
G01*
X0045059Y0272539D01*
G75*
G02*
X0045453Y0272146I0000000J-000394D01*
G01*
X0045453Y0267224D01*
G75*
G02*
X0045059Y0266831I-000394J0000000D01*
G01*
X0041910Y0266831D01*
G75*
G02*
X0041516Y0267224I0000000J0000394D01*
G01*
G37*
X0047244Y0269685D03*
X0124016Y0269311D03*
G36*
G01*
X0121555Y0267520D02*
X0126476Y0267520D01*
G75*
G02*
X0126870Y0267126I0000000J-000394D01*
G01*
X0126870Y0263976D01*
G75*
G02*
X0126476Y0263583I-000394J0000000D01*
G01*
X0121555Y0263583D01*
G75*
G02*
X0121161Y0263976I0000000J0000394D01*
G01*
X0121161Y0267126D01*
G75*
G02*
X0121555Y0267520I0000394J0000000D01*
G01*
G37*
G36*
G01*
X0121555Y0260039D02*
X0126476Y0260039D01*
G75*
G02*
X0126870Y0259646I0000000J-000394D01*
G01*
X0126870Y0256496D01*
G75*
G02*
X0126476Y0256102I-000394J0000000D01*
G01*
X0121555Y0256102D01*
G75*
G02*
X0121161Y0256496I0000000J0000394D01*
G01*
X0121161Y0259646D01*
G75*
G02*
X0121555Y0260039I0000394J0000000D01*
G01*
G37*
X0124016Y0254311D03*
X0086614Y0269311D03*
G36*
G01*
X0084154Y0267520D02*
X0089075Y0267520D01*
G75*
G02*
X0089469Y0267126I0000000J-000394D01*
G01*
X0089469Y0263976D01*
G75*
G02*
X0089075Y0263583I-000394J0000000D01*
G01*
X0084154Y0263583D01*
G75*
G02*
X0083760Y0263976I0000000J0000394D01*
G01*
X0083760Y0267126D01*
G75*
G02*
X0084154Y0267520I0000394J0000000D01*
G01*
G37*
G36*
G01*
X0084154Y0260039D02*
X0089075Y0260039D01*
G75*
G02*
X0089469Y0259646I0000000J-000394D01*
G01*
X0089469Y0256496D01*
G75*
G02*
X0089075Y0256102I-000394J0000000D01*
G01*
X0084154Y0256102D01*
G75*
G02*
X0083760Y0256496I0000000J0000394D01*
G01*
X0083760Y0259646D01*
G75*
G02*
X0084154Y0260039I0000394J0000000D01*
G01*
G37*
X0086614Y0254311D03*
X0208661Y0265551D03*
G36*
G01*
X0205118Y0260256D02*
X0205118Y0262972D01*
G75*
G02*
X0206024Y0263878I0000906J0000000D01*
G01*
X0211299Y0263878D01*
G75*
G02*
X0212205Y0262972I0000000J-000906D01*
G01*
X0212205Y0260256D01*
G75*
G02*
X0211299Y0259350I-000906J0000000D01*
G01*
X0206024Y0259350D01*
G75*
G02*
X0205118Y0260256I0000000J0000906D01*
G01*
G37*
G36*
G01*
X0205118Y0248839D02*
X0205118Y0251555D01*
G75*
G02*
X0206024Y0252461I0000906J0000000D01*
G01*
X0211299Y0252461D01*
G75*
G02*
X0212205Y0251555I0000000J-000906D01*
G01*
X0212205Y0248839D01*
G75*
G02*
X0211299Y0247933I-000906J0000000D01*
G01*
X0206024Y0247933D01*
G75*
G02*
X0205118Y0248839I0000000J0000906D01*
G01*
G37*
X0208661Y0246260D03*
X0111220Y0269311D03*
G36*
G01*
X0108760Y0267520D02*
X0113681Y0267520D01*
G75*
G02*
X0114075Y0267126I0000000J-000394D01*
G01*
X0114075Y0263976D01*
G75*
G02*
X0113681Y0263583I-000394J0000000D01*
G01*
X0108760Y0263583D01*
G75*
G02*
X0108366Y0263976I0000000J0000394D01*
G01*
X0108366Y0267126D01*
G75*
G02*
X0108760Y0267520I0000394J0000000D01*
G01*
G37*
G36*
G01*
X0108760Y0260039D02*
X0113681Y0260039D01*
G75*
G02*
X0114075Y0259646I0000000J-000394D01*
G01*
X0114075Y0256496D01*
G75*
G02*
X0113681Y0256102I-000394J0000000D01*
G01*
X0108760Y0256102D01*
G75*
G02*
X0108366Y0256496I0000000J0000394D01*
G01*
X0108366Y0259646D01*
G75*
G02*
X0108760Y0260039I0000394J0000000D01*
G01*
G37*
X0111220Y0254311D03*
X0269291Y0267520D03*
G36*
G01*
X0265748Y0262224D02*
X0265748Y0264941D01*
G75*
G02*
X0266654Y0265846I0000906J0000000D01*
G01*
X0271929Y0265846D01*
G75*
G02*
X0272835Y0264941I0000000J-000906D01*
G01*
X0272835Y0262224D01*
G75*
G02*
X0271929Y0261319I-000906J0000000D01*
G01*
X0266654Y0261319D01*
G75*
G02*
X0265748Y0262224I0000000J0000906D01*
G01*
G37*
G36*
G01*
X0265748Y0250807D02*
X0265748Y0253524D01*
G75*
G02*
X0266654Y0254429I0000906J0000000D01*
G01*
X0271929Y0254429D01*
G75*
G02*
X0272835Y0253524I0000000J-000906D01*
G01*
X0272835Y0250807D01*
G75*
G02*
X0271929Y0249902I-000906J0000000D01*
G01*
X0266654Y0249902D01*
G75*
G02*
X0265748Y0250807I0000000J0000906D01*
G01*
G37*
X0269291Y0248228D03*
X0198819Y0265551D03*
G36*
G01*
X0195276Y0260256D02*
X0195276Y0262972D01*
G75*
G02*
X0196181Y0263878I0000906J0000000D01*
G01*
X0201457Y0263878D01*
G75*
G02*
X0202362Y0262972I0000000J-000906D01*
G01*
X0202362Y0260256D01*
G75*
G02*
X0201457Y0259350I-000906J0000000D01*
G01*
X0196181Y0259350D01*
G75*
G02*
X0195276Y0260256I0000000J0000906D01*
G01*
G37*
G36*
G01*
X0195276Y0248839D02*
X0195276Y0251555D01*
G75*
G02*
X0196181Y0252461I0000906J0000000D01*
G01*
X0201457Y0252461D01*
G75*
G02*
X0202362Y0251555I0000000J-000906D01*
G01*
X0202362Y0248839D01*
G75*
G02*
X0201457Y0247933I-000906J0000000D01*
G01*
X0196181Y0247933D01*
G75*
G02*
X0195276Y0248839I0000000J0000906D01*
G01*
G37*
X0198819Y0246260D03*
X0251969Y0265374D03*
G36*
G01*
X0249508Y0263583D02*
X0254429Y0263583D01*
G75*
G02*
X0254823Y0263189I0000000J-000394D01*
G01*
X0254823Y0260039D01*
G75*
G02*
X0254429Y0259646I-000394J0000000D01*
G01*
X0249508Y0259646D01*
G75*
G02*
X0249114Y0260039I0000000J0000394D01*
G01*
X0249114Y0263189D01*
G75*
G02*
X0249508Y0263583I0000394J0000000D01*
G01*
G37*
G36*
G01*
X0249508Y0256102D02*
X0254429Y0256102D01*
G75*
G02*
X0254823Y0255709I0000000J-000394D01*
G01*
X0254823Y0252559D01*
G75*
G02*
X0254429Y0252165I-000394J0000000D01*
G01*
X0249508Y0252165D01*
G75*
G02*
X0249114Y0252559I0000000J0000394D01*
G01*
X0249114Y0255709D01*
G75*
G02*
X0249508Y0256102I0000394J0000000D01*
G01*
G37*
X0251969Y0250374D03*
X0147638Y0269311D03*
G36*
G01*
X0145177Y0267520D02*
X0150098Y0267520D01*
G75*
G02*
X0150492Y0267126I0000000J-000394D01*
G01*
X0150492Y0263976D01*
G75*
G02*
X0150098Y0263583I-000394J0000000D01*
G01*
X0145177Y0263583D01*
G75*
G02*
X0144783Y0263976I0000000J0000394D01*
G01*
X0144783Y0267126D01*
G75*
G02*
X0145177Y0267520I0000394J0000000D01*
G01*
G37*
G36*
G01*
X0145177Y0260039D02*
X0150098Y0260039D01*
G75*
G02*
X0150492Y0259646I0000000J-000394D01*
G01*
X0150492Y0256496D01*
G75*
G02*
X0150098Y0256102I-000394J0000000D01*
G01*
X0145177Y0256102D01*
G75*
G02*
X0144783Y0256496I0000000J0000394D01*
G01*
X0144783Y0259646D01*
G75*
G02*
X0145177Y0260039I0000394J0000000D01*
G01*
G37*
X0147638Y0254311D03*
X0303150Y0265374D03*
G36*
G01*
X0300689Y0263583D02*
X0305610Y0263583D01*
G75*
G02*
X0306004Y0263189I0000000J-000394D01*
G01*
X0306004Y0260039D01*
G75*
G02*
X0305610Y0259646I-000394J0000000D01*
G01*
X0300689Y0259646D01*
G75*
G02*
X0300295Y0260039I0000000J0000394D01*
G01*
X0300295Y0263189D01*
G75*
G02*
X0300689Y0263583I0000394J0000000D01*
G01*
G37*
G36*
G01*
X0300689Y0256102D02*
X0305610Y0256102D01*
G75*
G02*
X0306004Y0255709I0000000J-000394D01*
G01*
X0306004Y0252559D01*
G75*
G02*
X0305610Y0252165I-000394J0000000D01*
G01*
X0300689Y0252165D01*
G75*
G02*
X0300295Y0252559I0000000J0000394D01*
G01*
X0300295Y0255709D01*
G75*
G02*
X0300689Y0256102I0000394J0000000D01*
G01*
G37*
X0303150Y0250374D03*
X0281102Y0265374D03*
G36*
G01*
X0278642Y0263583D02*
X0283563Y0263583D01*
G75*
G02*
X0283957Y0263189I0000000J-000394D01*
G01*
X0283957Y0260039D01*
G75*
G02*
X0283563Y0259646I-000394J0000000D01*
G01*
X0278642Y0259646D01*
G75*
G02*
X0278248Y0260039I0000000J0000394D01*
G01*
X0278248Y0263189D01*
G75*
G02*
X0278642Y0263583I0000394J0000000D01*
G01*
G37*
G36*
G01*
X0278642Y0256102D02*
X0283563Y0256102D01*
G75*
G02*
X0283957Y0255709I0000000J-000394D01*
G01*
X0283957Y0252559D01*
G75*
G02*
X0283563Y0252165I-000394J0000000D01*
G01*
X0278642Y0252165D01*
G75*
G02*
X0278248Y0252559I0000000J0000394D01*
G01*
X0278248Y0255709D01*
G75*
G02*
X0278642Y0256102I0000394J0000000D01*
G01*
G37*
X0281102Y0250374D03*
X0288583Y0265374D03*
G36*
G01*
X0286122Y0263583D02*
X0291043Y0263583D01*
G75*
G02*
X0291437Y0263189I0000000J-000394D01*
G01*
X0291437Y0260039D01*
G75*
G02*
X0291043Y0259646I-000394J0000000D01*
G01*
X0286122Y0259646D01*
G75*
G02*
X0285728Y0260039I0000000J0000394D01*
G01*
X0285728Y0263189D01*
G75*
G02*
X0286122Y0263583I0000394J0000000D01*
G01*
G37*
G36*
G01*
X0286122Y0256102D02*
X0291043Y0256102D01*
G75*
G02*
X0291437Y0255709I0000000J-000394D01*
G01*
X0291437Y0252559D01*
G75*
G02*
X0291043Y0252165I-000394J0000000D01*
G01*
X0286122Y0252165D01*
G75*
G02*
X0285728Y0252559I0000000J0000394D01*
G01*
X0285728Y0255709D01*
G75*
G02*
X0286122Y0256102I0000394J0000000D01*
G01*
G37*
X0288583Y0250374D03*
X0139764Y0269311D03*
G36*
G01*
X0137303Y0267520D02*
X0142224Y0267520D01*
G75*
G02*
X0142618Y0267126I0000000J-000394D01*
G01*
X0142618Y0263976D01*
G75*
G02*
X0142224Y0263583I-000394J0000000D01*
G01*
X0137303Y0263583D01*
G75*
G02*
X0136909Y0263976I0000000J0000394D01*
G01*
X0136909Y0267126D01*
G75*
G02*
X0137303Y0267520I0000394J0000000D01*
G01*
G37*
G36*
G01*
X0137303Y0260039D02*
X0142224Y0260039D01*
G75*
G02*
X0142618Y0259646I0000000J-000394D01*
G01*
X0142618Y0256496D01*
G75*
G02*
X0142224Y0256102I-000394J0000000D01*
G01*
X0137303Y0256102D01*
G75*
G02*
X0136909Y0256496I0000000J0000394D01*
G01*
X0136909Y0259646D01*
G75*
G02*
X0137303Y0260039I0000394J0000000D01*
G01*
G37*
X0139764Y0254311D03*
X0295669Y0265374D03*
G36*
G01*
X0293209Y0263583D02*
X0298130Y0263583D01*
G75*
G02*
X0298524Y0263189I0000000J-000394D01*
G01*
X0298524Y0260039D01*
G75*
G02*
X0298130Y0259646I-000394J0000000D01*
G01*
X0293209Y0259646D01*
G75*
G02*
X0292815Y0260039I0000000J0000394D01*
G01*
X0292815Y0263189D01*
G75*
G02*
X0293209Y0263583I0000394J0000000D01*
G01*
G37*
G36*
G01*
X0293209Y0256102D02*
X0298130Y0256102D01*
G75*
G02*
X0298524Y0255709I0000000J-000394D01*
G01*
X0298524Y0252559D01*
G75*
G02*
X0298130Y0252165I-000394J0000000D01*
G01*
X0293209Y0252165D01*
G75*
G02*
X0292815Y0252559I0000000J0000394D01*
G01*
X0292815Y0255709D01*
G75*
G02*
X0293209Y0256102I0000394J0000000D01*
G01*
G37*
X0295669Y0250374D03*
X0096457Y0269311D03*
G36*
G01*
X0093996Y0267520D02*
X0098917Y0267520D01*
G75*
G02*
X0099311Y0267126I0000000J-000394D01*
G01*
X0099311Y0263976D01*
G75*
G02*
X0098917Y0263583I-000394J0000000D01*
G01*
X0093996Y0263583D01*
G75*
G02*
X0093602Y0263976I0000000J0000394D01*
G01*
X0093602Y0267126D01*
G75*
G02*
X0093996Y0267520I0000394J0000000D01*
G01*
G37*
G36*
G01*
X0093996Y0260039D02*
X0098917Y0260039D01*
G75*
G02*
X0099311Y0259646I0000000J-000394D01*
G01*
X0099311Y0256496D01*
G75*
G02*
X0098917Y0256102I-000394J0000000D01*
G01*
X0093996Y0256102D01*
G75*
G02*
X0093602Y0256496I0000000J0000394D01*
G01*
X0093602Y0259646D01*
G75*
G02*
X0093996Y0260039I0000394J0000000D01*
G01*
G37*
X0096457Y0254311D03*
X0227559Y0265374D03*
G36*
G01*
X0225098Y0263583D02*
X0230020Y0263583D01*
G75*
G02*
X0230413Y0263189I0000000J-000394D01*
G01*
X0230413Y0260039D01*
G75*
G02*
X0230020Y0259646I-000394J0000000D01*
G01*
X0225098Y0259646D01*
G75*
G02*
X0224705Y0260039I0000000J0000394D01*
G01*
X0224705Y0263189D01*
G75*
G02*
X0225098Y0263583I0000394J0000000D01*
G01*
G37*
G36*
G01*
X0225098Y0256102D02*
X0230020Y0256102D01*
G75*
G02*
X0230413Y0255709I0000000J-000394D01*
G01*
X0230413Y0252559D01*
G75*
G02*
X0230020Y0252165I-000394J0000000D01*
G01*
X0225098Y0252165D01*
G75*
G02*
X0224705Y0252559I0000000J0000394D01*
G01*
X0224705Y0255709D01*
G75*
G02*
X0225098Y0256102I0000394J0000000D01*
G01*
G37*
X0227559Y0250374D03*
X0238189Y0265374D03*
G36*
G01*
X0235728Y0263583D02*
X0240650Y0263583D01*
G75*
G02*
X0241043Y0263189I0000000J-000394D01*
G01*
X0241043Y0260039D01*
G75*
G02*
X0240650Y0259646I-000394J0000000D01*
G01*
X0235728Y0259646D01*
G75*
G02*
X0235335Y0260039I0000000J0000394D01*
G01*
X0235335Y0263189D01*
G75*
G02*
X0235728Y0263583I0000394J0000000D01*
G01*
G37*
G36*
G01*
X0235728Y0256102D02*
X0240650Y0256102D01*
G75*
G02*
X0241043Y0255709I0000000J-000394D01*
G01*
X0241043Y0252559D01*
G75*
G02*
X0240650Y0252165I-000394J0000000D01*
G01*
X0235728Y0252165D01*
G75*
G02*
X0235335Y0252559I0000000J0000394D01*
G01*
X0235335Y0255709D01*
G75*
G02*
X0235728Y0256102I0000394J0000000D01*
G01*
G37*
X0238189Y0250374D03*
X0217717Y0265374D03*
G36*
G01*
X0215256Y0263583D02*
X0220177Y0263583D01*
G75*
G02*
X0220571Y0263189I0000000J-000394D01*
G01*
X0220571Y0260039D01*
G75*
G02*
X0220177Y0259646I-000394J0000000D01*
G01*
X0215256Y0259646D01*
G75*
G02*
X0214862Y0260039I0000000J0000394D01*
G01*
X0214862Y0263189D01*
G75*
G02*
X0215256Y0263583I0000394J0000000D01*
G01*
G37*
G36*
G01*
X0215256Y0256102D02*
X0220177Y0256102D01*
G75*
G02*
X0220571Y0255709I0000000J-000394D01*
G01*
X0220571Y0252559D01*
G75*
G02*
X0220177Y0252165I-000394J0000000D01*
G01*
X0215256Y0252165D01*
G75*
G02*
X0214862Y0252559I0000000J0000394D01*
G01*
X0214862Y0255709D01*
G75*
G02*
X0215256Y0256102I0000394J0000000D01*
G01*
G37*
X0217717Y0250374D03*
X0287756Y0279528D03*
X0302756Y0279528D03*
D12*
X0166104Y0303409D03*
X0158825Y0287611D03*
X0173225Y0322835D03*
X0176629Y0277079D03*
X0022835Y0314961D03*
X0181848Y0303408D03*
X0188976Y0277559D03*
X0135039Y0325591D03*
X0172043Y0293536D03*
X0182244Y0260690D03*
X0176025Y0355118D03*
X0177356Y0303222D03*
X0211451Y0257191D03*
X0162205Y0303543D03*
X0302891Y0288740D03*
X0234843Y0324803D03*
X0156496Y0255003D03*
X0265752Y0324852D03*
X0267717Y0314961D03*
X0303346Y0303150D03*
X0240945Y0303543D03*
X0181841Y0340815D03*
X0157781Y0327948D03*
X0169675Y0328125D03*
X0163729Y0328042D03*
X0185036Y0322835D03*
X0179134Y0334646D03*
X0108268Y0377165D03*
X0124409Y0302362D03*
X0112205Y0301575D03*
X0285827Y0376772D03*
X0103937Y0276378D03*
X0161417Y0334646D03*
X0035039Y0374409D03*
X0162598Y0377165D03*
X0155512Y0334646D03*
X0078983Y0260387D03*
X0294094Y0271654D03*
X0074803Y0300787D03*
X0162267Y0282281D03*
X0091339Y0301969D03*
X0056299Y0329921D03*
X0044882Y0332677D03*
X0210236Y0335433D03*
X0185816Y0295118D03*
X0171260Y0285433D03*
X0227165Y0331890D03*
X0181199Y0282354D03*
X0170472Y0257874D03*
X0302362Y0272441D03*
X0167323Y0334646D03*
X0075984Y0375984D03*
X0188976Y0299606D03*
X0262598Y0332283D03*
X0179709Y0295206D03*
X0138976Y0278346D03*
X0114173Y0333858D03*
X0144488Y0331496D03*
X0127165Y0333858D03*
X0334646Y0289764D03*
X0055906Y0302756D03*
X0251480Y0377073D03*
X0172047Y0264961D03*
X0078740Y0266535D03*
X0029528Y0331496D03*
X0201181Y0377559D03*
X0020472Y0352362D03*
X0259261Y0240097D03*
X0173228Y0334646D03*
X0331952Y0340020D03*
X0310629Y0375499D03*
X0030709Y0301969D03*
X0331102Y0317717D03*
X0070866Y0333465D03*
X0302362Y0285039D03*
X0191339Y0261811D03*
X0297244Y0241339D03*
X0164743Y0294563D03*
X0295669Y0330709D03*
X0304724Y0332283D03*
X0206299Y0301181D03*
X0144094Y0301575D03*
X0185039Y0334646D03*
X0082283Y0277559D03*
X0177165Y0268110D03*
X0281496Y0241339D03*
X0290945Y0306299D03*
X0134250Y0249677D03*
X0245276Y0242911D03*
X0324116Y0242097D03*
X0324260Y0248031D03*
X0165905Y0271457D03*
X0166732Y0266339D03*
X0166142Y0276575D03*
X0173810Y0279536D03*
X0175032Y0273696D03*
D13*
X0188976Y0277559D02*
X0188480Y0277062D01*
X0176645Y0277062D02*
X0176629Y0277079D01*
X0188480Y0277062D02*
X0176645Y0277062D01*
X0181328Y0303408D02*
X0172043Y0294123D01*
X0181848Y0303408D02*
X0181328Y0303408D01*
X0172043Y0294123D02*
X0172043Y0293536D01*
X0166104Y0303409D02*
X0158825Y0296130D01*
X0158825Y0296130D02*
X0158825Y0287611D01*
X0285056Y0319750D02*
X0279528Y0314221D01*
X0279528Y0314221D02*
X0279528Y0308654D01*
X0282719Y0245079D02*
X0284449Y0243349D01*
X0277118Y0248711D02*
X0280751Y0245079D01*
X0280751Y0245079D02*
X0282719Y0245079D01*
X0284449Y0243349D02*
X0284449Y0240116D01*
X0284449Y0240116D02*
X0280512Y0236179D01*
X0279528Y0308654D02*
X0277118Y0306244D01*
X0277118Y0306244D02*
X0277118Y0248711D01*
X0060647Y0347309D02*
X0054741Y0353214D01*
X0307283Y0275000D02*
X0307283Y0258268D01*
X0302756Y0279528D02*
X0307283Y0275000D01*
X0156496Y0254194D02*
X0156496Y0255003D01*
X0060647Y0283088D02*
X0060647Y0347309D01*
X0303150Y0254134D02*
X0288583Y0254134D01*
X0140256Y0242660D02*
X0144249Y0246654D01*
X0047244Y0269685D02*
X0060647Y0283088D01*
X0148956Y0246654D02*
X0156496Y0254194D01*
X0307283Y0258268D02*
X0303150Y0254134D01*
X0144249Y0246654D02*
X0148956Y0246654D01*
X0131102Y0253524D02*
X0131890Y0254311D01*
D14*
X0309269Y0348687D02*
X0304741Y0353214D01*
X0309269Y0238127D02*
X0309269Y0348687D01*
X0312205Y0234686D02*
X0312205Y0352154D01*
X0306617Y0357742D02*
X0299426Y0357742D01*
X0299426Y0357742D02*
X0294899Y0353214D01*
X0312205Y0352154D02*
X0306617Y0357742D01*
D13*
X0202379Y0339435D02*
X0183220Y0339435D01*
X0206316Y0343372D02*
X0202379Y0339435D01*
X0183220Y0339435D02*
X0181841Y0340815D01*
X0157781Y0327948D02*
X0160660Y0330827D01*
X0160660Y0330827D02*
X0205082Y0330827D01*
X0205082Y0330827D02*
X0216159Y0319750D01*
X0169675Y0328125D02*
X0169986Y0327814D01*
X0198252Y0327814D02*
X0206316Y0319750D01*
X0169986Y0327814D02*
X0198252Y0327814D01*
X0190830Y0325394D02*
X0196473Y0319750D01*
X0166516Y0325255D02*
X0170563Y0325255D01*
X0170702Y0325394D02*
X0190830Y0325394D01*
X0170563Y0325255D02*
X0170702Y0325394D01*
X0163729Y0328042D02*
X0166516Y0325255D01*
X0202379Y0313844D02*
X0194026Y0313844D01*
X0194026Y0313844D02*
X0185036Y0322835D01*
X0206316Y0309907D02*
X0202379Y0313844D01*
D14*
X0270686Y0316445D02*
X0270686Y0338844D01*
X0270686Y0338844D02*
X0275214Y0343372D01*
X0270686Y0313476D02*
X0270866Y0313656D01*
X0269291Y0267520D02*
X0266685Y0270126D01*
X0270866Y0316265D02*
X0270686Y0316445D01*
X0270686Y0308088D02*
X0270686Y0313476D01*
X0270866Y0313656D02*
X0270866Y0316265D01*
X0266685Y0304087D02*
X0270686Y0308088D01*
X0266685Y0270126D02*
X0266685Y0304087D01*
X0307677Y0360301D02*
X0066994Y0360301D01*
X0066929Y0360236D02*
X0055118Y0360236D01*
X0314961Y0353017D02*
X0307677Y0360301D01*
X0049426Y0354544D02*
X0049426Y0324277D01*
X0314961Y0237008D02*
X0314961Y0353017D01*
X0066994Y0360301D02*
X0066929Y0360236D01*
X0049426Y0324277D02*
X0044899Y0319750D01*
X0055118Y0360236D02*
X0049426Y0354544D01*
D15*
X0208661Y0289123D02*
X0213698Y0294159D01*
X0208661Y0265551D02*
X0208661Y0289123D01*
D13*
X0250607Y0358136D02*
X0118718Y0358136D01*
X0119702Y0347309D02*
X0113796Y0353214D01*
X0255529Y0353214D02*
X0250607Y0358136D01*
X0255529Y0353214D02*
X0285056Y0353214D01*
X0119702Y0258625D02*
X0119702Y0347309D01*
X0124016Y0254311D02*
X0119702Y0258625D01*
X0118718Y0358136D02*
X0113796Y0353214D01*
X0113796Y0353214D02*
X0074426Y0353214D01*
D15*
X0198819Y0294044D02*
X0198934Y0294159D01*
X0198819Y0265551D02*
X0198819Y0294044D01*
D14*
X0040371Y0355877D02*
X0040371Y0317087D01*
X0050214Y0314435D02*
X0054741Y0309907D01*
X0048667Y0364173D02*
X0040371Y0355877D01*
X0040371Y0317087D02*
X0043023Y0314435D01*
X0043023Y0314435D02*
X0050214Y0314435D01*
X0307423Y0364173D02*
X0048667Y0364173D01*
X0317717Y0238976D02*
X0317717Y0353880D01*
X0317717Y0353880D02*
X0307423Y0364173D01*
D13*
X0249623Y0267719D02*
X0249623Y0349277D01*
X0251969Y0265374D02*
X0249623Y0267719D01*
X0249623Y0349277D02*
X0245686Y0353214D01*
D15*
X0265170Y0244488D02*
X0268319Y0241339D01*
X0261752Y0244488D02*
X0265170Y0244488D01*
X0214469Y0238484D02*
X0214469Y0240453D01*
X0268319Y0241339D02*
X0281496Y0241339D01*
X0244496Y0248819D02*
X0245662Y0248819D01*
X0208661Y0246260D02*
X0198819Y0246260D01*
X0214469Y0238484D02*
X0220799Y0244815D01*
X0198819Y0246260D02*
X0195819Y0249260D01*
X0245662Y0248819D02*
X0249993Y0244488D01*
X0195819Y0249260D02*
X0193020Y0249260D01*
X0256359Y0244488D02*
X0257343Y0245472D01*
X0240492Y0244815D02*
X0244496Y0248819D01*
X0220799Y0244815D02*
X0240492Y0244815D01*
X0260767Y0245472D02*
X0261752Y0244488D01*
X0257343Y0245472D02*
X0260767Y0245472D01*
X0249993Y0244488D02*
X0256359Y0244488D01*
X0214469Y0240453D02*
X0208661Y0246260D01*
D13*
X0238189Y0301994D02*
X0231907Y0308277D01*
X0238189Y0265374D02*
X0238189Y0301994D01*
X0231907Y0349277D02*
X0235844Y0353214D01*
X0231907Y0308277D02*
X0231907Y0349277D01*
X0210253Y0342897D02*
X0210253Y0349277D01*
X0217717Y0265374D02*
X0220686Y0268344D01*
X0220686Y0332464D02*
X0210253Y0342897D01*
X0220686Y0268344D02*
X0220686Y0332464D01*
X0210253Y0349277D02*
X0206316Y0353214D01*
X0291732Y0305512D02*
X0290945Y0306299D01*
X0291732Y0283504D02*
X0291732Y0296850D01*
X0287756Y0279528D02*
X0291732Y0283504D01*
X0291732Y0296850D02*
X0291732Y0305512D01*
X0286687Y0315813D02*
X0288993Y0318119D01*
X0288993Y0337466D02*
X0294899Y0343372D01*
X0288993Y0318119D02*
X0288993Y0337466D01*
X0285394Y0315813D02*
X0286687Y0315813D01*
X0281102Y0311521D02*
X0285394Y0315813D01*
X0281102Y0265374D02*
X0281102Y0311521D01*
X0222064Y0269688D02*
X0222064Y0339435D01*
X0226378Y0265374D02*
X0222064Y0269688D01*
X0222064Y0339435D02*
X0226001Y0343372D01*
X0298344Y0270180D02*
X0298344Y0302281D01*
X0303150Y0265374D02*
X0298344Y0270180D01*
X0300804Y0315813D02*
X0304741Y0319750D01*
X0300804Y0304741D02*
X0300804Y0315813D01*
X0298344Y0302281D02*
X0300804Y0304741D01*
X0296966Y0266670D02*
X0296966Y0302871D01*
X0295669Y0265374D02*
X0296966Y0266670D01*
X0296966Y0302871D02*
X0299213Y0305118D01*
X0299213Y0305118D02*
X0299213Y0315436D01*
X0299213Y0315436D02*
X0294899Y0319750D01*
X0294899Y0276755D02*
X0294899Y0309907D01*
X0288583Y0265374D02*
X0288583Y0270439D01*
X0288583Y0270439D02*
X0294899Y0276755D01*
X0132480Y0247908D02*
X0134250Y0249677D01*
X0068898Y0299266D02*
X0068898Y0315436D01*
X0068898Y0315436D02*
X0064584Y0319750D01*
X0086614Y0281549D02*
X0068898Y0299266D01*
X0086614Y0269311D02*
X0086614Y0281549D01*
X0131890Y0298473D02*
X0143324Y0309907D01*
X0131890Y0269311D02*
X0131890Y0298473D01*
X0130512Y0306938D02*
X0133481Y0309907D01*
X0124016Y0269311D02*
X0130512Y0275807D01*
X0130512Y0275807D02*
X0130512Y0306938D01*
D15*
X0111220Y0294044D02*
X0111336Y0294159D01*
X0111220Y0269311D02*
X0111220Y0294044D01*
X0096457Y0269311D02*
X0096457Y0294044D01*
X0096457Y0294044D02*
X0096572Y0294159D01*
D13*
X0148385Y0248031D02*
X0153937Y0253584D01*
X0140965Y0248031D02*
X0148385Y0248031D01*
X0153937Y0257087D02*
X0163189Y0266339D01*
X0134252Y0241319D02*
X0140965Y0248031D01*
X0163189Y0266339D02*
X0166732Y0266339D01*
X0153937Y0253584D02*
X0153937Y0257087D01*
X0150638Y0345901D02*
X0143324Y0353214D01*
X0150638Y0272311D02*
X0150638Y0345901D01*
X0147638Y0269311D02*
X0150638Y0272311D01*
X0139764Y0269311D02*
X0148245Y0277792D01*
X0148245Y0338451D02*
X0143324Y0343372D01*
X0148245Y0277792D02*
X0148245Y0338451D01*
M02*
