G75*
G70*
%OFA0B0*%
%FSLAX25Y25*%
%IPPOS*%
%LPD*%
%AMOC8*
5,1,8,0,0,1.08239X$1,22.5*
%
%ADD10C,0.05906*%
%ADD11C,0.06000*%
%ADD12C,0.03150*%
%ADD13C,0.00787*%
%ADD14C,0.01969*%
%ADD15C,0.03937*%
%ADD18C,0.00591*%
X0000000Y0000000D02*
%LPD*%
G01*
D13*
X0293307Y0043307D02*
X0293307Y0011811D01*
X0293307Y0011811D02*
X0303150Y0011811D01*
X0301181Y0043307D02*
X0293307Y0043307D01*
X0303150Y0031496D02*
X0309055Y0031496D01*
X0303150Y0011811D02*
X0303150Y0031496D01*
X0309055Y0037402D02*
X0309055Y0031496D01*
X0309055Y0037402D02*
G75*
G02*
X0301181Y0043307I-000309J0007791D01*
G01*
D10*
X0304741Y0353214D03*
X0294899Y0353214D03*
X0285056Y0353214D03*
X0275214Y0353214D03*
X0265371Y0353214D03*
X0255529Y0353214D03*
X0245686Y0353214D03*
X0235844Y0353214D03*
X0226001Y0353214D03*
X0216159Y0353214D03*
X0206316Y0353214D03*
X0196473Y0353214D03*
X0304741Y0343372D03*
X0294899Y0343372D03*
X0285056Y0343372D03*
X0275214Y0343372D03*
X0265371Y0343372D03*
X0255529Y0343372D03*
X0245686Y0343372D03*
X0235844Y0343372D03*
X0226001Y0343372D03*
X0216159Y0343372D03*
X0206316Y0343372D03*
X0196473Y0343372D03*
X0304741Y0319750D03*
X0294899Y0319750D03*
X0285056Y0319750D03*
X0275214Y0319750D03*
X0265371Y0319750D03*
X0255529Y0319750D03*
X0245686Y0319750D03*
X0235844Y0319750D03*
X0226001Y0319750D03*
X0216159Y0319750D03*
X0206316Y0319750D03*
X0196473Y0319750D03*
X0304741Y0309907D03*
X0294899Y0309907D03*
X0285056Y0309907D03*
X0275214Y0309907D03*
X0265371Y0309907D03*
X0255529Y0309907D03*
X0245686Y0309907D03*
X0235844Y0309907D03*
X0226001Y0309907D03*
X0216159Y0309907D03*
X0206316Y0309907D03*
X0196473Y0309907D03*
X0302281Y0294159D03*
X0287517Y0294159D03*
X0272753Y0294159D03*
X0257989Y0294159D03*
X0243225Y0294159D03*
X0228462Y0294159D03*
X0213698Y0294159D03*
X0198934Y0294159D03*
X0143324Y0353214D03*
X0133481Y0353214D03*
X0123639Y0353214D03*
X0113796Y0353214D03*
X0103954Y0353214D03*
X0094111Y0353214D03*
X0084269Y0353214D03*
X0074426Y0353214D03*
X0064584Y0353214D03*
X0054741Y0353214D03*
X0044899Y0353214D03*
X0035056Y0353214D03*
X0143324Y0343372D03*
X0133481Y0343372D03*
X0123639Y0343372D03*
X0113796Y0343372D03*
X0103954Y0343372D03*
X0094111Y0343372D03*
X0084269Y0343372D03*
X0074426Y0343372D03*
X0064584Y0343372D03*
X0054741Y0343372D03*
X0044899Y0343372D03*
X0035056Y0343372D03*
X0143324Y0319750D03*
X0133481Y0319750D03*
X0123639Y0319750D03*
X0113796Y0319750D03*
X0103954Y0319750D03*
X0094111Y0319750D03*
X0084269Y0319750D03*
X0074426Y0319750D03*
X0064584Y0319750D03*
X0054741Y0319750D03*
X0044899Y0319750D03*
X0035056Y0319750D03*
X0143324Y0309907D03*
X0133481Y0309907D03*
X0123639Y0309907D03*
X0113796Y0309907D03*
X0103954Y0309907D03*
X0094111Y0309907D03*
X0084269Y0309907D03*
X0074426Y0309907D03*
X0064584Y0309907D03*
X0054741Y0309907D03*
X0044899Y0309907D03*
X0035056Y0309907D03*
X0140863Y0294159D03*
X0126099Y0294159D03*
X0111336Y0294159D03*
X0096572Y0294159D03*
X0081808Y0294159D03*
X0067044Y0294159D03*
X0052281Y0294159D03*
X0037517Y0294159D03*
D11*
X0131890Y0269311D03*
X0131890Y0254311D03*
X0032244Y0269685D03*
X0047244Y0269685D03*
X0124016Y0269311D03*
X0124016Y0254311D03*
X0086614Y0269311D03*
X0086614Y0254311D03*
X0208661Y0265551D03*
X0208661Y0246260D03*
X0111220Y0269311D03*
X0111220Y0254311D03*
X0269291Y0267520D03*
X0269291Y0248228D03*
X0198819Y0265551D03*
X0198819Y0246260D03*
X0251969Y0265374D03*
X0251969Y0250374D03*
X0147638Y0269311D03*
X0147638Y0254311D03*
X0303150Y0265374D03*
X0303150Y0250374D03*
X0281102Y0265374D03*
X0281102Y0250374D03*
X0288583Y0265374D03*
X0288583Y0250374D03*
X0139764Y0269311D03*
X0139764Y0254311D03*
X0295669Y0265374D03*
X0295669Y0250374D03*
X0096457Y0269311D03*
X0096457Y0254311D03*
X0227559Y0265374D03*
X0227559Y0250374D03*
X0238189Y0265374D03*
X0238189Y0250374D03*
X0217717Y0265374D03*
X0217717Y0250374D03*
X0287756Y0279528D03*
G36*
G01*
X0289547Y0277067D02*
X0289547Y0281988D01*
G75*
G02*
X0289941Y0282382I0000394J0000000D01*
G01*
X0293091Y0282382D01*
G75*
G02*
X0293484Y0281988I0000000J-000394D01*
G01*
X0293484Y0277067D01*
G75*
G02*
X0293091Y0276673I-000394J0000000D01*
G01*
X0289941Y0276673D01*
G75*
G02*
X0289547Y0277067I0000000J0000394D01*
G01*
G37*
G36*
G01*
X0297028Y0277067D02*
X0297028Y0281988D01*
G75*
G02*
X0297421Y0282382I0000394J0000000D01*
G01*
X0300571Y0282382D01*
G75*
G02*
X0300965Y0281988I0000000J-000394D01*
G01*
X0300965Y0277067D01*
G75*
G02*
X0300571Y0276673I-000394J0000000D01*
G01*
X0297421Y0276673D01*
G75*
G02*
X0297028Y0277067I0000000J0000394D01*
G01*
G37*
X0302756Y0279528D03*
D12*
X0166104Y0303409D03*
X0158825Y0287611D03*
X0173225Y0322835D03*
X0176629Y0277079D03*
X0022835Y0314961D03*
X0181848Y0303408D03*
X0188976Y0277559D03*
X0135039Y0325591D03*
X0172043Y0293536D03*
X0182244Y0260690D03*
X0176025Y0355118D03*
X0177356Y0303222D03*
X0211451Y0257191D03*
X0162205Y0303543D03*
X0302891Y0288740D03*
X0234843Y0324803D03*
X0156496Y0255003D03*
X0265752Y0324852D03*
X0267717Y0314961D03*
X0303346Y0303150D03*
X0240945Y0303543D03*
X0181841Y0340815D03*
X0157781Y0327948D03*
X0169675Y0328125D03*
X0163729Y0328042D03*
X0185036Y0322835D03*
X0179134Y0334646D03*
X0108268Y0377165D03*
X0124409Y0302362D03*
X0112205Y0301575D03*
X0285827Y0376772D03*
X0103937Y0276378D03*
X0161417Y0334646D03*
X0035039Y0374409D03*
X0162598Y0377165D03*
X0155512Y0334646D03*
X0078983Y0260387D03*
X0294094Y0271654D03*
X0074803Y0300787D03*
X0162267Y0282281D03*
X0091339Y0301969D03*
X0056299Y0329921D03*
X0044882Y0332677D03*
X0210236Y0335433D03*
X0185816Y0295118D03*
X0171260Y0285433D03*
X0227165Y0331890D03*
X0181199Y0282354D03*
X0170472Y0257874D03*
X0302362Y0272441D03*
X0167323Y0334646D03*
X0075984Y0375984D03*
X0188976Y0299606D03*
X0262598Y0332283D03*
X0179709Y0295206D03*
X0138976Y0278346D03*
X0114173Y0333858D03*
X0144488Y0331496D03*
X0127165Y0333858D03*
X0334646Y0289764D03*
X0055906Y0302756D03*
X0251480Y0377073D03*
X0172047Y0264961D03*
X0078740Y0266535D03*
X0029528Y0331496D03*
X0201181Y0377559D03*
X0020472Y0352362D03*
X0259261Y0240097D03*
X0173228Y0334646D03*
X0331952Y0340020D03*
X0310629Y0375499D03*
X0030709Y0301969D03*
X0331102Y0317717D03*
X0070866Y0333465D03*
X0302362Y0285039D03*
X0191339Y0261811D03*
X0297244Y0241339D03*
X0164743Y0294563D03*
X0295669Y0330709D03*
X0304724Y0332283D03*
X0206299Y0301181D03*
X0144094Y0301575D03*
X0185039Y0334646D03*
X0082283Y0277559D03*
X0177165Y0268110D03*
X0281496Y0241339D03*
X0290945Y0306299D03*
X0134250Y0249677D03*
X0245276Y0242911D03*
X0324116Y0242097D03*
X0324260Y0248031D03*
X0165905Y0271457D03*
X0166732Y0266339D03*
X0166142Y0276575D03*
X0173810Y0279536D03*
X0175032Y0273696D03*
D13*
X0174083Y0291496D02*
X0172043Y0293536D01*
X0179961Y0289975D02*
X0183524Y0286412D01*
X0167126Y0309252D02*
X0162598Y0313780D01*
X0182874Y0304434D02*
X0182874Y0307628D01*
X0158516Y0287611D02*
X0158825Y0287611D01*
X0186417Y0268130D02*
X0184823Y0266535D01*
X0168701Y0270633D02*
X0168701Y0279082D01*
X0156339Y0291339D02*
X0156339Y0295364D01*
X0186181Y0285704D02*
X0186181Y0285433D01*
X0166965Y0268898D02*
X0168701Y0270633D01*
X0175394Y0307628D02*
X0173228Y0305463D01*
X0167323Y0313780D02*
X0169291Y0311811D01*
X0153681Y0267992D02*
X0157697Y0263976D01*
X0186181Y0285433D02*
X0186181Y0285704D01*
X0155512Y0313780D02*
X0155512Y0302805D01*
X0182874Y0289011D02*
X0184761Y0287123D01*
X0173228Y0305463D02*
X0173228Y0296001D01*
X0171251Y0280616D02*
X0171251Y0273798D01*
X0022835Y0314961D02*
X0124417Y0314961D01*
X0169291Y0311811D02*
X0169291Y0300837D01*
X0156339Y0291339D02*
X0153681Y0288681D01*
X0173912Y0271137D02*
X0182012Y0271137D01*
X0174213Y0291496D02*
X0176890Y0288819D01*
X0173225Y0343701D02*
X0176138Y0340788D01*
X0128740Y0319283D02*
X0128740Y0320576D01*
X0182874Y0310039D02*
X0182874Y0307628D01*
X0167126Y0298671D02*
X0168307Y0297490D01*
X0157697Y0263976D02*
X0159990Y0263976D01*
X0176890Y0288819D02*
X0176890Y0283264D01*
X0153681Y0288681D02*
X0153681Y0267992D01*
X0173228Y0349213D02*
X0173228Y0343705D01*
X0176138Y0340788D02*
X0176138Y0328543D01*
X0185039Y0300837D02*
X0182874Y0298671D01*
X0175731Y0282106D02*
X0172740Y0282106D01*
X0173225Y0325630D02*
X0173225Y0322835D01*
X0188976Y0282638D02*
X0188976Y0277559D01*
X0174213Y0291496D02*
X0174083Y0291496D01*
X0160187Y0268898D02*
X0166965Y0268898D01*
X0173228Y0343705D02*
X0173225Y0343701D01*
X0159990Y0269094D02*
X0160187Y0268898D01*
X0177146Y0294154D02*
X0179961Y0291339D01*
X0171251Y0273798D02*
X0173912Y0271137D01*
X0182530Y0276772D02*
X0176936Y0276772D01*
X0165354Y0282429D02*
X0165354Y0288543D01*
X0184823Y0266535D02*
X0182530Y0266535D01*
X0172740Y0282106D02*
X0171251Y0280616D01*
X0186181Y0285704D02*
X0184761Y0287123D01*
X0156102Y0285197D02*
X0156102Y0275807D01*
X0182874Y0298671D02*
X0182874Y0289011D01*
X0156339Y0295364D02*
X0159646Y0298671D01*
X0173228Y0309793D02*
X0175394Y0307628D01*
X0186417Y0280654D02*
X0186417Y0268130D01*
X0173228Y0296001D02*
X0175076Y0294154D01*
X0128740Y0320576D02*
X0133754Y0325591D01*
X0186181Y0285433D02*
X0188976Y0282638D01*
X0169291Y0300837D02*
X0167126Y0298671D01*
X0166104Y0303409D02*
X0167126Y0304431D01*
X0179134Y0313780D02*
X0182874Y0310039D01*
X0176890Y0283264D02*
X0175731Y0282106D01*
X0183524Y0286412D02*
X0183524Y0283548D01*
X0167126Y0307628D02*
X0167126Y0309252D01*
X0173228Y0313780D02*
X0173228Y0309793D01*
X0165354Y0288543D02*
X0168307Y0291496D01*
X0183524Y0283548D02*
X0186417Y0280654D01*
X0184761Y0287123D02*
X0186181Y0285704D01*
X0156339Y0285433D02*
X0158516Y0287611D01*
X0155512Y0302805D02*
X0159646Y0298671D01*
X0173225Y0322835D02*
X0173225Y0320079D01*
X0182012Y0271137D02*
X0182530Y0271654D01*
X0176138Y0328543D02*
X0173225Y0325630D01*
X0156102Y0275807D02*
X0157697Y0274213D01*
X0176936Y0276772D02*
X0176629Y0277079D01*
X0185039Y0313780D02*
X0185039Y0300837D01*
X0124417Y0314961D02*
X0128740Y0319283D01*
X0168701Y0279082D02*
X0165354Y0282429D01*
X0162598Y0313780D02*
X0161417Y0313780D01*
X0181848Y0303408D02*
X0182874Y0304434D01*
X0133754Y0325591D02*
X0135039Y0325591D01*
X0157697Y0274213D02*
X0159990Y0274213D01*
X0167126Y0304431D02*
X0167126Y0307628D01*
X0175076Y0294154D02*
X0177146Y0294154D01*
X0168307Y0297490D02*
X0168307Y0291496D01*
X0179961Y0291339D02*
X0179961Y0289975D01*
X0156339Y0285433D02*
X0156102Y0285197D01*
X0176419Y0355512D02*
X0176025Y0355118D01*
X0185039Y0355512D02*
X0176419Y0355512D01*
X0183228Y0257874D02*
X0182244Y0256890D01*
X0155516Y0355512D02*
X0175632Y0355512D01*
X0210768Y0257874D02*
X0183228Y0257874D01*
X0177356Y0303222D02*
X0179134Y0305000D01*
X0211451Y0257191D02*
X0210768Y0257874D01*
X0182244Y0263691D02*
X0182530Y0263976D01*
X0163386Y0304724D02*
X0162205Y0303543D01*
X0182244Y0256890D02*
X0182244Y0260690D01*
X0163386Y0307628D02*
X0163386Y0304724D01*
X0182244Y0260690D02*
X0182244Y0263691D01*
X0179134Y0305000D02*
X0179134Y0307628D01*
X0175632Y0355512D02*
X0176025Y0355118D01*
D14*
X0302891Y0288740D02*
X0302532Y0289099D01*
X0302532Y0289099D02*
X0277814Y0289099D01*
X0277814Y0289099D02*
X0272753Y0294159D01*
X0260318Y0324803D02*
X0234843Y0324803D01*
X0265371Y0319750D02*
X0260318Y0324803D01*
D13*
X0219610Y0257114D02*
X0216728Y0254232D01*
X0216728Y0254232D02*
X0157267Y0254232D01*
X0157267Y0254232D02*
X0156496Y0255003D01*
X0296409Y0257114D02*
X0219610Y0257114D01*
X0303150Y0250374D02*
X0296409Y0257114D01*
X0148159Y0263340D02*
X0156496Y0255003D01*
X0047244Y0269685D02*
X0053589Y0263340D01*
D14*
X0270112Y0324852D02*
X0275214Y0319750D01*
X0265752Y0324852D02*
X0270112Y0324852D01*
X0250475Y0314961D02*
X0267717Y0314961D01*
X0245686Y0319750D02*
X0250475Y0314961D01*
D13*
X0326969Y0240669D02*
X0326969Y0275926D01*
X0231907Y0304081D02*
X0231907Y0315813D01*
X0237267Y0298720D02*
X0231907Y0304081D01*
X0304174Y0298720D02*
X0237267Y0298720D01*
X0231907Y0315813D02*
X0235844Y0319750D01*
X0321260Y0234960D02*
X0326969Y0240669D01*
X0326969Y0275926D02*
X0304174Y0298720D01*
X0328346Y0276497D02*
X0304351Y0300492D01*
X0238091Y0300492D02*
X0235844Y0302739D01*
X0304351Y0300492D02*
X0238091Y0300492D01*
X0322638Y0234389D02*
X0328346Y0240098D01*
X0235844Y0302739D02*
X0235844Y0309907D01*
X0328346Y0240098D02*
X0328346Y0276497D01*
X0302953Y0303543D02*
X0303346Y0303150D01*
X0240945Y0303543D02*
X0302953Y0303543D01*
X0182111Y0340719D02*
X0182111Y0328611D01*
X0179134Y0349213D02*
X0179134Y0343705D01*
X0179130Y0343701D02*
X0182111Y0340719D01*
X0179130Y0325630D02*
X0179130Y0320079D01*
X0182111Y0328611D02*
X0179130Y0325630D01*
X0179134Y0343705D02*
X0179130Y0343701D01*
X0090174Y0354845D02*
X0099305Y0363976D01*
X0307717Y0363976D02*
X0314764Y0356929D01*
X0074426Y0319750D02*
X0090174Y0335498D01*
X0314764Y0299823D02*
X0335236Y0279350D01*
X0090174Y0335498D02*
X0090174Y0354845D01*
X0099305Y0363976D02*
X0307717Y0363976D01*
X0314764Y0356929D02*
X0314764Y0299823D01*
X0155512Y0343701D02*
X0158307Y0340906D01*
X0155516Y0349213D02*
X0155516Y0343705D01*
X0158307Y0340906D02*
X0158307Y0328425D01*
X0158307Y0328425D02*
X0155512Y0325630D01*
X0155516Y0343705D02*
X0155512Y0343701D01*
X0155512Y0325630D02*
X0155512Y0320079D01*
X0167323Y0349213D02*
X0167323Y0343705D01*
X0170268Y0328579D02*
X0167319Y0325630D01*
X0170268Y0340752D02*
X0170268Y0328579D01*
X0167319Y0325630D02*
X0167319Y0320079D01*
X0167323Y0343705D02*
X0167319Y0343701D01*
X0167319Y0343701D02*
X0170268Y0340752D01*
X0161417Y0343705D02*
X0161414Y0343701D01*
X0161417Y0349213D02*
X0161417Y0343705D01*
X0164329Y0340785D02*
X0164329Y0328546D01*
X0161414Y0325630D02*
X0161414Y0320079D01*
X0164329Y0328546D02*
X0161414Y0325630D01*
X0161414Y0343701D02*
X0164329Y0340785D01*
X0185039Y0349213D02*
X0185039Y0343705D01*
X0185036Y0322835D02*
X0185036Y0320079D01*
X0185039Y0343705D02*
X0185036Y0343701D01*
X0188189Y0340547D02*
X0188189Y0328783D01*
X0185036Y0325630D02*
X0185036Y0322835D01*
X0185036Y0343701D02*
X0188189Y0340547D01*
X0188189Y0328783D02*
X0185036Y0325630D01*
X0312008Y0298681D02*
X0332480Y0278209D01*
X0312008Y0355728D02*
X0312008Y0298681D01*
X0332480Y0278209D02*
X0332480Y0238386D01*
X0123639Y0353214D02*
X0131645Y0361220D01*
X0306516Y0361220D02*
X0312008Y0355728D01*
X0131645Y0361220D02*
X0306516Y0361220D01*
X0305886Y0359843D02*
X0310630Y0355098D01*
X0310630Y0355098D02*
X0310630Y0298111D01*
X0310630Y0298111D02*
X0331102Y0277638D01*
X0123639Y0343372D02*
X0127576Y0347309D01*
X0134252Y0359843D02*
X0305886Y0359843D01*
X0127576Y0353166D02*
X0134252Y0359843D01*
X0127576Y0347309D02*
X0127576Y0353166D01*
X0331102Y0277638D02*
X0331102Y0238957D01*
X0308288Y0365354D02*
X0316142Y0357500D01*
X0084269Y0343372D02*
X0088796Y0347900D01*
X0316142Y0300394D02*
X0337086Y0279450D01*
X0088796Y0347900D02*
X0088796Y0355416D01*
X0098735Y0365354D02*
X0308288Y0365354D01*
X0088796Y0355416D02*
X0098735Y0365354D01*
X0316142Y0357500D02*
X0316142Y0300394D01*
X0338583Y0337008D02*
X0308661Y0366929D01*
X0308661Y0366929D02*
X0092126Y0366929D01*
X0080332Y0355135D02*
X0080332Y0349277D01*
X0080332Y0349277D02*
X0074426Y0343372D01*
X0338583Y0079922D02*
X0338583Y0337008D01*
X0092126Y0366929D02*
X0080332Y0355135D01*
X0305315Y0358465D02*
X0309252Y0354528D01*
X0309252Y0297540D02*
X0329724Y0277067D01*
X0137418Y0354269D02*
X0141614Y0358465D01*
X0329724Y0239527D02*
X0324016Y0233819D01*
X0141614Y0358465D02*
X0305315Y0358465D01*
X0137418Y0333529D02*
X0137418Y0354269D01*
X0123639Y0319750D02*
X0137418Y0333529D01*
X0329724Y0277067D02*
X0329724Y0239527D01*
X0309252Y0354528D02*
X0309252Y0297540D01*
X0333858Y0278780D02*
X0333858Y0237402D01*
X0313386Y0299252D02*
X0333858Y0278780D01*
X0084269Y0319750D02*
X0098048Y0333529D01*
X0313386Y0356359D02*
X0313386Y0299252D01*
X0307146Y0362598D02*
X0313386Y0356359D01*
X0098048Y0333529D02*
X0098048Y0352877D01*
X0098048Y0352877D02*
X0107770Y0362598D01*
X0107770Y0362598D02*
X0307146Y0362598D01*
D18*
X0173228Y0331850D02*
X0173228Y0334646D01*
D13*
X0179961Y0285433D02*
X0179961Y0283592D01*
X0162559Y0285433D02*
X0162559Y0291339D01*
X0162559Y0282573D02*
X0162267Y0282281D01*
X0159990Y0280004D02*
X0162267Y0282281D01*
X0179709Y0295206D02*
X0179134Y0295782D01*
D18*
X0167323Y0337402D02*
X0167323Y0334646D01*
X0155512Y0337402D02*
X0155512Y0334646D01*
D13*
X0179961Y0283592D02*
X0181199Y0282354D01*
X0171102Y0285276D02*
X0171260Y0285433D01*
D18*
X0167323Y0331850D02*
X0167323Y0334646D01*
D13*
X0186181Y0294753D02*
X0185816Y0295118D01*
D18*
X0173228Y0337402D02*
X0173228Y0334646D01*
D13*
X0186181Y0291339D02*
X0186181Y0294753D01*
D18*
X0185039Y0337402D02*
X0185039Y0334646D01*
X0161417Y0331850D02*
X0161417Y0334646D01*
D13*
X0162559Y0285433D02*
X0162559Y0282573D01*
X0159990Y0279331D02*
X0159990Y0280004D01*
D18*
X0179134Y0337402D02*
X0179134Y0334646D01*
X0155512Y0331850D02*
X0155512Y0334646D01*
D13*
X0171417Y0285276D02*
X0171260Y0285433D01*
D18*
X0161417Y0337402D02*
X0161417Y0334646D01*
X0185039Y0331850D02*
X0185039Y0334646D01*
D13*
X0179134Y0295782D02*
X0179134Y0298671D01*
D18*
X0179134Y0331850D02*
X0179134Y0334646D01*
D13*
X0174213Y0285276D02*
X0171417Y0285276D01*
X0168307Y0285276D02*
X0171102Y0285276D01*
X0163386Y0298671D02*
X0163386Y0295920D01*
X0163386Y0295920D02*
X0164743Y0294563D01*
X0182530Y0269094D02*
X0178150Y0269094D01*
X0178150Y0269094D02*
X0177165Y0268110D01*
D15*
X0143300Y0246390D02*
X0142453Y0245544D01*
X0150919Y0246390D02*
X0143300Y0246390D01*
X0142453Y0245544D02*
X0132538Y0245544D01*
X0151576Y0247047D02*
X0150919Y0246390D01*
D14*
X0243307Y0239764D02*
X0250394Y0239764D01*
X0221626Y0241732D02*
X0241339Y0241732D01*
X0241339Y0241732D02*
X0243307Y0239764D01*
X0250394Y0239764D02*
X0258858Y0248228D01*
X0258858Y0248228D02*
X0269291Y0248228D01*
X0220231Y0243127D02*
X0221626Y0241732D01*
X0208066Y0238484D02*
X0212708Y0243127D01*
X0212708Y0243127D02*
X0220231Y0243127D01*
D13*
X0291274Y0305970D02*
X0300804Y0305970D01*
X0290945Y0306299D02*
X0291274Y0305970D01*
X0300804Y0305970D02*
X0304741Y0309907D01*
X0150747Y0250394D02*
X0149696Y0249343D01*
X0210162Y0250394D02*
X0150747Y0250394D01*
X0222047Y0244094D02*
X0220854Y0245288D01*
X0149696Y0249343D02*
X0134585Y0249343D01*
X0215268Y0245288D02*
X0210162Y0250394D01*
X0220854Y0245288D02*
X0215268Y0245288D01*
X0245276Y0242911D02*
X0244093Y0244094D01*
X0244093Y0244094D02*
X0222047Y0244094D01*
X0134585Y0249343D02*
X0134250Y0249677D01*
X0249606Y0253937D02*
X0250028Y0254358D01*
X0321330Y0244882D02*
X0324116Y0242097D01*
X0268796Y0254358D02*
X0276698Y0246457D01*
X0250028Y0254358D02*
X0268796Y0254358D01*
X0278217Y0245012D02*
X0286484Y0245012D01*
X0217717Y0250374D02*
X0221701Y0246390D01*
X0286484Y0245012D02*
X0286614Y0244882D01*
X0276772Y0246457D02*
X0278217Y0245012D01*
X0221701Y0246390D02*
X0242059Y0246390D01*
X0286614Y0244882D02*
X0321330Y0244882D01*
X0276698Y0246457D02*
X0276772Y0246457D01*
X0242059Y0246390D02*
X0249606Y0253937D01*
X0322618Y0246390D02*
X0278787Y0246390D01*
X0324260Y0248031D02*
X0322618Y0246390D01*
X0277342Y0247835D02*
X0277268Y0247835D01*
X0278787Y0246390D02*
X0277342Y0247835D01*
X0277268Y0247835D02*
X0269367Y0255736D01*
X0269367Y0255736D02*
X0232921Y0255736D01*
X0232921Y0255736D02*
X0227559Y0250374D01*
X0165708Y0271654D02*
X0165905Y0271457D01*
X0159990Y0271654D02*
X0165708Y0271654D01*
X0166535Y0266535D02*
X0166732Y0266339D01*
X0159990Y0266535D02*
X0166535Y0266535D01*
X0159990Y0276772D02*
X0165945Y0276772D01*
X0165945Y0276772D02*
X0166142Y0276575D01*
X0178422Y0279362D02*
X0178144Y0279362D01*
X0178076Y0279430D02*
X0177935Y0279430D01*
X0177935Y0279430D02*
X0177834Y0279532D01*
X0178427Y0279358D02*
X0178422Y0279362D01*
X0175560Y0279648D02*
X0175270Y0279358D01*
X0175270Y0279358D02*
X0173988Y0279358D01*
X0177680Y0279648D02*
X0175560Y0279648D01*
X0182530Y0279331D02*
X0182502Y0279358D01*
X0182502Y0279358D02*
X0178427Y0279358D01*
X0177834Y0279532D02*
X0177796Y0279532D01*
X0177796Y0279532D02*
X0177680Y0279648D01*
X0178144Y0279362D02*
X0178076Y0279430D01*
X0173988Y0279358D02*
X0173810Y0279536D01*
X0175549Y0274213D02*
X0175032Y0273696D01*
X0182530Y0274213D02*
X0175549Y0274213D01*
M02*
