G75*
G70*
%OFA0B0*%
%FSLAX25Y25*%
%IPPOS*%
%LPD*%
%AMOC8*
5,1,8,0,0,1.08239X$1,22.5*
%
%ADD13C,0.00787*%
%ADD17C,0.00500*%
%ADD18C,0.00591*%
%ADD19C,0.00390*%
%ADD20C,0.00472*%
%ADD21C,0.00000*%
X0000000Y0000000D02*
%LPD*%
G01*
D18*
X0271294Y0335878D02*
X0271294Y0333853D01*
X0274837Y0334865D02*
X0271294Y0334865D01*
X0273824Y0332841D02*
X0273824Y0331153D01*
X0274837Y0333178D02*
X0271294Y0331997D01*
X0271294Y0331997D02*
X0274837Y0330816D01*
X0274499Y0327610D02*
X0274668Y0327779D01*
X0274668Y0327779D02*
X0274837Y0328285D01*
X0274837Y0328285D02*
X0274837Y0328622D01*
X0274837Y0328622D02*
X0274668Y0329129D01*
X0274668Y0329129D02*
X0274331Y0329466D01*
X0274331Y0329466D02*
X0273993Y0329635D01*
X0273993Y0329635D02*
X0273318Y0329804D01*
X0273318Y0329804D02*
X0272812Y0329804D01*
X0272812Y0329804D02*
X0272137Y0329635D01*
X0272137Y0329635D02*
X0271800Y0329466D01*
X0271800Y0329466D02*
X0271462Y0329129D01*
X0271462Y0329129D02*
X0271294Y0328622D01*
X0271294Y0328622D02*
X0271294Y0328285D01*
X0271294Y0328285D02*
X0271462Y0327779D01*
X0271462Y0327779D02*
X0271631Y0327610D01*
X0274837Y0326092D02*
X0271294Y0326092D01*
X0272981Y0326092D02*
X0272981Y0324067D01*
X0274837Y0324067D02*
X0271294Y0324067D01*
X0070112Y0332278D02*
X0073656Y0331097D01*
X0073656Y0331097D02*
X0070112Y0329916D01*
X0073487Y0328904D02*
X0073656Y0328398D01*
X0073656Y0328398D02*
X0073656Y0327554D01*
X0073656Y0327554D02*
X0073487Y0327216D01*
X0073487Y0327216D02*
X0073318Y0327048D01*
X0073318Y0327048D02*
X0072981Y0326879D01*
X0072981Y0326879D02*
X0072643Y0326879D01*
X0072643Y0326879D02*
X0072306Y0327048D01*
X0072306Y0327048D02*
X0072137Y0327216D01*
X0072137Y0327216D02*
X0071968Y0327554D01*
X0071968Y0327554D02*
X0071800Y0328229D01*
X0071800Y0328229D02*
X0071631Y0328566D01*
X0071631Y0328566D02*
X0071462Y0328735D01*
X0071462Y0328735D02*
X0071125Y0328904D01*
X0071125Y0328904D02*
X0070787Y0328904D01*
X0070787Y0328904D02*
X0070450Y0328735D01*
X0070450Y0328735D02*
X0070281Y0328566D01*
X0070281Y0328566D02*
X0070112Y0328229D01*
X0070112Y0328229D02*
X0070112Y0327385D01*
X0070112Y0327385D02*
X0070281Y0326879D01*
X0073487Y0325529D02*
X0073656Y0325023D01*
X0073656Y0325023D02*
X0073656Y0324179D01*
X0073656Y0324179D02*
X0073487Y0323842D01*
X0073487Y0323842D02*
X0073318Y0323673D01*
X0073318Y0323673D02*
X0072981Y0323504D01*
X0072981Y0323504D02*
X0072643Y0323504D01*
X0072643Y0323504D02*
X0072306Y0323673D01*
X0072306Y0323673D02*
X0072137Y0323842D01*
X0072137Y0323842D02*
X0071968Y0324179D01*
X0071968Y0324179D02*
X0071800Y0324854D01*
X0071800Y0324854D02*
X0071631Y0325192D01*
X0071631Y0325192D02*
X0071462Y0325360D01*
X0071462Y0325360D02*
X0071125Y0325529D01*
X0071125Y0325529D02*
X0070787Y0325529D01*
X0070787Y0325529D02*
X0070450Y0325360D01*
X0070450Y0325360D02*
X0070281Y0325192D01*
X0070281Y0325192D02*
X0070112Y0324854D01*
X0070112Y0324854D02*
X0070112Y0324011D01*
X0070112Y0324011D02*
X0070281Y0323504D01*
X0230349Y0338925D02*
X0226805Y0338925D01*
X0226805Y0338925D02*
X0226805Y0337575D01*
X0226805Y0337575D02*
X0226974Y0337238D01*
X0226974Y0337238D02*
X0227143Y0337069D01*
X0227143Y0337069D02*
X0227480Y0336901D01*
X0227480Y0336901D02*
X0227986Y0336901D01*
X0227986Y0336901D02*
X0228324Y0337069D01*
X0228324Y0337069D02*
X0228493Y0337238D01*
X0228493Y0337238D02*
X0228661Y0337575D01*
X0228661Y0337575D02*
X0228661Y0338925D01*
X0230349Y0335382D02*
X0226805Y0335382D01*
X0226805Y0335382D02*
X0226805Y0334032D01*
X0226805Y0334032D02*
X0226974Y0333695D01*
X0226974Y0333695D02*
X0227143Y0333526D01*
X0227143Y0333526D02*
X0227480Y0333357D01*
X0227480Y0333357D02*
X0227986Y0333357D01*
X0227986Y0333357D02*
X0228324Y0333526D01*
X0228324Y0333526D02*
X0228493Y0333695D01*
X0228493Y0333695D02*
X0228661Y0334032D01*
X0228661Y0334032D02*
X0228661Y0335382D01*
X0230180Y0332007D02*
X0230349Y0331501D01*
X0230349Y0331501D02*
X0230349Y0330658D01*
X0230349Y0330658D02*
X0230180Y0330320D01*
X0230180Y0330320D02*
X0230011Y0330151D01*
X0230011Y0330151D02*
X0229674Y0329983D01*
X0229674Y0329983D02*
X0229336Y0329983D01*
X0229336Y0329983D02*
X0228999Y0330151D01*
X0228999Y0330151D02*
X0228830Y0330320D01*
X0228830Y0330320D02*
X0228661Y0330658D01*
X0228661Y0330658D02*
X0228493Y0331333D01*
X0228493Y0331333D02*
X0228324Y0331670D01*
X0228324Y0331670D02*
X0228155Y0331839D01*
X0228155Y0331839D02*
X0227818Y0332007D01*
X0227818Y0332007D02*
X0227480Y0332007D01*
X0227480Y0332007D02*
X0227143Y0331839D01*
X0227143Y0331839D02*
X0226974Y0331670D01*
X0226974Y0331670D02*
X0226805Y0331333D01*
X0226805Y0331333D02*
X0226805Y0330489D01*
X0226805Y0330489D02*
X0226974Y0329983D01*
X0230349Y0326608D02*
X0230349Y0328633D01*
X0230349Y0327620D02*
X0226805Y0327620D01*
X0226805Y0327620D02*
X0227312Y0327958D01*
X0227312Y0327958D02*
X0227649Y0328295D01*
X0227649Y0328295D02*
X0227818Y0328633D01*
X0276018Y0339038D02*
X0279561Y0337857D01*
X0279561Y0337857D02*
X0276018Y0336676D01*
X0279561Y0335494D02*
X0276018Y0335494D01*
X0276187Y0331951D02*
X0276018Y0332289D01*
X0276018Y0332289D02*
X0276018Y0332795D01*
X0276018Y0332795D02*
X0276187Y0333301D01*
X0276187Y0333301D02*
X0276524Y0333638D01*
X0276524Y0333638D02*
X0276862Y0333807D01*
X0276862Y0333807D02*
X0277536Y0333976D01*
X0277536Y0333976D02*
X0278043Y0333976D01*
X0278043Y0333976D02*
X0278718Y0333807D01*
X0278718Y0333807D02*
X0279055Y0333638D01*
X0279055Y0333638D02*
X0279393Y0333301D01*
X0279393Y0333301D02*
X0279561Y0332795D01*
X0279561Y0332795D02*
X0279561Y0332457D01*
X0279561Y0332457D02*
X0279393Y0331951D01*
X0279393Y0331951D02*
X0279224Y0331782D01*
X0279224Y0331782D02*
X0278043Y0331782D01*
X0278043Y0331782D02*
X0278043Y0332457D01*
X0279561Y0330264D02*
X0276018Y0330264D01*
X0276018Y0330264D02*
X0279561Y0328239D01*
X0279561Y0328239D02*
X0276018Y0328239D01*
X0246265Y0366249D02*
X0246265Y0364562D01*
X0247278Y0366586D02*
X0243734Y0365405D01*
X0243734Y0365405D02*
X0247278Y0364224D01*
X0243734Y0363549D02*
X0247278Y0362368D01*
X0247278Y0362368D02*
X0243734Y0361187D01*
X0243734Y0360344D02*
X0243734Y0357981D01*
X0243734Y0357981D02*
X0247278Y0359500D01*
X0144578Y0368836D02*
X0144747Y0369005D01*
X0144747Y0369005D02*
X0144916Y0369511D01*
X0144916Y0369511D02*
X0144916Y0369849D01*
X0144916Y0369849D02*
X0144747Y0370355D01*
X0144747Y0370355D02*
X0144409Y0370692D01*
X0144409Y0370692D02*
X0144072Y0370861D01*
X0144072Y0370861D02*
X0143397Y0371030D01*
X0143397Y0371030D02*
X0142891Y0371030D01*
X0142891Y0371030D02*
X0142216Y0370861D01*
X0142216Y0370861D02*
X0141878Y0370692D01*
X0141878Y0370692D02*
X0141541Y0370355D01*
X0141541Y0370355D02*
X0141372Y0369849D01*
X0141372Y0369849D02*
X0141372Y0369511D01*
X0141372Y0369511D02*
X0141541Y0369005D01*
X0141541Y0369005D02*
X0141710Y0368836D01*
X0144916Y0365293D02*
X0143228Y0366474D01*
X0144916Y0367318D02*
X0141372Y0367318D01*
X0141372Y0367318D02*
X0141372Y0365968D01*
X0141372Y0365968D02*
X0141541Y0365630D01*
X0141541Y0365630D02*
X0141710Y0365462D01*
X0141710Y0365462D02*
X0142047Y0365293D01*
X0142047Y0365293D02*
X0142553Y0365293D01*
X0142553Y0365293D02*
X0142891Y0365462D01*
X0142891Y0365462D02*
X0143060Y0365630D01*
X0143060Y0365630D02*
X0143228Y0365968D01*
X0143228Y0365968D02*
X0143228Y0367318D01*
X0144916Y0363774D02*
X0141372Y0363774D01*
X0144916Y0361750D02*
X0142891Y0363268D01*
X0141372Y0361750D02*
X0143397Y0363774D01*
X0143566Y0360231D02*
X0143566Y0357531D01*
X0226580Y0366249D02*
X0226580Y0364562D01*
X0227593Y0366586D02*
X0224049Y0365405D01*
X0224049Y0365405D02*
X0227593Y0364224D01*
X0224049Y0363549D02*
X0227593Y0362368D01*
X0227593Y0362368D02*
X0224049Y0361187D01*
X0227593Y0359837D02*
X0227593Y0359162D01*
X0227593Y0359162D02*
X0227424Y0358825D01*
X0227424Y0358825D02*
X0227255Y0358656D01*
X0227255Y0358656D02*
X0226749Y0358319D01*
X0226749Y0358319D02*
X0226074Y0358150D01*
X0226074Y0358150D02*
X0224724Y0358150D01*
X0224724Y0358150D02*
X0224387Y0358319D01*
X0224387Y0358319D02*
X0224218Y0358488D01*
X0224218Y0358488D02*
X0224049Y0358825D01*
X0224049Y0358825D02*
X0224049Y0359500D01*
X0224049Y0359500D02*
X0224218Y0359837D01*
X0224218Y0359837D02*
X0224387Y0360006D01*
X0224387Y0360006D02*
X0224724Y0360175D01*
X0224724Y0360175D02*
X0225568Y0360175D01*
X0225568Y0360175D02*
X0225905Y0360006D01*
X0225905Y0360006D02*
X0226074Y0359837D01*
X0226074Y0359837D02*
X0226243Y0359500D01*
X0226243Y0359500D02*
X0226243Y0358825D01*
X0226243Y0358825D02*
X0226074Y0358488D01*
X0226074Y0358488D02*
X0225905Y0358319D01*
X0225905Y0358319D02*
X0225568Y0358150D01*
X0035635Y0369230D02*
X0035635Y0367543D01*
X0036648Y0369567D02*
X0033105Y0368386D01*
X0033105Y0368386D02*
X0036648Y0367205D01*
X0033105Y0366530D02*
X0036648Y0365349D01*
X0036648Y0365349D02*
X0033105Y0364168D01*
X0036648Y0361131D02*
X0036648Y0363156D01*
X0036648Y0362143D02*
X0033105Y0362143D01*
X0033105Y0362143D02*
X0033611Y0362481D01*
X0033611Y0362481D02*
X0033948Y0362818D01*
X0033948Y0362818D02*
X0034117Y0363156D01*
X0033442Y0359781D02*
X0033273Y0359612D01*
X0033273Y0359612D02*
X0033105Y0359275D01*
X0033105Y0359275D02*
X0033105Y0358431D01*
X0033105Y0358431D02*
X0033273Y0358094D01*
X0033273Y0358094D02*
X0033442Y0357925D01*
X0033442Y0357925D02*
X0033779Y0357756D01*
X0033779Y0357756D02*
X0034117Y0357756D01*
X0034117Y0357756D02*
X0034623Y0357925D01*
X0034623Y0357925D02*
X0036648Y0359950D01*
X0036648Y0359950D02*
X0036648Y0357756D01*
X0198234Y0369624D02*
X0198234Y0367936D01*
X0199246Y0369961D02*
X0195703Y0368780D01*
X0195703Y0368780D02*
X0199246Y0367599D01*
X0195703Y0366924D02*
X0199246Y0365743D01*
X0199246Y0365743D02*
X0195703Y0364562D01*
X0199246Y0361525D02*
X0199246Y0363549D01*
X0199246Y0362537D02*
X0195703Y0362537D01*
X0195703Y0362537D02*
X0196209Y0362874D01*
X0196209Y0362874D02*
X0196547Y0363212D01*
X0196547Y0363212D02*
X0196715Y0363549D01*
X0196040Y0360175D02*
X0195872Y0360006D01*
X0195872Y0360006D02*
X0195703Y0359669D01*
X0195703Y0359669D02*
X0195703Y0358825D01*
X0195703Y0358825D02*
X0195872Y0358488D01*
X0195872Y0358488D02*
X0196040Y0358319D01*
X0196040Y0358319D02*
X0196378Y0358150D01*
X0196378Y0358150D02*
X0196715Y0358150D01*
X0196715Y0358150D02*
X0197222Y0358319D01*
X0197222Y0358319D02*
X0199246Y0360344D01*
X0199246Y0360344D02*
X0199246Y0358150D01*
X0123262Y0329804D02*
X0119719Y0329804D01*
X0122250Y0328285D02*
X0122250Y0326598D01*
X0123262Y0328622D02*
X0119719Y0327441D01*
X0119719Y0327441D02*
X0123262Y0326260D01*
X0119719Y0325585D02*
X0119719Y0323561D01*
X0123262Y0324573D02*
X0119719Y0324573D01*
X0112013Y0367824D02*
X0111845Y0368161D01*
X0111845Y0368161D02*
X0111845Y0368667D01*
X0111845Y0368667D02*
X0112013Y0369174D01*
X0112013Y0369174D02*
X0112351Y0369511D01*
X0112351Y0369511D02*
X0112688Y0369680D01*
X0112688Y0369680D02*
X0113363Y0369849D01*
X0113363Y0369849D02*
X0113869Y0369849D01*
X0113869Y0369849D02*
X0114544Y0369680D01*
X0114544Y0369680D02*
X0114882Y0369511D01*
X0114882Y0369511D02*
X0115219Y0369174D01*
X0115219Y0369174D02*
X0115388Y0368667D01*
X0115388Y0368667D02*
X0115388Y0368330D01*
X0115388Y0368330D02*
X0115219Y0367824D01*
X0115219Y0367824D02*
X0115051Y0367655D01*
X0115051Y0367655D02*
X0113869Y0367655D01*
X0113869Y0367655D02*
X0113869Y0368330D01*
X0115388Y0366137D02*
X0111845Y0366137D01*
X0111845Y0366137D02*
X0115388Y0364112D01*
X0115388Y0364112D02*
X0111845Y0364112D01*
X0115388Y0362425D02*
X0111845Y0362425D01*
X0111845Y0362425D02*
X0111845Y0361581D01*
X0111845Y0361581D02*
X0112013Y0361075D01*
X0112013Y0361075D02*
X0112351Y0360737D01*
X0112351Y0360737D02*
X0112688Y0360568D01*
X0112688Y0360568D02*
X0113363Y0360400D01*
X0113363Y0360400D02*
X0113869Y0360400D01*
X0113869Y0360400D02*
X0114544Y0360568D01*
X0114544Y0360568D02*
X0114882Y0360737D01*
X0114882Y0360737D02*
X0115219Y0361075D01*
X0115219Y0361075D02*
X0115388Y0361581D01*
X0115388Y0361581D02*
X0115388Y0362425D01*
X0114376Y0359050D02*
X0114376Y0357363D01*
X0115388Y0359387D02*
X0111845Y0358206D01*
X0111845Y0358206D02*
X0115388Y0357025D01*
X0214994Y0337115D02*
X0211451Y0337115D01*
X0211451Y0337115D02*
X0211451Y0336272D01*
X0211451Y0336272D02*
X0211620Y0335765D01*
X0211620Y0335765D02*
X0211957Y0335428D01*
X0211957Y0335428D02*
X0212295Y0335259D01*
X0212295Y0335259D02*
X0212970Y0335090D01*
X0212970Y0335090D02*
X0213476Y0335090D01*
X0213476Y0335090D02*
X0214151Y0335259D01*
X0214151Y0335259D02*
X0214488Y0335428D01*
X0214488Y0335428D02*
X0214826Y0335765D01*
X0214826Y0335765D02*
X0214994Y0336272D01*
X0214994Y0336272D02*
X0214994Y0337115D01*
X0214994Y0333572D02*
X0211451Y0333572D01*
X0211620Y0330029D02*
X0211451Y0330366D01*
X0211451Y0330366D02*
X0211451Y0330872D01*
X0211451Y0330872D02*
X0211620Y0331378D01*
X0211620Y0331378D02*
X0211957Y0331716D01*
X0211957Y0331716D02*
X0212295Y0331885D01*
X0212295Y0331885D02*
X0212970Y0332053D01*
X0212970Y0332053D02*
X0213476Y0332053D01*
X0213476Y0332053D02*
X0214151Y0331885D01*
X0214151Y0331885D02*
X0214488Y0331716D01*
X0214488Y0331716D02*
X0214826Y0331378D01*
X0214826Y0331378D02*
X0214994Y0330872D01*
X0214994Y0330872D02*
X0214994Y0330535D01*
X0214994Y0330535D02*
X0214826Y0330029D01*
X0214826Y0330029D02*
X0214657Y0329860D01*
X0214657Y0329860D02*
X0213476Y0329860D01*
X0213476Y0329860D02*
X0213476Y0330535D01*
X0211451Y0328679D02*
X0211451Y0326485D01*
X0211451Y0326485D02*
X0212801Y0327666D01*
X0212801Y0327666D02*
X0212801Y0327160D01*
X0212801Y0327160D02*
X0212970Y0326823D01*
X0212970Y0326823D02*
X0213138Y0326654D01*
X0213138Y0326654D02*
X0213476Y0326485D01*
X0213476Y0326485D02*
X0214319Y0326485D01*
X0214319Y0326485D02*
X0214657Y0326654D01*
X0214657Y0326654D02*
X0214826Y0326823D01*
X0214826Y0326823D02*
X0214994Y0327160D01*
X0214994Y0327160D02*
X0214994Y0328173D01*
X0214994Y0328173D02*
X0214826Y0328510D01*
X0214826Y0328510D02*
X0214657Y0328679D01*
X0212632Y0323448D02*
X0214994Y0323448D01*
X0211282Y0324292D02*
X0213813Y0325135D01*
X0213813Y0325135D02*
X0213813Y0322942D01*
X0296490Y0364168D02*
X0296490Y0365855D01*
X0296490Y0365855D02*
X0292947Y0365855D01*
X0296322Y0363156D02*
X0296490Y0362649D01*
X0296490Y0362649D02*
X0296490Y0361806D01*
X0296490Y0361806D02*
X0296322Y0361468D01*
X0296322Y0361468D02*
X0296153Y0361300D01*
X0296153Y0361300D02*
X0295815Y0361131D01*
X0295815Y0361131D02*
X0295478Y0361131D01*
X0295478Y0361131D02*
X0295141Y0361300D01*
X0295141Y0361300D02*
X0294972Y0361468D01*
X0294972Y0361468D02*
X0294803Y0361806D01*
X0294803Y0361806D02*
X0294634Y0362481D01*
X0294634Y0362481D02*
X0294466Y0362818D01*
X0294466Y0362818D02*
X0294297Y0362987D01*
X0294297Y0362987D02*
X0293959Y0363156D01*
X0293959Y0363156D02*
X0293622Y0363156D01*
X0293622Y0363156D02*
X0293285Y0362987D01*
X0293285Y0362987D02*
X0293116Y0362818D01*
X0293116Y0362818D02*
X0292947Y0362481D01*
X0292947Y0362481D02*
X0292947Y0361637D01*
X0292947Y0361637D02*
X0293116Y0361131D01*
X0293285Y0359781D02*
X0293116Y0359612D01*
X0293116Y0359612D02*
X0292947Y0359275D01*
X0292947Y0359275D02*
X0292947Y0358431D01*
X0292947Y0358431D02*
X0293116Y0358094D01*
X0293116Y0358094D02*
X0293285Y0357925D01*
X0293285Y0357925D02*
X0293622Y0357756D01*
X0293622Y0357756D02*
X0293959Y0357756D01*
X0293959Y0357756D02*
X0294466Y0357925D01*
X0294466Y0357925D02*
X0296490Y0359950D01*
X0296490Y0359950D02*
X0296490Y0357756D01*
X0253577Y0295168D02*
X0251890Y0296349D01*
X0253577Y0297193D02*
X0250034Y0297193D01*
X0250034Y0297193D02*
X0250034Y0295843D01*
X0250034Y0295843D02*
X0250202Y0295506D01*
X0250202Y0295506D02*
X0250371Y0295337D01*
X0250371Y0295337D02*
X0250709Y0295168D01*
X0250709Y0295168D02*
X0251215Y0295168D01*
X0251215Y0295168D02*
X0251552Y0295337D01*
X0251552Y0295337D02*
X0251721Y0295506D01*
X0251721Y0295506D02*
X0251890Y0295843D01*
X0251890Y0295843D02*
X0251890Y0297193D01*
X0251721Y0293650D02*
X0251721Y0292469D01*
X0253577Y0291962D02*
X0253577Y0293650D01*
X0253577Y0293650D02*
X0250034Y0293650D01*
X0250034Y0293650D02*
X0250034Y0291962D01*
X0253577Y0288757D02*
X0253577Y0290444D01*
X0253577Y0290444D02*
X0250034Y0290444D01*
X0250034Y0285888D02*
X0250034Y0287575D01*
X0250034Y0287575D02*
X0251721Y0287744D01*
X0251721Y0287744D02*
X0251552Y0287575D01*
X0251552Y0287575D02*
X0251384Y0287238D01*
X0251384Y0287238D02*
X0251384Y0286394D01*
X0251384Y0286394D02*
X0251552Y0286057D01*
X0251552Y0286057D02*
X0251721Y0285888D01*
X0251721Y0285888D02*
X0252058Y0285719D01*
X0252058Y0285719D02*
X0252902Y0285719D01*
X0252902Y0285719D02*
X0253240Y0285888D01*
X0253240Y0285888D02*
X0253408Y0286057D01*
X0253408Y0286057D02*
X0253577Y0286394D01*
X0253577Y0286394D02*
X0253577Y0287238D01*
X0253577Y0287238D02*
X0253408Y0287575D01*
X0253408Y0287575D02*
X0253240Y0287744D01*
X0250371Y0284370D02*
X0250202Y0284201D01*
X0250202Y0284201D02*
X0250034Y0283863D01*
X0250034Y0283863D02*
X0250034Y0283020D01*
X0250034Y0283020D02*
X0250202Y0282682D01*
X0250202Y0282682D02*
X0250371Y0282514D01*
X0250371Y0282514D02*
X0250709Y0282345D01*
X0250709Y0282345D02*
X0251046Y0282345D01*
X0251046Y0282345D02*
X0251552Y0282514D01*
X0251552Y0282514D02*
X0253577Y0284538D01*
X0253577Y0284538D02*
X0253577Y0282345D01*
X0234061Y0365180D02*
X0233892Y0365518D01*
X0233892Y0365518D02*
X0233892Y0366024D01*
X0233892Y0366024D02*
X0234061Y0366530D01*
X0234061Y0366530D02*
X0234398Y0366868D01*
X0234398Y0366868D02*
X0234736Y0367036D01*
X0234736Y0367036D02*
X0235411Y0367205D01*
X0235411Y0367205D02*
X0235917Y0367205D01*
X0235917Y0367205D02*
X0236592Y0367036D01*
X0236592Y0367036D02*
X0236929Y0366868D01*
X0236929Y0366868D02*
X0237267Y0366530D01*
X0237267Y0366530D02*
X0237435Y0366024D01*
X0237435Y0366024D02*
X0237435Y0365687D01*
X0237435Y0365687D02*
X0237267Y0365180D01*
X0237267Y0365180D02*
X0237098Y0365012D01*
X0237098Y0365012D02*
X0235917Y0365012D01*
X0235917Y0365012D02*
X0235917Y0365687D01*
X0237435Y0363493D02*
X0233892Y0363493D01*
X0233892Y0363493D02*
X0237435Y0361468D01*
X0237435Y0361468D02*
X0233892Y0361468D01*
X0237435Y0359781D02*
X0233892Y0359781D01*
X0233892Y0359781D02*
X0233892Y0358937D01*
X0233892Y0358937D02*
X0234061Y0358431D01*
X0234061Y0358431D02*
X0234398Y0358094D01*
X0234398Y0358094D02*
X0234736Y0357925D01*
X0234736Y0357925D02*
X0235411Y0357756D01*
X0235411Y0357756D02*
X0235917Y0357756D01*
X0235917Y0357756D02*
X0236592Y0357925D01*
X0236592Y0357925D02*
X0236929Y0358094D01*
X0236929Y0358094D02*
X0237267Y0358431D01*
X0237267Y0358431D02*
X0237435Y0358937D01*
X0237435Y0358937D02*
X0237435Y0359781D01*
X0284286Y0336721D02*
X0280742Y0336721D01*
X0284286Y0334697D02*
X0282261Y0336215D01*
X0280742Y0334697D02*
X0282767Y0336721D01*
X0284286Y0331491D02*
X0284286Y0333178D01*
X0284286Y0333178D02*
X0280742Y0333178D01*
X0284286Y0330310D02*
X0281923Y0330310D01*
X0280742Y0330310D02*
X0280911Y0330479D01*
X0280911Y0330479D02*
X0281080Y0330310D01*
X0281080Y0330310D02*
X0280911Y0330141D01*
X0280911Y0330141D02*
X0280742Y0330310D01*
X0280742Y0330310D02*
X0281080Y0330310D01*
X0281923Y0328622D02*
X0284286Y0328622D01*
X0282261Y0328622D02*
X0282092Y0328454D01*
X0282092Y0328454D02*
X0281923Y0328116D01*
X0281923Y0328116D02*
X0281923Y0327610D01*
X0281923Y0327610D02*
X0282092Y0327273D01*
X0282092Y0327273D02*
X0282430Y0327104D01*
X0282430Y0327104D02*
X0284286Y0327104D01*
X0284117Y0324067D02*
X0284286Y0324404D01*
X0284286Y0324404D02*
X0284286Y0325079D01*
X0284286Y0325079D02*
X0284117Y0325417D01*
X0284117Y0325417D02*
X0283779Y0325585D01*
X0283779Y0325585D02*
X0282430Y0325585D01*
X0282430Y0325585D02*
X0282092Y0325417D01*
X0282092Y0325417D02*
X0281923Y0325079D01*
X0281923Y0325079D02*
X0281923Y0324404D01*
X0281923Y0324404D02*
X0282092Y0324067D01*
X0282092Y0324067D02*
X0282430Y0323898D01*
X0282430Y0323898D02*
X0282767Y0323898D01*
X0282767Y0323898D02*
X0283105Y0325585D01*
X0268931Y0290444D02*
X0267244Y0291625D01*
X0268931Y0292469D02*
X0265388Y0292469D01*
X0265388Y0292469D02*
X0265388Y0291119D01*
X0265388Y0291119D02*
X0265557Y0290781D01*
X0265557Y0290781D02*
X0265725Y0290613D01*
X0265725Y0290613D02*
X0266063Y0290444D01*
X0266063Y0290444D02*
X0266569Y0290444D01*
X0266569Y0290444D02*
X0266907Y0290613D01*
X0266907Y0290613D02*
X0267075Y0290781D01*
X0267075Y0290781D02*
X0267244Y0291119D01*
X0267244Y0291119D02*
X0267244Y0292469D01*
X0267075Y0288925D02*
X0267075Y0287744D01*
X0268931Y0287238D02*
X0268931Y0288925D01*
X0268931Y0288925D02*
X0265388Y0288925D01*
X0265388Y0288925D02*
X0265388Y0287238D01*
X0268931Y0284032D02*
X0268931Y0285719D01*
X0268931Y0285719D02*
X0265388Y0285719D01*
X0265388Y0281164D02*
X0265388Y0282851D01*
X0265388Y0282851D02*
X0267075Y0283020D01*
X0267075Y0283020D02*
X0266907Y0282851D01*
X0266907Y0282851D02*
X0266738Y0282514D01*
X0266738Y0282514D02*
X0266738Y0281670D01*
X0266738Y0281670D02*
X0266907Y0281333D01*
X0266907Y0281333D02*
X0267075Y0281164D01*
X0267075Y0281164D02*
X0267413Y0280995D01*
X0267413Y0280995D02*
X0268256Y0280995D01*
X0268256Y0280995D02*
X0268594Y0281164D01*
X0268594Y0281164D02*
X0268763Y0281333D01*
X0268763Y0281333D02*
X0268931Y0281670D01*
X0268931Y0281670D02*
X0268931Y0282514D01*
X0268931Y0282514D02*
X0268763Y0282851D01*
X0268763Y0282851D02*
X0268594Y0283020D01*
X0268931Y0277620D02*
X0268931Y0279645D01*
X0268931Y0278633D02*
X0265388Y0278633D01*
X0265388Y0278633D02*
X0265894Y0278970D01*
X0265894Y0278970D02*
X0266232Y0279308D01*
X0266232Y0279308D02*
X0266400Y0279645D01*
X0209876Y0305854D02*
X0206333Y0305854D01*
X0206333Y0305854D02*
X0206333Y0305011D01*
X0206333Y0305011D02*
X0206502Y0304505D01*
X0206502Y0304505D02*
X0206839Y0304167D01*
X0206839Y0304167D02*
X0207177Y0303998D01*
X0207177Y0303998D02*
X0207851Y0303830D01*
X0207851Y0303830D02*
X0208358Y0303830D01*
X0208358Y0303830D02*
X0209033Y0303998D01*
X0209033Y0303998D02*
X0209370Y0304167D01*
X0209370Y0304167D02*
X0209707Y0304505D01*
X0209707Y0304505D02*
X0209876Y0305011D01*
X0209876Y0305011D02*
X0209876Y0305854D01*
X0209876Y0302311D02*
X0206333Y0302311D01*
X0206502Y0298768D02*
X0206333Y0299105D01*
X0206333Y0299105D02*
X0206333Y0299611D01*
X0206333Y0299611D02*
X0206502Y0300118D01*
X0206502Y0300118D02*
X0206839Y0300455D01*
X0206839Y0300455D02*
X0207177Y0300624D01*
X0207177Y0300624D02*
X0207851Y0300793D01*
X0207851Y0300793D02*
X0208358Y0300793D01*
X0208358Y0300793D02*
X0209033Y0300624D01*
X0209033Y0300624D02*
X0209370Y0300455D01*
X0209370Y0300455D02*
X0209707Y0300118D01*
X0209707Y0300118D02*
X0209876Y0299611D01*
X0209876Y0299611D02*
X0209876Y0299274D01*
X0209876Y0299274D02*
X0209707Y0298768D01*
X0209707Y0298768D02*
X0209539Y0298599D01*
X0209539Y0298599D02*
X0208358Y0298599D01*
X0208358Y0298599D02*
X0208358Y0299274D01*
X0207514Y0295562D02*
X0209876Y0295562D01*
X0206164Y0296406D02*
X0208695Y0297249D01*
X0208695Y0297249D02*
X0208695Y0295056D01*
X0206333Y0294043D02*
X0206333Y0291681D01*
X0206333Y0291681D02*
X0209876Y0293200D01*
X0063813Y0332110D02*
X0060270Y0332110D01*
X0060270Y0332110D02*
X0062801Y0330928D01*
X0062801Y0330928D02*
X0060270Y0329747D01*
X0060270Y0329747D02*
X0063813Y0329747D01*
X0062801Y0328229D02*
X0062801Y0326542D01*
X0063813Y0328566D02*
X0060270Y0327385D01*
X0060270Y0327385D02*
X0063813Y0326204D01*
X0061957Y0323842D02*
X0061957Y0325023D01*
X0063813Y0325023D02*
X0060270Y0325023D01*
X0060270Y0325023D02*
X0060270Y0323336D01*
X0082486Y0368218D02*
X0082317Y0368555D01*
X0082317Y0368555D02*
X0082317Y0369061D01*
X0082317Y0369061D02*
X0082486Y0369567D01*
X0082486Y0369567D02*
X0082823Y0369905D01*
X0082823Y0369905D02*
X0083161Y0370074D01*
X0083161Y0370074D02*
X0083836Y0370242D01*
X0083836Y0370242D02*
X0084342Y0370242D01*
X0084342Y0370242D02*
X0085017Y0370074D01*
X0085017Y0370074D02*
X0085354Y0369905D01*
X0085354Y0369905D02*
X0085692Y0369567D01*
X0085692Y0369567D02*
X0085860Y0369061D01*
X0085860Y0369061D02*
X0085860Y0368724D01*
X0085860Y0368724D02*
X0085692Y0368218D01*
X0085692Y0368218D02*
X0085523Y0368049D01*
X0085523Y0368049D02*
X0084342Y0368049D01*
X0084342Y0368049D02*
X0084342Y0368724D01*
X0085860Y0366530D02*
X0082317Y0366530D01*
X0082317Y0366530D02*
X0085860Y0364506D01*
X0085860Y0364506D02*
X0082317Y0364506D01*
X0085860Y0362818D02*
X0082317Y0362818D01*
X0082317Y0362818D02*
X0082317Y0361975D01*
X0082317Y0361975D02*
X0082486Y0361468D01*
X0082486Y0361468D02*
X0082823Y0361131D01*
X0082823Y0361131D02*
X0083161Y0360962D01*
X0083161Y0360962D02*
X0083836Y0360793D01*
X0083836Y0360793D02*
X0084342Y0360793D01*
X0084342Y0360793D02*
X0085017Y0360962D01*
X0085017Y0360962D02*
X0085354Y0361131D01*
X0085354Y0361131D02*
X0085692Y0361468D01*
X0085692Y0361468D02*
X0085860Y0361975D01*
X0085860Y0361975D02*
X0085860Y0362818D01*
X0084848Y0359444D02*
X0084848Y0357756D01*
X0085860Y0359781D02*
X0082317Y0358600D01*
X0082317Y0358600D02*
X0085860Y0357419D01*
X0127649Y0337294D02*
X0127818Y0337463D01*
X0127818Y0337463D02*
X0127986Y0337969D01*
X0127986Y0337969D02*
X0127986Y0338307D01*
X0127986Y0338307D02*
X0127818Y0338813D01*
X0127818Y0338813D02*
X0127480Y0339150D01*
X0127480Y0339150D02*
X0127143Y0339319D01*
X0127143Y0339319D02*
X0126468Y0339488D01*
X0126468Y0339488D02*
X0125962Y0339488D01*
X0125962Y0339488D02*
X0125287Y0339319D01*
X0125287Y0339319D02*
X0124949Y0339150D01*
X0124949Y0339150D02*
X0124612Y0338813D01*
X0124612Y0338813D02*
X0124443Y0338307D01*
X0124443Y0338307D02*
X0124443Y0337969D01*
X0124443Y0337969D02*
X0124612Y0337463D01*
X0124612Y0337463D02*
X0124781Y0337294D01*
X0127986Y0334088D02*
X0127986Y0335776D01*
X0127986Y0335776D02*
X0124443Y0335776D01*
X0124443Y0333414D02*
X0124443Y0331389D01*
X0127986Y0332401D02*
X0124443Y0332401D01*
X0045478Y0369230D02*
X0045478Y0367543D01*
X0046490Y0369567D02*
X0042947Y0368386D01*
X0042947Y0368386D02*
X0046490Y0367205D01*
X0042947Y0366530D02*
X0046490Y0365349D01*
X0046490Y0365349D02*
X0042947Y0364168D01*
X0046490Y0361131D02*
X0046490Y0363156D01*
X0046490Y0362143D02*
X0042947Y0362143D01*
X0042947Y0362143D02*
X0043453Y0362481D01*
X0043453Y0362481D02*
X0043791Y0362818D01*
X0043791Y0362818D02*
X0043959Y0363156D01*
X0046490Y0357756D02*
X0046490Y0359781D01*
X0046490Y0358769D02*
X0042947Y0358769D01*
X0042947Y0358769D02*
X0043453Y0359106D01*
X0043453Y0359106D02*
X0043791Y0359444D01*
X0043791Y0359444D02*
X0043959Y0359781D01*
X0118313Y0293369D02*
X0118144Y0293706D01*
X0118144Y0293706D02*
X0118144Y0294212D01*
X0118144Y0294212D02*
X0118313Y0294718D01*
X0118313Y0294718D02*
X0118650Y0295056D01*
X0118650Y0295056D02*
X0118988Y0295225D01*
X0118988Y0295225D02*
X0119662Y0295393D01*
X0119662Y0295393D02*
X0120169Y0295393D01*
X0120169Y0295393D02*
X0120844Y0295225D01*
X0120844Y0295225D02*
X0121181Y0295056D01*
X0121181Y0295056D02*
X0121519Y0294718D01*
X0121519Y0294718D02*
X0121687Y0294212D01*
X0121687Y0294212D02*
X0121687Y0293875D01*
X0121687Y0293875D02*
X0121519Y0293369D01*
X0121519Y0293369D02*
X0121350Y0293200D01*
X0121350Y0293200D02*
X0120169Y0293200D01*
X0120169Y0293200D02*
X0120169Y0293875D01*
X0121687Y0291681D02*
X0118144Y0291681D01*
X0118144Y0291681D02*
X0121687Y0289656D01*
X0121687Y0289656D02*
X0118144Y0289656D01*
X0121687Y0287969D02*
X0118144Y0287969D01*
X0118144Y0287969D02*
X0118144Y0287126D01*
X0118144Y0287126D02*
X0118313Y0286619D01*
X0118313Y0286619D02*
X0118650Y0286282D01*
X0118650Y0286282D02*
X0118988Y0286113D01*
X0118988Y0286113D02*
X0119662Y0285944D01*
X0119662Y0285944D02*
X0120169Y0285944D01*
X0120169Y0285944D02*
X0120844Y0286113D01*
X0120844Y0286113D02*
X0121181Y0286282D01*
X0121181Y0286282D02*
X0121519Y0286619D01*
X0121519Y0286619D02*
X0121687Y0287126D01*
X0121687Y0287126D02*
X0121687Y0287969D01*
X0220281Y0290219D02*
X0220112Y0290556D01*
X0220112Y0290556D02*
X0220112Y0291063D01*
X0220112Y0291063D02*
X0220281Y0291569D01*
X0220281Y0291569D02*
X0220619Y0291906D01*
X0220619Y0291906D02*
X0220956Y0292075D01*
X0220956Y0292075D02*
X0221631Y0292244D01*
X0221631Y0292244D02*
X0222137Y0292244D01*
X0222137Y0292244D02*
X0222812Y0292075D01*
X0222812Y0292075D02*
X0223150Y0291906D01*
X0223150Y0291906D02*
X0223487Y0291569D01*
X0223487Y0291569D02*
X0223656Y0291063D01*
X0223656Y0291063D02*
X0223656Y0290725D01*
X0223656Y0290725D02*
X0223487Y0290219D01*
X0223487Y0290219D02*
X0223318Y0290050D01*
X0223318Y0290050D02*
X0222137Y0290050D01*
X0222137Y0290050D02*
X0222137Y0290725D01*
X0223656Y0288532D02*
X0220112Y0288532D01*
X0220112Y0288532D02*
X0223656Y0286507D01*
X0223656Y0286507D02*
X0220112Y0286507D01*
X0223656Y0284820D02*
X0220112Y0284820D01*
X0220112Y0284820D02*
X0220112Y0283976D01*
X0220112Y0283976D02*
X0220281Y0283470D01*
X0220281Y0283470D02*
X0220619Y0283132D01*
X0220619Y0283132D02*
X0220956Y0282964D01*
X0220956Y0282964D02*
X0221631Y0282795D01*
X0221631Y0282795D02*
X0222137Y0282795D01*
X0222137Y0282795D02*
X0222812Y0282964D01*
X0222812Y0282964D02*
X0223150Y0283132D01*
X0223150Y0283132D02*
X0223487Y0283470D01*
X0223487Y0283470D02*
X0223656Y0283976D01*
X0223656Y0283976D02*
X0223656Y0284820D01*
X0240585Y0338925D02*
X0237042Y0338925D01*
X0237042Y0338925D02*
X0237042Y0338082D01*
X0237042Y0338082D02*
X0237210Y0337575D01*
X0237210Y0337575D02*
X0237548Y0337238D01*
X0237548Y0337238D02*
X0237885Y0337069D01*
X0237885Y0337069D02*
X0238560Y0336901D01*
X0238560Y0336901D02*
X0239066Y0336901D01*
X0239066Y0336901D02*
X0239741Y0337069D01*
X0239741Y0337069D02*
X0240079Y0337238D01*
X0240079Y0337238D02*
X0240416Y0337575D01*
X0240416Y0337575D02*
X0240585Y0338082D01*
X0240585Y0338082D02*
X0240585Y0338925D01*
X0240585Y0335382D02*
X0237042Y0335382D01*
X0240585Y0333695D02*
X0237042Y0333695D01*
X0237042Y0333695D02*
X0240585Y0331670D01*
X0240585Y0331670D02*
X0237042Y0331670D01*
X0237379Y0330151D02*
X0237210Y0329983D01*
X0237210Y0329983D02*
X0237042Y0329645D01*
X0237042Y0329645D02*
X0237042Y0328802D01*
X0237042Y0328802D02*
X0237210Y0328464D01*
X0237210Y0328464D02*
X0237379Y0328295D01*
X0237379Y0328295D02*
X0237716Y0328127D01*
X0237716Y0328127D02*
X0238054Y0328127D01*
X0238054Y0328127D02*
X0238560Y0328295D01*
X0238560Y0328295D02*
X0240585Y0330320D01*
X0240585Y0330320D02*
X0240585Y0328127D01*
X0237042Y0325933D02*
X0237042Y0325596D01*
X0237042Y0325596D02*
X0237210Y0325258D01*
X0237210Y0325258D02*
X0237379Y0325090D01*
X0237379Y0325090D02*
X0237716Y0324921D01*
X0237716Y0324921D02*
X0238391Y0324752D01*
X0238391Y0324752D02*
X0239235Y0324752D01*
X0239235Y0324752D02*
X0239910Y0324921D01*
X0239910Y0324921D02*
X0240247Y0325090D01*
X0240247Y0325090D02*
X0240416Y0325258D01*
X0240416Y0325258D02*
X0240585Y0325596D01*
X0240585Y0325596D02*
X0240585Y0325933D01*
X0240585Y0325933D02*
X0240416Y0326271D01*
X0240416Y0326271D02*
X0240247Y0326439D01*
X0240247Y0326439D02*
X0239910Y0326608D01*
X0239910Y0326608D02*
X0239235Y0326777D01*
X0239235Y0326777D02*
X0238391Y0326777D01*
X0238391Y0326777D02*
X0237716Y0326608D01*
X0237716Y0326608D02*
X0237379Y0326439D01*
X0237379Y0326439D02*
X0237210Y0326271D01*
X0237210Y0326271D02*
X0237042Y0325933D01*
X0083161Y0330591D02*
X0083330Y0330760D01*
X0083330Y0330760D02*
X0083498Y0331266D01*
X0083498Y0331266D02*
X0083498Y0331603D01*
X0083498Y0331603D02*
X0083330Y0332110D01*
X0083330Y0332110D02*
X0082992Y0332447D01*
X0082992Y0332447D02*
X0082655Y0332616D01*
X0082655Y0332616D02*
X0081980Y0332784D01*
X0081980Y0332784D02*
X0081474Y0332784D01*
X0081474Y0332784D02*
X0080799Y0332616D01*
X0080799Y0332616D02*
X0080461Y0332447D01*
X0080461Y0332447D02*
X0080124Y0332110D01*
X0080124Y0332110D02*
X0079955Y0331603D01*
X0079955Y0331603D02*
X0079955Y0331266D01*
X0079955Y0331266D02*
X0080124Y0330760D01*
X0080124Y0330760D02*
X0080292Y0330591D01*
X0082486Y0329241D02*
X0082486Y0327554D01*
X0083498Y0329579D02*
X0079955Y0328398D01*
X0079955Y0328398D02*
X0083498Y0327216D01*
X0083498Y0326035D02*
X0079955Y0326035D01*
X0079955Y0326035D02*
X0082486Y0324854D01*
X0082486Y0324854D02*
X0079955Y0323673D01*
X0079955Y0323673D02*
X0083498Y0323673D01*
X0258702Y0306959D02*
X0256196Y0304454D01*
X0256196Y0304454D02*
X0257151Y0303499D01*
X0257151Y0303499D02*
X0257508Y0303380D01*
X0257508Y0303380D02*
X0257747Y0303380D01*
X0257747Y0303380D02*
X0258105Y0303499D01*
X0258105Y0303499D02*
X0258463Y0303857D01*
X0258463Y0303857D02*
X0258582Y0304215D01*
X0258582Y0304215D02*
X0258582Y0304454D01*
X0258582Y0304454D02*
X0258463Y0304811D01*
X0258463Y0304811D02*
X0257508Y0305766D01*
X0258702Y0301948D02*
X0260730Y0303976D01*
X0260730Y0303976D02*
X0261088Y0304096D01*
X0261088Y0304096D02*
X0261326Y0304096D01*
X0261326Y0304096D02*
X0261684Y0303976D01*
X0261684Y0303976D02*
X0262162Y0303499D01*
X0262162Y0303499D02*
X0262281Y0303141D01*
X0262281Y0303141D02*
X0262281Y0302902D01*
X0262281Y0302902D02*
X0262162Y0302545D01*
X0262162Y0302545D02*
X0260133Y0300516D01*
X0263832Y0301829D02*
X0261326Y0299323D01*
X0261326Y0299323D02*
X0263951Y0300278D01*
X0263951Y0300278D02*
X0262997Y0297653D01*
X0262997Y0297653D02*
X0265502Y0300158D01*
X0266695Y0298965D02*
X0264190Y0296460D01*
X0264190Y0296460D02*
X0265144Y0295505D01*
X0265144Y0295505D02*
X0265502Y0295386D01*
X0265502Y0295386D02*
X0265741Y0295386D01*
X0265741Y0295386D02*
X0266099Y0295505D01*
X0266099Y0295505D02*
X0266457Y0295863D01*
X0266457Y0295863D02*
X0266576Y0296221D01*
X0266576Y0296221D02*
X0266576Y0296460D01*
X0266576Y0296460D02*
X0266457Y0296818D01*
X0266457Y0296818D02*
X0265502Y0297772D01*
X0032317Y0299162D02*
X0028774Y0299162D01*
X0028943Y0295618D02*
X0028774Y0295956D01*
X0028774Y0295956D02*
X0028774Y0296462D01*
X0028774Y0296462D02*
X0028943Y0296968D01*
X0028943Y0296968D02*
X0029280Y0297306D01*
X0029280Y0297306D02*
X0029617Y0297474D01*
X0029617Y0297474D02*
X0030292Y0297643D01*
X0030292Y0297643D02*
X0030799Y0297643D01*
X0030799Y0297643D02*
X0031474Y0297474D01*
X0031474Y0297474D02*
X0031811Y0297306D01*
X0031811Y0297306D02*
X0032148Y0296968D01*
X0032148Y0296968D02*
X0032317Y0296462D01*
X0032317Y0296462D02*
X0032317Y0296124D01*
X0032317Y0296124D02*
X0032148Y0295618D01*
X0032148Y0295618D02*
X0031980Y0295450D01*
X0031980Y0295450D02*
X0030799Y0295450D01*
X0030799Y0295450D02*
X0030799Y0296124D01*
X0032317Y0293931D02*
X0028774Y0293931D01*
X0028774Y0293931D02*
X0032317Y0291906D01*
X0032317Y0291906D02*
X0028774Y0291906D01*
X0032317Y0288363D02*
X0032317Y0290388D01*
X0032317Y0289375D02*
X0028774Y0289375D01*
X0028774Y0289375D02*
X0029280Y0289713D01*
X0029280Y0289713D02*
X0029617Y0290050D01*
X0029617Y0290050D02*
X0029786Y0290388D01*
X0092328Y0367824D02*
X0092160Y0368161D01*
X0092160Y0368161D02*
X0092160Y0368667D01*
X0092160Y0368667D02*
X0092328Y0369174D01*
X0092328Y0369174D02*
X0092666Y0369511D01*
X0092666Y0369511D02*
X0093003Y0369680D01*
X0093003Y0369680D02*
X0093678Y0369849D01*
X0093678Y0369849D02*
X0094184Y0369849D01*
X0094184Y0369849D02*
X0094859Y0369680D01*
X0094859Y0369680D02*
X0095197Y0369511D01*
X0095197Y0369511D02*
X0095534Y0369174D01*
X0095534Y0369174D02*
X0095703Y0368667D01*
X0095703Y0368667D02*
X0095703Y0368330D01*
X0095703Y0368330D02*
X0095534Y0367824D01*
X0095534Y0367824D02*
X0095366Y0367655D01*
X0095366Y0367655D02*
X0094184Y0367655D01*
X0094184Y0367655D02*
X0094184Y0368330D01*
X0095703Y0366137D02*
X0092160Y0366137D01*
X0092160Y0366137D02*
X0095703Y0364112D01*
X0095703Y0364112D02*
X0092160Y0364112D01*
X0095703Y0362425D02*
X0092160Y0362425D01*
X0092160Y0362425D02*
X0092160Y0361581D01*
X0092160Y0361581D02*
X0092328Y0361075D01*
X0092328Y0361075D02*
X0092666Y0360737D01*
X0092666Y0360737D02*
X0093003Y0360568D01*
X0093003Y0360568D02*
X0093678Y0360400D01*
X0093678Y0360400D02*
X0094184Y0360400D01*
X0094184Y0360400D02*
X0094859Y0360568D01*
X0094859Y0360568D02*
X0095197Y0360737D01*
X0095197Y0360737D02*
X0095534Y0361075D01*
X0095534Y0361075D02*
X0095703Y0361581D01*
X0095703Y0361581D02*
X0095703Y0362425D01*
X0094691Y0359050D02*
X0094691Y0357363D01*
X0095703Y0359387D02*
X0092160Y0358206D01*
X0092160Y0358206D02*
X0095703Y0357025D01*
X0253746Y0368218D02*
X0253577Y0368555D01*
X0253577Y0368555D02*
X0253577Y0369061D01*
X0253577Y0369061D02*
X0253746Y0369567D01*
X0253746Y0369567D02*
X0254083Y0369905D01*
X0254083Y0369905D02*
X0254421Y0370074D01*
X0254421Y0370074D02*
X0255096Y0370242D01*
X0255096Y0370242D02*
X0255602Y0370242D01*
X0255602Y0370242D02*
X0256277Y0370074D01*
X0256277Y0370074D02*
X0256614Y0369905D01*
X0256614Y0369905D02*
X0256952Y0369567D01*
X0256952Y0369567D02*
X0257120Y0369061D01*
X0257120Y0369061D02*
X0257120Y0368724D01*
X0257120Y0368724D02*
X0256952Y0368218D01*
X0256952Y0368218D02*
X0256783Y0368049D01*
X0256783Y0368049D02*
X0255602Y0368049D01*
X0255602Y0368049D02*
X0255602Y0368724D01*
X0257120Y0366530D02*
X0253577Y0366530D01*
X0253577Y0366530D02*
X0257120Y0364506D01*
X0257120Y0364506D02*
X0253577Y0364506D01*
X0257120Y0362818D02*
X0253577Y0362818D01*
X0253577Y0362818D02*
X0253577Y0361975D01*
X0253577Y0361975D02*
X0253746Y0361468D01*
X0253746Y0361468D02*
X0254083Y0361131D01*
X0254083Y0361131D02*
X0254421Y0360962D01*
X0254421Y0360962D02*
X0255096Y0360793D01*
X0255096Y0360793D02*
X0255602Y0360793D01*
X0255602Y0360793D02*
X0256277Y0360962D01*
X0256277Y0360962D02*
X0256614Y0361131D01*
X0256614Y0361131D02*
X0256952Y0361468D01*
X0256952Y0361468D02*
X0257120Y0361975D01*
X0257120Y0361975D02*
X0257120Y0362818D01*
X0256108Y0359444D02*
X0256108Y0357756D01*
X0257120Y0359781D02*
X0253577Y0358600D01*
X0253577Y0358600D02*
X0257120Y0357419D01*
X0043116Y0303605D02*
X0042947Y0303942D01*
X0042947Y0303942D02*
X0042947Y0304448D01*
X0042947Y0304448D02*
X0043116Y0304955D01*
X0043116Y0304955D02*
X0043453Y0305292D01*
X0043453Y0305292D02*
X0043791Y0305461D01*
X0043791Y0305461D02*
X0044466Y0305629D01*
X0044466Y0305629D02*
X0044972Y0305629D01*
X0044972Y0305629D02*
X0045647Y0305461D01*
X0045647Y0305461D02*
X0045984Y0305292D01*
X0045984Y0305292D02*
X0046322Y0304955D01*
X0046322Y0304955D02*
X0046490Y0304448D01*
X0046490Y0304448D02*
X0046490Y0304111D01*
X0046490Y0304111D02*
X0046322Y0303605D01*
X0046322Y0303605D02*
X0046153Y0303436D01*
X0046153Y0303436D02*
X0044972Y0303436D01*
X0044972Y0303436D02*
X0044972Y0304111D01*
X0046490Y0301917D02*
X0042947Y0301917D01*
X0042947Y0301917D02*
X0046490Y0299893D01*
X0046490Y0299893D02*
X0042947Y0299893D01*
X0046490Y0298205D02*
X0042947Y0298205D01*
X0042947Y0298205D02*
X0042947Y0297362D01*
X0042947Y0297362D02*
X0043116Y0296856D01*
X0043116Y0296856D02*
X0043453Y0296518D01*
X0043453Y0296518D02*
X0043791Y0296349D01*
X0043791Y0296349D02*
X0044466Y0296181D01*
X0044466Y0296181D02*
X0044972Y0296181D01*
X0044972Y0296181D02*
X0045647Y0296349D01*
X0045647Y0296349D02*
X0045984Y0296518D01*
X0045984Y0296518D02*
X0046322Y0296856D01*
X0046322Y0296856D02*
X0046490Y0297362D01*
X0046490Y0297362D02*
X0046490Y0298205D01*
X0045478Y0294831D02*
X0045478Y0293144D01*
X0046490Y0295168D02*
X0042947Y0293987D01*
X0042947Y0293987D02*
X0046490Y0292806D01*
X0090304Y0294437D02*
X0090304Y0293256D01*
X0092160Y0292750D02*
X0092160Y0294437D01*
X0092160Y0294437D02*
X0088616Y0294437D01*
X0088616Y0294437D02*
X0088616Y0292750D01*
X0088616Y0291737D02*
X0088616Y0289713D01*
X0092160Y0290725D02*
X0088616Y0290725D01*
X0090304Y0287351D02*
X0090472Y0286844D01*
X0090472Y0286844D02*
X0090641Y0286676D01*
X0090641Y0286676D02*
X0090979Y0286507D01*
X0090979Y0286507D02*
X0091485Y0286507D01*
X0091485Y0286507D02*
X0091822Y0286676D01*
X0091822Y0286676D02*
X0091991Y0286844D01*
X0091991Y0286844D02*
X0092160Y0287182D01*
X0092160Y0287182D02*
X0092160Y0288532D01*
X0092160Y0288532D02*
X0088616Y0288532D01*
X0088616Y0288532D02*
X0088616Y0287351D01*
X0088616Y0287351D02*
X0088785Y0287013D01*
X0088785Y0287013D02*
X0088954Y0286844D01*
X0088954Y0286844D02*
X0089291Y0286676D01*
X0089291Y0286676D02*
X0089629Y0286676D01*
X0089629Y0286676D02*
X0089966Y0286844D01*
X0089966Y0286844D02*
X0090135Y0287013D01*
X0090135Y0287013D02*
X0090304Y0287351D01*
X0090304Y0287351D02*
X0090304Y0288532D01*
X0090810Y0284988D02*
X0090810Y0282289D01*
X0074837Y0339432D02*
X0074837Y0337407D01*
X0078380Y0338419D02*
X0074837Y0338419D01*
X0078380Y0336226D02*
X0074837Y0336226D01*
X0074837Y0336226D02*
X0074837Y0334876D01*
X0074837Y0334876D02*
X0075006Y0334538D01*
X0075006Y0334538D02*
X0075174Y0334370D01*
X0075174Y0334370D02*
X0075512Y0334201D01*
X0075512Y0334201D02*
X0076018Y0334201D01*
X0076018Y0334201D02*
X0076355Y0334370D01*
X0076355Y0334370D02*
X0076524Y0334538D01*
X0076524Y0334538D02*
X0076693Y0334876D01*
X0076693Y0334876D02*
X0076693Y0336226D01*
X0078211Y0332851D02*
X0078380Y0332345D01*
X0078380Y0332345D02*
X0078380Y0331501D01*
X0078380Y0331501D02*
X0078211Y0331164D01*
X0078211Y0331164D02*
X0078043Y0330995D01*
X0078043Y0330995D02*
X0077705Y0330826D01*
X0077705Y0330826D02*
X0077368Y0330826D01*
X0077368Y0330826D02*
X0077030Y0330995D01*
X0077030Y0330995D02*
X0076862Y0331164D01*
X0076862Y0331164D02*
X0076693Y0331501D01*
X0076693Y0331501D02*
X0076524Y0332176D01*
X0076524Y0332176D02*
X0076355Y0332514D01*
X0076355Y0332514D02*
X0076187Y0332682D01*
X0076187Y0332682D02*
X0075849Y0332851D01*
X0075849Y0332851D02*
X0075512Y0332851D01*
X0075512Y0332851D02*
X0075174Y0332682D01*
X0075174Y0332682D02*
X0075006Y0332514D01*
X0075006Y0332514D02*
X0074837Y0332176D01*
X0074837Y0332176D02*
X0074837Y0331333D01*
X0074837Y0331333D02*
X0075006Y0330826D01*
X0075174Y0329476D02*
X0075006Y0329308D01*
X0075006Y0329308D02*
X0074837Y0328970D01*
X0074837Y0328970D02*
X0074837Y0328127D01*
X0074837Y0328127D02*
X0075006Y0327789D01*
X0075006Y0327789D02*
X0075174Y0327620D01*
X0075174Y0327620D02*
X0075512Y0327452D01*
X0075512Y0327452D02*
X0075849Y0327452D01*
X0075849Y0327452D02*
X0076355Y0327620D01*
X0076355Y0327620D02*
X0078380Y0329645D01*
X0078380Y0329645D02*
X0078380Y0327452D01*
X0263588Y0368218D02*
X0263420Y0368555D01*
X0263420Y0368555D02*
X0263420Y0369061D01*
X0263420Y0369061D02*
X0263588Y0369567D01*
X0263588Y0369567D02*
X0263926Y0369905D01*
X0263926Y0369905D02*
X0264263Y0370074D01*
X0264263Y0370074D02*
X0264938Y0370242D01*
X0264938Y0370242D02*
X0265444Y0370242D01*
X0265444Y0370242D02*
X0266119Y0370074D01*
X0266119Y0370074D02*
X0266457Y0369905D01*
X0266457Y0369905D02*
X0266794Y0369567D01*
X0266794Y0369567D02*
X0266963Y0369061D01*
X0266963Y0369061D02*
X0266963Y0368724D01*
X0266963Y0368724D02*
X0266794Y0368218D01*
X0266794Y0368218D02*
X0266625Y0368049D01*
X0266625Y0368049D02*
X0265444Y0368049D01*
X0265444Y0368049D02*
X0265444Y0368724D01*
X0266963Y0366530D02*
X0263420Y0366530D01*
X0263420Y0366530D02*
X0266963Y0364506D01*
X0266963Y0364506D02*
X0263420Y0364506D01*
X0266963Y0362818D02*
X0263420Y0362818D01*
X0263420Y0362818D02*
X0263420Y0361975D01*
X0263420Y0361975D02*
X0263588Y0361468D01*
X0263588Y0361468D02*
X0263926Y0361131D01*
X0263926Y0361131D02*
X0264263Y0360962D01*
X0264263Y0360962D02*
X0264938Y0360793D01*
X0264938Y0360793D02*
X0265444Y0360793D01*
X0265444Y0360793D02*
X0266119Y0360962D01*
X0266119Y0360962D02*
X0266457Y0361131D01*
X0266457Y0361131D02*
X0266794Y0361468D01*
X0266794Y0361468D02*
X0266963Y0361975D01*
X0266963Y0361975D02*
X0266963Y0362818D01*
X0265950Y0359444D02*
X0265950Y0357756D01*
X0266963Y0359781D02*
X0263420Y0358600D01*
X0263420Y0358600D02*
X0266963Y0357419D01*
X0216738Y0369624D02*
X0216738Y0367936D01*
X0217750Y0369961D02*
X0214207Y0368780D01*
X0214207Y0368780D02*
X0217750Y0367599D01*
X0214207Y0366924D02*
X0217750Y0365743D01*
X0217750Y0365743D02*
X0214207Y0364562D01*
X0217750Y0361525D02*
X0217750Y0363549D01*
X0217750Y0362537D02*
X0214207Y0362537D01*
X0214207Y0362537D02*
X0214713Y0362874D01*
X0214713Y0362874D02*
X0215051Y0363212D01*
X0215051Y0363212D02*
X0215219Y0363549D01*
X0214207Y0359331D02*
X0214207Y0358994D01*
X0214207Y0358994D02*
X0214376Y0358656D01*
X0214376Y0358656D02*
X0214544Y0358488D01*
X0214544Y0358488D02*
X0214882Y0358319D01*
X0214882Y0358319D02*
X0215557Y0358150D01*
X0215557Y0358150D02*
X0216400Y0358150D01*
X0216400Y0358150D02*
X0217075Y0358319D01*
X0217075Y0358319D02*
X0217413Y0358488D01*
X0217413Y0358488D02*
X0217581Y0358656D01*
X0217581Y0358656D02*
X0217750Y0358994D01*
X0217750Y0358994D02*
X0217750Y0359331D01*
X0217750Y0359331D02*
X0217581Y0359669D01*
X0217581Y0359669D02*
X0217413Y0359837D01*
X0217413Y0359837D02*
X0217075Y0360006D01*
X0217075Y0360006D02*
X0216400Y0360175D01*
X0216400Y0360175D02*
X0215557Y0360175D01*
X0215557Y0360175D02*
X0214882Y0360006D01*
X0214882Y0360006D02*
X0214544Y0359837D01*
X0214544Y0359837D02*
X0214376Y0359669D01*
X0214376Y0359669D02*
X0214207Y0359331D01*
X0121687Y0369342D02*
X0121687Y0367318D01*
X0125231Y0368330D02*
X0121687Y0368330D01*
X0125231Y0366137D02*
X0121687Y0366137D01*
X0121687Y0366137D02*
X0121687Y0364787D01*
X0121687Y0364787D02*
X0121856Y0364449D01*
X0121856Y0364449D02*
X0122025Y0364281D01*
X0122025Y0364281D02*
X0122362Y0364112D01*
X0122362Y0364112D02*
X0122868Y0364112D01*
X0122868Y0364112D02*
X0123206Y0364281D01*
X0123206Y0364281D02*
X0123375Y0364449D01*
X0123375Y0364449D02*
X0123543Y0364787D01*
X0123543Y0364787D02*
X0123543Y0366137D01*
X0125062Y0362762D02*
X0125231Y0362256D01*
X0125231Y0362256D02*
X0125231Y0361412D01*
X0125231Y0361412D02*
X0125062Y0361075D01*
X0125062Y0361075D02*
X0124893Y0360906D01*
X0124893Y0360906D02*
X0124556Y0360737D01*
X0124556Y0360737D02*
X0124218Y0360737D01*
X0124218Y0360737D02*
X0123881Y0360906D01*
X0123881Y0360906D02*
X0123712Y0361075D01*
X0123712Y0361075D02*
X0123543Y0361412D01*
X0123543Y0361412D02*
X0123375Y0362087D01*
X0123375Y0362087D02*
X0123206Y0362425D01*
X0123206Y0362425D02*
X0123037Y0362593D01*
X0123037Y0362593D02*
X0122700Y0362762D01*
X0122700Y0362762D02*
X0122362Y0362762D01*
X0122362Y0362762D02*
X0122025Y0362593D01*
X0122025Y0362593D02*
X0121856Y0362425D01*
X0121856Y0362425D02*
X0121687Y0362087D01*
X0121687Y0362087D02*
X0121687Y0361243D01*
X0121687Y0361243D02*
X0121856Y0360737D01*
X0125231Y0357363D02*
X0125231Y0359387D01*
X0125231Y0358375D02*
X0121687Y0358375D01*
X0121687Y0358375D02*
X0122193Y0358712D01*
X0122193Y0358712D02*
X0122531Y0359050D01*
X0122531Y0359050D02*
X0122700Y0359387D01*
X0062238Y0293256D02*
X0058695Y0293256D01*
X0058864Y0289713D02*
X0058695Y0290050D01*
X0058695Y0290050D02*
X0058695Y0290556D01*
X0058695Y0290556D02*
X0058864Y0291063D01*
X0058864Y0291063D02*
X0059201Y0291400D01*
X0059201Y0291400D02*
X0059539Y0291569D01*
X0059539Y0291569D02*
X0060214Y0291737D01*
X0060214Y0291737D02*
X0060720Y0291737D01*
X0060720Y0291737D02*
X0061395Y0291569D01*
X0061395Y0291569D02*
X0061732Y0291400D01*
X0061732Y0291400D02*
X0062070Y0291063D01*
X0062070Y0291063D02*
X0062238Y0290556D01*
X0062238Y0290556D02*
X0062238Y0290219D01*
X0062238Y0290219D02*
X0062070Y0289713D01*
X0062070Y0289713D02*
X0061901Y0289544D01*
X0061901Y0289544D02*
X0060720Y0289544D01*
X0060720Y0289544D02*
X0060720Y0290219D01*
X0062238Y0288025D02*
X0058695Y0288025D01*
X0058695Y0288025D02*
X0062238Y0286001D01*
X0062238Y0286001D02*
X0058695Y0286001D01*
X0058695Y0284651D02*
X0058695Y0282457D01*
X0058695Y0282457D02*
X0060045Y0283638D01*
X0060045Y0283638D02*
X0060045Y0283132D01*
X0060045Y0283132D02*
X0060214Y0282795D01*
X0060214Y0282795D02*
X0060382Y0282626D01*
X0060382Y0282626D02*
X0060720Y0282457D01*
X0060720Y0282457D02*
X0061563Y0282457D01*
X0061563Y0282457D02*
X0061901Y0282626D01*
X0061901Y0282626D02*
X0062070Y0282795D01*
X0062070Y0282795D02*
X0062238Y0283132D01*
X0062238Y0283132D02*
X0062238Y0284145D01*
X0062238Y0284145D02*
X0062070Y0284482D01*
X0062070Y0284482D02*
X0061901Y0284651D01*
X0235129Y0333966D02*
X0235298Y0334134D01*
X0235298Y0334134D02*
X0235467Y0334640D01*
X0235467Y0334640D02*
X0235467Y0334978D01*
X0235467Y0334978D02*
X0235298Y0335484D01*
X0235298Y0335484D02*
X0234961Y0335822D01*
X0234961Y0335822D02*
X0234623Y0335990D01*
X0234623Y0335990D02*
X0233948Y0336159D01*
X0233948Y0336159D02*
X0233442Y0336159D01*
X0233442Y0336159D02*
X0232767Y0335990D01*
X0232767Y0335990D02*
X0232430Y0335822D01*
X0232430Y0335822D02*
X0232092Y0335484D01*
X0232092Y0335484D02*
X0231923Y0334978D01*
X0231923Y0334978D02*
X0231923Y0334640D01*
X0231923Y0334640D02*
X0232092Y0334134D01*
X0232092Y0334134D02*
X0232261Y0333966D01*
X0234454Y0332616D02*
X0234454Y0330928D01*
X0235467Y0332953D02*
X0231923Y0331772D01*
X0231923Y0331772D02*
X0235467Y0330591D01*
X0235467Y0329410D02*
X0231923Y0329410D01*
X0231923Y0329410D02*
X0235467Y0327385D01*
X0235467Y0327385D02*
X0231923Y0327385D01*
X0235467Y0325698D02*
X0231923Y0325698D01*
X0233611Y0325698D02*
X0233611Y0323673D01*
X0235467Y0323673D02*
X0231923Y0323673D01*
X0297896Y0305461D02*
X0297896Y0302761D01*
X0299246Y0304111D02*
X0296547Y0304111D01*
X0295703Y0299387D02*
X0295703Y0301074D01*
X0295703Y0301074D02*
X0297390Y0301243D01*
X0297390Y0301243D02*
X0297222Y0301074D01*
X0297222Y0301074D02*
X0297053Y0300736D01*
X0297053Y0300736D02*
X0297053Y0299893D01*
X0297053Y0299893D02*
X0297222Y0299555D01*
X0297222Y0299555D02*
X0297390Y0299387D01*
X0297390Y0299387D02*
X0297728Y0299218D01*
X0297728Y0299218D02*
X0298571Y0299218D01*
X0298571Y0299218D02*
X0298909Y0299387D01*
X0298909Y0299387D02*
X0299078Y0299555D01*
X0299078Y0299555D02*
X0299246Y0299893D01*
X0299246Y0299893D02*
X0299246Y0300736D01*
X0299246Y0300736D02*
X0299078Y0301074D01*
X0299078Y0301074D02*
X0298909Y0301243D01*
X0047503Y0339319D02*
X0047503Y0336619D01*
X0048853Y0337969D02*
X0046153Y0337969D01*
X0045309Y0333245D02*
X0045309Y0334932D01*
X0045309Y0334932D02*
X0046997Y0335101D01*
X0046997Y0335101D02*
X0046828Y0334932D01*
X0046828Y0334932D02*
X0046659Y0334595D01*
X0046659Y0334595D02*
X0046659Y0333751D01*
X0046659Y0333751D02*
X0046828Y0333414D01*
X0046828Y0333414D02*
X0046997Y0333245D01*
X0046997Y0333245D02*
X0047334Y0333076D01*
X0047334Y0333076D02*
X0048178Y0333076D01*
X0048178Y0333076D02*
X0048515Y0333245D01*
X0048515Y0333245D02*
X0048684Y0333414D01*
X0048684Y0333414D02*
X0048853Y0333751D01*
X0048853Y0333751D02*
X0048853Y0334595D01*
X0048853Y0334595D02*
X0048684Y0334932D01*
X0048684Y0334932D02*
X0048515Y0335101D01*
X0289404Y0338925D02*
X0285860Y0338925D01*
X0285860Y0338925D02*
X0288391Y0337744D01*
X0288391Y0337744D02*
X0285860Y0336563D01*
X0285860Y0336563D02*
X0289404Y0336563D01*
X0288391Y0335045D02*
X0288391Y0333357D01*
X0289404Y0335382D02*
X0285860Y0334201D01*
X0285860Y0334201D02*
X0289404Y0333020D01*
X0289404Y0331839D02*
X0285860Y0331839D01*
X0289404Y0330151D02*
X0285860Y0330151D01*
X0285860Y0330151D02*
X0289404Y0328127D01*
X0289404Y0328127D02*
X0285860Y0328127D01*
X0239066Y0303830D02*
X0239235Y0303998D01*
X0239235Y0303998D02*
X0239404Y0304505D01*
X0239404Y0304505D02*
X0239404Y0304842D01*
X0239404Y0304842D02*
X0239235Y0305348D01*
X0239235Y0305348D02*
X0238898Y0305686D01*
X0238898Y0305686D02*
X0238560Y0305854D01*
X0238560Y0305854D02*
X0237885Y0306023D01*
X0237885Y0306023D02*
X0237379Y0306023D01*
X0237379Y0306023D02*
X0236704Y0305854D01*
X0236704Y0305854D02*
X0236367Y0305686D01*
X0236367Y0305686D02*
X0236029Y0305348D01*
X0236029Y0305348D02*
X0235860Y0304842D01*
X0235860Y0304842D02*
X0235860Y0304505D01*
X0235860Y0304505D02*
X0236029Y0303998D01*
X0236029Y0303998D02*
X0236198Y0303830D01*
X0238391Y0302480D02*
X0238391Y0300793D01*
X0239404Y0302817D02*
X0235860Y0301636D01*
X0235860Y0301636D02*
X0239404Y0300455D01*
X0239404Y0299274D02*
X0235860Y0299274D01*
X0235860Y0299274D02*
X0239404Y0297249D01*
X0239404Y0297249D02*
X0235860Y0297249D01*
X0239404Y0293875D02*
X0239404Y0295562D01*
X0239404Y0295562D02*
X0235860Y0295562D01*
X0306952Y0305461D02*
X0306952Y0302761D01*
X0308301Y0304111D02*
X0305602Y0304111D01*
X0304758Y0299387D02*
X0304758Y0301074D01*
X0304758Y0301074D02*
X0306445Y0301243D01*
X0306445Y0301243D02*
X0306277Y0301074D01*
X0306277Y0301074D02*
X0306108Y0300736D01*
X0306108Y0300736D02*
X0306108Y0299893D01*
X0306108Y0299893D02*
X0306277Y0299555D01*
X0306277Y0299555D02*
X0306445Y0299387D01*
X0306445Y0299387D02*
X0306783Y0299218D01*
X0306783Y0299218D02*
X0307626Y0299218D01*
X0307626Y0299218D02*
X0307964Y0299387D01*
X0307964Y0299387D02*
X0308133Y0299555D01*
X0308133Y0299555D02*
X0308301Y0299893D01*
X0308301Y0299893D02*
X0308301Y0300736D01*
X0308301Y0300736D02*
X0308133Y0301074D01*
X0308133Y0301074D02*
X0307964Y0301243D01*
X0205152Y0337115D02*
X0201608Y0337115D01*
X0201608Y0337115D02*
X0201608Y0336272D01*
X0201608Y0336272D02*
X0201777Y0335765D01*
X0201777Y0335765D02*
X0202115Y0335428D01*
X0202115Y0335428D02*
X0202452Y0335259D01*
X0202452Y0335259D02*
X0203127Y0335090D01*
X0203127Y0335090D02*
X0203633Y0335090D01*
X0203633Y0335090D02*
X0204308Y0335259D01*
X0204308Y0335259D02*
X0204646Y0335428D01*
X0204646Y0335428D02*
X0204983Y0335765D01*
X0204983Y0335765D02*
X0205152Y0336272D01*
X0205152Y0336272D02*
X0205152Y0337115D01*
X0205152Y0333572D02*
X0201608Y0333572D01*
X0201777Y0330029D02*
X0201608Y0330366D01*
X0201608Y0330366D02*
X0201608Y0330872D01*
X0201608Y0330872D02*
X0201777Y0331378D01*
X0201777Y0331378D02*
X0202115Y0331716D01*
X0202115Y0331716D02*
X0202452Y0331885D01*
X0202452Y0331885D02*
X0203127Y0332053D01*
X0203127Y0332053D02*
X0203633Y0332053D01*
X0203633Y0332053D02*
X0204308Y0331885D01*
X0204308Y0331885D02*
X0204646Y0331716D01*
X0204646Y0331716D02*
X0204983Y0331378D01*
X0204983Y0331378D02*
X0205152Y0330872D01*
X0205152Y0330872D02*
X0205152Y0330535D01*
X0205152Y0330535D02*
X0204983Y0330029D01*
X0204983Y0330029D02*
X0204814Y0329860D01*
X0204814Y0329860D02*
X0203633Y0329860D01*
X0203633Y0329860D02*
X0203633Y0330535D01*
X0201608Y0328679D02*
X0201608Y0326485D01*
X0201608Y0326485D02*
X0202958Y0327666D01*
X0202958Y0327666D02*
X0202958Y0327160D01*
X0202958Y0327160D02*
X0203127Y0326823D01*
X0203127Y0326823D02*
X0203296Y0326654D01*
X0203296Y0326654D02*
X0203633Y0326485D01*
X0203633Y0326485D02*
X0204477Y0326485D01*
X0204477Y0326485D02*
X0204814Y0326654D01*
X0204814Y0326654D02*
X0204983Y0326823D01*
X0204983Y0326823D02*
X0205152Y0327160D01*
X0205152Y0327160D02*
X0205152Y0328173D01*
X0205152Y0328173D02*
X0204983Y0328510D01*
X0204983Y0328510D02*
X0204814Y0328679D01*
X0201608Y0323279D02*
X0201608Y0324967D01*
X0201608Y0324967D02*
X0203296Y0325135D01*
X0203296Y0325135D02*
X0203127Y0324967D01*
X0203127Y0324967D02*
X0202958Y0324629D01*
X0202958Y0324629D02*
X0202958Y0323786D01*
X0202958Y0323786D02*
X0203127Y0323448D01*
X0203127Y0323448D02*
X0203296Y0323279D01*
X0203296Y0323279D02*
X0203633Y0323111D01*
X0203633Y0323111D02*
X0204477Y0323111D01*
X0204477Y0323111D02*
X0204814Y0323279D01*
X0204814Y0323279D02*
X0204983Y0323448D01*
X0204983Y0323448D02*
X0205152Y0323786D01*
X0205152Y0323786D02*
X0205152Y0324629D01*
X0205152Y0324629D02*
X0204983Y0324967D01*
X0204983Y0324967D02*
X0204814Y0325135D01*
X0102171Y0367824D02*
X0102002Y0368161D01*
X0102002Y0368161D02*
X0102002Y0368667D01*
X0102002Y0368667D02*
X0102171Y0369174D01*
X0102171Y0369174D02*
X0102508Y0369511D01*
X0102508Y0369511D02*
X0102846Y0369680D01*
X0102846Y0369680D02*
X0103521Y0369849D01*
X0103521Y0369849D02*
X0104027Y0369849D01*
X0104027Y0369849D02*
X0104702Y0369680D01*
X0104702Y0369680D02*
X0105039Y0369511D01*
X0105039Y0369511D02*
X0105377Y0369174D01*
X0105377Y0369174D02*
X0105546Y0368667D01*
X0105546Y0368667D02*
X0105546Y0368330D01*
X0105546Y0368330D02*
X0105377Y0367824D01*
X0105377Y0367824D02*
X0105208Y0367655D01*
X0105208Y0367655D02*
X0104027Y0367655D01*
X0104027Y0367655D02*
X0104027Y0368330D01*
X0105546Y0366137D02*
X0102002Y0366137D01*
X0102002Y0366137D02*
X0105546Y0364112D01*
X0105546Y0364112D02*
X0102002Y0364112D01*
X0105546Y0362425D02*
X0102002Y0362425D01*
X0102002Y0362425D02*
X0102002Y0361581D01*
X0102002Y0361581D02*
X0102171Y0361075D01*
X0102171Y0361075D02*
X0102508Y0360737D01*
X0102508Y0360737D02*
X0102846Y0360568D01*
X0102846Y0360568D02*
X0103521Y0360400D01*
X0103521Y0360400D02*
X0104027Y0360400D01*
X0104027Y0360400D02*
X0104702Y0360568D01*
X0104702Y0360568D02*
X0105039Y0360737D01*
X0105039Y0360737D02*
X0105377Y0361075D01*
X0105377Y0361075D02*
X0105546Y0361581D01*
X0105546Y0361581D02*
X0105546Y0362425D01*
X0104533Y0359050D02*
X0104533Y0357363D01*
X0105546Y0359387D02*
X0102002Y0358206D01*
X0102002Y0358206D02*
X0105546Y0357025D01*
X0241766Y0334697D02*
X0241766Y0334022D01*
X0241766Y0334022D02*
X0241935Y0333684D01*
X0241935Y0333684D02*
X0242272Y0333347D01*
X0242272Y0333347D02*
X0242947Y0333178D01*
X0242947Y0333178D02*
X0244128Y0333178D01*
X0244128Y0333178D02*
X0244803Y0333347D01*
X0244803Y0333347D02*
X0245141Y0333684D01*
X0245141Y0333684D02*
X0245309Y0334022D01*
X0245309Y0334022D02*
X0245309Y0334697D01*
X0245309Y0334697D02*
X0245141Y0335034D01*
X0245141Y0335034D02*
X0244803Y0335372D01*
X0244803Y0335372D02*
X0244128Y0335540D01*
X0244128Y0335540D02*
X0242947Y0335540D01*
X0242947Y0335540D02*
X0242272Y0335372D01*
X0242272Y0335372D02*
X0241935Y0335034D01*
X0241935Y0335034D02*
X0241766Y0334697D01*
X0245647Y0332503D02*
X0245647Y0329804D01*
X0244297Y0329129D02*
X0244297Y0327441D01*
X0245309Y0329466D02*
X0241766Y0328285D01*
X0241766Y0328285D02*
X0245309Y0327104D01*
X0244972Y0323898D02*
X0245141Y0324067D01*
X0245141Y0324067D02*
X0245309Y0324573D01*
X0245309Y0324573D02*
X0245309Y0324910D01*
X0245309Y0324910D02*
X0245141Y0325417D01*
X0245141Y0325417D02*
X0244803Y0325754D01*
X0244803Y0325754D02*
X0244466Y0325923D01*
X0244466Y0325923D02*
X0243791Y0326092D01*
X0243791Y0326092D02*
X0243285Y0326092D01*
X0243285Y0326092D02*
X0242610Y0325923D01*
X0242610Y0325923D02*
X0242272Y0325754D01*
X0242272Y0325754D02*
X0241935Y0325417D01*
X0241935Y0325417D02*
X0241766Y0324910D01*
X0241766Y0324910D02*
X0241766Y0324573D01*
X0241766Y0324573D02*
X0241935Y0324067D01*
X0241935Y0324067D02*
X0242103Y0323898D01*
X0308695Y0338925D02*
X0305152Y0338925D01*
X0305152Y0338925D02*
X0305152Y0338082D01*
X0305152Y0338082D02*
X0305321Y0337575D01*
X0305321Y0337575D02*
X0305658Y0337238D01*
X0305658Y0337238D02*
X0305995Y0337069D01*
X0305995Y0337069D02*
X0306670Y0336901D01*
X0306670Y0336901D02*
X0307177Y0336901D01*
X0307177Y0336901D02*
X0307851Y0337069D01*
X0307851Y0337069D02*
X0308189Y0337238D01*
X0308189Y0337238D02*
X0308526Y0337575D01*
X0308526Y0337575D02*
X0308695Y0338082D01*
X0308695Y0338082D02*
X0308695Y0338925D01*
X0308695Y0335382D02*
X0305152Y0335382D01*
X0305321Y0331839D02*
X0305152Y0332176D01*
X0305152Y0332176D02*
X0305152Y0332682D01*
X0305152Y0332682D02*
X0305321Y0333189D01*
X0305321Y0333189D02*
X0305658Y0333526D01*
X0305658Y0333526D02*
X0305995Y0333695D01*
X0305995Y0333695D02*
X0306670Y0333863D01*
X0306670Y0333863D02*
X0307177Y0333863D01*
X0307177Y0333863D02*
X0307851Y0333695D01*
X0307851Y0333695D02*
X0308189Y0333526D01*
X0308189Y0333526D02*
X0308526Y0333189D01*
X0308526Y0333189D02*
X0308695Y0332682D01*
X0308695Y0332682D02*
X0308695Y0332345D01*
X0308695Y0332345D02*
X0308526Y0331839D01*
X0308526Y0331839D02*
X0308358Y0331670D01*
X0308358Y0331670D02*
X0307177Y0331670D01*
X0307177Y0331670D02*
X0307177Y0332345D01*
X0308695Y0328295D02*
X0308695Y0330320D01*
X0308695Y0329308D02*
X0305152Y0329308D01*
X0305152Y0329308D02*
X0305658Y0329645D01*
X0305658Y0329645D02*
X0305995Y0329983D01*
X0305995Y0329983D02*
X0306164Y0330320D01*
X0305152Y0327114D02*
X0305152Y0324921D01*
X0305152Y0324921D02*
X0306502Y0326102D01*
X0306502Y0326102D02*
X0306502Y0325596D01*
X0306502Y0325596D02*
X0306670Y0325258D01*
X0306670Y0325258D02*
X0306839Y0325090D01*
X0306839Y0325090D02*
X0307177Y0324921D01*
X0307177Y0324921D02*
X0308020Y0324921D01*
X0308020Y0324921D02*
X0308358Y0325090D01*
X0308358Y0325090D02*
X0308526Y0325258D01*
X0308526Y0325258D02*
X0308695Y0325596D01*
X0308695Y0325596D02*
X0308695Y0326608D01*
X0308695Y0326608D02*
X0308526Y0326946D01*
X0308526Y0326946D02*
X0308358Y0327114D01*
X0270225Y0305067D02*
X0270225Y0306248D01*
X0272081Y0306248D02*
X0268538Y0306248D01*
X0268538Y0306248D02*
X0268538Y0304561D01*
X0271069Y0303380D02*
X0271069Y0301692D01*
X0272081Y0303717D02*
X0268538Y0302536D01*
X0268538Y0302536D02*
X0272081Y0301355D01*
X0272081Y0300174D02*
X0268538Y0300174D01*
X0268538Y0300174D02*
X0272081Y0298149D01*
X0272081Y0298149D02*
X0268538Y0298149D01*
X0235242Y0290219D02*
X0235073Y0290556D01*
X0235073Y0290556D02*
X0235073Y0291063D01*
X0235073Y0291063D02*
X0235242Y0291569D01*
X0235242Y0291569D02*
X0235579Y0291906D01*
X0235579Y0291906D02*
X0235917Y0292075D01*
X0235917Y0292075D02*
X0236592Y0292244D01*
X0236592Y0292244D02*
X0237098Y0292244D01*
X0237098Y0292244D02*
X0237773Y0292075D01*
X0237773Y0292075D02*
X0238110Y0291906D01*
X0238110Y0291906D02*
X0238448Y0291569D01*
X0238448Y0291569D02*
X0238616Y0291063D01*
X0238616Y0291063D02*
X0238616Y0290725D01*
X0238616Y0290725D02*
X0238448Y0290219D01*
X0238448Y0290219D02*
X0238279Y0290050D01*
X0238279Y0290050D02*
X0237098Y0290050D01*
X0237098Y0290050D02*
X0237098Y0290725D01*
X0238616Y0288532D02*
X0235073Y0288532D01*
X0235073Y0288532D02*
X0238616Y0286507D01*
X0238616Y0286507D02*
X0235073Y0286507D01*
X0238616Y0284820D02*
X0235073Y0284820D01*
X0235073Y0284820D02*
X0235073Y0283976D01*
X0235073Y0283976D02*
X0235242Y0283470D01*
X0235242Y0283470D02*
X0235579Y0283132D01*
X0235579Y0283132D02*
X0235917Y0282964D01*
X0235917Y0282964D02*
X0236592Y0282795D01*
X0236592Y0282795D02*
X0237098Y0282795D01*
X0237098Y0282795D02*
X0237773Y0282964D01*
X0237773Y0282964D02*
X0238110Y0283132D01*
X0238110Y0283132D02*
X0238448Y0283470D01*
X0238448Y0283470D02*
X0238616Y0283976D01*
X0238616Y0283976D02*
X0238616Y0284820D01*
X0306333Y0364168D02*
X0306333Y0365855D01*
X0306333Y0365855D02*
X0302790Y0365855D01*
X0306164Y0363156D02*
X0306333Y0362649D01*
X0306333Y0362649D02*
X0306333Y0361806D01*
X0306333Y0361806D02*
X0306164Y0361468D01*
X0306164Y0361468D02*
X0305995Y0361300D01*
X0305995Y0361300D02*
X0305658Y0361131D01*
X0305658Y0361131D02*
X0305321Y0361131D01*
X0305321Y0361131D02*
X0304983Y0361300D01*
X0304983Y0361300D02*
X0304814Y0361468D01*
X0304814Y0361468D02*
X0304646Y0361806D01*
X0304646Y0361806D02*
X0304477Y0362481D01*
X0304477Y0362481D02*
X0304308Y0362818D01*
X0304308Y0362818D02*
X0304139Y0362987D01*
X0304139Y0362987D02*
X0303802Y0363156D01*
X0303802Y0363156D02*
X0303465Y0363156D01*
X0303465Y0363156D02*
X0303127Y0362987D01*
X0303127Y0362987D02*
X0302958Y0362818D01*
X0302958Y0362818D02*
X0302790Y0362481D01*
X0302790Y0362481D02*
X0302790Y0361637D01*
X0302790Y0361637D02*
X0302958Y0361131D01*
X0306333Y0357756D02*
X0306333Y0359781D01*
X0306333Y0358769D02*
X0302790Y0358769D01*
X0302790Y0358769D02*
X0303296Y0359106D01*
X0303296Y0359106D02*
X0303633Y0359444D01*
X0303633Y0359444D02*
X0303802Y0359781D01*
X0207739Y0290500D02*
X0207739Y0287800D01*
X0209089Y0289150D02*
X0206389Y0289150D01*
X0209089Y0284257D02*
X0209089Y0286282D01*
X0209089Y0285270D02*
X0205546Y0285270D01*
X0205546Y0285270D02*
X0206052Y0285607D01*
X0206052Y0285607D02*
X0206389Y0285944D01*
X0206389Y0285944D02*
X0206558Y0286282D01*
X0205883Y0282907D02*
X0205714Y0282739D01*
X0205714Y0282739D02*
X0205546Y0282401D01*
X0205546Y0282401D02*
X0205546Y0281557D01*
X0205546Y0281557D02*
X0205714Y0281220D01*
X0205714Y0281220D02*
X0205883Y0281051D01*
X0205883Y0281051D02*
X0206220Y0280883D01*
X0206220Y0280883D02*
X0206558Y0280883D01*
X0206558Y0280883D02*
X0207064Y0281051D01*
X0207064Y0281051D02*
X0209089Y0283076D01*
X0209089Y0283076D02*
X0209089Y0280883D01*
X0133667Y0303998D02*
X0133498Y0304336D01*
X0133498Y0304336D02*
X0133498Y0304842D01*
X0133498Y0304842D02*
X0133667Y0305348D01*
X0133667Y0305348D02*
X0134004Y0305686D01*
X0134004Y0305686D02*
X0134342Y0305854D01*
X0134342Y0305854D02*
X0135017Y0306023D01*
X0135017Y0306023D02*
X0135523Y0306023D01*
X0135523Y0306023D02*
X0136198Y0305854D01*
X0136198Y0305854D02*
X0136535Y0305686D01*
X0136535Y0305686D02*
X0136873Y0305348D01*
X0136873Y0305348D02*
X0137042Y0304842D01*
X0137042Y0304842D02*
X0137042Y0304505D01*
X0137042Y0304505D02*
X0136873Y0303998D01*
X0136873Y0303998D02*
X0136704Y0303830D01*
X0136704Y0303830D02*
X0135523Y0303830D01*
X0135523Y0303830D02*
X0135523Y0304505D01*
X0137042Y0302311D02*
X0133498Y0302311D01*
X0133498Y0302311D02*
X0137042Y0300286D01*
X0137042Y0300286D02*
X0133498Y0300286D01*
X0137042Y0298599D02*
X0133498Y0298599D01*
X0133498Y0298599D02*
X0133498Y0297755D01*
X0133498Y0297755D02*
X0133667Y0297249D01*
X0133667Y0297249D02*
X0134004Y0296912D01*
X0134004Y0296912D02*
X0134342Y0296743D01*
X0134342Y0296743D02*
X0135017Y0296574D01*
X0135017Y0296574D02*
X0135523Y0296574D01*
X0135523Y0296574D02*
X0136198Y0296743D01*
X0136198Y0296743D02*
X0136535Y0296912D01*
X0136535Y0296912D02*
X0136873Y0297249D01*
X0136873Y0297249D02*
X0137042Y0297755D01*
X0137042Y0297755D02*
X0137042Y0298599D01*
X0136029Y0295225D02*
X0136029Y0293537D01*
X0137042Y0295562D02*
X0133498Y0294381D01*
X0133498Y0294381D02*
X0137042Y0293200D01*
X0047671Y0291288D02*
X0044128Y0291288D01*
X0044297Y0287744D02*
X0044128Y0288082D01*
X0044128Y0288082D02*
X0044128Y0288588D01*
X0044128Y0288588D02*
X0044297Y0289094D01*
X0044297Y0289094D02*
X0044634Y0289432D01*
X0044634Y0289432D02*
X0044972Y0289600D01*
X0044972Y0289600D02*
X0045647Y0289769D01*
X0045647Y0289769D02*
X0046153Y0289769D01*
X0046153Y0289769D02*
X0046828Y0289600D01*
X0046828Y0289600D02*
X0047165Y0289432D01*
X0047165Y0289432D02*
X0047503Y0289094D01*
X0047503Y0289094D02*
X0047671Y0288588D01*
X0047671Y0288588D02*
X0047671Y0288250D01*
X0047671Y0288250D02*
X0047503Y0287744D01*
X0047503Y0287744D02*
X0047334Y0287575D01*
X0047334Y0287575D02*
X0046153Y0287575D01*
X0046153Y0287575D02*
X0046153Y0288250D01*
X0047671Y0286057D02*
X0044128Y0286057D01*
X0044128Y0286057D02*
X0047671Y0284032D01*
X0047671Y0284032D02*
X0044128Y0284032D01*
X0045309Y0280826D02*
X0047671Y0280826D01*
X0043959Y0281670D02*
X0046490Y0282514D01*
X0046490Y0282514D02*
X0046490Y0280320D01*
X0054983Y0363999D02*
X0054983Y0361300D01*
X0056333Y0362649D02*
X0053633Y0362649D01*
X0052790Y0357925D02*
X0052790Y0359612D01*
X0052790Y0359612D02*
X0054477Y0359781D01*
X0054477Y0359781D02*
X0054308Y0359612D01*
X0054308Y0359612D02*
X0054139Y0359275D01*
X0054139Y0359275D02*
X0054139Y0358431D01*
X0054139Y0358431D02*
X0054308Y0358094D01*
X0054308Y0358094D02*
X0054477Y0357925D01*
X0054477Y0357925D02*
X0054814Y0357756D01*
X0054814Y0357756D02*
X0055658Y0357756D01*
X0055658Y0357756D02*
X0055995Y0357925D01*
X0055995Y0357925D02*
X0056164Y0358094D01*
X0056164Y0358094D02*
X0056333Y0358431D01*
X0056333Y0358431D02*
X0056333Y0359275D01*
X0056333Y0359275D02*
X0056164Y0359612D01*
X0056164Y0359612D02*
X0055995Y0359781D01*
X0196097Y0338296D02*
X0192553Y0338296D01*
X0192553Y0338296D02*
X0192553Y0337453D01*
X0192553Y0337453D02*
X0192722Y0336946D01*
X0192722Y0336946D02*
X0193060Y0336609D01*
X0193060Y0336609D02*
X0193397Y0336440D01*
X0193397Y0336440D02*
X0194072Y0336272D01*
X0194072Y0336272D02*
X0194578Y0336272D01*
X0194578Y0336272D02*
X0195253Y0336440D01*
X0195253Y0336440D02*
X0195590Y0336609D01*
X0195590Y0336609D02*
X0195928Y0336946D01*
X0195928Y0336946D02*
X0196097Y0337453D01*
X0196097Y0337453D02*
X0196097Y0338296D01*
X0196097Y0334753D02*
X0192553Y0334753D01*
X0192722Y0331210D02*
X0192553Y0331547D01*
X0192553Y0331547D02*
X0192553Y0332053D01*
X0192553Y0332053D02*
X0192722Y0332560D01*
X0192722Y0332560D02*
X0193060Y0332897D01*
X0193060Y0332897D02*
X0193397Y0333066D01*
X0193397Y0333066D02*
X0194072Y0333234D01*
X0194072Y0333234D02*
X0194578Y0333234D01*
X0194578Y0333234D02*
X0195253Y0333066D01*
X0195253Y0333066D02*
X0195590Y0332897D01*
X0195590Y0332897D02*
X0195928Y0332560D01*
X0195928Y0332560D02*
X0196097Y0332053D01*
X0196097Y0332053D02*
X0196097Y0331716D01*
X0196097Y0331716D02*
X0195928Y0331210D01*
X0195928Y0331210D02*
X0195759Y0331041D01*
X0195759Y0331041D02*
X0194578Y0331041D01*
X0194578Y0331041D02*
X0194578Y0331716D01*
X0192553Y0329860D02*
X0192553Y0327666D01*
X0192553Y0327666D02*
X0193903Y0328847D01*
X0193903Y0328847D02*
X0193903Y0328341D01*
X0193903Y0328341D02*
X0194072Y0328004D01*
X0194072Y0328004D02*
X0194241Y0327835D01*
X0194241Y0327835D02*
X0194578Y0327666D01*
X0194578Y0327666D02*
X0195422Y0327666D01*
X0195422Y0327666D02*
X0195759Y0327835D01*
X0195759Y0327835D02*
X0195928Y0328004D01*
X0195928Y0328004D02*
X0196097Y0328341D01*
X0196097Y0328341D02*
X0196097Y0329354D01*
X0196097Y0329354D02*
X0195928Y0329691D01*
X0195928Y0329691D02*
X0195759Y0329860D01*
X0192553Y0324629D02*
X0192553Y0325304D01*
X0192553Y0325304D02*
X0192722Y0325642D01*
X0192722Y0325642D02*
X0192891Y0325810D01*
X0192891Y0325810D02*
X0193397Y0326148D01*
X0193397Y0326148D02*
X0194072Y0326317D01*
X0194072Y0326317D02*
X0195422Y0326317D01*
X0195422Y0326317D02*
X0195759Y0326148D01*
X0195759Y0326148D02*
X0195928Y0325979D01*
X0195928Y0325979D02*
X0196097Y0325642D01*
X0196097Y0325642D02*
X0196097Y0324967D01*
X0196097Y0324967D02*
X0195928Y0324629D01*
X0195928Y0324629D02*
X0195759Y0324461D01*
X0195759Y0324461D02*
X0195422Y0324292D01*
X0195422Y0324292D02*
X0194578Y0324292D01*
X0194578Y0324292D02*
X0194241Y0324461D01*
X0194241Y0324461D02*
X0194072Y0324629D01*
X0194072Y0324629D02*
X0193903Y0324967D01*
X0193903Y0324967D02*
X0193903Y0325642D01*
X0193903Y0325642D02*
X0194072Y0325979D01*
X0194072Y0325979D02*
X0194241Y0326148D01*
X0194241Y0326148D02*
X0194578Y0326317D01*
X0105264Y0294437D02*
X0105264Y0293256D01*
X0107120Y0292750D02*
X0107120Y0294437D01*
X0107120Y0294437D02*
X0103577Y0294437D01*
X0103577Y0294437D02*
X0103577Y0292750D01*
X0103577Y0291737D02*
X0103577Y0289713D01*
X0107120Y0290725D02*
X0103577Y0290725D01*
X0105264Y0287351D02*
X0105433Y0286844D01*
X0105433Y0286844D02*
X0105602Y0286676D01*
X0105602Y0286676D02*
X0105939Y0286507D01*
X0105939Y0286507D02*
X0106445Y0286507D01*
X0106445Y0286507D02*
X0106783Y0286676D01*
X0106783Y0286676D02*
X0106952Y0286844D01*
X0106952Y0286844D02*
X0107120Y0287182D01*
X0107120Y0287182D02*
X0107120Y0288532D01*
X0107120Y0288532D02*
X0103577Y0288532D01*
X0103577Y0288532D02*
X0103577Y0287351D01*
X0103577Y0287351D02*
X0103746Y0287013D01*
X0103746Y0287013D02*
X0103914Y0286844D01*
X0103914Y0286844D02*
X0104252Y0286676D01*
X0104252Y0286676D02*
X0104589Y0286676D01*
X0104589Y0286676D02*
X0104927Y0286844D01*
X0104927Y0286844D02*
X0105096Y0287013D01*
X0105096Y0287013D02*
X0105264Y0287351D01*
X0105264Y0287351D02*
X0105264Y0288532D01*
X0105770Y0284988D02*
X0105770Y0282289D01*
X0107120Y0283638D02*
X0104421Y0283638D01*
X0144972Y0337294D02*
X0145141Y0337463D01*
X0145141Y0337463D02*
X0145309Y0337969D01*
X0145309Y0337969D02*
X0145309Y0338307D01*
X0145309Y0338307D02*
X0145141Y0338813D01*
X0145141Y0338813D02*
X0144803Y0339150D01*
X0144803Y0339150D02*
X0144466Y0339319D01*
X0144466Y0339319D02*
X0143791Y0339488D01*
X0143791Y0339488D02*
X0143285Y0339488D01*
X0143285Y0339488D02*
X0142610Y0339319D01*
X0142610Y0339319D02*
X0142272Y0339150D01*
X0142272Y0339150D02*
X0141935Y0338813D01*
X0141935Y0338813D02*
X0141766Y0338307D01*
X0141766Y0338307D02*
X0141766Y0337969D01*
X0141766Y0337969D02*
X0141935Y0337463D01*
X0141935Y0337463D02*
X0142103Y0337294D01*
X0145309Y0333751D02*
X0143622Y0334932D01*
X0145309Y0335776D02*
X0141766Y0335776D01*
X0141766Y0335776D02*
X0141766Y0334426D01*
X0141766Y0334426D02*
X0141935Y0334088D01*
X0141935Y0334088D02*
X0142103Y0333920D01*
X0142103Y0333920D02*
X0142441Y0333751D01*
X0142441Y0333751D02*
X0142947Y0333751D01*
X0142947Y0333751D02*
X0143285Y0333920D01*
X0143285Y0333920D02*
X0143453Y0334088D01*
X0143453Y0334088D02*
X0143622Y0334426D01*
X0143622Y0334426D02*
X0143622Y0335776D01*
X0145309Y0332232D02*
X0141766Y0332232D01*
X0145309Y0330208D02*
X0143285Y0331726D01*
X0141766Y0330208D02*
X0143791Y0332232D01*
X0143959Y0328689D02*
X0143959Y0325989D01*
X0145309Y0327339D02*
X0142610Y0327339D01*
X0280349Y0304223D02*
X0278661Y0305405D01*
X0280349Y0306248D02*
X0276805Y0306248D01*
X0276805Y0306248D02*
X0276805Y0304898D01*
X0276805Y0304898D02*
X0276974Y0304561D01*
X0276974Y0304561D02*
X0277143Y0304392D01*
X0277143Y0304392D02*
X0277480Y0304223D01*
X0277480Y0304223D02*
X0277986Y0304223D01*
X0277986Y0304223D02*
X0278324Y0304392D01*
X0278324Y0304392D02*
X0278493Y0304561D01*
X0278493Y0304561D02*
X0278661Y0304898D01*
X0278661Y0304898D02*
X0278661Y0306248D01*
X0278493Y0302705D02*
X0278493Y0301524D01*
X0280349Y0301018D02*
X0280349Y0302705D01*
X0280349Y0302705D02*
X0276805Y0302705D01*
X0276805Y0302705D02*
X0276805Y0301018D01*
X0280349Y0297812D02*
X0280349Y0299499D01*
X0280349Y0299499D02*
X0276805Y0299499D01*
X0280349Y0294775D02*
X0280349Y0296799D01*
X0280349Y0295787D02*
X0276805Y0295787D01*
X0276805Y0295787D02*
X0277312Y0296124D01*
X0277312Y0296124D02*
X0277649Y0296462D01*
X0277649Y0296462D02*
X0277818Y0296799D01*
X0277986Y0291737D02*
X0280349Y0291737D01*
X0276637Y0292581D02*
X0279168Y0293425D01*
X0279168Y0293425D02*
X0279168Y0291231D01*
X0276805Y0289207D02*
X0276805Y0288869D01*
X0276805Y0288869D02*
X0276974Y0288532D01*
X0276974Y0288532D02*
X0277143Y0288363D01*
X0277143Y0288363D02*
X0277480Y0288194D01*
X0277480Y0288194D02*
X0278155Y0288025D01*
X0278155Y0288025D02*
X0278999Y0288025D01*
X0278999Y0288025D02*
X0279674Y0288194D01*
X0279674Y0288194D02*
X0280011Y0288363D01*
X0280011Y0288363D02*
X0280180Y0288532D01*
X0280180Y0288532D02*
X0280349Y0288869D01*
X0280349Y0288869D02*
X0280349Y0289207D01*
X0280349Y0289207D02*
X0280180Y0289544D01*
X0280180Y0289544D02*
X0280011Y0289713D01*
X0280011Y0289713D02*
X0279674Y0289881D01*
X0279674Y0289881D02*
X0278999Y0290050D01*
X0278999Y0290050D02*
X0278155Y0290050D01*
X0278155Y0290050D02*
X0277480Y0289881D01*
X0277480Y0289881D02*
X0277143Y0289713D01*
X0277143Y0289713D02*
X0276974Y0289544D01*
X0276974Y0289544D02*
X0276805Y0289207D01*
X0259483Y0339759D02*
X0259483Y0339084D01*
X0259483Y0339084D02*
X0259651Y0338746D01*
X0259651Y0338746D02*
X0259989Y0338409D01*
X0259989Y0338409D02*
X0260664Y0338240D01*
X0260664Y0338240D02*
X0261845Y0338240D01*
X0261845Y0338240D02*
X0262520Y0338409D01*
X0262520Y0338409D02*
X0262857Y0338746D01*
X0262857Y0338746D02*
X0263026Y0339084D01*
X0263026Y0339084D02*
X0263026Y0339759D01*
X0263026Y0339759D02*
X0262857Y0340096D01*
X0262857Y0340096D02*
X0262520Y0340434D01*
X0262520Y0340434D02*
X0261845Y0340602D01*
X0261845Y0340602D02*
X0260664Y0340602D01*
X0260664Y0340602D02*
X0259989Y0340434D01*
X0259989Y0340434D02*
X0259651Y0340096D01*
X0259651Y0340096D02*
X0259483Y0339759D01*
X0263363Y0337565D02*
X0263363Y0334865D01*
X0261170Y0332841D02*
X0261170Y0334022D01*
X0263026Y0334022D02*
X0259483Y0334022D01*
X0259483Y0334022D02*
X0259483Y0332335D01*
X0259483Y0330985D02*
X0262351Y0330985D01*
X0262351Y0330985D02*
X0262688Y0330816D01*
X0262688Y0330816D02*
X0262857Y0330647D01*
X0262857Y0330647D02*
X0263026Y0330310D01*
X0263026Y0330310D02*
X0263026Y0329635D01*
X0263026Y0329635D02*
X0262857Y0329297D01*
X0262857Y0329297D02*
X0262688Y0329129D01*
X0262688Y0329129D02*
X0262351Y0328960D01*
X0262351Y0328960D02*
X0259483Y0328960D01*
X0261170Y0327273D02*
X0261170Y0326092D01*
X0263026Y0325585D02*
X0263026Y0327273D01*
X0263026Y0327273D02*
X0259483Y0327273D01*
X0259483Y0327273D02*
X0259483Y0325585D01*
X0263026Y0322380D02*
X0263026Y0324067D01*
X0263026Y0324067D02*
X0259483Y0324067D01*
X0077199Y0294043D02*
X0073656Y0294043D01*
X0073824Y0290500D02*
X0073656Y0290838D01*
X0073656Y0290838D02*
X0073656Y0291344D01*
X0073656Y0291344D02*
X0073824Y0291850D01*
X0073824Y0291850D02*
X0074162Y0292187D01*
X0074162Y0292187D02*
X0074499Y0292356D01*
X0074499Y0292356D02*
X0075174Y0292525D01*
X0075174Y0292525D02*
X0075680Y0292525D01*
X0075680Y0292525D02*
X0076355Y0292356D01*
X0076355Y0292356D02*
X0076693Y0292187D01*
X0076693Y0292187D02*
X0077030Y0291850D01*
X0077030Y0291850D02*
X0077199Y0291344D01*
X0077199Y0291344D02*
X0077199Y0291006D01*
X0077199Y0291006D02*
X0077030Y0290500D01*
X0077030Y0290500D02*
X0076862Y0290331D01*
X0076862Y0290331D02*
X0075680Y0290331D01*
X0075680Y0290331D02*
X0075680Y0291006D01*
X0077199Y0288813D02*
X0073656Y0288813D01*
X0073656Y0288813D02*
X0077199Y0286788D01*
X0077199Y0286788D02*
X0073656Y0286788D01*
X0073993Y0285270D02*
X0073824Y0285101D01*
X0073824Y0285101D02*
X0073656Y0284763D01*
X0073656Y0284763D02*
X0073656Y0283920D01*
X0073656Y0283920D02*
X0073824Y0283582D01*
X0073824Y0283582D02*
X0073993Y0283414D01*
X0073993Y0283414D02*
X0074331Y0283245D01*
X0074331Y0283245D02*
X0074668Y0283245D01*
X0074668Y0283245D02*
X0075174Y0283414D01*
X0075174Y0283414D02*
X0077199Y0285438D01*
X0077199Y0285438D02*
X0077199Y0283245D01*
X0072643Y0367824D02*
X0072475Y0368161D01*
X0072475Y0368161D02*
X0072475Y0368667D01*
X0072475Y0368667D02*
X0072643Y0369174D01*
X0072643Y0369174D02*
X0072981Y0369511D01*
X0072981Y0369511D02*
X0073318Y0369680D01*
X0073318Y0369680D02*
X0073993Y0369849D01*
X0073993Y0369849D02*
X0074499Y0369849D01*
X0074499Y0369849D02*
X0075174Y0369680D01*
X0075174Y0369680D02*
X0075512Y0369511D01*
X0075512Y0369511D02*
X0075849Y0369174D01*
X0075849Y0369174D02*
X0076018Y0368667D01*
X0076018Y0368667D02*
X0076018Y0368330D01*
X0076018Y0368330D02*
X0075849Y0367824D01*
X0075849Y0367824D02*
X0075680Y0367655D01*
X0075680Y0367655D02*
X0074499Y0367655D01*
X0074499Y0367655D02*
X0074499Y0368330D01*
X0076018Y0366137D02*
X0072475Y0366137D01*
X0072475Y0366137D02*
X0076018Y0364112D01*
X0076018Y0364112D02*
X0072475Y0364112D01*
X0076018Y0362425D02*
X0072475Y0362425D01*
X0072475Y0362425D02*
X0072475Y0361581D01*
X0072475Y0361581D02*
X0072643Y0361075D01*
X0072643Y0361075D02*
X0072981Y0360737D01*
X0072981Y0360737D02*
X0073318Y0360568D01*
X0073318Y0360568D02*
X0073993Y0360400D01*
X0073993Y0360400D02*
X0074499Y0360400D01*
X0074499Y0360400D02*
X0075174Y0360568D01*
X0075174Y0360568D02*
X0075512Y0360737D01*
X0075512Y0360737D02*
X0075849Y0361075D01*
X0075849Y0361075D02*
X0076018Y0361581D01*
X0076018Y0361581D02*
X0076018Y0362425D01*
X0075006Y0359050D02*
X0075006Y0357363D01*
X0076018Y0359387D02*
X0072475Y0358206D01*
X0072475Y0358206D02*
X0076018Y0357025D01*
X0293172Y0329747D02*
X0293172Y0327048D01*
X0294522Y0328398D02*
X0291822Y0328398D01*
X0290979Y0323673D02*
X0290979Y0325360D01*
X0290979Y0325360D02*
X0292666Y0325529D01*
X0292666Y0325529D02*
X0292497Y0325360D01*
X0292497Y0325360D02*
X0292328Y0325023D01*
X0292328Y0325023D02*
X0292328Y0324179D01*
X0292328Y0324179D02*
X0292497Y0323842D01*
X0292497Y0323842D02*
X0292666Y0323673D01*
X0292666Y0323673D02*
X0293003Y0323504D01*
X0293003Y0323504D02*
X0293847Y0323504D01*
X0293847Y0323504D02*
X0294184Y0323673D01*
X0294184Y0323673D02*
X0294353Y0323842D01*
X0294353Y0323842D02*
X0294522Y0324179D01*
X0294522Y0324179D02*
X0294522Y0325023D01*
X0294522Y0325023D02*
X0294353Y0325360D01*
X0294353Y0325360D02*
X0294184Y0325529D01*
X0088223Y0338925D02*
X0084679Y0338925D01*
X0084679Y0338925D02*
X0087210Y0337744D01*
X0087210Y0337744D02*
X0084679Y0336563D01*
X0084679Y0336563D02*
X0088223Y0336563D01*
X0087210Y0335045D02*
X0087210Y0333357D01*
X0088223Y0335382D02*
X0084679Y0334201D01*
X0084679Y0334201D02*
X0088223Y0333020D01*
X0088223Y0331839D02*
X0084679Y0331839D01*
X0084679Y0331839D02*
X0084679Y0330489D01*
X0084679Y0330489D02*
X0084848Y0330151D01*
X0084848Y0330151D02*
X0085017Y0329983D01*
X0085017Y0329983D02*
X0085354Y0329814D01*
X0085354Y0329814D02*
X0085860Y0329814D01*
X0085860Y0329814D02*
X0086198Y0329983D01*
X0086198Y0329983D02*
X0086367Y0330151D01*
X0086367Y0330151D02*
X0086535Y0330489D01*
X0086535Y0330489D02*
X0086535Y0331839D01*
X0105854Y0302329D02*
X0105854Y0305872D01*
X0104167Y0302329D02*
X0104167Y0305872D01*
X0104167Y0305872D02*
X0102142Y0302329D01*
X0102142Y0302329D02*
X0102142Y0305872D01*
X0099443Y0305872D02*
X0099443Y0303341D01*
X0099443Y0303341D02*
X0099611Y0302835D01*
X0099611Y0302835D02*
X0099949Y0302497D01*
X0099949Y0302497D02*
X0100455Y0302329D01*
X0100455Y0302329D02*
X0100793Y0302329D01*
X0097755Y0302666D02*
X0097587Y0302497D01*
X0097587Y0302497D02*
X0097755Y0302329D01*
X0097755Y0302329D02*
X0097924Y0302497D01*
X0097924Y0302497D02*
X0097755Y0302666D01*
X0097755Y0302666D02*
X0097755Y0302329D01*
X0097755Y0304522D02*
X0097587Y0304353D01*
X0097587Y0304353D02*
X0097755Y0304185D01*
X0097755Y0304185D02*
X0097924Y0304353D01*
X0097924Y0304353D02*
X0097755Y0304522D01*
X0097755Y0304522D02*
X0097755Y0304185D01*
X0093537Y0305534D02*
X0093369Y0305703D01*
X0093369Y0305703D02*
X0093031Y0305872D01*
X0093031Y0305872D02*
X0092187Y0305872D01*
X0092187Y0305872D02*
X0091850Y0305703D01*
X0091850Y0305703D02*
X0091681Y0305534D01*
X0091681Y0305534D02*
X0091512Y0305197D01*
X0091512Y0305197D02*
X0091512Y0304859D01*
X0091512Y0304859D02*
X0091681Y0304353D01*
X0091681Y0304353D02*
X0093706Y0302329D01*
X0093706Y0302329D02*
X0091512Y0302329D01*
X0084932Y0305872D02*
X0082739Y0305872D01*
X0082739Y0305872D02*
X0083920Y0304522D01*
X0083920Y0304522D02*
X0083414Y0304522D01*
X0083414Y0304522D02*
X0083076Y0304353D01*
X0083076Y0304353D02*
X0082907Y0304185D01*
X0082907Y0304185D02*
X0082739Y0303847D01*
X0082739Y0303847D02*
X0082739Y0303003D01*
X0082739Y0303003D02*
X0082907Y0302666D01*
X0082907Y0302666D02*
X0083076Y0302497D01*
X0083076Y0302497D02*
X0083414Y0302329D01*
X0083414Y0302329D02*
X0084426Y0302329D01*
X0084426Y0302329D02*
X0084763Y0302497D01*
X0084763Y0302497D02*
X0084932Y0302666D01*
X0073965Y0302329D02*
X0075989Y0302329D01*
X0074977Y0302329D02*
X0074977Y0305872D01*
X0074977Y0305872D02*
X0075315Y0305366D01*
X0075315Y0305366D02*
X0075652Y0305028D01*
X0075652Y0305028D02*
X0075989Y0304859D01*
X0065528Y0304691D02*
X0065528Y0302329D01*
X0066372Y0306041D02*
X0067216Y0303510D01*
X0067216Y0303510D02*
X0065022Y0303510D01*
X0210270Y0338925D02*
X0206727Y0338925D01*
X0206727Y0338925D02*
X0206727Y0338082D01*
X0206727Y0338082D02*
X0206895Y0337575D01*
X0206895Y0337575D02*
X0207233Y0337238D01*
X0207233Y0337238D02*
X0207570Y0337069D01*
X0207570Y0337069D02*
X0208245Y0336901D01*
X0208245Y0336901D02*
X0208751Y0336901D01*
X0208751Y0336901D02*
X0209426Y0337069D01*
X0209426Y0337069D02*
X0209764Y0337238D01*
X0209764Y0337238D02*
X0210101Y0337575D01*
X0210101Y0337575D02*
X0210270Y0338082D01*
X0210270Y0338082D02*
X0210270Y0338925D01*
X0210270Y0335382D02*
X0206727Y0335382D01*
X0206895Y0331839D02*
X0206727Y0332176D01*
X0206727Y0332176D02*
X0206727Y0332682D01*
X0206727Y0332682D02*
X0206895Y0333189D01*
X0206895Y0333189D02*
X0207233Y0333526D01*
X0207233Y0333526D02*
X0207570Y0333695D01*
X0207570Y0333695D02*
X0208245Y0333863D01*
X0208245Y0333863D02*
X0208751Y0333863D01*
X0208751Y0333863D02*
X0209426Y0333695D01*
X0209426Y0333695D02*
X0209764Y0333526D01*
X0209764Y0333526D02*
X0210101Y0333189D01*
X0210101Y0333189D02*
X0210270Y0332682D01*
X0210270Y0332682D02*
X0210270Y0332345D01*
X0210270Y0332345D02*
X0210101Y0331839D01*
X0210101Y0331839D02*
X0209932Y0331670D01*
X0209932Y0331670D02*
X0208751Y0331670D01*
X0208751Y0331670D02*
X0208751Y0332345D01*
X0207064Y0330320D02*
X0206895Y0330151D01*
X0206895Y0330151D02*
X0206727Y0329814D01*
X0206727Y0329814D02*
X0206727Y0328970D01*
X0206727Y0328970D02*
X0206895Y0328633D01*
X0206895Y0328633D02*
X0207064Y0328464D01*
X0207064Y0328464D02*
X0207402Y0328295D01*
X0207402Y0328295D02*
X0207739Y0328295D01*
X0207739Y0328295D02*
X0208245Y0328464D01*
X0208245Y0328464D02*
X0210270Y0330489D01*
X0210270Y0330489D02*
X0210270Y0328295D01*
X0206727Y0327114D02*
X0206727Y0324921D01*
X0206727Y0324921D02*
X0208076Y0326102D01*
X0208076Y0326102D02*
X0208076Y0325596D01*
X0208076Y0325596D02*
X0208245Y0325258D01*
X0208245Y0325258D02*
X0208414Y0325090D01*
X0208414Y0325090D02*
X0208751Y0324921D01*
X0208751Y0324921D02*
X0209595Y0324921D01*
X0209595Y0324921D02*
X0209932Y0325090D01*
X0209932Y0325090D02*
X0210101Y0325258D01*
X0210101Y0325258D02*
X0210270Y0325596D01*
X0210270Y0325596D02*
X0210270Y0326608D01*
X0210270Y0326608D02*
X0210101Y0326946D01*
X0210101Y0326946D02*
X0209932Y0327114D01*
X0192778Y0298768D02*
X0192778Y0296068D01*
X0194128Y0297418D02*
X0191429Y0297418D01*
X0194128Y0292525D02*
X0194128Y0294550D01*
X0194128Y0293537D02*
X0190585Y0293537D01*
X0190585Y0293537D02*
X0191091Y0293875D01*
X0191091Y0293875D02*
X0191429Y0294212D01*
X0191429Y0294212D02*
X0191597Y0294550D01*
X0190922Y0291175D02*
X0190754Y0291006D01*
X0190754Y0291006D02*
X0190585Y0290669D01*
X0190585Y0290669D02*
X0190585Y0289825D01*
X0190585Y0289825D02*
X0190754Y0289488D01*
X0190754Y0289488D02*
X0190922Y0289319D01*
X0190922Y0289319D02*
X0191260Y0289150D01*
X0191260Y0289150D02*
X0191597Y0289150D01*
X0191597Y0289150D02*
X0192103Y0289319D01*
X0192103Y0289319D02*
X0194128Y0291344D01*
X0194128Y0291344D02*
X0194128Y0289150D01*
X0206895Y0369624D02*
X0206895Y0367936D01*
X0207908Y0369961D02*
X0204364Y0368780D01*
X0204364Y0368780D02*
X0207908Y0367599D01*
X0204364Y0366924D02*
X0207908Y0365743D01*
X0207908Y0365743D02*
X0204364Y0364562D01*
X0207908Y0361525D02*
X0207908Y0363549D01*
X0207908Y0362537D02*
X0204364Y0362537D01*
X0204364Y0362537D02*
X0204871Y0362874D01*
X0204871Y0362874D02*
X0205208Y0363212D01*
X0205208Y0363212D02*
X0205377Y0363549D01*
X0207908Y0358150D02*
X0207908Y0360175D01*
X0207908Y0359162D02*
X0204364Y0359162D01*
X0204364Y0359162D02*
X0204871Y0359500D01*
X0204871Y0359500D02*
X0205208Y0359837D01*
X0205208Y0359837D02*
X0205377Y0360175D01*
X0148459Y0305854D02*
X0144916Y0305854D01*
X0148459Y0303830D02*
X0146434Y0305348D01*
X0144916Y0303830D02*
X0146940Y0305854D01*
X0148459Y0302311D02*
X0144916Y0302311D01*
X0144916Y0302311D02*
X0148459Y0300286D01*
X0148459Y0300286D02*
X0144916Y0300286D01*
X0144916Y0297924D02*
X0144916Y0297249D01*
X0144916Y0297249D02*
X0145084Y0296912D01*
X0145084Y0296912D02*
X0145422Y0296574D01*
X0145422Y0296574D02*
X0146097Y0296406D01*
X0146097Y0296406D02*
X0147278Y0296406D01*
X0147278Y0296406D02*
X0147953Y0296574D01*
X0147953Y0296574D02*
X0148290Y0296912D01*
X0148290Y0296912D02*
X0148459Y0297249D01*
X0148459Y0297249D02*
X0148459Y0297924D01*
X0148459Y0297924D02*
X0148290Y0298262D01*
X0148290Y0298262D02*
X0147953Y0298599D01*
X0147953Y0298599D02*
X0147278Y0298768D01*
X0147278Y0298768D02*
X0146097Y0298768D01*
X0146097Y0298768D02*
X0145422Y0298599D01*
X0145422Y0298599D02*
X0145084Y0298262D01*
X0145084Y0298262D02*
X0144916Y0297924D01*
X0148121Y0292862D02*
X0148290Y0293031D01*
X0148290Y0293031D02*
X0148459Y0293537D01*
X0148459Y0293537D02*
X0148459Y0293875D01*
X0148459Y0293875D02*
X0148290Y0294381D01*
X0148290Y0294381D02*
X0147953Y0294718D01*
X0147953Y0294718D02*
X0147615Y0294887D01*
X0147615Y0294887D02*
X0146940Y0295056D01*
X0146940Y0295056D02*
X0146434Y0295056D01*
X0146434Y0295056D02*
X0145759Y0294887D01*
X0145759Y0294887D02*
X0145422Y0294718D01*
X0145422Y0294718D02*
X0145084Y0294381D01*
X0145084Y0294381D02*
X0144916Y0293875D01*
X0144916Y0293875D02*
X0144916Y0293537D01*
X0144916Y0293537D02*
X0145084Y0293031D01*
X0145084Y0293031D02*
X0145253Y0292862D01*
X0148459Y0291344D02*
X0144916Y0291344D01*
X0148459Y0289319D02*
X0146434Y0290838D01*
X0144916Y0289319D02*
X0146940Y0291344D01*
X0044128Y0333684D02*
X0044128Y0335372D01*
X0044128Y0335372D02*
X0040585Y0335372D01*
X0043959Y0332672D02*
X0044128Y0332166D01*
X0044128Y0332166D02*
X0044128Y0331322D01*
X0044128Y0331322D02*
X0043959Y0330985D01*
X0043959Y0330985D02*
X0043791Y0330816D01*
X0043791Y0330816D02*
X0043453Y0330647D01*
X0043453Y0330647D02*
X0043116Y0330647D01*
X0043116Y0330647D02*
X0042778Y0330816D01*
X0042778Y0330816D02*
X0042610Y0330985D01*
X0042610Y0330985D02*
X0042441Y0331322D01*
X0042441Y0331322D02*
X0042272Y0331997D01*
X0042272Y0331997D02*
X0042103Y0332335D01*
X0042103Y0332335D02*
X0041935Y0332503D01*
X0041935Y0332503D02*
X0041597Y0332672D01*
X0041597Y0332672D02*
X0041260Y0332672D01*
X0041260Y0332672D02*
X0040922Y0332503D01*
X0040922Y0332503D02*
X0040754Y0332335D01*
X0040754Y0332335D02*
X0040585Y0331997D01*
X0040585Y0331997D02*
X0040585Y0331153D01*
X0040585Y0331153D02*
X0040754Y0330647D01*
X0040585Y0329466D02*
X0040585Y0327273D01*
X0040585Y0327273D02*
X0041935Y0328454D01*
X0041935Y0328454D02*
X0041935Y0327948D01*
X0041935Y0327948D02*
X0042103Y0327610D01*
X0042103Y0327610D02*
X0042272Y0327441D01*
X0042272Y0327441D02*
X0042610Y0327273D01*
X0042610Y0327273D02*
X0043453Y0327273D01*
X0043453Y0327273D02*
X0043791Y0327441D01*
X0043791Y0327441D02*
X0043959Y0327610D01*
X0043959Y0327610D02*
X0044128Y0327948D01*
X0044128Y0327948D02*
X0044128Y0328960D01*
X0044128Y0328960D02*
X0043959Y0329297D01*
X0043959Y0329297D02*
X0043791Y0329466D01*
X0040585Y0324067D02*
X0040585Y0325754D01*
X0040585Y0325754D02*
X0042272Y0325923D01*
X0042272Y0325923D02*
X0042103Y0325754D01*
X0042103Y0325754D02*
X0041935Y0325417D01*
X0041935Y0325417D02*
X0041935Y0324573D01*
X0041935Y0324573D02*
X0042103Y0324236D01*
X0042103Y0324236D02*
X0042272Y0324067D01*
X0042272Y0324067D02*
X0042610Y0323898D01*
X0042610Y0323898D02*
X0043453Y0323898D01*
X0043453Y0323898D02*
X0043791Y0324067D01*
X0043791Y0324067D02*
X0043959Y0324236D01*
X0043959Y0324236D02*
X0044128Y0324573D01*
X0044128Y0324573D02*
X0044128Y0325417D01*
X0044128Y0325417D02*
X0043959Y0325754D01*
X0043959Y0325754D02*
X0043791Y0325923D01*
X0299246Y0338925D02*
X0295703Y0338925D01*
X0295703Y0338925D02*
X0295703Y0337575D01*
X0295703Y0337575D02*
X0295872Y0337238D01*
X0295872Y0337238D02*
X0296040Y0337069D01*
X0296040Y0337069D02*
X0296378Y0336901D01*
X0296378Y0336901D02*
X0296884Y0336901D01*
X0296884Y0336901D02*
X0297222Y0337069D01*
X0297222Y0337069D02*
X0297390Y0337238D01*
X0297390Y0337238D02*
X0297559Y0337575D01*
X0297559Y0337575D02*
X0297559Y0338925D01*
X0299246Y0335382D02*
X0295703Y0335382D01*
X0295703Y0335382D02*
X0295703Y0334032D01*
X0295703Y0334032D02*
X0295872Y0333695D01*
X0295872Y0333695D02*
X0296040Y0333526D01*
X0296040Y0333526D02*
X0296378Y0333357D01*
X0296378Y0333357D02*
X0296884Y0333357D01*
X0296884Y0333357D02*
X0297222Y0333526D01*
X0297222Y0333526D02*
X0297390Y0333695D01*
X0297390Y0333695D02*
X0297559Y0334032D01*
X0297559Y0334032D02*
X0297559Y0335382D01*
X0299078Y0332007D02*
X0299246Y0331501D01*
X0299246Y0331501D02*
X0299246Y0330658D01*
X0299246Y0330658D02*
X0299078Y0330320D01*
X0299078Y0330320D02*
X0298909Y0330151D01*
X0298909Y0330151D02*
X0298571Y0329983D01*
X0298571Y0329983D02*
X0298234Y0329983D01*
X0298234Y0329983D02*
X0297896Y0330151D01*
X0297896Y0330151D02*
X0297728Y0330320D01*
X0297728Y0330320D02*
X0297559Y0330658D01*
X0297559Y0330658D02*
X0297390Y0331333D01*
X0297390Y0331333D02*
X0297222Y0331670D01*
X0297222Y0331670D02*
X0297053Y0331839D01*
X0297053Y0331839D02*
X0296715Y0332007D01*
X0296715Y0332007D02*
X0296378Y0332007D01*
X0296378Y0332007D02*
X0296040Y0331839D01*
X0296040Y0331839D02*
X0295872Y0331670D01*
X0295872Y0331670D02*
X0295703Y0331333D01*
X0295703Y0331333D02*
X0295703Y0330489D01*
X0295703Y0330489D02*
X0295872Y0329983D01*
X0296040Y0328633D02*
X0295872Y0328464D01*
X0295872Y0328464D02*
X0295703Y0328127D01*
X0295703Y0328127D02*
X0295703Y0327283D01*
X0295703Y0327283D02*
X0295872Y0326946D01*
X0295872Y0326946D02*
X0296040Y0326777D01*
X0296040Y0326777D02*
X0296378Y0326608D01*
X0296378Y0326608D02*
X0296715Y0326608D01*
X0296715Y0326608D02*
X0297222Y0326777D01*
X0297222Y0326777D02*
X0299246Y0328802D01*
X0299246Y0328802D02*
X0299246Y0326608D01*
X0302621Y0329747D02*
X0302621Y0327048D01*
X0303971Y0328398D02*
X0301271Y0328398D01*
X0300427Y0323673D02*
X0300427Y0325360D01*
X0300427Y0325360D02*
X0302115Y0325529D01*
X0302115Y0325529D02*
X0301946Y0325360D01*
X0301946Y0325360D02*
X0301777Y0325023D01*
X0301777Y0325023D02*
X0301777Y0324179D01*
X0301777Y0324179D02*
X0301946Y0323842D01*
X0301946Y0323842D02*
X0302115Y0323673D01*
X0302115Y0323673D02*
X0302452Y0323504D01*
X0302452Y0323504D02*
X0303296Y0323504D01*
X0303296Y0323504D02*
X0303633Y0323673D01*
X0303633Y0323673D02*
X0303802Y0323842D01*
X0303802Y0323842D02*
X0303971Y0324179D01*
X0303971Y0324179D02*
X0303971Y0325023D01*
X0303971Y0325023D02*
X0303802Y0325360D01*
X0303802Y0325360D02*
X0303633Y0325529D01*
X0273431Y0368218D02*
X0273262Y0368555D01*
X0273262Y0368555D02*
X0273262Y0369061D01*
X0273262Y0369061D02*
X0273431Y0369567D01*
X0273431Y0369567D02*
X0273768Y0369905D01*
X0273768Y0369905D02*
X0274106Y0370074D01*
X0274106Y0370074D02*
X0274781Y0370242D01*
X0274781Y0370242D02*
X0275287Y0370242D01*
X0275287Y0370242D02*
X0275962Y0370074D01*
X0275962Y0370074D02*
X0276299Y0369905D01*
X0276299Y0369905D02*
X0276637Y0369567D01*
X0276637Y0369567D02*
X0276805Y0369061D01*
X0276805Y0369061D02*
X0276805Y0368724D01*
X0276805Y0368724D02*
X0276637Y0368218D01*
X0276637Y0368218D02*
X0276468Y0368049D01*
X0276468Y0368049D02*
X0275287Y0368049D01*
X0275287Y0368049D02*
X0275287Y0368724D01*
X0276805Y0366530D02*
X0273262Y0366530D01*
X0273262Y0366530D02*
X0276805Y0364506D01*
X0276805Y0364506D02*
X0273262Y0364506D01*
X0276805Y0362818D02*
X0273262Y0362818D01*
X0273262Y0362818D02*
X0273262Y0361975D01*
X0273262Y0361975D02*
X0273431Y0361468D01*
X0273431Y0361468D02*
X0273768Y0361131D01*
X0273768Y0361131D02*
X0274106Y0360962D01*
X0274106Y0360962D02*
X0274781Y0360793D01*
X0274781Y0360793D02*
X0275287Y0360793D01*
X0275287Y0360793D02*
X0275962Y0360962D01*
X0275962Y0360962D02*
X0276299Y0361131D01*
X0276299Y0361131D02*
X0276637Y0361468D01*
X0276637Y0361468D02*
X0276805Y0361975D01*
X0276805Y0361975D02*
X0276805Y0362818D01*
X0275793Y0359444D02*
X0275793Y0357756D01*
X0276805Y0359781D02*
X0273262Y0358600D01*
X0273262Y0358600D02*
X0276805Y0357419D01*
X0283273Y0368218D02*
X0283105Y0368555D01*
X0283105Y0368555D02*
X0283105Y0369061D01*
X0283105Y0369061D02*
X0283273Y0369567D01*
X0283273Y0369567D02*
X0283611Y0369905D01*
X0283611Y0369905D02*
X0283948Y0370074D01*
X0283948Y0370074D02*
X0284623Y0370242D01*
X0284623Y0370242D02*
X0285129Y0370242D01*
X0285129Y0370242D02*
X0285804Y0370074D01*
X0285804Y0370074D02*
X0286142Y0369905D01*
X0286142Y0369905D02*
X0286479Y0369567D01*
X0286479Y0369567D02*
X0286648Y0369061D01*
X0286648Y0369061D02*
X0286648Y0368724D01*
X0286648Y0368724D02*
X0286479Y0368218D01*
X0286479Y0368218D02*
X0286310Y0368049D01*
X0286310Y0368049D02*
X0285129Y0368049D01*
X0285129Y0368049D02*
X0285129Y0368724D01*
X0286648Y0366530D02*
X0283105Y0366530D01*
X0283105Y0366530D02*
X0286648Y0364506D01*
X0286648Y0364506D02*
X0283105Y0364506D01*
X0286648Y0362818D02*
X0283105Y0362818D01*
X0283105Y0362818D02*
X0283105Y0361975D01*
X0283105Y0361975D02*
X0283273Y0361468D01*
X0283273Y0361468D02*
X0283611Y0361131D01*
X0283611Y0361131D02*
X0283948Y0360962D01*
X0283948Y0360962D02*
X0284623Y0360793D01*
X0284623Y0360793D02*
X0285129Y0360793D01*
X0285129Y0360793D02*
X0285804Y0360962D01*
X0285804Y0360962D02*
X0286142Y0361131D01*
X0286142Y0361131D02*
X0286479Y0361468D01*
X0286479Y0361468D02*
X0286648Y0361975D01*
X0286648Y0361975D02*
X0286648Y0362818D01*
X0285635Y0359444D02*
X0285635Y0357756D01*
X0286648Y0359781D02*
X0283105Y0358600D01*
X0283105Y0358600D02*
X0286648Y0357419D01*
X0249415Y0339881D02*
X0249415Y0338194D01*
X0250427Y0340219D02*
X0246884Y0339038D01*
X0246884Y0339038D02*
X0250427Y0337857D01*
X0246884Y0337182D02*
X0250427Y0336001D01*
X0250427Y0336001D02*
X0246884Y0334820D01*
X0250427Y0331782D02*
X0250427Y0333807D01*
X0250427Y0332795D02*
X0246884Y0332795D01*
X0246884Y0332795D02*
X0247390Y0333132D01*
X0247390Y0333132D02*
X0247728Y0333470D01*
X0247728Y0333470D02*
X0247896Y0333807D01*
X0250427Y0330095D02*
X0250427Y0329420D01*
X0250427Y0329420D02*
X0250259Y0329083D01*
X0250259Y0329083D02*
X0250090Y0328914D01*
X0250090Y0328914D02*
X0249584Y0328577D01*
X0249584Y0328577D02*
X0248909Y0328408D01*
X0248909Y0328408D02*
X0247559Y0328408D01*
X0247559Y0328408D02*
X0247222Y0328577D01*
X0247222Y0328577D02*
X0247053Y0328745D01*
X0247053Y0328745D02*
X0246884Y0329083D01*
X0246884Y0329083D02*
X0246884Y0329758D01*
X0246884Y0329758D02*
X0247053Y0330095D01*
X0247053Y0330095D02*
X0247222Y0330264D01*
X0247222Y0330264D02*
X0247559Y0330433D01*
X0247559Y0330433D02*
X0248403Y0330433D01*
X0248403Y0330433D02*
X0248740Y0330264D01*
X0248740Y0330264D02*
X0248909Y0330095D01*
X0248909Y0330095D02*
X0249078Y0329758D01*
X0249078Y0329758D02*
X0249078Y0329083D01*
X0249078Y0329083D02*
X0248909Y0328745D01*
X0248909Y0328745D02*
X0248740Y0328577D01*
X0248740Y0328577D02*
X0248403Y0328408D01*
X0061057Y0305348D02*
X0061057Y0307036D01*
X0061057Y0307036D02*
X0057514Y0307036D01*
X0060889Y0304336D02*
X0061057Y0303830D01*
X0061057Y0303830D02*
X0061057Y0302986D01*
X0061057Y0302986D02*
X0060889Y0302649D01*
X0060889Y0302649D02*
X0060720Y0302480D01*
X0060720Y0302480D02*
X0060382Y0302311D01*
X0060382Y0302311D02*
X0060045Y0302311D01*
X0060045Y0302311D02*
X0059707Y0302480D01*
X0059707Y0302480D02*
X0059539Y0302649D01*
X0059539Y0302649D02*
X0059370Y0302986D01*
X0059370Y0302986D02*
X0059201Y0303661D01*
X0059201Y0303661D02*
X0059033Y0303998D01*
X0059033Y0303998D02*
X0058864Y0304167D01*
X0058864Y0304167D02*
X0058526Y0304336D01*
X0058526Y0304336D02*
X0058189Y0304336D01*
X0058189Y0304336D02*
X0057851Y0304167D01*
X0057851Y0304167D02*
X0057683Y0303998D01*
X0057683Y0303998D02*
X0057514Y0303661D01*
X0057514Y0303661D02*
X0057514Y0302817D01*
X0057514Y0302817D02*
X0057683Y0302311D01*
X0058695Y0299274D02*
X0061057Y0299274D01*
X0057345Y0300118D02*
X0059876Y0300961D01*
X0059876Y0300961D02*
X0059876Y0298768D01*
X0057514Y0295899D02*
X0057514Y0296574D01*
X0057514Y0296574D02*
X0057683Y0296912D01*
X0057683Y0296912D02*
X0057851Y0297081D01*
X0057851Y0297081D02*
X0058358Y0297418D01*
X0058358Y0297418D02*
X0059033Y0297587D01*
X0059033Y0297587D02*
X0060382Y0297587D01*
X0060382Y0297587D02*
X0060720Y0297418D01*
X0060720Y0297418D02*
X0060889Y0297249D01*
X0060889Y0297249D02*
X0061057Y0296912D01*
X0061057Y0296912D02*
X0061057Y0296237D01*
X0061057Y0296237D02*
X0060889Y0295899D01*
X0060889Y0295899D02*
X0060720Y0295731D01*
X0060720Y0295731D02*
X0060382Y0295562D01*
X0060382Y0295562D02*
X0059539Y0295562D01*
X0059539Y0295562D02*
X0059201Y0295731D01*
X0059201Y0295731D02*
X0059033Y0295899D01*
X0059033Y0295899D02*
X0058864Y0296237D01*
X0058864Y0296237D02*
X0058864Y0296912D01*
X0058864Y0296912D02*
X0059033Y0297249D01*
X0059033Y0297249D02*
X0059201Y0297418D01*
X0059201Y0297418D02*
X0059539Y0297587D01*
D13*
X0191291Y0356308D02*
X0191291Y0359682D01*
X0191291Y0357995D02*
X0185385Y0357995D01*
X0185385Y0357995D02*
X0186229Y0358558D01*
X0186229Y0358558D02*
X0186791Y0359120D01*
X0186791Y0359120D02*
X0187072Y0359682D01*
X0185947Y0354058D02*
X0185666Y0353777D01*
X0185666Y0353777D02*
X0185385Y0353214D01*
X0185385Y0353214D02*
X0185385Y0351808D01*
X0185385Y0351808D02*
X0185666Y0351246D01*
X0185666Y0351246D02*
X0185947Y0350965D01*
X0185947Y0350965D02*
X0186510Y0350684D01*
X0186510Y0350684D02*
X0187072Y0350684D01*
X0187072Y0350684D02*
X0187916Y0350965D01*
X0187916Y0350965D02*
X0191291Y0354339D01*
X0191291Y0354339D02*
X0191291Y0350684D01*
X0063731Y0283754D02*
X0063731Y0286567D01*
X0063731Y0286567D02*
X0066544Y0286848D01*
X0066544Y0286848D02*
X0066262Y0286567D01*
X0066262Y0286567D02*
X0065981Y0286004D01*
X0065981Y0286004D02*
X0065981Y0284598D01*
X0065981Y0284598D02*
X0066262Y0284036D01*
X0066262Y0284036D02*
X0066544Y0283754D01*
X0066544Y0283754D02*
X0067106Y0283473D01*
X0067106Y0283473D02*
X0068512Y0283473D01*
X0068512Y0283473D02*
X0069075Y0283754D01*
X0069075Y0283754D02*
X0069356Y0284036D01*
X0069356Y0284036D02*
X0069637Y0284598D01*
X0069637Y0284598D02*
X0069637Y0286004D01*
X0069637Y0286004D02*
X0069356Y0286567D01*
X0069356Y0286567D02*
X0069075Y0286848D01*
X0065700Y0278411D02*
X0069637Y0278411D01*
X0063450Y0279817D02*
X0067668Y0281223D01*
X0067668Y0281223D02*
X0067668Y0277568D01*
X0139716Y0284429D02*
X0143653Y0284429D01*
X0137466Y0285835D02*
X0141684Y0287241D01*
X0141684Y0287241D02*
X0141684Y0283586D01*
X0143653Y0281055D02*
X0143653Y0279930D01*
X0143653Y0279930D02*
X0143372Y0279367D01*
X0143372Y0279367D02*
X0143090Y0279086D01*
X0143090Y0279086D02*
X0142247Y0278524D01*
X0142247Y0278524D02*
X0141122Y0278243D01*
X0141122Y0278243D02*
X0138872Y0278243D01*
X0138872Y0278243D02*
X0138310Y0278524D01*
X0138310Y0278524D02*
X0138028Y0278805D01*
X0138028Y0278805D02*
X0137747Y0279367D01*
X0137747Y0279367D02*
X0137747Y0280492D01*
X0137747Y0280492D02*
X0138028Y0281055D01*
X0138028Y0281055D02*
X0138310Y0281336D01*
X0138310Y0281336D02*
X0138872Y0281617D01*
X0138872Y0281617D02*
X0140278Y0281617D01*
X0140278Y0281617D02*
X0140841Y0281336D01*
X0140841Y0281336D02*
X0141122Y0281055D01*
X0141122Y0281055D02*
X0141403Y0280492D01*
X0141403Y0280492D02*
X0141403Y0279367D01*
X0141403Y0279367D02*
X0141122Y0278805D01*
X0141122Y0278805D02*
X0140841Y0278524D01*
X0140841Y0278524D02*
X0140278Y0278243D01*
X0187354Y0309626D02*
X0191291Y0309626D01*
X0185104Y0311032D02*
X0189322Y0312438D01*
X0189322Y0312438D02*
X0189322Y0308783D01*
X0187916Y0305689D02*
X0187635Y0306252D01*
X0187635Y0306252D02*
X0187354Y0306533D01*
X0187354Y0306533D02*
X0186791Y0306814D01*
X0186791Y0306814D02*
X0186510Y0306814D01*
X0186510Y0306814D02*
X0185947Y0306533D01*
X0185947Y0306533D02*
X0185666Y0306252D01*
X0185666Y0306252D02*
X0185385Y0305689D01*
X0185385Y0305689D02*
X0185385Y0304564D01*
X0185385Y0304564D02*
X0185666Y0304002D01*
X0185666Y0304002D02*
X0185947Y0303721D01*
X0185947Y0303721D02*
X0186510Y0303439D01*
X0186510Y0303439D02*
X0186791Y0303439D01*
X0186791Y0303439D02*
X0187354Y0303721D01*
X0187354Y0303721D02*
X0187635Y0304002D01*
X0187635Y0304002D02*
X0187916Y0304564D01*
X0187916Y0304564D02*
X0187916Y0305689D01*
X0187916Y0305689D02*
X0188197Y0306252D01*
X0188197Y0306252D02*
X0188478Y0306533D01*
X0188478Y0306533D02*
X0189041Y0306814D01*
X0189041Y0306814D02*
X0190166Y0306814D01*
X0190166Y0306814D02*
X0190728Y0306533D01*
X0190728Y0306533D02*
X0191009Y0306252D01*
X0191009Y0306252D02*
X0191291Y0305689D01*
X0191291Y0305689D02*
X0191291Y0304564D01*
X0191291Y0304564D02*
X0191009Y0304002D01*
X0191009Y0304002D02*
X0190728Y0303721D01*
X0190728Y0303721D02*
X0190166Y0303439D01*
X0190166Y0303439D02*
X0189041Y0303439D01*
X0189041Y0303439D02*
X0188478Y0303721D01*
X0188478Y0303721D02*
X0188197Y0304002D01*
X0188197Y0304002D02*
X0187916Y0304564D01*
X0309401Y0310751D02*
X0309401Y0307095D01*
X0309401Y0307095D02*
X0311650Y0309064D01*
X0311650Y0309064D02*
X0311650Y0308220D01*
X0311650Y0308220D02*
X0311932Y0307658D01*
X0311932Y0307658D02*
X0312213Y0307376D01*
X0312213Y0307376D02*
X0312775Y0307095D01*
X0312775Y0307095D02*
X0314181Y0307095D01*
X0314181Y0307095D02*
X0314744Y0307376D01*
X0314744Y0307376D02*
X0315025Y0307658D01*
X0315025Y0307658D02*
X0315306Y0308220D01*
X0315306Y0308220D02*
X0315306Y0309907D01*
X0315306Y0309907D02*
X0315025Y0310470D01*
X0315025Y0310470D02*
X0314744Y0310751D01*
X0309401Y0305127D02*
X0309401Y0301190D01*
X0309401Y0301190D02*
X0315306Y0303721D01*
X0078692Y0283754D02*
X0078692Y0286567D01*
X0078692Y0286567D02*
X0081504Y0286848D01*
X0081504Y0286848D02*
X0081223Y0286567D01*
X0081223Y0286567D02*
X0080942Y0286004D01*
X0080942Y0286004D02*
X0080942Y0284598D01*
X0080942Y0284598D02*
X0081223Y0284036D01*
X0081223Y0284036D02*
X0081504Y0283754D01*
X0081504Y0283754D02*
X0082067Y0283473D01*
X0082067Y0283473D02*
X0083473Y0283473D01*
X0083473Y0283473D02*
X0084035Y0283754D01*
X0084035Y0283754D02*
X0084316Y0284036D01*
X0084316Y0284036D02*
X0084598Y0284598D01*
X0084598Y0284598D02*
X0084598Y0286004D01*
X0084598Y0286004D02*
X0084316Y0286567D01*
X0084316Y0286567D02*
X0084035Y0286848D01*
X0078692Y0281505D02*
X0078692Y0277849D01*
X0078692Y0277849D02*
X0080942Y0279817D01*
X0080942Y0279817D02*
X0080942Y0278974D01*
X0080942Y0278974D02*
X0081223Y0278411D01*
X0081223Y0278411D02*
X0081504Y0278130D01*
X0081504Y0278130D02*
X0082067Y0277849D01*
X0082067Y0277849D02*
X0083473Y0277849D01*
X0083473Y0277849D02*
X0084035Y0278130D01*
X0084035Y0278130D02*
X0084316Y0278411D01*
X0084316Y0278411D02*
X0084598Y0278974D01*
X0084598Y0278974D02*
X0084598Y0280661D01*
X0084598Y0280661D02*
X0084316Y0281223D01*
X0084316Y0281223D02*
X0084035Y0281505D01*
X0122787Y0283754D02*
X0122787Y0286567D01*
X0122787Y0286567D02*
X0125599Y0286848D01*
X0125599Y0286848D02*
X0125318Y0286567D01*
X0125318Y0286567D02*
X0125036Y0286004D01*
X0125036Y0286004D02*
X0125036Y0284598D01*
X0125036Y0284598D02*
X0125318Y0284036D01*
X0125318Y0284036D02*
X0125599Y0283754D01*
X0125599Y0283754D02*
X0126161Y0283473D01*
X0126161Y0283473D02*
X0127567Y0283473D01*
X0127567Y0283473D02*
X0128130Y0283754D01*
X0128130Y0283754D02*
X0128411Y0284036D01*
X0128411Y0284036D02*
X0128692Y0284598D01*
X0128692Y0284598D02*
X0128692Y0286004D01*
X0128692Y0286004D02*
X0128411Y0286567D01*
X0128411Y0286567D02*
X0128130Y0286848D01*
X0122787Y0279817D02*
X0122787Y0279255D01*
X0122787Y0279255D02*
X0123068Y0278693D01*
X0123068Y0278693D02*
X0123349Y0278411D01*
X0123349Y0278411D02*
X0123911Y0278130D01*
X0123911Y0278130D02*
X0125036Y0277849D01*
X0125036Y0277849D02*
X0126442Y0277849D01*
X0126442Y0277849D02*
X0127567Y0278130D01*
X0127567Y0278130D02*
X0128130Y0278411D01*
X0128130Y0278411D02*
X0128411Y0278693D01*
X0128411Y0278693D02*
X0128692Y0279255D01*
X0128692Y0279255D02*
X0128692Y0279817D01*
X0128692Y0279817D02*
X0128411Y0280380D01*
X0128411Y0280380D02*
X0128130Y0280661D01*
X0128130Y0280661D02*
X0127567Y0280942D01*
X0127567Y0280942D02*
X0126442Y0281223D01*
X0126442Y0281223D02*
X0125036Y0281223D01*
X0125036Y0281223D02*
X0123911Y0280942D01*
X0123911Y0280942D02*
X0123349Y0280661D01*
X0123349Y0280661D02*
X0123068Y0280380D01*
X0123068Y0280380D02*
X0122787Y0279817D01*
X0093259Y0283754D02*
X0093259Y0286567D01*
X0093259Y0286567D02*
X0096071Y0286848D01*
X0096071Y0286848D02*
X0095790Y0286567D01*
X0095790Y0286567D02*
X0095509Y0286004D01*
X0095509Y0286004D02*
X0095509Y0284598D01*
X0095509Y0284598D02*
X0095790Y0284036D01*
X0095790Y0284036D02*
X0096071Y0283754D01*
X0096071Y0283754D02*
X0096634Y0283473D01*
X0096634Y0283473D02*
X0098040Y0283473D01*
X0098040Y0283473D02*
X0098602Y0283754D01*
X0098602Y0283754D02*
X0098883Y0284036D01*
X0098883Y0284036D02*
X0099165Y0284598D01*
X0099165Y0284598D02*
X0099165Y0286004D01*
X0099165Y0286004D02*
X0098883Y0286567D01*
X0098883Y0286567D02*
X0098602Y0286848D01*
X0093821Y0281223D02*
X0093540Y0280942D01*
X0093540Y0280942D02*
X0093259Y0280380D01*
X0093259Y0280380D02*
X0093259Y0278974D01*
X0093259Y0278974D02*
X0093540Y0278411D01*
X0093540Y0278411D02*
X0093821Y0278130D01*
X0093821Y0278130D02*
X0094384Y0277849D01*
X0094384Y0277849D02*
X0094946Y0277849D01*
X0094946Y0277849D02*
X0095790Y0278130D01*
X0095790Y0278130D02*
X0099165Y0281505D01*
X0099165Y0281505D02*
X0099165Y0277849D01*
X0023968Y0326499D02*
X0023968Y0322843D01*
X0023968Y0322843D02*
X0026217Y0324812D01*
X0026217Y0324812D02*
X0026217Y0323968D01*
X0026217Y0323968D02*
X0026499Y0323406D01*
X0026499Y0323406D02*
X0026780Y0323124D01*
X0026780Y0323124D02*
X0027342Y0322843D01*
X0027342Y0322843D02*
X0028748Y0322843D01*
X0028748Y0322843D02*
X0029311Y0323124D01*
X0029311Y0323124D02*
X0029592Y0323406D01*
X0029592Y0323406D02*
X0029873Y0323968D01*
X0029873Y0323968D02*
X0029873Y0325655D01*
X0029873Y0325655D02*
X0029592Y0326218D01*
X0029592Y0326218D02*
X0029311Y0326499D01*
X0023968Y0317781D02*
X0023968Y0318906D01*
X0023968Y0318906D02*
X0024249Y0319469D01*
X0024249Y0319469D02*
X0024530Y0319750D01*
X0024530Y0319750D02*
X0025374Y0320312D01*
X0025374Y0320312D02*
X0026499Y0320594D01*
X0026499Y0320594D02*
X0028748Y0320594D01*
X0028748Y0320594D02*
X0029311Y0320312D01*
X0029311Y0320312D02*
X0029592Y0320031D01*
X0029592Y0320031D02*
X0029873Y0319469D01*
X0029873Y0319469D02*
X0029873Y0318344D01*
X0029873Y0318344D02*
X0029592Y0317781D01*
X0029592Y0317781D02*
X0029311Y0317500D01*
X0029311Y0317500D02*
X0028748Y0317219D01*
X0028748Y0317219D02*
X0027342Y0317219D01*
X0027342Y0317219D02*
X0026780Y0317500D01*
X0026780Y0317500D02*
X0026499Y0317781D01*
X0026499Y0317781D02*
X0026217Y0318344D01*
X0026217Y0318344D02*
X0026217Y0319469D01*
X0026217Y0319469D02*
X0026499Y0320031D01*
X0026499Y0320031D02*
X0026780Y0320312D01*
X0026780Y0320312D02*
X0027342Y0320594D01*
X0108613Y0283754D02*
X0108613Y0286567D01*
X0108613Y0286567D02*
X0111426Y0286848D01*
X0111426Y0286848D02*
X0111144Y0286567D01*
X0111144Y0286567D02*
X0110863Y0286004D01*
X0110863Y0286004D02*
X0110863Y0284598D01*
X0110863Y0284598D02*
X0111144Y0284036D01*
X0111144Y0284036D02*
X0111426Y0283754D01*
X0111426Y0283754D02*
X0111988Y0283473D01*
X0111988Y0283473D02*
X0113394Y0283473D01*
X0113394Y0283473D02*
X0113956Y0283754D01*
X0113956Y0283754D02*
X0114238Y0284036D01*
X0114238Y0284036D02*
X0114519Y0284598D01*
X0114519Y0284598D02*
X0114519Y0286004D01*
X0114519Y0286004D02*
X0114238Y0286567D01*
X0114238Y0286567D02*
X0113956Y0286848D01*
X0114519Y0277849D02*
X0114519Y0281223D01*
X0114519Y0279536D02*
X0108613Y0279536D01*
X0108613Y0279536D02*
X0109457Y0280099D01*
X0109457Y0280099D02*
X0110019Y0280661D01*
X0110019Y0280661D02*
X0110301Y0281223D01*
X0024530Y0345903D02*
X0024249Y0345622D01*
X0024249Y0345622D02*
X0023968Y0345059D01*
X0023968Y0345059D02*
X0023968Y0343653D01*
X0023968Y0343653D02*
X0024249Y0343091D01*
X0024249Y0343091D02*
X0024530Y0342810D01*
X0024530Y0342810D02*
X0025093Y0342528D01*
X0025093Y0342528D02*
X0025655Y0342528D01*
X0025655Y0342528D02*
X0026499Y0342810D01*
X0026499Y0342810D02*
X0029873Y0346184D01*
X0029873Y0346184D02*
X0029873Y0342528D01*
X0025936Y0337466D02*
X0029873Y0337466D01*
X0023686Y0338873D02*
X0027905Y0340279D01*
X0027905Y0340279D02*
X0027905Y0336623D01*
X0049165Y0283754D02*
X0049165Y0286567D01*
X0049165Y0286567D02*
X0051977Y0286848D01*
X0051977Y0286848D02*
X0051695Y0286567D01*
X0051695Y0286567D02*
X0051414Y0286004D01*
X0051414Y0286004D02*
X0051414Y0284598D01*
X0051414Y0284598D02*
X0051695Y0284036D01*
X0051695Y0284036D02*
X0051977Y0283754D01*
X0051977Y0283754D02*
X0052539Y0283473D01*
X0052539Y0283473D02*
X0053945Y0283473D01*
X0053945Y0283473D02*
X0054508Y0283754D01*
X0054508Y0283754D02*
X0054789Y0284036D01*
X0054789Y0284036D02*
X0055070Y0284598D01*
X0055070Y0284598D02*
X0055070Y0286004D01*
X0055070Y0286004D02*
X0054789Y0286567D01*
X0054789Y0286567D02*
X0054508Y0286848D01*
X0049165Y0278130D02*
X0049165Y0280942D01*
X0049165Y0280942D02*
X0051977Y0281223D01*
X0051977Y0281223D02*
X0051695Y0280942D01*
X0051695Y0280942D02*
X0051414Y0280380D01*
X0051414Y0280380D02*
X0051414Y0278974D01*
X0051414Y0278974D02*
X0051695Y0278411D01*
X0051695Y0278411D02*
X0051977Y0278130D01*
X0051977Y0278130D02*
X0052539Y0277849D01*
X0052539Y0277849D02*
X0053945Y0277849D01*
X0053945Y0277849D02*
X0054508Y0278130D01*
X0054508Y0278130D02*
X0054789Y0278411D01*
X0054789Y0278411D02*
X0055070Y0278974D01*
X0055070Y0278974D02*
X0055070Y0280380D01*
X0055070Y0280380D02*
X0054789Y0280942D01*
X0054789Y0280942D02*
X0054508Y0281223D01*
X0315306Y0353496D02*
X0315306Y0356870D01*
X0315306Y0355183D02*
X0309401Y0355183D01*
X0309401Y0355183D02*
X0310244Y0355745D01*
X0310244Y0355745D02*
X0310807Y0356308D01*
X0310807Y0356308D02*
X0311088Y0356870D01*
X0270031Y0283754D02*
X0270031Y0286567D01*
X0270031Y0286567D02*
X0272843Y0286848D01*
X0272843Y0286848D02*
X0272562Y0286567D01*
X0272562Y0286567D02*
X0272280Y0286004D01*
X0272280Y0286004D02*
X0272280Y0284598D01*
X0272280Y0284598D02*
X0272562Y0284036D01*
X0272562Y0284036D02*
X0272843Y0283754D01*
X0272843Y0283754D02*
X0273405Y0283473D01*
X0273405Y0283473D02*
X0274811Y0283473D01*
X0274811Y0283473D02*
X0275374Y0283754D01*
X0275374Y0283754D02*
X0275655Y0284036D01*
X0275655Y0284036D02*
X0275936Y0284598D01*
X0275936Y0284598D02*
X0275936Y0286004D01*
X0275936Y0286004D02*
X0275655Y0286567D01*
X0275655Y0286567D02*
X0275374Y0286848D01*
X0275936Y0277849D02*
X0275936Y0281223D01*
X0275936Y0279536D02*
X0270031Y0279536D01*
X0270031Y0279536D02*
X0270874Y0280099D01*
X0270874Y0280099D02*
X0271437Y0280661D01*
X0271437Y0280661D02*
X0271718Y0281223D01*
X0153085Y0345219D02*
X0153085Y0348594D01*
X0153085Y0346907D02*
X0147179Y0346907D01*
X0147179Y0346907D02*
X0148023Y0347469D01*
X0148023Y0347469D02*
X0148585Y0348031D01*
X0148585Y0348031D02*
X0148867Y0348594D01*
X0147179Y0343251D02*
X0147179Y0339595D01*
X0147179Y0339595D02*
X0149429Y0341564D01*
X0149429Y0341564D02*
X0149429Y0340720D01*
X0149429Y0340720D02*
X0149710Y0340157D01*
X0149710Y0340157D02*
X0149991Y0339876D01*
X0149991Y0339876D02*
X0150554Y0339595D01*
X0150554Y0339595D02*
X0151960Y0339595D01*
X0151960Y0339595D02*
X0152522Y0339876D01*
X0152522Y0339876D02*
X0152804Y0340157D01*
X0152804Y0340157D02*
X0153085Y0340720D01*
X0153085Y0340720D02*
X0153085Y0342407D01*
X0153085Y0342407D02*
X0152804Y0342970D01*
X0152804Y0342970D02*
X0152522Y0343251D01*
X0152297Y0355399D02*
X0152297Y0358774D01*
X0152297Y0357087D02*
X0146392Y0357087D01*
X0146392Y0357087D02*
X0147235Y0357649D01*
X0147235Y0357649D02*
X0147798Y0358211D01*
X0147798Y0358211D02*
X0148079Y0358774D01*
X0029873Y0356308D02*
X0029873Y0359682D01*
X0029873Y0357995D02*
X0023968Y0357995D01*
X0023968Y0357995D02*
X0024811Y0358558D01*
X0024811Y0358558D02*
X0025374Y0359120D01*
X0025374Y0359120D02*
X0025655Y0359682D01*
X0024530Y0354058D02*
X0024249Y0353777D01*
X0024249Y0353777D02*
X0023968Y0353214D01*
X0023968Y0353214D02*
X0023968Y0351808D01*
X0023968Y0351808D02*
X0024249Y0351246D01*
X0024249Y0351246D02*
X0024530Y0350965D01*
X0024530Y0350965D02*
X0025093Y0350684D01*
X0025093Y0350684D02*
X0025655Y0350684D01*
X0025655Y0350684D02*
X0026499Y0350965D01*
X0026499Y0350965D02*
X0029873Y0354339D01*
X0029873Y0354339D02*
X0029873Y0350684D01*
X0025936Y0309626D02*
X0029873Y0309626D01*
X0023686Y0311032D02*
X0027905Y0312438D01*
X0027905Y0312438D02*
X0027905Y0308783D01*
X0026499Y0305689D02*
X0026217Y0306252D01*
X0026217Y0306252D02*
X0025936Y0306533D01*
X0025936Y0306533D02*
X0025374Y0306814D01*
X0025374Y0306814D02*
X0025093Y0306814D01*
X0025093Y0306814D02*
X0024530Y0306533D01*
X0024530Y0306533D02*
X0024249Y0306252D01*
X0024249Y0306252D02*
X0023968Y0305689D01*
X0023968Y0305689D02*
X0023968Y0304564D01*
X0023968Y0304564D02*
X0024249Y0304002D01*
X0024249Y0304002D02*
X0024530Y0303721D01*
X0024530Y0303721D02*
X0025093Y0303439D01*
X0025093Y0303439D02*
X0025374Y0303439D01*
X0025374Y0303439D02*
X0025936Y0303721D01*
X0025936Y0303721D02*
X0026217Y0304002D01*
X0026217Y0304002D02*
X0026499Y0304564D01*
X0026499Y0304564D02*
X0026499Y0305689D01*
X0026499Y0305689D02*
X0026780Y0306252D01*
X0026780Y0306252D02*
X0027061Y0306533D01*
X0027061Y0306533D02*
X0027623Y0306814D01*
X0027623Y0306814D02*
X0028748Y0306814D01*
X0028748Y0306814D02*
X0029311Y0306533D01*
X0029311Y0306533D02*
X0029592Y0306252D01*
X0029592Y0306252D02*
X0029873Y0305689D01*
X0029873Y0305689D02*
X0029873Y0304564D01*
X0029873Y0304564D02*
X0029592Y0304002D01*
X0029592Y0304002D02*
X0029311Y0303721D01*
X0029311Y0303721D02*
X0028748Y0303439D01*
X0028748Y0303439D02*
X0027623Y0303439D01*
X0027623Y0303439D02*
X0027061Y0303721D01*
X0027061Y0303721D02*
X0026780Y0304002D01*
X0026780Y0304002D02*
X0026499Y0304564D01*
X0195621Y0283754D02*
X0195621Y0286567D01*
X0195621Y0286567D02*
X0198433Y0286848D01*
X0198433Y0286848D02*
X0198152Y0286567D01*
X0198152Y0286567D02*
X0197871Y0286004D01*
X0197871Y0286004D02*
X0197871Y0284598D01*
X0197871Y0284598D02*
X0198152Y0284036D01*
X0198152Y0284036D02*
X0198433Y0283754D01*
X0198433Y0283754D02*
X0198996Y0283473D01*
X0198996Y0283473D02*
X0200402Y0283473D01*
X0200402Y0283473D02*
X0200964Y0283754D01*
X0200964Y0283754D02*
X0201246Y0284036D01*
X0201246Y0284036D02*
X0201527Y0284598D01*
X0201527Y0284598D02*
X0201527Y0286004D01*
X0201527Y0286004D02*
X0201246Y0286567D01*
X0201246Y0286567D02*
X0200964Y0286848D01*
X0195621Y0278411D02*
X0195621Y0279536D01*
X0195621Y0279536D02*
X0195902Y0280099D01*
X0195902Y0280099D02*
X0196184Y0280380D01*
X0196184Y0280380D02*
X0197027Y0280942D01*
X0197027Y0280942D02*
X0198152Y0281223D01*
X0198152Y0281223D02*
X0200402Y0281223D01*
X0200402Y0281223D02*
X0200964Y0280942D01*
X0200964Y0280942D02*
X0201246Y0280661D01*
X0201246Y0280661D02*
X0201527Y0280099D01*
X0201527Y0280099D02*
X0201527Y0278974D01*
X0201527Y0278974D02*
X0201246Y0278411D01*
X0201246Y0278411D02*
X0200964Y0278130D01*
X0200964Y0278130D02*
X0200402Y0277849D01*
X0200402Y0277849D02*
X0198996Y0277849D01*
X0198996Y0277849D02*
X0198433Y0278130D01*
X0198433Y0278130D02*
X0198152Y0278411D01*
X0198152Y0278411D02*
X0197871Y0278974D01*
X0197871Y0278974D02*
X0197871Y0280099D01*
X0197871Y0280099D02*
X0198152Y0280661D01*
X0198152Y0280661D02*
X0198433Y0280942D01*
X0198433Y0280942D02*
X0198996Y0281223D01*
X0185385Y0326499D02*
X0185385Y0322843D01*
X0185385Y0322843D02*
X0187635Y0324812D01*
X0187635Y0324812D02*
X0187635Y0323968D01*
X0187635Y0323968D02*
X0187916Y0323406D01*
X0187916Y0323406D02*
X0188197Y0323124D01*
X0188197Y0323124D02*
X0188760Y0322843D01*
X0188760Y0322843D02*
X0190166Y0322843D01*
X0190166Y0322843D02*
X0190728Y0323124D01*
X0190728Y0323124D02*
X0191009Y0323406D01*
X0191009Y0323406D02*
X0191291Y0323968D01*
X0191291Y0323968D02*
X0191291Y0325655D01*
X0191291Y0325655D02*
X0191009Y0326218D01*
X0191009Y0326218D02*
X0190728Y0326499D01*
X0185385Y0317781D02*
X0185385Y0318906D01*
X0185385Y0318906D02*
X0185666Y0319469D01*
X0185666Y0319469D02*
X0185947Y0319750D01*
X0185947Y0319750D02*
X0186791Y0320312D01*
X0186791Y0320312D02*
X0187916Y0320594D01*
X0187916Y0320594D02*
X0190166Y0320594D01*
X0190166Y0320594D02*
X0190728Y0320312D01*
X0190728Y0320312D02*
X0191009Y0320031D01*
X0191009Y0320031D02*
X0191291Y0319469D01*
X0191291Y0319469D02*
X0191291Y0318344D01*
X0191291Y0318344D02*
X0191009Y0317781D01*
X0191009Y0317781D02*
X0190728Y0317500D01*
X0190728Y0317500D02*
X0190166Y0317219D01*
X0190166Y0317219D02*
X0188760Y0317219D01*
X0188760Y0317219D02*
X0188197Y0317500D01*
X0188197Y0317500D02*
X0187916Y0317781D01*
X0187916Y0317781D02*
X0187635Y0318344D01*
X0187635Y0318344D02*
X0187635Y0319469D01*
X0187635Y0319469D02*
X0187916Y0320031D01*
X0187916Y0320031D02*
X0188197Y0320312D01*
X0188197Y0320312D02*
X0188760Y0320594D01*
X0148546Y0328186D02*
X0148265Y0327905D01*
X0148265Y0327905D02*
X0147983Y0327343D01*
X0147983Y0327343D02*
X0147983Y0325937D01*
X0147983Y0325937D02*
X0148265Y0325374D01*
X0148265Y0325374D02*
X0148546Y0325093D01*
X0148546Y0325093D02*
X0149108Y0324812D01*
X0149108Y0324812D02*
X0149671Y0324812D01*
X0149671Y0324812D02*
X0150514Y0325093D01*
X0150514Y0325093D02*
X0153889Y0328468D01*
X0153889Y0328468D02*
X0153889Y0324812D01*
X0147983Y0319469D02*
X0147983Y0322281D01*
X0147983Y0322281D02*
X0150796Y0322562D01*
X0150796Y0322562D02*
X0150514Y0322281D01*
X0150514Y0322281D02*
X0150233Y0321718D01*
X0150233Y0321718D02*
X0150233Y0320312D01*
X0150233Y0320312D02*
X0150514Y0319750D01*
X0150514Y0319750D02*
X0150796Y0319469D01*
X0150796Y0319469D02*
X0151358Y0319187D01*
X0151358Y0319187D02*
X0152764Y0319187D01*
X0152764Y0319187D02*
X0153327Y0319469D01*
X0153327Y0319469D02*
X0153608Y0319750D01*
X0153608Y0319750D02*
X0153889Y0320312D01*
X0153889Y0320312D02*
X0153889Y0321718D01*
X0153889Y0321718D02*
X0153608Y0322281D01*
X0153608Y0322281D02*
X0153327Y0322562D01*
X0284204Y0283754D02*
X0284204Y0286567D01*
X0284204Y0286567D02*
X0287016Y0286848D01*
X0287016Y0286848D02*
X0286735Y0286567D01*
X0286735Y0286567D02*
X0286454Y0286004D01*
X0286454Y0286004D02*
X0286454Y0284598D01*
X0286454Y0284598D02*
X0286735Y0284036D01*
X0286735Y0284036D02*
X0287016Y0283754D01*
X0287016Y0283754D02*
X0287578Y0283473D01*
X0287578Y0283473D02*
X0288985Y0283473D01*
X0288985Y0283473D02*
X0289547Y0283754D01*
X0289547Y0283754D02*
X0289828Y0284036D01*
X0289828Y0284036D02*
X0290109Y0284598D01*
X0290109Y0284598D02*
X0290109Y0286004D01*
X0290109Y0286004D02*
X0289828Y0286567D01*
X0289828Y0286567D02*
X0289547Y0286848D01*
X0284204Y0279817D02*
X0284204Y0279255D01*
X0284204Y0279255D02*
X0284485Y0278693D01*
X0284485Y0278693D02*
X0284766Y0278411D01*
X0284766Y0278411D02*
X0285329Y0278130D01*
X0285329Y0278130D02*
X0286454Y0277849D01*
X0286454Y0277849D02*
X0287860Y0277849D01*
X0287860Y0277849D02*
X0288985Y0278130D01*
X0288985Y0278130D02*
X0289547Y0278411D01*
X0289547Y0278411D02*
X0289828Y0278693D01*
X0289828Y0278693D02*
X0290109Y0279255D01*
X0290109Y0279255D02*
X0290109Y0279817D01*
X0290109Y0279817D02*
X0289828Y0280380D01*
X0289828Y0280380D02*
X0289547Y0280661D01*
X0289547Y0280661D02*
X0288985Y0280942D01*
X0288985Y0280942D02*
X0287860Y0281223D01*
X0287860Y0281223D02*
X0286454Y0281223D01*
X0286454Y0281223D02*
X0285329Y0280942D01*
X0285329Y0280942D02*
X0284766Y0280661D01*
X0284766Y0280661D02*
X0284485Y0280380D01*
X0284485Y0280380D02*
X0284204Y0279817D01*
X0034204Y0283754D02*
X0034204Y0286567D01*
X0034204Y0286567D02*
X0037016Y0286848D01*
X0037016Y0286848D02*
X0036735Y0286567D01*
X0036735Y0286567D02*
X0036454Y0286004D01*
X0036454Y0286004D02*
X0036454Y0284598D01*
X0036454Y0284598D02*
X0036735Y0284036D01*
X0036735Y0284036D02*
X0037016Y0283754D01*
X0037016Y0283754D02*
X0037578Y0283473D01*
X0037578Y0283473D02*
X0038985Y0283473D01*
X0038985Y0283473D02*
X0039547Y0283754D01*
X0039547Y0283754D02*
X0039828Y0284036D01*
X0039828Y0284036D02*
X0040109Y0284598D01*
X0040109Y0284598D02*
X0040109Y0286004D01*
X0040109Y0286004D02*
X0039828Y0286567D01*
X0039828Y0286567D02*
X0039547Y0286848D01*
X0034204Y0278411D02*
X0034204Y0279536D01*
X0034204Y0279536D02*
X0034485Y0280099D01*
X0034485Y0280099D02*
X0034766Y0280380D01*
X0034766Y0280380D02*
X0035610Y0280942D01*
X0035610Y0280942D02*
X0036735Y0281223D01*
X0036735Y0281223D02*
X0038985Y0281223D01*
X0038985Y0281223D02*
X0039547Y0280942D01*
X0039547Y0280942D02*
X0039828Y0280661D01*
X0039828Y0280661D02*
X0040109Y0280099D01*
X0040109Y0280099D02*
X0040109Y0278974D01*
X0040109Y0278974D02*
X0039828Y0278411D01*
X0039828Y0278411D02*
X0039547Y0278130D01*
X0039547Y0278130D02*
X0038985Y0277849D01*
X0038985Y0277849D02*
X0037578Y0277849D01*
X0037578Y0277849D02*
X0037016Y0278130D01*
X0037016Y0278130D02*
X0036735Y0278411D01*
X0036735Y0278411D02*
X0036454Y0278974D01*
X0036454Y0278974D02*
X0036454Y0280099D01*
X0036454Y0280099D02*
X0036735Y0280661D01*
X0036735Y0280661D02*
X0037016Y0280942D01*
X0037016Y0280942D02*
X0037578Y0281223D01*
X0311352Y0293813D02*
X0315289Y0293813D01*
X0309103Y0295219D02*
X0313321Y0296625D01*
X0313321Y0296625D02*
X0313321Y0292970D01*
X0315289Y0290439D02*
X0315289Y0289314D01*
X0315289Y0289314D02*
X0315008Y0288751D01*
X0315008Y0288751D02*
X0314727Y0288470D01*
X0314727Y0288470D02*
X0313883Y0287908D01*
X0313883Y0287908D02*
X0312759Y0287627D01*
X0312759Y0287627D02*
X0310509Y0287627D01*
X0310509Y0287627D02*
X0309946Y0287908D01*
X0309946Y0287908D02*
X0309665Y0288189D01*
X0309665Y0288189D02*
X0309384Y0288751D01*
X0309384Y0288751D02*
X0309384Y0289876D01*
X0309384Y0289876D02*
X0309665Y0290439D01*
X0309665Y0290439D02*
X0309946Y0290720D01*
X0309946Y0290720D02*
X0310509Y0291001D01*
X0310509Y0291001D02*
X0311915Y0291001D01*
X0311915Y0291001D02*
X0312477Y0290720D01*
X0312477Y0290720D02*
X0312759Y0290439D01*
X0312759Y0290439D02*
X0313040Y0289876D01*
X0313040Y0289876D02*
X0313040Y0288751D01*
X0313040Y0288751D02*
X0312759Y0288189D01*
X0312759Y0288189D02*
X0312477Y0287908D01*
X0312477Y0287908D02*
X0311915Y0287627D01*
X0315306Y0342528D02*
X0315306Y0345903D01*
X0315306Y0344216D02*
X0309401Y0344216D01*
X0309401Y0344216D02*
X0310244Y0344778D01*
X0310244Y0344778D02*
X0310807Y0345340D01*
X0310807Y0345340D02*
X0311088Y0345903D01*
X0309401Y0340560D02*
X0309401Y0336904D01*
X0309401Y0336904D02*
X0311650Y0338873D01*
X0311650Y0338873D02*
X0311650Y0338029D01*
X0311650Y0338029D02*
X0311932Y0337466D01*
X0311932Y0337466D02*
X0312213Y0337185D01*
X0312213Y0337185D02*
X0312775Y0336904D01*
X0312775Y0336904D02*
X0314181Y0336904D01*
X0314181Y0336904D02*
X0314744Y0337185D01*
X0314744Y0337185D02*
X0315025Y0337466D01*
X0315025Y0337466D02*
X0315306Y0338029D01*
X0315306Y0338029D02*
X0315306Y0339716D01*
X0315306Y0339716D02*
X0315025Y0340279D01*
X0315025Y0340279D02*
X0314744Y0340560D01*
X0240109Y0283754D02*
X0240109Y0286567D01*
X0240109Y0286567D02*
X0242922Y0286848D01*
X0242922Y0286848D02*
X0242640Y0286567D01*
X0242640Y0286567D02*
X0242359Y0286004D01*
X0242359Y0286004D02*
X0242359Y0284598D01*
X0242359Y0284598D02*
X0242640Y0284036D01*
X0242640Y0284036D02*
X0242922Y0283754D01*
X0242922Y0283754D02*
X0243484Y0283473D01*
X0243484Y0283473D02*
X0244890Y0283473D01*
X0244890Y0283473D02*
X0245453Y0283754D01*
X0245453Y0283754D02*
X0245734Y0284036D01*
X0245734Y0284036D02*
X0246015Y0284598D01*
X0246015Y0284598D02*
X0246015Y0286004D01*
X0246015Y0286004D02*
X0245734Y0286567D01*
X0245734Y0286567D02*
X0245453Y0286848D01*
X0240109Y0281505D02*
X0240109Y0277849D01*
X0240109Y0277849D02*
X0242359Y0279817D01*
X0242359Y0279817D02*
X0242359Y0278974D01*
X0242359Y0278974D02*
X0242640Y0278411D01*
X0242640Y0278411D02*
X0242922Y0278130D01*
X0242922Y0278130D02*
X0243484Y0277849D01*
X0243484Y0277849D02*
X0244890Y0277849D01*
X0244890Y0277849D02*
X0245453Y0278130D01*
X0245453Y0278130D02*
X0245734Y0278411D01*
X0245734Y0278411D02*
X0246015Y0278974D01*
X0246015Y0278974D02*
X0246015Y0280661D01*
X0246015Y0280661D02*
X0245734Y0281223D01*
X0245734Y0281223D02*
X0245453Y0281505D01*
X0225149Y0283754D02*
X0225149Y0286567D01*
X0225149Y0286567D02*
X0227961Y0286848D01*
X0227961Y0286848D02*
X0227680Y0286567D01*
X0227680Y0286567D02*
X0227399Y0286004D01*
X0227399Y0286004D02*
X0227399Y0284598D01*
X0227399Y0284598D02*
X0227680Y0284036D01*
X0227680Y0284036D02*
X0227961Y0283754D01*
X0227961Y0283754D02*
X0228523Y0283473D01*
X0228523Y0283473D02*
X0229929Y0283473D01*
X0229929Y0283473D02*
X0230492Y0283754D01*
X0230492Y0283754D02*
X0230773Y0284036D01*
X0230773Y0284036D02*
X0231054Y0284598D01*
X0231054Y0284598D02*
X0231054Y0286004D01*
X0231054Y0286004D02*
X0230773Y0286567D01*
X0230773Y0286567D02*
X0230492Y0286848D01*
X0227117Y0278411D02*
X0231054Y0278411D01*
X0224868Y0279817D02*
X0229086Y0281223D01*
X0229086Y0281223D02*
X0229086Y0277568D01*
X0147742Y0327728D02*
X0147460Y0327447D01*
X0147460Y0327447D02*
X0147179Y0326884D01*
X0147179Y0326884D02*
X0147179Y0325478D01*
X0147179Y0325478D02*
X0147460Y0324916D01*
X0147460Y0324916D02*
X0147742Y0324634D01*
X0147742Y0324634D02*
X0148304Y0324353D01*
X0148304Y0324353D02*
X0148867Y0324353D01*
X0148867Y0324353D02*
X0149710Y0324634D01*
X0149710Y0324634D02*
X0153085Y0328009D01*
X0153085Y0328009D02*
X0153085Y0324353D01*
X0147179Y0319010D02*
X0147179Y0321822D01*
X0147179Y0321822D02*
X0149991Y0322103D01*
X0149991Y0322103D02*
X0149710Y0321822D01*
X0149710Y0321822D02*
X0149429Y0321260D01*
X0149429Y0321260D02*
X0149429Y0319854D01*
X0149429Y0319854D02*
X0149710Y0319291D01*
X0149710Y0319291D02*
X0149991Y0319010D01*
X0149991Y0319010D02*
X0150554Y0318729D01*
X0150554Y0318729D02*
X0151960Y0318729D01*
X0151960Y0318729D02*
X0152522Y0319010D01*
X0152522Y0319010D02*
X0152804Y0319291D01*
X0152804Y0319291D02*
X0153085Y0319854D01*
X0153085Y0319854D02*
X0153085Y0321260D01*
X0153085Y0321260D02*
X0152804Y0321822D01*
X0152804Y0321822D02*
X0152522Y0322103D01*
X0210582Y0283754D02*
X0210582Y0286567D01*
X0210582Y0286567D02*
X0213394Y0286848D01*
X0213394Y0286848D02*
X0213113Y0286567D01*
X0213113Y0286567D02*
X0212832Y0286004D01*
X0212832Y0286004D02*
X0212832Y0284598D01*
X0212832Y0284598D02*
X0213113Y0284036D01*
X0213113Y0284036D02*
X0213394Y0283754D01*
X0213394Y0283754D02*
X0213956Y0283473D01*
X0213956Y0283473D02*
X0215363Y0283473D01*
X0215363Y0283473D02*
X0215925Y0283754D01*
X0215925Y0283754D02*
X0216206Y0284036D01*
X0216206Y0284036D02*
X0216487Y0284598D01*
X0216487Y0284598D02*
X0216487Y0286004D01*
X0216487Y0286004D02*
X0216206Y0286567D01*
X0216206Y0286567D02*
X0215925Y0286848D01*
X0210582Y0278130D02*
X0210582Y0280942D01*
X0210582Y0280942D02*
X0213394Y0281223D01*
X0213394Y0281223D02*
X0213113Y0280942D01*
X0213113Y0280942D02*
X0212832Y0280380D01*
X0212832Y0280380D02*
X0212832Y0278974D01*
X0212832Y0278974D02*
X0213113Y0278411D01*
X0213113Y0278411D02*
X0213394Y0278130D01*
X0213394Y0278130D02*
X0213956Y0277849D01*
X0213956Y0277849D02*
X0215363Y0277849D01*
X0215363Y0277849D02*
X0215925Y0278130D01*
X0215925Y0278130D02*
X0216206Y0278411D01*
X0216206Y0278411D02*
X0216487Y0278974D01*
X0216487Y0278974D02*
X0216487Y0280380D01*
X0216487Y0280380D02*
X0216206Y0280942D01*
X0216206Y0280942D02*
X0215925Y0281223D01*
X0254676Y0283754D02*
X0254676Y0286567D01*
X0254676Y0286567D02*
X0257489Y0286848D01*
X0257489Y0286848D02*
X0257207Y0286567D01*
X0257207Y0286567D02*
X0256926Y0286004D01*
X0256926Y0286004D02*
X0256926Y0284598D01*
X0256926Y0284598D02*
X0257207Y0284036D01*
X0257207Y0284036D02*
X0257489Y0283754D01*
X0257489Y0283754D02*
X0258051Y0283473D01*
X0258051Y0283473D02*
X0259457Y0283473D01*
X0259457Y0283473D02*
X0260019Y0283754D01*
X0260019Y0283754D02*
X0260301Y0284036D01*
X0260301Y0284036D02*
X0260582Y0284598D01*
X0260582Y0284598D02*
X0260582Y0286004D01*
X0260582Y0286004D02*
X0260301Y0286567D01*
X0260301Y0286567D02*
X0260019Y0286848D01*
X0255239Y0281223D02*
X0254958Y0280942D01*
X0254958Y0280942D02*
X0254676Y0280380D01*
X0254676Y0280380D02*
X0254676Y0278974D01*
X0254676Y0278974D02*
X0254958Y0278411D01*
X0254958Y0278411D02*
X0255239Y0278130D01*
X0255239Y0278130D02*
X0255801Y0277849D01*
X0255801Y0277849D02*
X0256364Y0277849D01*
X0256364Y0277849D02*
X0257207Y0278130D01*
X0257207Y0278130D02*
X0260582Y0281505D01*
X0260582Y0281505D02*
X0260582Y0277849D01*
X0188293Y0348988D02*
X0188012Y0348706D01*
X0188012Y0348706D02*
X0187730Y0348144D01*
X0187730Y0348144D02*
X0187730Y0346738D01*
X0187730Y0346738D02*
X0188012Y0346175D01*
X0188012Y0346175D02*
X0188293Y0345894D01*
X0188293Y0345894D02*
X0188855Y0345613D01*
X0188855Y0345613D02*
X0189418Y0345613D01*
X0189418Y0345613D02*
X0190261Y0345894D01*
X0190261Y0345894D02*
X0193636Y0349269D01*
X0193636Y0349269D02*
X0193636Y0345613D01*
X0189699Y0340551D02*
X0193636Y0340551D01*
X0187449Y0341957D02*
X0191667Y0343363D01*
X0191667Y0343363D02*
X0191667Y0339708D01*
X0147983Y0310751D02*
X0147983Y0307095D01*
X0147983Y0307095D02*
X0150233Y0309064D01*
X0150233Y0309064D02*
X0150233Y0308220D01*
X0150233Y0308220D02*
X0150514Y0307658D01*
X0150514Y0307658D02*
X0150796Y0307376D01*
X0150796Y0307376D02*
X0151358Y0307095D01*
X0151358Y0307095D02*
X0152764Y0307095D01*
X0152764Y0307095D02*
X0153327Y0307376D01*
X0153327Y0307376D02*
X0153608Y0307658D01*
X0153608Y0307658D02*
X0153889Y0308220D01*
X0153889Y0308220D02*
X0153889Y0309907D01*
X0153889Y0309907D02*
X0153608Y0310470D01*
X0153608Y0310470D02*
X0153327Y0310751D01*
X0147983Y0305127D02*
X0147983Y0301190D01*
X0147983Y0301190D02*
X0153889Y0303721D01*
D17*
X0134039Y0247992D02*
X0132610Y0248992D01*
X0134039Y0249706D02*
X0131039Y0249706D01*
X0131039Y0249706D02*
X0131039Y0248563D01*
X0131039Y0248563D02*
X0131182Y0248277D01*
X0131182Y0248277D02*
X0131325Y0248134D01*
X0131325Y0248134D02*
X0131610Y0247992D01*
X0131610Y0247992D02*
X0132039Y0247992D01*
X0132039Y0247992D02*
X0132325Y0248134D01*
X0132325Y0248134D02*
X0132468Y0248277D01*
X0132468Y0248277D02*
X0132610Y0248563D01*
X0132610Y0248563D02*
X0132610Y0249706D01*
X0134039Y0245134D02*
X0134039Y0246849D01*
X0134039Y0245992D02*
X0131039Y0245992D01*
X0131039Y0245992D02*
X0131468Y0246277D01*
X0131468Y0246277D02*
X0131753Y0246563D01*
X0131753Y0246563D02*
X0131896Y0246849D01*
X0131039Y0244134D02*
X0131039Y0242277D01*
X0131039Y0242277D02*
X0132182Y0243277D01*
X0132182Y0243277D02*
X0132182Y0242849D01*
X0132182Y0242849D02*
X0132325Y0242563D01*
X0132325Y0242563D02*
X0132468Y0242420D01*
X0132468Y0242420D02*
X0132753Y0242277D01*
X0132753Y0242277D02*
X0133468Y0242277D01*
X0133468Y0242277D02*
X0133753Y0242420D01*
X0133753Y0242420D02*
X0133896Y0242563D01*
X0133896Y0242563D02*
X0134039Y0242849D01*
X0134039Y0242849D02*
X0134039Y0243706D01*
X0134039Y0243706D02*
X0133896Y0243992D01*
X0133896Y0243992D02*
X0133753Y0244134D01*
X0027326Y0271614D02*
X0025898Y0272614D01*
X0027326Y0273328D02*
X0024326Y0273328D01*
X0024326Y0273328D02*
X0024326Y0272185D01*
X0024326Y0272185D02*
X0024469Y0271899D01*
X0024469Y0271899D02*
X0024612Y0271756D01*
X0024612Y0271756D02*
X0024898Y0271614D01*
X0024898Y0271614D02*
X0025326Y0271614D01*
X0025326Y0271614D02*
X0025612Y0271756D01*
X0025612Y0271756D02*
X0025755Y0271899D01*
X0025755Y0271899D02*
X0025898Y0272185D01*
X0025898Y0272185D02*
X0025898Y0273328D01*
X0027326Y0268756D02*
X0027326Y0270471D01*
X0027326Y0269614D02*
X0024326Y0269614D01*
X0024326Y0269614D02*
X0024755Y0269899D01*
X0024755Y0269899D02*
X0025041Y0270185D01*
X0025041Y0270185D02*
X0025184Y0270471D01*
X0027326Y0265899D02*
X0027326Y0267614D01*
X0027326Y0266756D02*
X0024326Y0266756D01*
X0024326Y0266756D02*
X0024755Y0267042D01*
X0024755Y0267042D02*
X0025041Y0267328D01*
X0025041Y0267328D02*
X0025184Y0267614D01*
X0125944Y0246670D02*
X0126944Y0248098D01*
X0127659Y0246670D02*
X0127659Y0249670D01*
X0127659Y0249670D02*
X0126516Y0249670D01*
X0126516Y0249670D02*
X0126230Y0249527D01*
X0126230Y0249527D02*
X0126087Y0249384D01*
X0126087Y0249384D02*
X0125944Y0249098D01*
X0125944Y0249098D02*
X0125944Y0248670D01*
X0125944Y0248670D02*
X0126087Y0248384D01*
X0126087Y0248384D02*
X0126230Y0248241D01*
X0126230Y0248241D02*
X0126516Y0248098D01*
X0126516Y0248098D02*
X0127659Y0248098D01*
X0123087Y0246670D02*
X0124801Y0246670D01*
X0123944Y0246670D02*
X0123944Y0249670D01*
X0123944Y0249670D02*
X0124230Y0249241D01*
X0124230Y0249241D02*
X0124516Y0248955D01*
X0124516Y0248955D02*
X0124801Y0248812D01*
X0120516Y0248670D02*
X0120516Y0246670D01*
X0121230Y0249812D02*
X0121944Y0247670D01*
X0121944Y0247670D02*
X0120087Y0247670D01*
X0209661Y0271863D02*
X0210661Y0271863D01*
X0210661Y0270292D02*
X0210661Y0273292D01*
X0210661Y0273292D02*
X0209233Y0273292D01*
X0208233Y0273006D02*
X0208090Y0273149D01*
X0208090Y0273149D02*
X0207804Y0273292D01*
X0207804Y0273292D02*
X0207090Y0273292D01*
X0207090Y0273292D02*
X0206804Y0273149D01*
X0206804Y0273149D02*
X0206661Y0273006D01*
X0206661Y0273006D02*
X0206519Y0272720D01*
X0206519Y0272720D02*
X0206519Y0272435D01*
X0206519Y0272435D02*
X0206661Y0272006D01*
X0206661Y0272006D02*
X0208376Y0270292D01*
X0208376Y0270292D02*
X0206519Y0270292D01*
X0113149Y0246670D02*
X0114149Y0248098D01*
X0114863Y0246670D02*
X0114863Y0249670D01*
X0114863Y0249670D02*
X0113720Y0249670D01*
X0113720Y0249670D02*
X0113435Y0249527D01*
X0113435Y0249527D02*
X0113292Y0249384D01*
X0113292Y0249384D02*
X0113149Y0249098D01*
X0113149Y0249098D02*
X0113149Y0248670D01*
X0113149Y0248670D02*
X0113292Y0248384D01*
X0113292Y0248384D02*
X0113435Y0248241D01*
X0113435Y0248241D02*
X0113720Y0248098D01*
X0113720Y0248098D02*
X0114863Y0248098D01*
X0110292Y0246670D02*
X0112006Y0246670D01*
X0111149Y0246670D02*
X0111149Y0249670D01*
X0111149Y0249670D02*
X0111435Y0249241D01*
X0111435Y0249241D02*
X0111720Y0248955D01*
X0111720Y0248955D02*
X0112006Y0248812D01*
X0107578Y0249670D02*
X0109006Y0249670D01*
X0109006Y0249670D02*
X0109149Y0248241D01*
X0109149Y0248241D02*
X0109006Y0248384D01*
X0109006Y0248384D02*
X0108720Y0248527D01*
X0108720Y0248527D02*
X0108006Y0248527D01*
X0108006Y0248527D02*
X0107720Y0248384D01*
X0107720Y0248384D02*
X0107578Y0248241D01*
X0107578Y0248241D02*
X0107435Y0247955D01*
X0107435Y0247955D02*
X0107435Y0247241D01*
X0107435Y0247241D02*
X0107578Y0246955D01*
X0107578Y0246955D02*
X0107720Y0246812D01*
X0107720Y0246812D02*
X0108006Y0246670D01*
X0108006Y0246670D02*
X0108720Y0246670D01*
X0108720Y0246670D02*
X0109006Y0246812D01*
X0109006Y0246812D02*
X0109149Y0246955D01*
X0270291Y0273832D02*
X0271291Y0273832D01*
X0271291Y0272260D02*
X0271291Y0275260D01*
X0271291Y0275260D02*
X0269863Y0275260D01*
X0267148Y0272260D02*
X0268863Y0272260D01*
X0268006Y0272260D02*
X0268006Y0275260D01*
X0268006Y0275260D02*
X0268291Y0274832D01*
X0268291Y0274832D02*
X0268577Y0274546D01*
X0268577Y0274546D02*
X0268863Y0274403D01*
X0199819Y0271863D02*
X0200819Y0271863D01*
X0200819Y0270292D02*
X0200819Y0273292D01*
X0200819Y0273292D02*
X0199390Y0273292D01*
X0198533Y0273292D02*
X0196676Y0273292D01*
X0196676Y0273292D02*
X0197676Y0272149D01*
X0197676Y0272149D02*
X0197247Y0272149D01*
X0197247Y0272149D02*
X0196962Y0272006D01*
X0196962Y0272006D02*
X0196819Y0271863D01*
X0196819Y0271863D02*
X0196676Y0271577D01*
X0196676Y0271577D02*
X0196676Y0270863D01*
X0196676Y0270863D02*
X0196819Y0270577D01*
X0196819Y0270577D02*
X0196962Y0270435D01*
X0196962Y0270435D02*
X0197247Y0270292D01*
X0197247Y0270292D02*
X0198105Y0270292D01*
X0198105Y0270292D02*
X0198390Y0270435D01*
X0198390Y0270435D02*
X0198533Y0270577D01*
X0252468Y0270292D02*
X0253468Y0271720D01*
X0254183Y0270292D02*
X0254183Y0273292D01*
X0254183Y0273292D02*
X0253040Y0273292D01*
X0253040Y0273292D02*
X0252754Y0273149D01*
X0252754Y0273149D02*
X0252611Y0273006D01*
X0252611Y0273006D02*
X0252468Y0272720D01*
X0252468Y0272720D02*
X0252468Y0272292D01*
X0252468Y0272292D02*
X0252611Y0272006D01*
X0252611Y0272006D02*
X0252754Y0271863D01*
X0252754Y0271863D02*
X0253040Y0271720D01*
X0253040Y0271720D02*
X0254183Y0271720D01*
X0249611Y0270292D02*
X0251326Y0270292D01*
X0250468Y0270292D02*
X0250468Y0273292D01*
X0250468Y0273292D02*
X0250754Y0272863D01*
X0250754Y0272863D02*
X0251040Y0272577D01*
X0251040Y0272577D02*
X0251326Y0272435D01*
X0148138Y0246670D02*
X0149138Y0248098D01*
X0149852Y0246670D02*
X0149852Y0249670D01*
X0149852Y0249670D02*
X0148709Y0249670D01*
X0148709Y0249670D02*
X0148424Y0249527D01*
X0148424Y0249527D02*
X0148281Y0249384D01*
X0148281Y0249384D02*
X0148138Y0249098D01*
X0148138Y0249098D02*
X0148138Y0248670D01*
X0148138Y0248670D02*
X0148281Y0248384D01*
X0148281Y0248384D02*
X0148424Y0248241D01*
X0148424Y0248241D02*
X0148709Y0248098D01*
X0148709Y0248098D02*
X0149852Y0248098D01*
X0146709Y0246670D02*
X0146138Y0246670D01*
X0146138Y0246670D02*
X0145852Y0246812D01*
X0145852Y0246812D02*
X0145709Y0246955D01*
X0145709Y0246955D02*
X0145424Y0247384D01*
X0145424Y0247384D02*
X0145281Y0247955D01*
X0145281Y0247955D02*
X0145281Y0249098D01*
X0145281Y0249098D02*
X0145424Y0249384D01*
X0145424Y0249384D02*
X0145566Y0249527D01*
X0145566Y0249527D02*
X0145852Y0249670D01*
X0145852Y0249670D02*
X0146424Y0249670D01*
X0146424Y0249670D02*
X0146709Y0249527D01*
X0146709Y0249527D02*
X0146852Y0249384D01*
X0146852Y0249384D02*
X0146995Y0249098D01*
X0146995Y0249098D02*
X0146995Y0248384D01*
X0146995Y0248384D02*
X0146852Y0248098D01*
X0146852Y0248098D02*
X0146709Y0247955D01*
X0146709Y0247955D02*
X0146424Y0247812D01*
X0146424Y0247812D02*
X0145852Y0247812D01*
X0145852Y0247812D02*
X0145566Y0247955D01*
X0145566Y0247955D02*
X0145424Y0248098D01*
X0145424Y0248098D02*
X0145281Y0248384D01*
X0303650Y0270292D02*
X0304650Y0271720D01*
X0305364Y0270292D02*
X0305364Y0273292D01*
X0305364Y0273292D02*
X0304221Y0273292D01*
X0304221Y0273292D02*
X0303935Y0273149D01*
X0303935Y0273149D02*
X0303792Y0273006D01*
X0303792Y0273006D02*
X0303650Y0272720D01*
X0303650Y0272720D02*
X0303650Y0272292D01*
X0303650Y0272292D02*
X0303792Y0272006D01*
X0303792Y0272006D02*
X0303935Y0271863D01*
X0303935Y0271863D02*
X0304221Y0271720D01*
X0304221Y0271720D02*
X0305364Y0271720D01*
X0301078Y0273292D02*
X0301650Y0273292D01*
X0301650Y0273292D02*
X0301935Y0273149D01*
X0301935Y0273149D02*
X0302078Y0273006D01*
X0302078Y0273006D02*
X0302364Y0272577D01*
X0302364Y0272577D02*
X0302507Y0272006D01*
X0302507Y0272006D02*
X0302507Y0270863D01*
X0302507Y0270863D02*
X0302364Y0270577D01*
X0302364Y0270577D02*
X0302221Y0270435D01*
X0302221Y0270435D02*
X0301935Y0270292D01*
X0301935Y0270292D02*
X0301364Y0270292D01*
X0301364Y0270292D02*
X0301078Y0270435D01*
X0301078Y0270435D02*
X0300935Y0270577D01*
X0300935Y0270577D02*
X0300792Y0270863D01*
X0300792Y0270863D02*
X0300792Y0271577D01*
X0300792Y0271577D02*
X0300935Y0271863D01*
X0300935Y0271863D02*
X0301078Y0272006D01*
X0301078Y0272006D02*
X0301364Y0272149D01*
X0301364Y0272149D02*
X0301935Y0272149D01*
X0301935Y0272149D02*
X0302221Y0272006D01*
X0302221Y0272006D02*
X0302364Y0271863D01*
X0302364Y0271863D02*
X0302507Y0271577D01*
X0281602Y0270292D02*
X0282602Y0271720D01*
X0283317Y0270292D02*
X0283317Y0273292D01*
X0283317Y0273292D02*
X0282174Y0273292D01*
X0282174Y0273292D02*
X0281888Y0273149D01*
X0281888Y0273149D02*
X0281745Y0273006D01*
X0281745Y0273006D02*
X0281602Y0272720D01*
X0281602Y0272720D02*
X0281602Y0272292D01*
X0281602Y0272292D02*
X0281745Y0272006D01*
X0281745Y0272006D02*
X0281888Y0271863D01*
X0281888Y0271863D02*
X0282174Y0271720D01*
X0282174Y0271720D02*
X0283317Y0271720D01*
X0279031Y0272292D02*
X0279031Y0270292D01*
X0279745Y0273435D02*
X0280460Y0271292D01*
X0280460Y0271292D02*
X0278602Y0271292D01*
X0289083Y0270292D02*
X0290083Y0271720D01*
X0290797Y0270292D02*
X0290797Y0273292D01*
X0290797Y0273292D02*
X0289654Y0273292D01*
X0289654Y0273292D02*
X0289368Y0273149D01*
X0289368Y0273149D02*
X0289226Y0273006D01*
X0289226Y0273006D02*
X0289083Y0272720D01*
X0289083Y0272720D02*
X0289083Y0272292D01*
X0289083Y0272292D02*
X0289226Y0272006D01*
X0289226Y0272006D02*
X0289368Y0271863D01*
X0289368Y0271863D02*
X0289654Y0271720D01*
X0289654Y0271720D02*
X0290797Y0271720D01*
X0287368Y0272006D02*
X0287654Y0272149D01*
X0287654Y0272149D02*
X0287797Y0272292D01*
X0287797Y0272292D02*
X0287940Y0272577D01*
X0287940Y0272577D02*
X0287940Y0272720D01*
X0287940Y0272720D02*
X0287797Y0273006D01*
X0287797Y0273006D02*
X0287654Y0273149D01*
X0287654Y0273149D02*
X0287368Y0273292D01*
X0287368Y0273292D02*
X0286797Y0273292D01*
X0286797Y0273292D02*
X0286511Y0273149D01*
X0286511Y0273149D02*
X0286368Y0273006D01*
X0286368Y0273006D02*
X0286226Y0272720D01*
X0286226Y0272720D02*
X0286226Y0272577D01*
X0286226Y0272577D02*
X0286368Y0272292D01*
X0286368Y0272292D02*
X0286511Y0272149D01*
X0286511Y0272149D02*
X0286797Y0272006D01*
X0286797Y0272006D02*
X0287368Y0272006D01*
X0287368Y0272006D02*
X0287654Y0271863D01*
X0287654Y0271863D02*
X0287797Y0271720D01*
X0287797Y0271720D02*
X0287940Y0271435D01*
X0287940Y0271435D02*
X0287940Y0270863D01*
X0287940Y0270863D02*
X0287797Y0270577D01*
X0287797Y0270577D02*
X0287654Y0270435D01*
X0287654Y0270435D02*
X0287368Y0270292D01*
X0287368Y0270292D02*
X0286797Y0270292D01*
X0286797Y0270292D02*
X0286511Y0270435D01*
X0286511Y0270435D02*
X0286368Y0270577D01*
X0286368Y0270577D02*
X0286226Y0270863D01*
X0286226Y0270863D02*
X0286226Y0271435D01*
X0286226Y0271435D02*
X0286368Y0271720D01*
X0286368Y0271720D02*
X0286511Y0271863D01*
X0286511Y0271863D02*
X0286797Y0272006D01*
X0141692Y0246670D02*
X0142692Y0248098D01*
X0143407Y0246670D02*
X0143407Y0249670D01*
X0143407Y0249670D02*
X0142264Y0249670D01*
X0142264Y0249670D02*
X0141978Y0249527D01*
X0141978Y0249527D02*
X0141835Y0249384D01*
X0141835Y0249384D02*
X0141692Y0249098D01*
X0141692Y0249098D02*
X0141692Y0248670D01*
X0141692Y0248670D02*
X0141835Y0248384D01*
X0141835Y0248384D02*
X0141978Y0248241D01*
X0141978Y0248241D02*
X0142264Y0248098D01*
X0142264Y0248098D02*
X0143407Y0248098D01*
X0138835Y0246670D02*
X0140549Y0246670D01*
X0139692Y0246670D02*
X0139692Y0249670D01*
X0139692Y0249670D02*
X0139978Y0249241D01*
X0139978Y0249241D02*
X0140264Y0248955D01*
X0140264Y0248955D02*
X0140549Y0248812D01*
X0136978Y0249670D02*
X0136692Y0249670D01*
X0136692Y0249670D02*
X0136407Y0249527D01*
X0136407Y0249527D02*
X0136264Y0249384D01*
X0136264Y0249384D02*
X0136121Y0249098D01*
X0136121Y0249098D02*
X0135978Y0248527D01*
X0135978Y0248527D02*
X0135978Y0247812D01*
X0135978Y0247812D02*
X0136121Y0247241D01*
X0136121Y0247241D02*
X0136264Y0246955D01*
X0136264Y0246955D02*
X0136407Y0246812D01*
X0136407Y0246812D02*
X0136692Y0246670D01*
X0136692Y0246670D02*
X0136978Y0246670D01*
X0136978Y0246670D02*
X0137264Y0246812D01*
X0137264Y0246812D02*
X0137407Y0246955D01*
X0137407Y0246955D02*
X0137549Y0247241D01*
X0137549Y0247241D02*
X0137692Y0247812D01*
X0137692Y0247812D02*
X0137692Y0248527D01*
X0137692Y0248527D02*
X0137549Y0249098D01*
X0137549Y0249098D02*
X0137407Y0249384D01*
X0137407Y0249384D02*
X0137264Y0249527D01*
X0137264Y0249527D02*
X0136978Y0249670D01*
X0296169Y0270292D02*
X0297169Y0271720D01*
X0297884Y0270292D02*
X0297884Y0273292D01*
X0297884Y0273292D02*
X0296741Y0273292D01*
X0296741Y0273292D02*
X0296455Y0273149D01*
X0296455Y0273149D02*
X0296312Y0273006D01*
X0296312Y0273006D02*
X0296169Y0272720D01*
X0296169Y0272720D02*
X0296169Y0272292D01*
X0296169Y0272292D02*
X0296312Y0272006D01*
X0296312Y0272006D02*
X0296455Y0271863D01*
X0296455Y0271863D02*
X0296741Y0271720D01*
X0296741Y0271720D02*
X0297884Y0271720D01*
X0295169Y0273292D02*
X0293169Y0273292D01*
X0293169Y0273292D02*
X0294455Y0270292D01*
X0098385Y0246670D02*
X0099385Y0248098D01*
X0100100Y0246670D02*
X0100100Y0249670D01*
X0100100Y0249670D02*
X0098957Y0249670D01*
X0098957Y0249670D02*
X0098671Y0249527D01*
X0098671Y0249527D02*
X0098528Y0249384D01*
X0098528Y0249384D02*
X0098385Y0249098D01*
X0098385Y0249098D02*
X0098385Y0248670D01*
X0098385Y0248670D02*
X0098528Y0248384D01*
X0098528Y0248384D02*
X0098671Y0248241D01*
X0098671Y0248241D02*
X0098957Y0248098D01*
X0098957Y0248098D02*
X0100100Y0248098D01*
X0095528Y0246670D02*
X0097242Y0246670D01*
X0096385Y0246670D02*
X0096385Y0249670D01*
X0096385Y0249670D02*
X0096671Y0249241D01*
X0096671Y0249241D02*
X0096957Y0248955D01*
X0096957Y0248955D02*
X0097242Y0248812D01*
X0092957Y0249670D02*
X0093528Y0249670D01*
X0093528Y0249670D02*
X0093814Y0249527D01*
X0093814Y0249527D02*
X0093957Y0249384D01*
X0093957Y0249384D02*
X0094242Y0248955D01*
X0094242Y0248955D02*
X0094385Y0248384D01*
X0094385Y0248384D02*
X0094385Y0247241D01*
X0094385Y0247241D02*
X0094242Y0246955D01*
X0094242Y0246955D02*
X0094100Y0246812D01*
X0094100Y0246812D02*
X0093814Y0246670D01*
X0093814Y0246670D02*
X0093242Y0246670D01*
X0093242Y0246670D02*
X0092957Y0246812D01*
X0092957Y0246812D02*
X0092814Y0246955D01*
X0092814Y0246955D02*
X0092671Y0247241D01*
X0092671Y0247241D02*
X0092671Y0247955D01*
X0092671Y0247955D02*
X0092814Y0248241D01*
X0092814Y0248241D02*
X0092957Y0248384D01*
X0092957Y0248384D02*
X0093242Y0248527D01*
X0093242Y0248527D02*
X0093814Y0248527D01*
X0093814Y0248527D02*
X0094100Y0248384D01*
X0094100Y0248384D02*
X0094242Y0248241D01*
X0094242Y0248241D02*
X0094385Y0247955D01*
X0228059Y0270292D02*
X0229059Y0271720D01*
X0229773Y0270292D02*
X0229773Y0273292D01*
X0229773Y0273292D02*
X0228630Y0273292D01*
X0228630Y0273292D02*
X0228345Y0273149D01*
X0228345Y0273149D02*
X0228202Y0273006D01*
X0228202Y0273006D02*
X0228059Y0272720D01*
X0228059Y0272720D02*
X0228059Y0272292D01*
X0228059Y0272292D02*
X0228202Y0272006D01*
X0228202Y0272006D02*
X0228345Y0271863D01*
X0228345Y0271863D02*
X0228630Y0271720D01*
X0228630Y0271720D02*
X0229773Y0271720D01*
X0225345Y0273292D02*
X0226773Y0273292D01*
X0226773Y0273292D02*
X0226916Y0271863D01*
X0226916Y0271863D02*
X0226773Y0272006D01*
X0226773Y0272006D02*
X0226488Y0272149D01*
X0226488Y0272149D02*
X0225773Y0272149D01*
X0225773Y0272149D02*
X0225488Y0272006D01*
X0225488Y0272006D02*
X0225345Y0271863D01*
X0225345Y0271863D02*
X0225202Y0271577D01*
X0225202Y0271577D02*
X0225202Y0270863D01*
X0225202Y0270863D02*
X0225345Y0270577D01*
X0225345Y0270577D02*
X0225488Y0270435D01*
X0225488Y0270435D02*
X0225773Y0270292D01*
X0225773Y0270292D02*
X0226488Y0270292D01*
X0226488Y0270292D02*
X0226773Y0270435D01*
X0226773Y0270435D02*
X0226916Y0270577D01*
X0238689Y0270292D02*
X0239689Y0271720D01*
X0240403Y0270292D02*
X0240403Y0273292D01*
X0240403Y0273292D02*
X0239260Y0273292D01*
X0239260Y0273292D02*
X0238975Y0273149D01*
X0238975Y0273149D02*
X0238832Y0273006D01*
X0238832Y0273006D02*
X0238689Y0272720D01*
X0238689Y0272720D02*
X0238689Y0272292D01*
X0238689Y0272292D02*
X0238832Y0272006D01*
X0238832Y0272006D02*
X0238975Y0271863D01*
X0238975Y0271863D02*
X0239260Y0271720D01*
X0239260Y0271720D02*
X0240403Y0271720D01*
X0237546Y0273006D02*
X0237403Y0273149D01*
X0237403Y0273149D02*
X0237118Y0273292D01*
X0237118Y0273292D02*
X0236403Y0273292D01*
X0236403Y0273292D02*
X0236118Y0273149D01*
X0236118Y0273149D02*
X0235975Y0273006D01*
X0235975Y0273006D02*
X0235832Y0272720D01*
X0235832Y0272720D02*
X0235832Y0272435D01*
X0235832Y0272435D02*
X0235975Y0272006D01*
X0235975Y0272006D02*
X0237689Y0270292D01*
X0237689Y0270292D02*
X0235832Y0270292D01*
X0218217Y0270292D02*
X0219217Y0271720D01*
X0219931Y0270292D02*
X0219931Y0273292D01*
X0219931Y0273292D02*
X0218788Y0273292D01*
X0218788Y0273292D02*
X0218502Y0273149D01*
X0218502Y0273149D02*
X0218359Y0273006D01*
X0218359Y0273006D02*
X0218217Y0272720D01*
X0218217Y0272720D02*
X0218217Y0272292D01*
X0218217Y0272292D02*
X0218359Y0272006D01*
X0218359Y0272006D02*
X0218502Y0271863D01*
X0218502Y0271863D02*
X0218788Y0271720D01*
X0218788Y0271720D02*
X0219931Y0271720D01*
X0217217Y0273292D02*
X0215359Y0273292D01*
X0215359Y0273292D02*
X0216359Y0272149D01*
X0216359Y0272149D02*
X0215931Y0272149D01*
X0215931Y0272149D02*
X0215645Y0272006D01*
X0215645Y0272006D02*
X0215502Y0271863D01*
X0215502Y0271863D02*
X0215359Y0271577D01*
X0215359Y0271577D02*
X0215359Y0270863D01*
X0215359Y0270863D02*
X0215502Y0270577D01*
X0215502Y0270577D02*
X0215645Y0270435D01*
X0215645Y0270435D02*
X0215931Y0270292D01*
X0215931Y0270292D02*
X0216788Y0270292D01*
X0216788Y0270292D02*
X0217074Y0270435D01*
X0217074Y0270435D02*
X0217217Y0270577D01*
X0282838Y0281456D02*
X0281410Y0282456D01*
X0282838Y0283170D02*
X0279838Y0283170D01*
X0279838Y0283170D02*
X0279838Y0282028D01*
X0279838Y0282028D02*
X0279981Y0281742D01*
X0279981Y0281742D02*
X0280124Y0281599D01*
X0280124Y0281599D02*
X0280410Y0281456D01*
X0280410Y0281456D02*
X0280838Y0281456D01*
X0280838Y0281456D02*
X0281124Y0281599D01*
X0281124Y0281599D02*
X0281267Y0281742D01*
X0281267Y0281742D02*
X0281410Y0282028D01*
X0281410Y0282028D02*
X0281410Y0283170D01*
X0279838Y0278742D02*
X0279838Y0280170D01*
X0279838Y0280170D02*
X0281267Y0280313D01*
X0281267Y0280313D02*
X0281124Y0280170D01*
X0281124Y0280170D02*
X0280981Y0279885D01*
X0280981Y0279885D02*
X0280981Y0279170D01*
X0280981Y0279170D02*
X0281124Y0278885D01*
X0281124Y0278885D02*
X0281267Y0278742D01*
X0281267Y0278742D02*
X0281553Y0278599D01*
X0281553Y0278599D02*
X0282267Y0278599D01*
X0282267Y0278599D02*
X0282553Y0278742D01*
X0282553Y0278742D02*
X0282695Y0278885D01*
X0282695Y0278885D02*
X0282838Y0279170D01*
X0282838Y0279170D02*
X0282838Y0279885D01*
X0282838Y0279885D02*
X0282695Y0280170D01*
X0282695Y0280170D02*
X0282553Y0280313D01*
X0280838Y0276028D02*
X0282838Y0276028D01*
X0279695Y0276742D02*
X0281838Y0277456D01*
X0281838Y0277456D02*
X0281838Y0275599D01*
D19*
X0128740Y0267811D02*
X0128740Y0263811D01*
X0128740Y0259811D02*
X0128740Y0255811D01*
X0135039Y0263811D02*
X0135039Y0267811D01*
X0135039Y0255811D02*
X0135039Y0259811D01*
D20*
X0128734Y0268028D02*
G75*
G02*
X0135039Y0268012I0003156J0001283D01*
G01*
X0135039Y0255610D02*
G75*
G02*
X0128726Y0255576I-003150J-001299D01*
G01*
D19*
X0033744Y0266535D02*
X0037744Y0266535D01*
X0037744Y0272835D02*
X0033744Y0272835D01*
X0041744Y0266535D02*
X0045744Y0266535D01*
X0045744Y0272835D02*
X0041744Y0272835D01*
D20*
X0033528Y0266529D02*
G75*
G02*
X0033543Y0272835I-001283J0003156D01*
G01*
X0045945Y0272835D02*
G75*
G02*
X0045979Y0266522I0001299J-003150D01*
G01*
D19*
X0120866Y0267811D02*
X0120866Y0263811D01*
X0120866Y0259811D02*
X0120866Y0255811D01*
X0127165Y0263811D02*
X0127165Y0267811D01*
X0127165Y0255811D02*
X0127165Y0259811D01*
D20*
X0120860Y0268028D02*
G75*
G02*
X0127165Y0268012I0003156J0001283D01*
G01*
X0127165Y0255610D02*
G75*
G02*
X0120852Y0255576I-003150J-001299D01*
G01*
D19*
X0083465Y0267811D02*
X0083465Y0263811D01*
X0083465Y0259811D02*
X0083465Y0255811D01*
X0089764Y0263811D02*
X0089764Y0267811D01*
X0089764Y0255811D02*
X0089764Y0259811D01*
D20*
X0083458Y0268028D02*
G75*
G02*
X0089764Y0268012I0003156J0001283D01*
G01*
X0089764Y0255610D02*
G75*
G02*
X0083451Y0255576I-003150J-001299D01*
G01*
X0204724Y0246457D02*
X0204724Y0265551D01*
X0212598Y0246457D02*
X0212598Y0265551D01*
X0204724Y0265551D02*
G75*
G02*
X0212598Y0265551I0003937J0000000D01*
G01*
X0212598Y0246260D02*
G75*
G02*
X0204724Y0246260I-003937J0000000D01*
G01*
D19*
X0108071Y0267811D02*
X0108071Y0263811D01*
X0108071Y0259811D02*
X0108071Y0255811D01*
X0114370Y0263811D02*
X0114370Y0267811D01*
X0114370Y0255811D02*
X0114370Y0259811D01*
D20*
X0108064Y0268028D02*
G75*
G02*
X0114370Y0268012I0003156J0001283D01*
G01*
X0114370Y0255610D02*
G75*
G02*
X0108057Y0255576I-003150J-001299D01*
G01*
X0265354Y0248425D02*
X0265354Y0267520D01*
X0273228Y0248425D02*
X0273228Y0267520D01*
X0265354Y0267520D02*
G75*
G02*
X0273228Y0267520I0003937J0000000D01*
G01*
X0273228Y0248228D02*
G75*
G02*
X0265354Y0248228I-003937J0000000D01*
G01*
X0194882Y0246457D02*
X0194882Y0265551D01*
X0202756Y0246457D02*
X0202756Y0265551D01*
X0194882Y0265551D02*
G75*
G02*
X0202756Y0265551I0003937J0000000D01*
G01*
X0202756Y0246260D02*
G75*
G02*
X0194882Y0246260I-003937J0000000D01*
G01*
D19*
X0248819Y0263874D02*
X0248819Y0259874D01*
X0248819Y0255874D02*
X0248819Y0251874D01*
X0255118Y0259874D02*
X0255118Y0263874D01*
X0255118Y0251874D02*
X0255118Y0255874D01*
D20*
X0248812Y0264091D02*
G75*
G02*
X0255118Y0264075I0003156J0001283D01*
G01*
X0255118Y0251673D02*
G75*
G02*
X0248805Y0251639I-003150J-001299D01*
G01*
D19*
X0144488Y0267811D02*
X0144488Y0263811D01*
X0144488Y0259811D02*
X0144488Y0255811D01*
X0150787Y0263811D02*
X0150787Y0267811D01*
X0150787Y0255811D02*
X0150787Y0259811D01*
D20*
X0144482Y0268028D02*
G75*
G02*
X0150787Y0268012I0003156J0001283D01*
G01*
X0150787Y0255610D02*
G75*
G02*
X0144474Y0255576I-003150J-001299D01*
G01*
D19*
X0300000Y0263874D02*
X0300000Y0259874D01*
X0300000Y0255874D02*
X0300000Y0251874D01*
X0306299Y0259874D02*
X0306299Y0263874D01*
X0306299Y0251874D02*
X0306299Y0255874D01*
D20*
X0299994Y0264091D02*
G75*
G02*
X0306299Y0264075I0003156J0001283D01*
G01*
X0306299Y0251673D02*
G75*
G02*
X0299986Y0251639I-003150J-001299D01*
G01*
D19*
X0277953Y0263874D02*
X0277953Y0259874D01*
X0277953Y0255874D02*
X0277953Y0251874D01*
X0284252Y0259874D02*
X0284252Y0263874D01*
X0284252Y0251874D02*
X0284252Y0255874D01*
D20*
X0277946Y0264091D02*
G75*
G02*
X0284252Y0264075I0003156J0001283D01*
G01*
X0284252Y0251673D02*
G75*
G02*
X0277939Y0251639I-003150J-001299D01*
G01*
D19*
X0285433Y0263874D02*
X0285433Y0259874D01*
X0285433Y0255874D02*
X0285433Y0251874D01*
X0291732Y0259874D02*
X0291732Y0263874D01*
X0291732Y0251874D02*
X0291732Y0255874D01*
D20*
X0285427Y0264091D02*
G75*
G02*
X0291732Y0264075I0003156J0001283D01*
G01*
X0291732Y0251673D02*
G75*
G02*
X0285419Y0251639I-003150J-001299D01*
G01*
D19*
X0136614Y0267811D02*
X0136614Y0263811D01*
X0136614Y0259811D02*
X0136614Y0255811D01*
X0142913Y0263811D02*
X0142913Y0267811D01*
X0142913Y0255811D02*
X0142913Y0259811D01*
D20*
X0136608Y0268028D02*
G75*
G02*
X0142913Y0268012I0003156J0001283D01*
G01*
X0142913Y0255610D02*
G75*
G02*
X0136600Y0255576I-003150J-001299D01*
G01*
D19*
X0292520Y0263874D02*
X0292520Y0259874D01*
X0292520Y0255874D02*
X0292520Y0251874D01*
X0298819Y0259874D02*
X0298819Y0263874D01*
X0298819Y0251874D02*
X0298819Y0255874D01*
D20*
X0292513Y0264091D02*
G75*
G02*
X0298819Y0264075I0003156J0001283D01*
G01*
X0298819Y0251673D02*
G75*
G02*
X0292506Y0251639I-003150J-001299D01*
G01*
D19*
X0093307Y0267811D02*
X0093307Y0263811D01*
X0093307Y0259811D02*
X0093307Y0255811D01*
X0099606Y0263811D02*
X0099606Y0267811D01*
X0099606Y0255811D02*
X0099606Y0259811D01*
D20*
X0093301Y0268028D02*
G75*
G02*
X0099606Y0268012I0003156J0001283D01*
G01*
X0099606Y0255610D02*
G75*
G02*
X0093293Y0255576I-003150J-001299D01*
G01*
D19*
X0224409Y0263874D02*
X0224409Y0259874D01*
X0224409Y0255874D02*
X0224409Y0251874D01*
X0230709Y0259874D02*
X0230709Y0263874D01*
X0230709Y0251874D02*
X0230709Y0255874D01*
D20*
X0224403Y0264091D02*
G75*
G02*
X0230709Y0264075I0003156J0001283D01*
G01*
X0230709Y0251673D02*
G75*
G02*
X0224396Y0251639I-003150J-001299D01*
G01*
D19*
X0235039Y0263874D02*
X0235039Y0259874D01*
X0235039Y0255874D02*
X0235039Y0251874D01*
X0241339Y0259874D02*
X0241339Y0263874D01*
X0241339Y0251874D02*
X0241339Y0255874D01*
D20*
X0235033Y0264091D02*
G75*
G02*
X0241339Y0264075I0003156J0001283D01*
G01*
X0241339Y0251673D02*
G75*
G02*
X0235026Y0251639I-003150J-001299D01*
G01*
D19*
X0214567Y0263874D02*
X0214567Y0259874D01*
X0214567Y0255874D02*
X0214567Y0251874D01*
X0220866Y0259874D02*
X0220866Y0263874D01*
X0220866Y0251874D02*
X0220866Y0255874D01*
D20*
X0214560Y0264091D02*
G75*
G02*
X0220866Y0264075I0003156J0001283D01*
G01*
X0220866Y0251673D02*
G75*
G02*
X0214553Y0251639I-003150J-001299D01*
G01*
D21*
G36*
X0300102Y0014704D02*
G01*
X0301452Y0014703D01*
X0302790Y0014702D01*
X0304110Y0014701D01*
X0305409Y0014699D01*
X0306680Y0014697D01*
X0307920Y0014695D01*
X0309124Y0014692D01*
X0310286Y0014689D01*
X0311402Y0014685D01*
X0312467Y0014682D01*
X0313476Y0014678D01*
X0314424Y0014673D01*
X0315306Y0014668D01*
X0316117Y0014663D01*
X0316853Y0014658D01*
X0317509Y0014652D01*
X0318080Y0014645D01*
X0318560Y0014639D01*
X0318946Y0014632D01*
X0319232Y0014625D01*
X0319413Y0014617D01*
X0319484Y0014609D01*
X0319630Y0014494D01*
X0319757Y0014276D01*
X0319803Y0014004D01*
X0319797Y0013912D01*
X0319741Y0013760D01*
X0319608Y0013600D01*
X0319414Y0013406D01*
X0276714Y0013406D01*
X0276519Y0013600D01*
X0276439Y0013687D01*
X0276349Y0013836D01*
X0276325Y0014004D01*
X0276352Y0014218D01*
X0276461Y0014450D01*
X0276643Y0014609D01*
X0276643Y0014609D01*
X0276715Y0014617D01*
X0276896Y0014625D01*
X0277182Y0014632D01*
X0277568Y0014639D01*
X0278049Y0014646D01*
X0278620Y0014652D01*
X0279276Y0014658D01*
X0280012Y0014663D01*
X0280824Y0014668D01*
X0281707Y0014673D01*
X0282655Y0014678D01*
X0283664Y0014682D01*
X0284729Y0014685D01*
X0285845Y0014689D01*
X0287007Y0014692D01*
X0288211Y0014695D01*
X0289451Y0014697D01*
X0290723Y0014699D01*
X0292021Y0014701D01*
X0293342Y0014702D01*
X0294679Y0014703D01*
X0296029Y0014704D01*
X0297386Y0014704D01*
X0298746Y0014704D01*
X0300102Y0014704D01*
G37*
G36*
X0322950Y0042795D02*
G01*
X0323118Y0042654D01*
X0323118Y0042654D01*
X0323231Y0042546D01*
X0323311Y0042443D01*
X0323373Y0042315D01*
X0323431Y0042132D01*
X0323498Y0041867D01*
X0323509Y0041819D01*
X0323567Y0041526D01*
X0323627Y0041168D01*
X0323681Y0040786D01*
X0323724Y0040421D01*
X0323745Y0040207D01*
X0323770Y0039928D01*
X0323783Y0039723D01*
X0323782Y0039566D01*
X0323767Y0039434D01*
X0323736Y0039301D01*
X0323691Y0039143D01*
X0323670Y0039076D01*
X0323534Y0038756D01*
X0323327Y0038402D01*
X0323044Y0038003D01*
X0322676Y0037548D01*
X0322451Y0037298D01*
X0322224Y0037093D01*
X0321988Y0036938D01*
X0321709Y0036808D01*
X0321605Y0036766D01*
X0321468Y0036714D01*
X0321402Y0036693D01*
X0321390Y0036695D01*
X0321302Y0036744D01*
X0321162Y0036839D01*
X0320997Y0036959D01*
X0320833Y0037086D01*
X0320698Y0037200D01*
X0320592Y0037315D01*
X0320415Y0037589D01*
X0320269Y0037924D01*
X0320170Y0038284D01*
X0320160Y0038341D01*
X0320132Y0038524D01*
X0320134Y0038673D01*
X0320168Y0038835D01*
X0320238Y0039056D01*
X0320283Y0039180D01*
X0320461Y0039557D01*
X0320682Y0039907D01*
X0320926Y0040199D01*
X0321174Y0040407D01*
X0321410Y0040584D01*
X0321690Y0040850D01*
X0321965Y0041164D01*
X0322221Y0041504D01*
X0322444Y0041851D01*
X0322620Y0042186D01*
X0322736Y0042487D01*
X0322778Y0042735D01*
X0322778Y0042749D01*
X0322794Y0042839D01*
X0322847Y0042855D01*
X0322950Y0042795D01*
G37*
G36*
X0322143Y0044269D02*
G01*
X0322205Y0044213D01*
X0322214Y0044204D01*
X0322279Y0044113D01*
X0322311Y0043976D01*
X0322320Y0043760D01*
X0322300Y0043452D01*
X0322182Y0042935D01*
X0321964Y0042439D01*
X0321654Y0041989D01*
X0321653Y0041988D01*
X0321512Y0041846D01*
X0321297Y0041661D01*
X0321034Y0041452D01*
X0320746Y0041236D01*
X0320457Y0041031D01*
X0320191Y0040856D01*
X0319972Y0040728D01*
X0319867Y0040668D01*
X0319653Y0040508D01*
X0319497Y0040344D01*
X0319465Y0040296D01*
X0319335Y0040014D01*
X0319242Y0039657D01*
X0319192Y0039254D01*
X0319190Y0038835D01*
X0319198Y0038716D01*
X0319224Y0038506D01*
X0319271Y0038316D01*
X0319352Y0038105D01*
X0319476Y0037834D01*
X0319554Y0037677D01*
X0319682Y0037445D01*
X0319819Y0037247D01*
X0319992Y0037046D01*
X0320226Y0036807D01*
X0320414Y0036616D01*
X0320571Y0036441D01*
X0320647Y0036329D01*
X0320645Y0036276D01*
X0320602Y0036260D01*
X0320447Y0036257D01*
X0320227Y0036295D01*
X0319971Y0036370D01*
X0319883Y0036406D01*
X0319647Y0036533D01*
X0319372Y0036713D01*
X0319083Y0036923D01*
X0318811Y0037143D01*
X0318580Y0037353D01*
X0318421Y0037532D01*
X0318226Y0037825D01*
X0317959Y0038386D01*
X0317798Y0038988D01*
X0317743Y0039626D01*
X0317771Y0039896D01*
X0317892Y0040291D01*
X0318101Y0040715D01*
X0318391Y0041153D01*
X0318754Y0041590D01*
X0318766Y0041603D01*
X0318865Y0041695D01*
X0318994Y0041789D01*
X0319168Y0041894D01*
X0319402Y0042019D01*
X0319712Y0042171D01*
X0320112Y0042360D01*
X0320395Y0042493D01*
X0320703Y0042640D01*
X0320935Y0042756D01*
X0321106Y0042851D01*
X0321232Y0042934D01*
X0321329Y0043014D01*
X0321413Y0043103D01*
X0321499Y0043209D01*
X0321616Y0043375D01*
X0321777Y0043643D01*
X0321901Y0043897D01*
X0321932Y0043971D01*
X0322009Y0044156D01*
X0322060Y0044257D01*
X0322100Y0044289D01*
X0322143Y0044269D01*
G37*
G36*
X0298947Y0028785D02*
G01*
X0299266Y0028673D01*
X0299526Y0028464D01*
X0299729Y0028157D01*
X0299875Y0027750D01*
X0299893Y0027672D01*
X0299928Y0027454D01*
X0299946Y0027195D01*
X0299948Y0026887D01*
X0299933Y0026522D01*
X0299900Y0026093D01*
X0299848Y0025591D01*
X0299776Y0025008D01*
X0299685Y0024337D01*
X0299573Y0023569D01*
X0299440Y0022697D01*
X0299401Y0022444D01*
X0299332Y0021965D01*
X0299265Y0021481D01*
X0299205Y0021022D01*
X0299156Y0020616D01*
X0299121Y0020294D01*
X0299112Y0020197D01*
X0299060Y0019678D01*
X0299003Y0019153D01*
X0298944Y0018635D01*
X0298884Y0018138D01*
X0298824Y0017676D01*
X0298767Y0017260D01*
X0298714Y0016906D01*
X0298668Y0016625D01*
X0298629Y0016432D01*
X0298600Y0016339D01*
X0298531Y0016250D01*
X0298318Y0016084D01*
X0298048Y0015979D01*
X0297930Y0015959D01*
X0297720Y0015940D01*
X0297492Y0015930D01*
X0297146Y0015955D01*
X0296846Y0016053D01*
X0296632Y0016226D01*
X0296504Y0016473D01*
X0296462Y0016796D01*
X0296468Y0016885D01*
X0296494Y0017089D01*
X0296538Y0017364D01*
X0296595Y0017683D01*
X0296662Y0018022D01*
X0296696Y0018190D01*
X0296802Y0018716D01*
X0296887Y0019160D01*
X0296954Y0019544D01*
X0297008Y0019889D01*
X0297052Y0020220D01*
X0297091Y0020557D01*
X0297101Y0020647D01*
X0297134Y0020923D01*
X0297180Y0021275D01*
X0297234Y0021678D01*
X0297293Y0022105D01*
X0297354Y0022531D01*
X0297444Y0023150D01*
X0297526Y0023717D01*
X0297594Y0024195D01*
X0297648Y0024598D01*
X0297691Y0024937D01*
X0297722Y0025225D01*
X0297743Y0025475D01*
X0297756Y0025701D01*
X0297760Y0025913D01*
X0297758Y0026126D01*
X0297751Y0026352D01*
X0297738Y0026603D01*
X0297722Y0026892D01*
X0297716Y0027003D01*
X0297700Y0027364D01*
X0297689Y0027687D01*
X0297684Y0027953D01*
X0297686Y0028142D01*
X0297694Y0028236D01*
X0297700Y0028255D01*
X0297835Y0028481D01*
X0298057Y0028654D01*
X0298352Y0028765D01*
X0298704Y0028805D01*
X0298947Y0028785D01*
G37*
G36*
X0294961Y0028733D02*
G01*
X0295224Y0028600D01*
X0295429Y0028399D01*
X0295488Y0028312D01*
X0295584Y0028147D01*
X0295662Y0027968D01*
X0295722Y0027767D01*
X0295764Y0027537D01*
X0295787Y0027269D01*
X0295792Y0026955D01*
X0295778Y0026585D01*
X0295745Y0026153D01*
X0295693Y0025650D01*
X0295622Y0025067D01*
X0295530Y0024397D01*
X0295419Y0023630D01*
X0295288Y0022759D01*
X0295287Y0022754D01*
X0295218Y0022291D01*
X0295152Y0021830D01*
X0295091Y0021392D01*
X0295040Y0021000D01*
X0295000Y0020676D01*
X0294975Y0020442D01*
X0294975Y0020441D01*
X0294948Y0020171D01*
X0294911Y0019820D01*
X0294867Y0019417D01*
X0294819Y0018995D01*
X0294770Y0018583D01*
X0294766Y0018543D01*
X0294718Y0018147D01*
X0294672Y0017760D01*
X0294630Y0017406D01*
X0294595Y0017112D01*
X0294570Y0016906D01*
X0294563Y0016846D01*
X0294523Y0016611D01*
X0294476Y0016417D01*
X0294429Y0016299D01*
X0294393Y0016256D01*
X0294239Y0016139D01*
X0294028Y0016033D01*
X0293802Y0015961D01*
X0293687Y0015943D01*
X0293433Y0015929D01*
X0293163Y0015940D01*
X0292919Y0015974D01*
X0292745Y0016026D01*
X0292696Y0016052D01*
X0292483Y0016234D01*
X0292339Y0016472D01*
X0292286Y0016733D01*
X0292286Y0016741D01*
X0292299Y0016875D01*
X0292332Y0017098D01*
X0292380Y0017388D01*
X0292441Y0017724D01*
X0292511Y0018084D01*
X0292554Y0018298D01*
X0292666Y0018873D01*
X0292756Y0019364D01*
X0292829Y0019792D01*
X0292888Y0020177D01*
X0292935Y0020540D01*
X0292975Y0020900D01*
X0292980Y0020944D01*
X0293008Y0021182D01*
X0293049Y0021506D01*
X0293101Y0021898D01*
X0293162Y0022337D01*
X0293227Y0022803D01*
X0293295Y0023274D01*
X0293340Y0023588D01*
X0293420Y0024159D01*
X0293483Y0024644D01*
X0293531Y0025060D01*
X0293564Y0025426D01*
X0293583Y0025760D01*
X0293591Y0026080D01*
X0293587Y0026404D01*
X0293574Y0026749D01*
X0293552Y0027134D01*
X0293540Y0027327D01*
X0293522Y0027644D01*
X0293514Y0027876D01*
X0293516Y0028042D01*
X0293529Y0028161D01*
X0293553Y0028252D01*
X0293588Y0028335D01*
X0293628Y0028405D01*
X0293816Y0028600D01*
X0294067Y0028731D01*
X0294358Y0028798D01*
X0294664Y0028799D01*
X0294961Y0028733D01*
G37*
G36*
X0279178Y0024222D02*
G01*
X0279716Y0024058D01*
X0280235Y0023788D01*
X0280727Y0023417D01*
X0281183Y0022948D01*
X0281468Y0022612D01*
X0281530Y0022857D01*
X0281571Y0023006D01*
X0281689Y0023312D01*
X0281838Y0023527D01*
X0282032Y0023670D01*
X0282285Y0023757D01*
X0282450Y0023783D01*
X0282801Y0023767D01*
X0283112Y0023650D01*
X0283369Y0023443D01*
X0283561Y0023153D01*
X0283676Y0022788D01*
X0283681Y0022742D01*
X0283684Y0022638D01*
X0283678Y0022485D01*
X0283664Y0022277D01*
X0283641Y0022004D01*
X0283608Y0021658D01*
X0283564Y0021231D01*
X0283509Y0020715D01*
X0283442Y0020102D01*
X0283361Y0019384D01*
X0283322Y0019043D01*
X0283252Y0018435D01*
X0283191Y0017925D01*
X0283137Y0017503D01*
X0283087Y0017160D01*
X0283040Y0016885D01*
X0282995Y0016669D01*
X0282948Y0016500D01*
X0282898Y0016369D01*
X0282842Y0016266D01*
X0282779Y0016180D01*
X0282708Y0016102D01*
X0282502Y0015946D01*
X0282209Y0015838D01*
X0281882Y0015795D01*
X0281561Y0015825D01*
X0281296Y0015930D01*
X0281105Y0016107D01*
X0281072Y0016164D01*
X0281039Y0016273D01*
X0281024Y0016424D01*
X0281028Y0016630D01*
X0281052Y0016906D01*
X0281097Y0017267D01*
X0281162Y0017725D01*
X0281214Y0018095D01*
X0281294Y0018779D01*
X0281338Y0019374D01*
X0281343Y0019895D01*
X0281311Y0020357D01*
X0281240Y0020772D01*
X0281129Y0021154D01*
X0280978Y0021518D01*
X0280895Y0021678D01*
X0280677Y0022005D01*
X0280420Y0022302D01*
X0280141Y0022554D01*
X0279857Y0022746D01*
X0279586Y0022864D01*
X0279346Y0022892D01*
X0279277Y0022878D01*
X0279136Y0022788D01*
X0279014Y0022611D01*
X0278905Y0022337D01*
X0278803Y0021959D01*
X0278783Y0021864D01*
X0278761Y0021735D01*
X0278742Y0021589D01*
X0278728Y0021414D01*
X0278717Y0021198D01*
X0278709Y0020928D01*
X0278704Y0020592D01*
X0278701Y0020179D01*
X0278699Y0019675D01*
X0278699Y0019070D01*
X0278698Y0018445D01*
X0278695Y0017915D01*
X0278690Y0017482D01*
X0278683Y0017140D01*
X0278674Y0016880D01*
X0278661Y0016695D01*
X0278646Y0016575D01*
X0278627Y0016513D01*
X0278501Y0016359D01*
X0278267Y0016206D01*
X0277975Y0016113D01*
X0277653Y0016084D01*
X0277326Y0016123D01*
X0277019Y0016234D01*
X0276945Y0016278D01*
X0276760Y0016438D01*
X0276605Y0016634D01*
X0276516Y0016823D01*
X0276505Y0016928D01*
X0276501Y0017124D01*
X0276505Y0017378D01*
X0276516Y0017662D01*
X0276517Y0017672D01*
X0276532Y0017954D01*
X0276550Y0018318D01*
X0276571Y0018732D01*
X0276592Y0019165D01*
X0276612Y0019584D01*
X0276634Y0020005D01*
X0276674Y0020634D01*
X0276720Y0021210D01*
X0276770Y0021721D01*
X0276823Y0022155D01*
X0276878Y0022498D01*
X0276933Y0022740D01*
X0277022Y0023006D01*
X0277241Y0023461D01*
X0277513Y0023817D01*
X0277837Y0024071D01*
X0278214Y0024224D01*
X0278642Y0024275D01*
X0279178Y0024222D01*
G37*
G36*
X0306388Y0021070D02*
G01*
X0306424Y0020639D01*
X0306680Y0020502D01*
X0306827Y0020415D01*
X0306969Y0020283D01*
X0307041Y0020113D01*
X0307066Y0019867D01*
X0307053Y0019660D01*
X0306972Y0019444D01*
X0306818Y0019315D01*
X0306594Y0019275D01*
X0306359Y0019280D01*
X0306359Y0019010D01*
X0306350Y0018817D01*
X0306306Y0018450D01*
X0306230Y0018049D01*
X0306132Y0017658D01*
X0306022Y0017322D01*
X0305968Y0017190D01*
X0305740Y0016750D01*
X0305473Y0016412D01*
X0305161Y0016167D01*
X0304796Y0016010D01*
X0304734Y0015993D01*
X0304610Y0015971D01*
X0304485Y0015973D01*
X0304347Y0016005D01*
X0304186Y0016072D01*
X0303991Y0016181D01*
X0303749Y0016336D01*
X0303451Y0016545D01*
X0303085Y0016812D01*
X0302640Y0017144D01*
X0302458Y0017282D01*
X0302020Y0017630D01*
X0301607Y0017978D01*
X0301232Y0018316D01*
X0300905Y0018631D01*
X0300637Y0018913D01*
X0300442Y0019153D01*
X0300329Y0019338D01*
X0300262Y0019547D01*
X0300261Y0019726D01*
X0300308Y0019826D01*
X0300456Y0019965D01*
X0300666Y0020062D01*
X0300905Y0020099D01*
X0300960Y0020097D01*
X0301086Y0020073D01*
X0301221Y0020017D01*
X0301378Y0019919D01*
X0301568Y0019771D01*
X0301802Y0019564D01*
X0302091Y0019291D01*
X0302446Y0018942D01*
X0302727Y0018668D01*
X0303066Y0018352D01*
X0303347Y0018114D01*
X0303576Y0017948D01*
X0303763Y0017850D01*
X0303915Y0017813D01*
X0304041Y0017831D01*
X0304043Y0017832D01*
X0304164Y0017934D01*
X0304278Y0018129D01*
X0304377Y0018395D01*
X0304457Y0018712D01*
X0304509Y0019057D01*
X0304528Y0019411D01*
X0304529Y0019470D01*
X0304533Y0019578D01*
X0304531Y0019665D01*
X0304513Y0019739D01*
X0304468Y0019810D01*
X0304387Y0019886D01*
X0304259Y0019977D01*
X0304074Y0020091D01*
X0303822Y0020236D01*
X0303491Y0020423D01*
X0303072Y0020659D01*
X0303066Y0020663D01*
X0302620Y0020920D01*
X0302267Y0021136D01*
X0301995Y0021321D01*
X0301793Y0021482D01*
X0301650Y0021628D01*
X0301556Y0021769D01*
X0301500Y0021912D01*
X0301458Y0022122D01*
X0303127Y0022122D01*
X0303162Y0022014D01*
X0303167Y0022010D01*
X0303257Y0021952D01*
X0303427Y0021860D01*
X0303653Y0021745D01*
X0303913Y0021620D01*
X0303986Y0021586D01*
X0304238Y0021469D01*
X0304407Y0021395D01*
X0304510Y0021360D01*
X0304563Y0021360D01*
X0304583Y0021391D01*
X0304585Y0021448D01*
X0304584Y0021492D01*
X0304557Y0021716D01*
X0304504Y0021989D01*
X0304433Y0022272D01*
X0304355Y0022524D01*
X0304280Y0022702D01*
X0304277Y0022707D01*
X0304154Y0022874D01*
X0304013Y0022943D01*
X0303836Y0022917D01*
X0303607Y0022797D01*
X0303584Y0022782D01*
X0303408Y0022634D01*
X0303264Y0022457D01*
X0303165Y0022279D01*
X0303127Y0022122D01*
X0301458Y0022122D01*
X0301446Y0022180D01*
X0301453Y0022557D01*
X0301565Y0022909D01*
X0301787Y0023244D01*
X0302121Y0023569D01*
X0302563Y0023889D01*
X0303175Y0024203D01*
X0303846Y0024420D01*
X0304576Y0024540D01*
X0304992Y0024578D01*
X0305296Y0024264D01*
X0305379Y0024174D01*
X0305687Y0023746D01*
X0305941Y0023224D01*
X0306142Y0022605D01*
X0306291Y0021887D01*
X0306343Y0021448D01*
X0306388Y0021070D01*
G37*
G36*
X0290771Y0021013D02*
G01*
X0290775Y0020966D01*
X0290798Y0020781D01*
X0290834Y0020668D01*
X0290899Y0020595D01*
X0291011Y0020527D01*
X0291018Y0020524D01*
X0291261Y0020342D01*
X0291401Y0020119D01*
X0291447Y0019842D01*
X0291433Y0019669D01*
X0291353Y0019449D01*
X0291202Y0019316D01*
X0290984Y0019274D01*
X0290756Y0019279D01*
X0290718Y0018775D01*
X0290683Y0018432D01*
X0290567Y0017820D01*
X0290393Y0017283D01*
X0290162Y0016826D01*
X0289879Y0016456D01*
X0289548Y0016180D01*
X0289172Y0016004D01*
X0289153Y0015998D01*
X0288987Y0015961D01*
X0288840Y0015966D01*
X0288675Y0016021D01*
X0288452Y0016132D01*
X0288281Y0016235D01*
X0288035Y0016401D01*
X0287735Y0016615D01*
X0287397Y0016864D01*
X0287040Y0017134D01*
X0286679Y0017413D01*
X0286332Y0017688D01*
X0286015Y0017945D01*
X0285746Y0018173D01*
X0285542Y0018357D01*
X0285382Y0018512D01*
X0285064Y0018844D01*
X0284836Y0019125D01*
X0284694Y0019362D01*
X0284635Y0019565D01*
X0284653Y0019740D01*
X0284746Y0019896D01*
X0284834Y0019982D01*
X0284974Y0020050D01*
X0285181Y0020085D01*
X0285252Y0020091D01*
X0285373Y0020090D01*
X0285488Y0020066D01*
X0285612Y0020012D01*
X0285755Y0019919D01*
X0285929Y0019778D01*
X0286148Y0019581D01*
X0286422Y0019320D01*
X0286765Y0018986D01*
X0287043Y0018718D01*
X0287411Y0018380D01*
X0287717Y0018125D01*
X0287968Y0017948D01*
X0288168Y0017845D01*
X0288323Y0017811D01*
X0288389Y0017824D01*
X0288521Y0017927D01*
X0288643Y0018119D01*
X0288749Y0018382D01*
X0288833Y0018699D01*
X0288889Y0019053D01*
X0288909Y0019426D01*
X0288910Y0019477D01*
X0288913Y0019583D01*
X0288910Y0019668D01*
X0288890Y0019743D01*
X0288843Y0019815D01*
X0288760Y0019893D01*
X0288629Y0019986D01*
X0288440Y0020102D01*
X0288183Y0020250D01*
X0287849Y0020439D01*
X0287426Y0020677D01*
X0287029Y0020904D01*
X0286667Y0021124D01*
X0286389Y0021311D01*
X0286182Y0021475D01*
X0286036Y0021623D01*
X0285940Y0021766D01*
X0285882Y0021912D01*
X0285844Y0022105D01*
X0287491Y0022105D01*
X0287495Y0022017D01*
X0287552Y0021970D01*
X0287557Y0021968D01*
X0287646Y0021927D01*
X0287813Y0021849D01*
X0288037Y0021745D01*
X0288295Y0021623D01*
X0288335Y0021604D01*
X0288597Y0021481D01*
X0288775Y0021403D01*
X0288884Y0021364D01*
X0288941Y0021360D01*
X0288964Y0021388D01*
X0288968Y0021442D01*
X0288967Y0021450D01*
X0288947Y0021656D01*
X0288896Y0021923D01*
X0288825Y0022210D01*
X0288745Y0022474D01*
X0288666Y0022674D01*
X0288617Y0022769D01*
X0288542Y0022877D01*
X0288457Y0022920D01*
X0288325Y0022925D01*
X0288199Y0022906D01*
X0287960Y0022796D01*
X0287747Y0022608D01*
X0287590Y0022366D01*
X0287542Y0022257D01*
X0287491Y0022105D01*
X0285844Y0022105D01*
X0285829Y0022180D01*
X0285835Y0022557D01*
X0285947Y0022909D01*
X0286169Y0023244D01*
X0286503Y0023569D01*
X0286947Y0023890D01*
X0287558Y0024204D01*
X0288229Y0024421D01*
X0288960Y0024540D01*
X0289376Y0024579D01*
X0289683Y0024254D01*
X0289891Y0024006D01*
X0290153Y0023582D01*
X0290370Y0023078D01*
X0290544Y0022486D01*
X0290677Y0021801D01*
X0290720Y0021442D01*
X0290771Y0021013D01*
G37*
G36*
X0318614Y0035944D02*
G01*
X0318752Y0035931D01*
X0318982Y0035907D01*
X0319289Y0035873D01*
X0319659Y0035832D01*
X0320077Y0035785D01*
X0320530Y0035733D01*
X0321004Y0035678D01*
X0321483Y0035623D01*
X0321953Y0035568D01*
X0322401Y0035515D01*
X0322811Y0035466D01*
X0323171Y0035422D01*
X0323464Y0035386D01*
X0323677Y0035358D01*
X0323796Y0035342D01*
X0323817Y0035338D01*
X0324006Y0035276D01*
X0324126Y0035161D01*
X0324189Y0034973D01*
X0324208Y0034695D01*
X0324204Y0034495D01*
X0324191Y0034239D01*
X0324171Y0034034D01*
X0324168Y0034010D01*
X0324138Y0033869D01*
X0324084Y0033765D01*
X0323981Y0033667D01*
X0323804Y0033541D01*
X0323766Y0033515D01*
X0323644Y0033425D01*
X0323543Y0033331D01*
X0323449Y0033215D01*
X0323347Y0033056D01*
X0323223Y0032834D01*
X0323062Y0032529D01*
X0322996Y0032399D01*
X0322845Y0032079D01*
X0322690Y0031724D01*
X0322539Y0031353D01*
X0322398Y0030986D01*
X0322275Y0030644D01*
X0322178Y0030345D01*
X0322114Y0030110D01*
X0322091Y0029960D01*
X0322090Y0029938D01*
X0322074Y0029812D01*
X0322043Y0029593D01*
X0321999Y0029298D01*
X0321944Y0028940D01*
X0321880Y0028535D01*
X0321810Y0028098D01*
X0321755Y0027754D01*
X0321677Y0027276D01*
X0321615Y0026893D01*
X0321569Y0026595D01*
X0321536Y0026371D01*
X0321518Y0026209D01*
X0321512Y0026099D01*
X0321517Y0026031D01*
X0321534Y0025993D01*
X0321560Y0025974D01*
X0321595Y0025963D01*
X0321639Y0025950D01*
X0321796Y0025849D01*
X0321954Y0025649D01*
X0322071Y0025387D01*
X0322132Y0025089D01*
X0322142Y0024919D01*
X0322129Y0024756D01*
X0322079Y0024590D01*
X0321982Y0024373D01*
X0321923Y0024255D01*
X0321792Y0024039D01*
X0321643Y0023878D01*
X0321442Y0023732D01*
X0321419Y0023708D01*
X0321387Y0023631D01*
X0321358Y0023494D01*
X0321330Y0023284D01*
X0321299Y0022986D01*
X0321265Y0022588D01*
X0321246Y0022356D01*
X0321208Y0021893D01*
X0321167Y0021409D01*
X0321127Y0020948D01*
X0321092Y0020557D01*
X0321084Y0020461D01*
X0321047Y0020043D01*
X0321010Y0019595D01*
X0320975Y0019165D01*
X0320946Y0018801D01*
X0320918Y0018481D01*
X0320844Y0017928D01*
X0320743Y0017469D01*
X0320609Y0017091D01*
X0320440Y0016781D01*
X0320231Y0016527D01*
X0320092Y0016404D01*
X0319793Y0016213D01*
X0319474Y0016085D01*
X0319173Y0016039D01*
X0319088Y0016043D01*
X0318785Y0016117D01*
X0318457Y0016268D01*
X0318130Y0016481D01*
X0317830Y0016739D01*
X0317582Y0017027D01*
X0317531Y0017104D01*
X0317407Y0017371D01*
X0317352Y0017636D01*
X0317366Y0017878D01*
X0317448Y0018074D01*
X0317599Y0018201D01*
X0317639Y0018219D01*
X0317676Y0018246D01*
X0317708Y0018291D01*
X0317739Y0018367D01*
X0317772Y0018489D01*
X0317811Y0018670D01*
X0317859Y0018922D01*
X0317919Y0019261D01*
X0317997Y0019699D01*
X0318013Y0019790D01*
X0318080Y0020239D01*
X0318112Y0020581D01*
X0318109Y0020814D01*
X0318100Y0020943D01*
X0318120Y0021183D01*
X0318198Y0021464D01*
X0318207Y0021494D01*
X0318264Y0021714D01*
X0318327Y0022019D01*
X0318391Y0022384D01*
X0318454Y0022784D01*
X0318510Y0023197D01*
X0318556Y0023596D01*
X0318577Y0023803D01*
X0317345Y0024096D01*
X0316255Y0024349D01*
X0315097Y0024602D01*
X0314025Y0024817D01*
X0313947Y0024832D01*
X0313716Y0024876D01*
X0313529Y0024913D01*
X0313419Y0024935D01*
X0313393Y0024939D01*
X0313348Y0024931D01*
X0313315Y0024883D01*
X0313288Y0024777D01*
X0313262Y0024595D01*
X0313230Y0024317D01*
X0313207Y0024118D01*
X0313171Y0023812D01*
X0313136Y0023536D01*
X0313108Y0023332D01*
X0313054Y0022948D01*
X0312991Y0022458D01*
X0312923Y0021888D01*
X0312852Y0021257D01*
X0312779Y0020583D01*
X0312706Y0019884D01*
X0312635Y0019177D01*
X0312569Y0018480D01*
X0312510Y0017811D01*
X0312481Y0017494D01*
X0312446Y0017159D01*
X0312410Y0016902D01*
X0312369Y0016702D01*
X0312318Y0016538D01*
X0312252Y0016390D01*
X0312168Y0016237D01*
X0312127Y0016171D01*
X0311934Y0015941D01*
X0311682Y0015768D01*
X0311345Y0015632D01*
X0311171Y0015577D01*
X0311030Y0015541D01*
X0310911Y0015532D01*
X0310769Y0015547D01*
X0310560Y0015584D01*
X0310462Y0015604D01*
X0310089Y0015731D01*
X0309801Y0015921D01*
X0309608Y0016169D01*
X0309593Y0016197D01*
X0309547Y0016307D01*
X0309512Y0016431D01*
X0309491Y0016579D01*
X0309482Y0016761D01*
X0309487Y0016986D01*
X0309507Y0017266D01*
X0309543Y0017609D01*
X0309594Y0018025D01*
X0309661Y0018525D01*
X0309746Y0019117D01*
X0309848Y0019813D01*
X0309946Y0020474D01*
X0310077Y0021381D01*
X0310188Y0022182D01*
X0310280Y0022883D01*
X0310353Y0023488D01*
X0310407Y0024001D01*
X0310444Y0024427D01*
X0310464Y0024771D01*
X0310466Y0025037D01*
X0310452Y0025230D01*
X0310422Y0025354D01*
X0310376Y0025413D01*
X0310284Y0025495D01*
X0310161Y0025674D01*
X0310037Y0025917D01*
X0309921Y0026196D01*
X0309824Y0026485D01*
X0309758Y0026757D01*
X0309734Y0026985D01*
X0309755Y0027202D01*
X0309841Y0027490D01*
X0309979Y0027752D01*
X0310155Y0027967D01*
X0310352Y0028112D01*
X0310556Y0028166D01*
X0310745Y0028166D01*
X0310868Y0029496D01*
X0310894Y0029779D01*
X0310956Y0030479D01*
X0311009Y0031096D01*
X0311055Y0031655D01*
X0311094Y0032178D01*
X0311128Y0032688D01*
X0311161Y0033209D01*
X0311165Y0033286D01*
X0311198Y0033702D01*
X0311241Y0034025D01*
X0311304Y0034272D01*
X0311393Y0034462D01*
X0311519Y0034612D01*
X0311688Y0034740D01*
X0311908Y0034864D01*
X0312031Y0034917D01*
X0312351Y0034989D01*
X0312705Y0035005D01*
X0313049Y0034963D01*
X0313338Y0034864D01*
X0313746Y0034606D01*
X0314053Y0034305D01*
X0314255Y0033964D01*
X0314350Y0033586D01*
X0314359Y0033412D01*
X0314350Y0033074D01*
X0314316Y0032638D01*
X0314259Y0032113D01*
X0314178Y0031506D01*
X0314075Y0030826D01*
X0314017Y0030455D01*
X0313915Y0029796D01*
X0313832Y0029237D01*
X0313767Y0028771D01*
X0313719Y0028391D01*
X0313688Y0028089D01*
X0313671Y0027857D01*
X0313653Y0027462D01*
X0314111Y0027293D01*
X0314180Y0027268D01*
X0314472Y0027174D01*
X0314826Y0027072D01*
X0315226Y0026964D01*
X0315658Y0026855D01*
X0316109Y0026748D01*
X0316564Y0026645D01*
X0317008Y0026549D01*
X0317427Y0026464D01*
X0317808Y0026393D01*
X0318135Y0026339D01*
X0318395Y0026305D01*
X0318572Y0026294D01*
X0318654Y0026309D01*
X0318665Y0026328D01*
X0318701Y0026452D01*
X0318739Y0026670D01*
X0318779Y0026965D01*
X0318820Y0027322D01*
X0318860Y0027726D01*
X0318897Y0028161D01*
X0318931Y0028611D01*
X0318959Y0029061D01*
X0318981Y0029495D01*
X0318996Y0029898D01*
X0319001Y0030254D01*
X0319004Y0030488D01*
X0319018Y0030822D01*
X0319040Y0031133D01*
X0319067Y0031374D01*
X0319071Y0031397D01*
X0319095Y0031595D01*
X0319103Y0031773D01*
X0319092Y0031964D01*
X0319061Y0032202D01*
X0319008Y0032518D01*
X0318959Y0032791D01*
X0318896Y0033113D01*
X0318836Y0033403D01*
X0318786Y0033620D01*
X0318784Y0033629D01*
X0318724Y0033842D01*
X0318659Y0033983D01*
X0318565Y0034093D01*
X0318416Y0034212D01*
X0318304Y0034303D01*
X0318173Y0034442D01*
X0318107Y0034555D01*
X0318102Y0034582D01*
X0318092Y0034732D01*
X0318092Y0034948D01*
X0318102Y0035192D01*
X0318110Y0035319D01*
X0318131Y0035521D01*
X0318161Y0035651D01*
X0318209Y0035740D01*
X0318284Y0035815D01*
X0318290Y0035820D01*
X0318438Y0035909D01*
X0318583Y0035946D01*
X0318614Y0035944D01*
G37*
G36*
X0329700Y0022323D02*
G01*
X0329696Y0021481D01*
X0329690Y0020689D01*
X0329684Y0019954D01*
X0329677Y0019282D01*
X0329669Y0018681D01*
X0329660Y0018159D01*
X0329650Y0017722D01*
X0329640Y0017378D01*
X0329629Y0017134D01*
X0329617Y0016997D01*
X0329516Y0016441D01*
X0329244Y0015400D01*
X0328874Y0014407D01*
X0328411Y0013467D01*
X0327862Y0012587D01*
X0327232Y0011770D01*
X0326526Y0011022D01*
X0325750Y0010348D01*
X0324910Y0009754D01*
X0324011Y0009244D01*
X0323060Y0008823D01*
X0322062Y0008498D01*
X0321022Y0008272D01*
X0319946Y0008152D01*
X0319857Y0008150D01*
X0319654Y0008147D01*
X0319346Y0008144D01*
X0318938Y0008142D01*
X0318437Y0008139D01*
X0317846Y0008137D01*
X0317172Y0008135D01*
X0316418Y0008134D01*
X0315592Y0008132D01*
X0314697Y0008130D01*
X0313739Y0008129D01*
X0312724Y0008128D01*
X0311655Y0008127D01*
X0310540Y0008126D01*
X0309382Y0008126D01*
X0308187Y0008125D01*
X0306960Y0008125D01*
X0305707Y0008124D01*
X0304432Y0008124D01*
X0303141Y0008124D01*
X0301839Y0008125D01*
X0300531Y0008125D01*
X0299222Y0008125D01*
X0297918Y0008126D01*
X0296624Y0008127D01*
X0295345Y0008128D01*
X0294086Y0008129D01*
X0292852Y0008130D01*
X0291649Y0008131D01*
X0290481Y0008133D01*
X0289355Y0008134D01*
X0288275Y0008136D01*
X0287246Y0008138D01*
X0286274Y0008139D01*
X0285363Y0008141D01*
X0284519Y0008144D01*
X0283748Y0008146D01*
X0283054Y0008148D01*
X0282442Y0008151D01*
X0281919Y0008153D01*
X0281488Y0008156D01*
X0281155Y0008159D01*
X0280926Y0008162D01*
X0280805Y0008165D01*
X0280579Y0008181D01*
X0280203Y0008221D01*
X0279811Y0008276D01*
X0279458Y0008339D01*
X0279106Y0008416D01*
X0278071Y0008719D01*
X0277087Y0009120D01*
X0276158Y0009614D01*
X0275291Y0010194D01*
X0274490Y0010856D01*
X0273761Y0011594D01*
X0273108Y0012402D01*
X0272537Y0013274D01*
X0272054Y0014205D01*
X0271663Y0015190D01*
X0271369Y0016222D01*
X0271178Y0017296D01*
X0271174Y0017341D01*
X0271165Y0017514D01*
X0271158Y0017790D01*
X0271150Y0018171D01*
X0271144Y0018658D01*
X0271138Y0019250D01*
X0271133Y0019950D01*
X0271129Y0020758D01*
X0271125Y0021675D01*
X0271122Y0022703D01*
X0271120Y0023840D01*
X0271120Y0024322D01*
X0272389Y0024322D01*
X0272390Y0023224D01*
X0272391Y0022222D01*
X0272393Y0021317D01*
X0272396Y0020513D01*
X0272400Y0019810D01*
X0272404Y0019212D01*
X0272410Y0018720D01*
X0272416Y0018336D01*
X0272424Y0018063D01*
X0272432Y0017902D01*
X0272505Y0017255D01*
X0272707Y0016242D01*
X0273012Y0015279D01*
X0273421Y0014366D01*
X0273931Y0013504D01*
X0274543Y0012695D01*
X0275256Y0011939D01*
X0275340Y0011859D01*
X0276123Y0011206D01*
X0276963Y0010652D01*
X0277854Y0010199D01*
X0278795Y0009848D01*
X0279780Y0009601D01*
X0280806Y0009460D01*
X0280810Y0009459D01*
X0280928Y0009455D01*
X0281155Y0009451D01*
X0281485Y0009447D01*
X0281914Y0009443D01*
X0282436Y0009440D01*
X0283045Y0009436D01*
X0283738Y0009433D01*
X0284508Y0009430D01*
X0285351Y0009428D01*
X0286260Y0009425D01*
X0287232Y0009423D01*
X0288260Y0009421D01*
X0289341Y0009419D01*
X0290467Y0009418D01*
X0291635Y0009416D01*
X0292839Y0009415D01*
X0294074Y0009414D01*
X0295334Y0009413D01*
X0296615Y0009413D01*
X0297911Y0009412D01*
X0299218Y0009412D01*
X0300529Y0009412D01*
X0301840Y0009412D01*
X0303146Y0009413D01*
X0304441Y0009413D01*
X0305720Y0009414D01*
X0306978Y0009415D01*
X0308210Y0009417D01*
X0309410Y0009418D01*
X0310574Y0009420D01*
X0311697Y0009422D01*
X0312772Y0009424D01*
X0313795Y0009426D01*
X0314761Y0009428D01*
X0315664Y0009431D01*
X0316499Y0009434D01*
X0317262Y0009437D01*
X0317946Y0009440D01*
X0318547Y0009444D01*
X0319060Y0009447D01*
X0319479Y0009451D01*
X0319799Y0009455D01*
X0320016Y0009459D01*
X0320123Y0009464D01*
X0320558Y0009513D01*
X0321542Y0009704D01*
X0322485Y0009997D01*
X0323384Y0010387D01*
X0324230Y0010868D01*
X0325018Y0011436D01*
X0325741Y0012084D01*
X0326392Y0012807D01*
X0326965Y0013599D01*
X0327454Y0014455D01*
X0327852Y0015369D01*
X0328153Y0016337D01*
X0328176Y0016428D01*
X0328210Y0016567D01*
X0328242Y0016702D01*
X0328270Y0016839D01*
X0328295Y0016983D01*
X0328318Y0017139D01*
X0328339Y0017314D01*
X0328357Y0017512D01*
X0328372Y0017739D01*
X0328386Y0017999D01*
X0328398Y0018299D01*
X0328408Y0018644D01*
X0328416Y0019039D01*
X0328423Y0019489D01*
X0328428Y0020001D01*
X0328432Y0020578D01*
X0328434Y0021227D01*
X0328436Y0021953D01*
X0328436Y0022761D01*
X0328436Y0023657D01*
X0328435Y0024645D01*
X0328433Y0025732D01*
X0328431Y0026923D01*
X0328428Y0028223D01*
X0328427Y0029007D01*
X0328425Y0030211D01*
X0328422Y0031310D01*
X0328420Y0032308D01*
X0328418Y0033212D01*
X0328415Y0034026D01*
X0328412Y0034755D01*
X0328408Y0035407D01*
X0328403Y0035985D01*
X0328397Y0036495D01*
X0328390Y0036943D01*
X0328382Y0037334D01*
X0328372Y0037673D01*
X0328360Y0037966D01*
X0328346Y0038219D01*
X0328330Y0038436D01*
X0328312Y0038623D01*
X0328292Y0038786D01*
X0328269Y0038929D01*
X0328243Y0039059D01*
X0328215Y0039181D01*
X0328183Y0039300D01*
X0328148Y0039422D01*
X0328109Y0039551D01*
X0328067Y0039694D01*
X0327921Y0040153D01*
X0327547Y0041060D01*
X0327078Y0041925D01*
X0326524Y0042734D01*
X0325894Y0043472D01*
X0325196Y0044126D01*
X0325194Y0044128D01*
X0324902Y0044364D01*
X0324631Y0044572D01*
X0324392Y0044744D01*
X0324196Y0044873D01*
X0324055Y0044951D01*
X0323979Y0044970D01*
X0323981Y0044924D01*
X0324020Y0044854D01*
X0324110Y0044695D01*
X0324237Y0044472D01*
X0324391Y0044203D01*
X0324561Y0043907D01*
X0324649Y0043752D01*
X0324865Y0043362D01*
X0325087Y0042947D01*
X0325293Y0042550D01*
X0325463Y0042210D01*
X0325549Y0042032D01*
X0325673Y0041768D01*
X0325758Y0041566D01*
X0325814Y0041401D01*
X0325849Y0041245D01*
X0325869Y0041072D01*
X0325885Y0040857D01*
X0325898Y0040614D01*
X0325897Y0040406D01*
X0325875Y0040221D01*
X0325826Y0040015D01*
X0325745Y0039744D01*
X0325707Y0039628D01*
X0325594Y0039325D01*
X0325469Y0039033D01*
X0325353Y0038802D01*
X0325178Y0038516D01*
X0324856Y0038069D01*
X0324490Y0037638D01*
X0324099Y0037243D01*
X0323701Y0036899D01*
X0323313Y0036625D01*
X0322954Y0036438D01*
X0322821Y0036385D01*
X0322641Y0036320D01*
X0322526Y0036296D01*
X0322452Y0036309D01*
X0322391Y0036355D01*
X0322377Y0036382D01*
X0322395Y0036458D01*
X0322481Y0036583D01*
X0322642Y0036770D01*
X0322794Y0036942D01*
X0323160Y0037405D01*
X0323496Y0037897D01*
X0323795Y0038401D01*
X0324049Y0038902D01*
X0324252Y0039385D01*
X0324396Y0039834D01*
X0324473Y0040235D01*
X0324476Y0040570D01*
X0324453Y0040696D01*
X0324365Y0041000D01*
X0324221Y0041392D01*
X0324022Y0041864D01*
X0323771Y0042411D01*
X0323471Y0043027D01*
X0323350Y0043269D01*
X0323179Y0043627D01*
X0323048Y0043923D01*
X0322949Y0044180D01*
X0322872Y0044423D01*
X0322807Y0044674D01*
X0322763Y0044866D01*
X0322712Y0045124D01*
X0322676Y0045337D01*
X0322663Y0045471D01*
X0322660Y0045555D01*
X0322636Y0045624D01*
X0322570Y0045678D01*
X0322438Y0045734D01*
X0322220Y0045808D01*
X0321787Y0045941D01*
X0320968Y0046131D01*
X0320122Y0046245D01*
X0320103Y0046246D01*
X0319972Y0046253D01*
X0319759Y0046258D01*
X0319462Y0046264D01*
X0319080Y0046269D01*
X0318610Y0046273D01*
X0318052Y0046277D01*
X0317403Y0046280D01*
X0316662Y0046284D01*
X0315827Y0046286D01*
X0314896Y0046289D01*
X0313868Y0046290D01*
X0312741Y0046292D01*
X0311513Y0046293D01*
X0310182Y0046293D01*
X0308747Y0046294D01*
X0307207Y0046294D01*
X0305559Y0046293D01*
X0303801Y0046292D01*
X0301933Y0046291D01*
X0299952Y0046289D01*
X0299828Y0046289D01*
X0298059Y0046287D01*
X0296401Y0046285D01*
X0294849Y0046284D01*
X0293400Y0046282D01*
X0292051Y0046280D01*
X0290798Y0046279D01*
X0289637Y0046277D01*
X0288565Y0046275D01*
X0287578Y0046273D01*
X0286671Y0046271D01*
X0285843Y0046269D01*
X0285088Y0046267D01*
X0284403Y0046264D01*
X0283786Y0046261D01*
X0283231Y0046258D01*
X0282735Y0046255D01*
X0282295Y0046251D01*
X0281907Y0046247D01*
X0281567Y0046243D01*
X0281272Y0046239D01*
X0281018Y0046234D01*
X0280801Y0046228D01*
X0280618Y0046223D01*
X0280465Y0046216D01*
X0280338Y0046210D01*
X0280234Y0046203D01*
X0280149Y0046195D01*
X0280079Y0046187D01*
X0280021Y0046178D01*
X0279971Y0046169D01*
X0279108Y0045961D01*
X0278149Y0045637D01*
X0277255Y0045228D01*
X0276420Y0044728D01*
X0275633Y0044133D01*
X0275271Y0043811D01*
X0274598Y0043103D01*
X0274000Y0042323D01*
X0273487Y0041484D01*
X0273068Y0040603D01*
X0272753Y0039693D01*
X0272730Y0039613D01*
X0272690Y0039475D01*
X0272653Y0039348D01*
X0272620Y0039227D01*
X0272590Y0039107D01*
X0272563Y0038982D01*
X0272539Y0038847D01*
X0272517Y0038697D01*
X0272498Y0038525D01*
X0272482Y0038326D01*
X0272467Y0038095D01*
X0272455Y0037826D01*
X0272444Y0037514D01*
X0272435Y0037154D01*
X0272427Y0036739D01*
X0272421Y0036265D01*
X0272416Y0035726D01*
X0272412Y0035116D01*
X0272408Y0034430D01*
X0272405Y0033662D01*
X0272403Y0032808D01*
X0272401Y0031861D01*
X0272399Y0030816D01*
X0272396Y0029668D01*
X0272394Y0028410D01*
X0272393Y0028172D01*
X0272391Y0026798D01*
X0272390Y0025514D01*
X0272389Y0024322D01*
X0271120Y0024322D01*
X0271119Y0025090D01*
X0271118Y0026452D01*
X0271117Y0027928D01*
X0271118Y0029129D01*
X0271118Y0030310D01*
X0271119Y0031386D01*
X0271119Y0032363D01*
X0271121Y0033246D01*
X0271122Y0034039D01*
X0271124Y0034749D01*
X0271127Y0035380D01*
X0271130Y0035937D01*
X0271133Y0036426D01*
X0271137Y0036851D01*
X0271142Y0037218D01*
X0271147Y0037532D01*
X0271153Y0037798D01*
X0271160Y0038021D01*
X0271168Y0038207D01*
X0271176Y0038360D01*
X0271186Y0038486D01*
X0271196Y0038589D01*
X0271207Y0038675D01*
X0271377Y0039559D01*
X0271677Y0040589D01*
X0272075Y0041573D01*
X0272567Y0042504D01*
X0273148Y0043378D01*
X0273812Y0044186D01*
X0274553Y0044924D01*
X0275368Y0045585D01*
X0276250Y0046162D01*
X0277195Y0046651D01*
X0278198Y0047043D01*
X0278507Y0047142D01*
X0279254Y0047338D01*
X0280009Y0047474D01*
X0280821Y0047558D01*
X0280860Y0047560D01*
X0281036Y0047565D01*
X0281319Y0047570D01*
X0281703Y0047575D01*
X0282184Y0047579D01*
X0282756Y0047584D01*
X0283414Y0047588D01*
X0284153Y0047591D01*
X0284967Y0047595D01*
X0285851Y0047598D01*
X0286800Y0047601D01*
X0287809Y0047604D01*
X0288872Y0047606D01*
X0289984Y0047608D01*
X0291140Y0047610D01*
X0292335Y0047612D01*
X0293562Y0047613D01*
X0294818Y0047615D01*
X0296096Y0047615D01*
X0297391Y0047616D01*
X0298699Y0047617D01*
X0300014Y0047617D01*
X0301330Y0047617D01*
X0302642Y0047616D01*
X0303946Y0047616D01*
X0305235Y0047615D01*
X0306505Y0047614D01*
X0307750Y0047613D01*
X0308965Y0047611D01*
X0310144Y0047609D01*
X0311283Y0047607D01*
X0312376Y0047605D01*
X0313418Y0047603D01*
X0314404Y0047600D01*
X0315328Y0047597D01*
X0316185Y0047593D01*
X0316970Y0047590D01*
X0317677Y0047586D01*
X0318301Y0047582D01*
X0318838Y0047578D01*
X0319281Y0047573D01*
X0319625Y0047568D01*
X0319866Y0047563D01*
X0319997Y0047558D01*
X0320803Y0047473D01*
X0321616Y0047329D01*
X0322350Y0047135D01*
X0322410Y0047116D01*
X0322608Y0047055D01*
X0322727Y0047041D01*
X0322792Y0047085D01*
X0322831Y0047202D01*
X0322868Y0047406D01*
X0322874Y0047439D01*
X0322935Y0047596D01*
X0323046Y0047678D01*
X0323077Y0047689D01*
X0323187Y0047720D01*
X0323246Y0047696D01*
X0323269Y0047596D01*
X0323272Y0047402D01*
X0323272Y0047383D01*
X0323274Y0047150D01*
X0323298Y0046981D01*
X0323359Y0046855D01*
X0323473Y0046749D01*
X0323659Y0046639D01*
X0323931Y0046503D01*
X0324413Y0046252D01*
X0325306Y0045691D01*
X0326133Y0045044D01*
X0326888Y0044317D01*
X0327565Y0043516D01*
X0328160Y0042651D01*
X0328668Y0041727D01*
X0329082Y0040752D01*
X0329398Y0039734D01*
X0329610Y0038679D01*
X0329618Y0038602D01*
X0329630Y0038393D01*
X0329641Y0038081D01*
X0329651Y0037674D01*
X0329660Y0037180D01*
X0329669Y0036605D01*
X0329676Y0035956D01*
X0329684Y0035241D01*
X0329690Y0034467D01*
X0329695Y0033641D01*
X0329700Y0032771D01*
X0329704Y0031863D01*
X0329707Y0030925D01*
X0329710Y0029965D01*
X0329711Y0028988D01*
X0329712Y0028004D01*
X0329712Y0027018D01*
X0329711Y0026038D01*
X0329710Y0025071D01*
X0329707Y0024125D01*
X0329704Y0023206D01*
X0329702Y0022761D01*
X0329700Y0022323D01*
G37*
D19*
X0289256Y0282677D02*
X0293256Y0282677D01*
X0293256Y0276378D02*
X0289256Y0276378D01*
X0297256Y0282677D02*
X0301256Y0282677D01*
X0301256Y0276378D02*
X0297256Y0276378D01*
D20*
X0289055Y0276378D02*
G75*
G02*
X0289021Y0282691I-001299J0003150D01*
G01*
X0301472Y0282684D02*
G75*
G02*
X0301457Y0276378I0001283J-003156D01*
G01*
M02*
