G75*
G70*
%OFA0B0*%
%FSLAX25Y25*%
%IPPOS*%
%LPD*%
%AMOC8*
5,1,8,0,0,1.08239X$1,22.5*
%
%ADD10C,0.05906*%
%ADD11C,0.06000*%
%ADD12C,0.03150*%
X0000000Y0000000D02*
%LPD*%
G01*
D10*
X0304741Y0353214D03*
X0294899Y0353214D03*
X0285056Y0353214D03*
X0275214Y0353214D03*
X0265371Y0353214D03*
X0255529Y0353214D03*
X0245686Y0353214D03*
X0235844Y0353214D03*
X0226001Y0353214D03*
X0216159Y0353214D03*
X0206316Y0353214D03*
X0196473Y0353214D03*
X0304741Y0343372D03*
X0294899Y0343372D03*
X0285056Y0343372D03*
X0275214Y0343372D03*
X0265371Y0343372D03*
X0255529Y0343372D03*
X0245686Y0343372D03*
X0235844Y0343372D03*
X0226001Y0343372D03*
X0216159Y0343372D03*
X0206316Y0343372D03*
X0196473Y0343372D03*
X0304741Y0319750D03*
X0294899Y0319750D03*
X0285056Y0319750D03*
X0275214Y0319750D03*
X0265371Y0319750D03*
X0255529Y0319750D03*
X0245686Y0319750D03*
X0235844Y0319750D03*
X0226001Y0319750D03*
X0216159Y0319750D03*
X0206316Y0319750D03*
X0196473Y0319750D03*
X0304741Y0309907D03*
X0294899Y0309907D03*
X0285056Y0309907D03*
X0275214Y0309907D03*
X0265371Y0309907D03*
X0255529Y0309907D03*
X0245686Y0309907D03*
X0235844Y0309907D03*
X0226001Y0309907D03*
X0216159Y0309907D03*
X0206316Y0309907D03*
X0196473Y0309907D03*
X0302281Y0294159D03*
X0287517Y0294159D03*
X0272753Y0294159D03*
X0257989Y0294159D03*
X0243225Y0294159D03*
X0228462Y0294159D03*
X0213698Y0294159D03*
X0198934Y0294159D03*
X0143324Y0353214D03*
X0133481Y0353214D03*
X0123639Y0353214D03*
X0113796Y0353214D03*
X0103954Y0353214D03*
X0094111Y0353214D03*
X0084269Y0353214D03*
X0074426Y0353214D03*
X0064584Y0353214D03*
X0054741Y0353214D03*
X0044899Y0353214D03*
X0035056Y0353214D03*
X0143324Y0343372D03*
X0133481Y0343372D03*
X0123639Y0343372D03*
X0113796Y0343372D03*
X0103954Y0343372D03*
X0094111Y0343372D03*
X0084269Y0343372D03*
X0074426Y0343372D03*
X0064584Y0343372D03*
X0054741Y0343372D03*
X0044899Y0343372D03*
X0035056Y0343372D03*
X0143324Y0319750D03*
X0133481Y0319750D03*
X0123639Y0319750D03*
X0113796Y0319750D03*
X0103954Y0319750D03*
X0094111Y0319750D03*
X0084269Y0319750D03*
X0074426Y0319750D03*
X0064584Y0319750D03*
X0054741Y0319750D03*
X0044899Y0319750D03*
X0035056Y0319750D03*
X0143324Y0309907D03*
X0133481Y0309907D03*
X0123639Y0309907D03*
X0113796Y0309907D03*
X0103954Y0309907D03*
X0094111Y0309907D03*
X0084269Y0309907D03*
X0074426Y0309907D03*
X0064584Y0309907D03*
X0054741Y0309907D03*
X0044899Y0309907D03*
X0035056Y0309907D03*
X0140863Y0294159D03*
X0126099Y0294159D03*
X0111336Y0294159D03*
X0096572Y0294159D03*
X0081808Y0294159D03*
X0067044Y0294159D03*
X0052281Y0294159D03*
X0037517Y0294159D03*
D11*
X0131890Y0269311D03*
X0131890Y0254311D03*
X0032244Y0269685D03*
X0047244Y0269685D03*
X0124016Y0269311D03*
X0124016Y0254311D03*
X0086614Y0269311D03*
X0086614Y0254311D03*
X0208661Y0265551D03*
X0208661Y0246260D03*
X0111220Y0269311D03*
X0111220Y0254311D03*
X0269291Y0267520D03*
X0269291Y0248228D03*
X0198819Y0265551D03*
X0198819Y0246260D03*
X0251969Y0265374D03*
X0251969Y0250374D03*
X0147638Y0269311D03*
X0147638Y0254311D03*
X0303150Y0265374D03*
X0303150Y0250374D03*
X0281102Y0265374D03*
X0281102Y0250374D03*
X0288583Y0265374D03*
X0288583Y0250374D03*
X0139764Y0269311D03*
X0139764Y0254311D03*
X0295669Y0265374D03*
X0295669Y0250374D03*
X0096457Y0269311D03*
X0096457Y0254311D03*
X0227559Y0265374D03*
X0227559Y0250374D03*
X0238189Y0265374D03*
X0238189Y0250374D03*
X0217717Y0265374D03*
X0217717Y0250374D03*
X0287756Y0279528D03*
X0302756Y0279528D03*
D12*
X0166104Y0303409D03*
X0158825Y0287611D03*
X0173225Y0322835D03*
X0176629Y0277079D03*
X0022835Y0314961D03*
X0181848Y0303408D03*
X0188976Y0277559D03*
X0135039Y0325591D03*
X0172043Y0293536D03*
X0182244Y0260690D03*
X0176025Y0355118D03*
X0177356Y0303222D03*
X0211451Y0257191D03*
X0162205Y0303543D03*
X0302891Y0288740D03*
X0234843Y0324803D03*
X0156496Y0255003D03*
X0265752Y0324852D03*
X0267717Y0314961D03*
X0303346Y0303150D03*
X0240945Y0303543D03*
X0181841Y0340815D03*
X0157781Y0327948D03*
X0169675Y0328125D03*
X0163729Y0328042D03*
X0185036Y0322835D03*
X0179134Y0334646D03*
X0108268Y0377165D03*
X0124409Y0302362D03*
X0112205Y0301575D03*
X0285827Y0376772D03*
X0103937Y0276378D03*
X0161417Y0334646D03*
X0035039Y0374409D03*
X0162598Y0377165D03*
X0155512Y0334646D03*
X0078983Y0260387D03*
X0294094Y0271654D03*
X0074803Y0300787D03*
X0162267Y0282281D03*
X0091339Y0301969D03*
X0056299Y0329921D03*
X0044882Y0332677D03*
X0210236Y0335433D03*
X0185816Y0295118D03*
X0171260Y0285433D03*
X0227165Y0331890D03*
X0181199Y0282354D03*
X0170472Y0257874D03*
X0302362Y0272441D03*
X0167323Y0334646D03*
X0075984Y0375984D03*
X0188976Y0299606D03*
X0262598Y0332283D03*
X0179709Y0295206D03*
X0138976Y0278346D03*
X0114173Y0333858D03*
X0144488Y0331496D03*
X0127165Y0333858D03*
X0334646Y0289764D03*
X0055906Y0302756D03*
X0251480Y0377073D03*
X0172047Y0264961D03*
X0078740Y0266535D03*
X0029528Y0331496D03*
X0201181Y0377559D03*
X0020472Y0352362D03*
X0259261Y0240097D03*
X0173228Y0334646D03*
X0331952Y0340020D03*
X0310629Y0375499D03*
X0030709Y0301969D03*
X0331102Y0317717D03*
X0070866Y0333465D03*
X0302362Y0285039D03*
X0191339Y0261811D03*
X0297244Y0241339D03*
X0164743Y0294563D03*
X0295669Y0330709D03*
X0304724Y0332283D03*
X0206299Y0301181D03*
X0144094Y0301575D03*
X0185039Y0334646D03*
X0082283Y0277559D03*
X0177165Y0268110D03*
X0281496Y0241339D03*
X0290945Y0306299D03*
X0134250Y0249677D03*
X0245276Y0242911D03*
X0324116Y0242097D03*
X0324260Y0248031D03*
X0165905Y0271457D03*
X0166732Y0266339D03*
X0166142Y0276575D03*
X0173810Y0279536D03*
X0175032Y0273696D03*
M02*
