G75*
G70*
%OFA0B0*%
%FSLAX25Y25*%
%IPPOS*%
%LPD*%
%AMOC8*
5,1,8,0,0,1.08239X$1,22.5*
%
%ADD13C,0.00787*%
%ADD17C,0.00500*%
%ADD18C,0.00591*%
%ADD19C,0.00390*%
%ADD20C,0.00472*%
X0000000Y0000000D02*
%LPD*%
G01*
D13*
X0284204Y0280942D02*
X0284204Y0278130D01*
X0284204Y0278130D02*
X0287016Y0277849D01*
X0287016Y0277849D02*
X0286735Y0278130D01*
X0286735Y0278130D02*
X0286454Y0278693D01*
X0286454Y0278693D02*
X0286454Y0280099D01*
X0286454Y0280099D02*
X0286735Y0280661D01*
X0286735Y0280661D02*
X0287016Y0280942D01*
X0287016Y0280942D02*
X0287578Y0281223D01*
X0287578Y0281223D02*
X0288985Y0281223D01*
X0288985Y0281223D02*
X0289547Y0280942D01*
X0289547Y0280942D02*
X0289828Y0280661D01*
X0289828Y0280661D02*
X0290109Y0280099D01*
X0290109Y0280099D02*
X0290109Y0278693D01*
X0290109Y0278693D02*
X0289828Y0278130D01*
X0289828Y0278130D02*
X0289547Y0277849D01*
X0284204Y0284879D02*
X0284204Y0285442D01*
X0284204Y0285442D02*
X0284485Y0286004D01*
X0284485Y0286004D02*
X0284766Y0286285D01*
X0284766Y0286285D02*
X0285329Y0286567D01*
X0285329Y0286567D02*
X0286454Y0286848D01*
X0286454Y0286848D02*
X0287860Y0286848D01*
X0287860Y0286848D02*
X0288985Y0286567D01*
X0288985Y0286567D02*
X0289547Y0286285D01*
X0289547Y0286285D02*
X0289828Y0286004D01*
X0289828Y0286004D02*
X0290109Y0285442D01*
X0290109Y0285442D02*
X0290109Y0284879D01*
X0290109Y0284879D02*
X0289828Y0284317D01*
X0289828Y0284317D02*
X0289547Y0284036D01*
X0289547Y0284036D02*
X0288985Y0283754D01*
X0288985Y0283754D02*
X0287860Y0283473D01*
X0287860Y0283473D02*
X0286454Y0283473D01*
X0286454Y0283473D02*
X0285329Y0283754D01*
X0285329Y0283754D02*
X0284766Y0284036D01*
X0284766Y0284036D02*
X0284485Y0284317D01*
X0284485Y0284317D02*
X0284204Y0284879D01*
X0108613Y0280942D02*
X0108613Y0278130D01*
X0108613Y0278130D02*
X0111426Y0277849D01*
X0111426Y0277849D02*
X0111144Y0278130D01*
X0111144Y0278130D02*
X0110863Y0278693D01*
X0110863Y0278693D02*
X0110863Y0280099D01*
X0110863Y0280099D02*
X0111144Y0280661D01*
X0111144Y0280661D02*
X0111426Y0280942D01*
X0111426Y0280942D02*
X0111988Y0281223D01*
X0111988Y0281223D02*
X0113394Y0281223D01*
X0113394Y0281223D02*
X0113956Y0280942D01*
X0113956Y0280942D02*
X0114238Y0280661D01*
X0114238Y0280661D02*
X0114519Y0280099D01*
X0114519Y0280099D02*
X0114519Y0278693D01*
X0114519Y0278693D02*
X0114238Y0278130D01*
X0114238Y0278130D02*
X0113956Y0277849D01*
X0114519Y0286848D02*
X0114519Y0283473D01*
X0114519Y0285160D02*
X0108613Y0285160D01*
X0108613Y0285160D02*
X0109457Y0284598D01*
X0109457Y0284598D02*
X0110019Y0284036D01*
X0110019Y0284036D02*
X0110301Y0283473D01*
X0309963Y0319187D02*
X0309682Y0319469D01*
X0309682Y0319469D02*
X0309401Y0320031D01*
X0309401Y0320031D02*
X0309401Y0321437D01*
X0309401Y0321437D02*
X0309682Y0322000D01*
X0309682Y0322000D02*
X0309963Y0322281D01*
X0309963Y0322281D02*
X0310526Y0322562D01*
X0310526Y0322562D02*
X0311088Y0322562D01*
X0311088Y0322562D02*
X0311932Y0322281D01*
X0311932Y0322281D02*
X0315306Y0318906D01*
X0315306Y0318906D02*
X0315306Y0322562D01*
X0309401Y0327905D02*
X0309401Y0325093D01*
X0309401Y0325093D02*
X0312213Y0324812D01*
X0312213Y0324812D02*
X0311932Y0325093D01*
X0311932Y0325093D02*
X0311650Y0325655D01*
X0311650Y0325655D02*
X0311650Y0327062D01*
X0311650Y0327062D02*
X0311932Y0327624D01*
X0311932Y0327624D02*
X0312213Y0327905D01*
X0312213Y0327905D02*
X0312775Y0328186D01*
X0312775Y0328186D02*
X0314181Y0328186D01*
X0314181Y0328186D02*
X0314744Y0327905D01*
X0314744Y0327905D02*
X0315025Y0327624D01*
X0315025Y0327624D02*
X0315306Y0327062D01*
X0315306Y0327062D02*
X0315306Y0325655D01*
X0315306Y0325655D02*
X0315025Y0325093D01*
X0315025Y0325093D02*
X0314744Y0324812D01*
X0034204Y0280942D02*
X0034204Y0278130D01*
X0034204Y0278130D02*
X0037016Y0277849D01*
X0037016Y0277849D02*
X0036735Y0278130D01*
X0036735Y0278130D02*
X0036454Y0278693D01*
X0036454Y0278693D02*
X0036454Y0280099D01*
X0036454Y0280099D02*
X0036735Y0280661D01*
X0036735Y0280661D02*
X0037016Y0280942D01*
X0037016Y0280942D02*
X0037578Y0281223D01*
X0037578Y0281223D02*
X0038985Y0281223D01*
X0038985Y0281223D02*
X0039547Y0280942D01*
X0039547Y0280942D02*
X0039828Y0280661D01*
X0039828Y0280661D02*
X0040109Y0280099D01*
X0040109Y0280099D02*
X0040109Y0278693D01*
X0040109Y0278693D02*
X0039828Y0278130D01*
X0039828Y0278130D02*
X0039547Y0277849D01*
X0034204Y0286285D02*
X0034204Y0285160D01*
X0034204Y0285160D02*
X0034485Y0284598D01*
X0034485Y0284598D02*
X0034766Y0284317D01*
X0034766Y0284317D02*
X0035610Y0283754D01*
X0035610Y0283754D02*
X0036735Y0283473D01*
X0036735Y0283473D02*
X0038985Y0283473D01*
X0038985Y0283473D02*
X0039547Y0283754D01*
X0039547Y0283754D02*
X0039828Y0284036D01*
X0039828Y0284036D02*
X0040109Y0284598D01*
X0040109Y0284598D02*
X0040109Y0285723D01*
X0040109Y0285723D02*
X0039828Y0286285D01*
X0039828Y0286285D02*
X0039547Y0286567D01*
X0039547Y0286567D02*
X0038985Y0286848D01*
X0038985Y0286848D02*
X0037578Y0286848D01*
X0037578Y0286848D02*
X0037016Y0286567D01*
X0037016Y0286567D02*
X0036735Y0286285D01*
X0036735Y0286285D02*
X0036454Y0285723D01*
X0036454Y0285723D02*
X0036454Y0284598D01*
X0036454Y0284598D02*
X0036735Y0284036D01*
X0036735Y0284036D02*
X0037016Y0283754D01*
X0037016Y0283754D02*
X0037578Y0283473D01*
X0049165Y0280942D02*
X0049165Y0278130D01*
X0049165Y0278130D02*
X0051977Y0277849D01*
X0051977Y0277849D02*
X0051695Y0278130D01*
X0051695Y0278130D02*
X0051414Y0278693D01*
X0051414Y0278693D02*
X0051414Y0280099D01*
X0051414Y0280099D02*
X0051695Y0280661D01*
X0051695Y0280661D02*
X0051977Y0280942D01*
X0051977Y0280942D02*
X0052539Y0281223D01*
X0052539Y0281223D02*
X0053945Y0281223D01*
X0053945Y0281223D02*
X0054508Y0280942D01*
X0054508Y0280942D02*
X0054789Y0280661D01*
X0054789Y0280661D02*
X0055070Y0280099D01*
X0055070Y0280099D02*
X0055070Y0278693D01*
X0055070Y0278693D02*
X0054789Y0278130D01*
X0054789Y0278130D02*
X0054508Y0277849D01*
X0049165Y0286567D02*
X0049165Y0283754D01*
X0049165Y0283754D02*
X0051977Y0283473D01*
X0051977Y0283473D02*
X0051695Y0283754D01*
X0051695Y0283754D02*
X0051414Y0284317D01*
X0051414Y0284317D02*
X0051414Y0285723D01*
X0051414Y0285723D02*
X0051695Y0286285D01*
X0051695Y0286285D02*
X0051977Y0286567D01*
X0051977Y0286567D02*
X0052539Y0286848D01*
X0052539Y0286848D02*
X0053945Y0286848D01*
X0053945Y0286848D02*
X0054508Y0286567D01*
X0054508Y0286567D02*
X0054789Y0286285D01*
X0054789Y0286285D02*
X0055070Y0285723D01*
X0055070Y0285723D02*
X0055070Y0284317D01*
X0055070Y0284317D02*
X0054789Y0283754D01*
X0054789Y0283754D02*
X0054508Y0283473D01*
X0185947Y0336904D02*
X0185666Y0337185D01*
X0185666Y0337185D02*
X0185385Y0337748D01*
X0185385Y0337748D02*
X0185385Y0339154D01*
X0185385Y0339154D02*
X0185666Y0339716D01*
X0185666Y0339716D02*
X0185947Y0339997D01*
X0185947Y0339997D02*
X0186510Y0340279D01*
X0186510Y0340279D02*
X0187072Y0340279D01*
X0187072Y0340279D02*
X0187916Y0339997D01*
X0187916Y0339997D02*
X0191291Y0336623D01*
X0191291Y0336623D02*
X0191291Y0340279D01*
X0187354Y0345340D02*
X0191291Y0345340D01*
X0185104Y0343934D02*
X0189322Y0342528D01*
X0189322Y0342528D02*
X0189322Y0346184D01*
X0153889Y0340279D02*
X0153889Y0336904D01*
X0153889Y0338591D02*
X0147983Y0338591D01*
X0147983Y0338591D02*
X0148827Y0338029D01*
X0148827Y0338029D02*
X0149390Y0337466D01*
X0149390Y0337466D02*
X0149671Y0336904D01*
X0147983Y0342247D02*
X0147983Y0345903D01*
X0147983Y0345903D02*
X0150233Y0343934D01*
X0150233Y0343934D02*
X0150233Y0344778D01*
X0150233Y0344778D02*
X0150514Y0345340D01*
X0150514Y0345340D02*
X0150796Y0345622D01*
X0150796Y0345622D02*
X0151358Y0345903D01*
X0151358Y0345903D02*
X0152764Y0345903D01*
X0152764Y0345903D02*
X0153327Y0345622D01*
X0153327Y0345622D02*
X0153608Y0345340D01*
X0153608Y0345340D02*
X0153889Y0344778D01*
X0153889Y0344778D02*
X0153889Y0343091D01*
X0153889Y0343091D02*
X0153608Y0342528D01*
X0153608Y0342528D02*
X0153327Y0342247D01*
X0147983Y0301190D02*
X0147983Y0304846D01*
X0147983Y0304846D02*
X0150233Y0302877D01*
X0150233Y0302877D02*
X0150233Y0303721D01*
X0150233Y0303721D02*
X0150514Y0304283D01*
X0150514Y0304283D02*
X0150796Y0304564D01*
X0150796Y0304564D02*
X0151358Y0304846D01*
X0151358Y0304846D02*
X0152764Y0304846D01*
X0152764Y0304846D02*
X0153327Y0304564D01*
X0153327Y0304564D02*
X0153608Y0304283D01*
X0153608Y0304283D02*
X0153889Y0303721D01*
X0153889Y0303721D02*
X0153889Y0302033D01*
X0153889Y0302033D02*
X0153608Y0301471D01*
X0153608Y0301471D02*
X0153327Y0301190D01*
X0147983Y0306814D02*
X0147983Y0310751D01*
X0147983Y0310751D02*
X0153889Y0308220D01*
X0122787Y0280942D02*
X0122787Y0278130D01*
X0122787Y0278130D02*
X0125599Y0277849D01*
X0125599Y0277849D02*
X0125318Y0278130D01*
X0125318Y0278130D02*
X0125036Y0278693D01*
X0125036Y0278693D02*
X0125036Y0280099D01*
X0125036Y0280099D02*
X0125318Y0280661D01*
X0125318Y0280661D02*
X0125599Y0280942D01*
X0125599Y0280942D02*
X0126161Y0281223D01*
X0126161Y0281223D02*
X0127567Y0281223D01*
X0127567Y0281223D02*
X0128130Y0280942D01*
X0128130Y0280942D02*
X0128411Y0280661D01*
X0128411Y0280661D02*
X0128692Y0280099D01*
X0128692Y0280099D02*
X0128692Y0278693D01*
X0128692Y0278693D02*
X0128411Y0278130D01*
X0128411Y0278130D02*
X0128130Y0277849D01*
X0122787Y0284879D02*
X0122787Y0285442D01*
X0122787Y0285442D02*
X0123068Y0286004D01*
X0123068Y0286004D02*
X0123349Y0286285D01*
X0123349Y0286285D02*
X0123911Y0286567D01*
X0123911Y0286567D02*
X0125036Y0286848D01*
X0125036Y0286848D02*
X0126442Y0286848D01*
X0126442Y0286848D02*
X0127567Y0286567D01*
X0127567Y0286567D02*
X0128130Y0286285D01*
X0128130Y0286285D02*
X0128411Y0286004D01*
X0128411Y0286004D02*
X0128692Y0285442D01*
X0128692Y0285442D02*
X0128692Y0284879D01*
X0128692Y0284879D02*
X0128411Y0284317D01*
X0128411Y0284317D02*
X0128130Y0284036D01*
X0128130Y0284036D02*
X0127567Y0283754D01*
X0127567Y0283754D02*
X0126442Y0283473D01*
X0126442Y0283473D02*
X0125036Y0283473D01*
X0125036Y0283473D02*
X0123911Y0283754D01*
X0123911Y0283754D02*
X0123349Y0284036D01*
X0123349Y0284036D02*
X0123068Y0284317D01*
X0123068Y0284317D02*
X0122787Y0284879D01*
X0187354Y0306252D02*
X0191291Y0306252D01*
X0185104Y0304846D02*
X0189322Y0303439D01*
X0189322Y0303439D02*
X0189322Y0307095D01*
X0187916Y0310189D02*
X0187635Y0309626D01*
X0187635Y0309626D02*
X0187354Y0309345D01*
X0187354Y0309345D02*
X0186791Y0309064D01*
X0186791Y0309064D02*
X0186510Y0309064D01*
X0186510Y0309064D02*
X0185947Y0309345D01*
X0185947Y0309345D02*
X0185666Y0309626D01*
X0185666Y0309626D02*
X0185385Y0310189D01*
X0185385Y0310189D02*
X0185385Y0311313D01*
X0185385Y0311313D02*
X0185666Y0311876D01*
X0185666Y0311876D02*
X0185947Y0312157D01*
X0185947Y0312157D02*
X0186510Y0312438D01*
X0186510Y0312438D02*
X0186791Y0312438D01*
X0186791Y0312438D02*
X0187354Y0312157D01*
X0187354Y0312157D02*
X0187635Y0311876D01*
X0187635Y0311876D02*
X0187916Y0311313D01*
X0187916Y0311313D02*
X0187916Y0310189D01*
X0187916Y0310189D02*
X0188197Y0309626D01*
X0188197Y0309626D02*
X0188478Y0309345D01*
X0188478Y0309345D02*
X0189041Y0309064D01*
X0189041Y0309064D02*
X0190166Y0309064D01*
X0190166Y0309064D02*
X0190728Y0309345D01*
X0190728Y0309345D02*
X0191009Y0309626D01*
X0191009Y0309626D02*
X0191291Y0310189D01*
X0191291Y0310189D02*
X0191291Y0311313D01*
X0191291Y0311313D02*
X0191009Y0311876D01*
X0191009Y0311876D02*
X0190728Y0312157D01*
X0190728Y0312157D02*
X0190166Y0312438D01*
X0190166Y0312438D02*
X0189041Y0312438D01*
X0189041Y0312438D02*
X0188478Y0312157D01*
X0188478Y0312157D02*
X0188197Y0311876D01*
X0188197Y0311876D02*
X0187916Y0311313D01*
X0254676Y0280942D02*
X0254676Y0278130D01*
X0254676Y0278130D02*
X0257489Y0277849D01*
X0257489Y0277849D02*
X0257207Y0278130D01*
X0257207Y0278130D02*
X0256926Y0278693D01*
X0256926Y0278693D02*
X0256926Y0280099D01*
X0256926Y0280099D02*
X0257207Y0280661D01*
X0257207Y0280661D02*
X0257489Y0280942D01*
X0257489Y0280942D02*
X0258051Y0281223D01*
X0258051Y0281223D02*
X0259457Y0281223D01*
X0259457Y0281223D02*
X0260019Y0280942D01*
X0260019Y0280942D02*
X0260301Y0280661D01*
X0260301Y0280661D02*
X0260582Y0280099D01*
X0260582Y0280099D02*
X0260582Y0278693D01*
X0260582Y0278693D02*
X0260301Y0278130D01*
X0260301Y0278130D02*
X0260019Y0277849D01*
X0255239Y0283473D02*
X0254958Y0283754D01*
X0254958Y0283754D02*
X0254676Y0284317D01*
X0254676Y0284317D02*
X0254676Y0285723D01*
X0254676Y0285723D02*
X0254958Y0286285D01*
X0254958Y0286285D02*
X0255239Y0286567D01*
X0255239Y0286567D02*
X0255801Y0286848D01*
X0255801Y0286848D02*
X0256364Y0286848D01*
X0256364Y0286848D02*
X0257207Y0286567D01*
X0257207Y0286567D02*
X0260582Y0283192D01*
X0260582Y0283192D02*
X0260582Y0286848D01*
X0270031Y0280942D02*
X0270031Y0278130D01*
X0270031Y0278130D02*
X0272843Y0277849D01*
X0272843Y0277849D02*
X0272562Y0278130D01*
X0272562Y0278130D02*
X0272280Y0278693D01*
X0272280Y0278693D02*
X0272280Y0280099D01*
X0272280Y0280099D02*
X0272562Y0280661D01*
X0272562Y0280661D02*
X0272843Y0280942D01*
X0272843Y0280942D02*
X0273405Y0281223D01*
X0273405Y0281223D02*
X0274811Y0281223D01*
X0274811Y0281223D02*
X0275374Y0280942D01*
X0275374Y0280942D02*
X0275655Y0280661D01*
X0275655Y0280661D02*
X0275936Y0280099D01*
X0275936Y0280099D02*
X0275936Y0278693D01*
X0275936Y0278693D02*
X0275655Y0278130D01*
X0275655Y0278130D02*
X0275374Y0277849D01*
X0275936Y0286848D02*
X0275936Y0283473D01*
X0275936Y0285160D02*
X0270031Y0285160D01*
X0270031Y0285160D02*
X0270874Y0284598D01*
X0270874Y0284598D02*
X0271437Y0284036D01*
X0271437Y0284036D02*
X0271718Y0283473D01*
X0024530Y0336904D02*
X0024249Y0337185D01*
X0024249Y0337185D02*
X0023968Y0337748D01*
X0023968Y0337748D02*
X0023968Y0339154D01*
X0023968Y0339154D02*
X0024249Y0339716D01*
X0024249Y0339716D02*
X0024530Y0339997D01*
X0024530Y0339997D02*
X0025093Y0340279D01*
X0025093Y0340279D02*
X0025655Y0340279D01*
X0025655Y0340279D02*
X0026499Y0339997D01*
X0026499Y0339997D02*
X0029873Y0336623D01*
X0029873Y0336623D02*
X0029873Y0340279D01*
X0025936Y0345340D02*
X0029873Y0345340D01*
X0023686Y0343934D02*
X0027905Y0342528D01*
X0027905Y0342528D02*
X0027905Y0346184D01*
X0225149Y0280942D02*
X0225149Y0278130D01*
X0225149Y0278130D02*
X0227961Y0277849D01*
X0227961Y0277849D02*
X0227680Y0278130D01*
X0227680Y0278130D02*
X0227399Y0278693D01*
X0227399Y0278693D02*
X0227399Y0280099D01*
X0227399Y0280099D02*
X0227680Y0280661D01*
X0227680Y0280661D02*
X0227961Y0280942D01*
X0227961Y0280942D02*
X0228523Y0281223D01*
X0228523Y0281223D02*
X0229929Y0281223D01*
X0229929Y0281223D02*
X0230492Y0280942D01*
X0230492Y0280942D02*
X0230773Y0280661D01*
X0230773Y0280661D02*
X0231054Y0280099D01*
X0231054Y0280099D02*
X0231054Y0278693D01*
X0231054Y0278693D02*
X0230773Y0278130D01*
X0230773Y0278130D02*
X0230492Y0277849D01*
X0227117Y0286285D02*
X0231054Y0286285D01*
X0224868Y0284879D02*
X0229086Y0283473D01*
X0229086Y0283473D02*
X0229086Y0287129D01*
X0148546Y0319187D02*
X0148265Y0319469D01*
X0148265Y0319469D02*
X0147983Y0320031D01*
X0147983Y0320031D02*
X0147983Y0321437D01*
X0147983Y0321437D02*
X0148265Y0322000D01*
X0148265Y0322000D02*
X0148546Y0322281D01*
X0148546Y0322281D02*
X0149108Y0322562D01*
X0149108Y0322562D02*
X0149671Y0322562D01*
X0149671Y0322562D02*
X0150514Y0322281D01*
X0150514Y0322281D02*
X0153889Y0318906D01*
X0153889Y0318906D02*
X0153889Y0322562D01*
X0147983Y0327905D02*
X0147983Y0325093D01*
X0147983Y0325093D02*
X0150796Y0324812D01*
X0150796Y0324812D02*
X0150514Y0325093D01*
X0150514Y0325093D02*
X0150233Y0325655D01*
X0150233Y0325655D02*
X0150233Y0327062D01*
X0150233Y0327062D02*
X0150514Y0327624D01*
X0150514Y0327624D02*
X0150796Y0327905D01*
X0150796Y0327905D02*
X0151358Y0328186D01*
X0151358Y0328186D02*
X0152764Y0328186D01*
X0152764Y0328186D02*
X0153327Y0327905D01*
X0153327Y0327905D02*
X0153608Y0327624D01*
X0153608Y0327624D02*
X0153889Y0327062D01*
X0153889Y0327062D02*
X0153889Y0325655D01*
X0153889Y0325655D02*
X0153608Y0325093D01*
X0153608Y0325093D02*
X0153327Y0324812D01*
X0210582Y0280942D02*
X0210582Y0278130D01*
X0210582Y0278130D02*
X0213394Y0277849D01*
X0213394Y0277849D02*
X0213113Y0278130D01*
X0213113Y0278130D02*
X0212832Y0278693D01*
X0212832Y0278693D02*
X0212832Y0280099D01*
X0212832Y0280099D02*
X0213113Y0280661D01*
X0213113Y0280661D02*
X0213394Y0280942D01*
X0213394Y0280942D02*
X0213956Y0281223D01*
X0213956Y0281223D02*
X0215363Y0281223D01*
X0215363Y0281223D02*
X0215925Y0280942D01*
X0215925Y0280942D02*
X0216206Y0280661D01*
X0216206Y0280661D02*
X0216487Y0280099D01*
X0216487Y0280099D02*
X0216487Y0278693D01*
X0216487Y0278693D02*
X0216206Y0278130D01*
X0216206Y0278130D02*
X0215925Y0277849D01*
X0210582Y0286567D02*
X0210582Y0283754D01*
X0210582Y0283754D02*
X0213394Y0283473D01*
X0213394Y0283473D02*
X0213113Y0283754D01*
X0213113Y0283754D02*
X0212832Y0284317D01*
X0212832Y0284317D02*
X0212832Y0285723D01*
X0212832Y0285723D02*
X0213113Y0286285D01*
X0213113Y0286285D02*
X0213394Y0286567D01*
X0213394Y0286567D02*
X0213956Y0286848D01*
X0213956Y0286848D02*
X0215363Y0286848D01*
X0215363Y0286848D02*
X0215925Y0286567D01*
X0215925Y0286567D02*
X0216206Y0286285D01*
X0216206Y0286285D02*
X0216487Y0285723D01*
X0216487Y0285723D02*
X0216487Y0284317D01*
X0216487Y0284317D02*
X0216206Y0283754D01*
X0216206Y0283754D02*
X0215925Y0283473D01*
X0093259Y0280942D02*
X0093259Y0278130D01*
X0093259Y0278130D02*
X0096071Y0277849D01*
X0096071Y0277849D02*
X0095790Y0278130D01*
X0095790Y0278130D02*
X0095509Y0278693D01*
X0095509Y0278693D02*
X0095509Y0280099D01*
X0095509Y0280099D02*
X0095790Y0280661D01*
X0095790Y0280661D02*
X0096071Y0280942D01*
X0096071Y0280942D02*
X0096634Y0281223D01*
X0096634Y0281223D02*
X0098040Y0281223D01*
X0098040Y0281223D02*
X0098602Y0280942D01*
X0098602Y0280942D02*
X0098883Y0280661D01*
X0098883Y0280661D02*
X0099165Y0280099D01*
X0099165Y0280099D02*
X0099165Y0278693D01*
X0099165Y0278693D02*
X0098883Y0278130D01*
X0098883Y0278130D02*
X0098602Y0277849D01*
X0093821Y0283473D02*
X0093540Y0283754D01*
X0093540Y0283754D02*
X0093259Y0284317D01*
X0093259Y0284317D02*
X0093259Y0285723D01*
X0093259Y0285723D02*
X0093540Y0286285D01*
X0093540Y0286285D02*
X0093821Y0286567D01*
X0093821Y0286567D02*
X0094384Y0286848D01*
X0094384Y0286848D02*
X0094946Y0286848D01*
X0094946Y0286848D02*
X0095790Y0286567D01*
X0095790Y0286567D02*
X0099165Y0283192D01*
X0099165Y0283192D02*
X0099165Y0286848D01*
X0023968Y0316938D02*
X0023968Y0320594D01*
X0023968Y0320594D02*
X0026217Y0318625D01*
X0026217Y0318625D02*
X0026217Y0319469D01*
X0026217Y0319469D02*
X0026499Y0320031D01*
X0026499Y0320031D02*
X0026780Y0320312D01*
X0026780Y0320312D02*
X0027342Y0320594D01*
X0027342Y0320594D02*
X0028748Y0320594D01*
X0028748Y0320594D02*
X0029311Y0320312D01*
X0029311Y0320312D02*
X0029592Y0320031D01*
X0029592Y0320031D02*
X0029873Y0319469D01*
X0029873Y0319469D02*
X0029873Y0317781D01*
X0029873Y0317781D02*
X0029592Y0317219D01*
X0029592Y0317219D02*
X0029311Y0316938D01*
X0023968Y0325655D02*
X0023968Y0324531D01*
X0023968Y0324531D02*
X0024249Y0323968D01*
X0024249Y0323968D02*
X0024530Y0323687D01*
X0024530Y0323687D02*
X0025374Y0323124D01*
X0025374Y0323124D02*
X0026499Y0322843D01*
X0026499Y0322843D02*
X0028748Y0322843D01*
X0028748Y0322843D02*
X0029311Y0323124D01*
X0029311Y0323124D02*
X0029592Y0323406D01*
X0029592Y0323406D02*
X0029873Y0323968D01*
X0029873Y0323968D02*
X0029873Y0325093D01*
X0029873Y0325093D02*
X0029592Y0325655D01*
X0029592Y0325655D02*
X0029311Y0325937D01*
X0029311Y0325937D02*
X0028748Y0326218D01*
X0028748Y0326218D02*
X0027342Y0326218D01*
X0027342Y0326218D02*
X0026780Y0325937D01*
X0026780Y0325937D02*
X0026499Y0325655D01*
X0026499Y0325655D02*
X0026217Y0325093D01*
X0026217Y0325093D02*
X0026217Y0323968D01*
X0026217Y0323968D02*
X0026499Y0323406D01*
X0026499Y0323406D02*
X0026780Y0323124D01*
X0026780Y0323124D02*
X0027342Y0322843D01*
X0153889Y0356870D02*
X0153889Y0353496D01*
X0153889Y0355183D02*
X0147983Y0355183D01*
X0147983Y0355183D02*
X0148827Y0354621D01*
X0148827Y0354621D02*
X0149390Y0354058D01*
X0149390Y0354058D02*
X0149671Y0353496D01*
X0078692Y0280942D02*
X0078692Y0278130D01*
X0078692Y0278130D02*
X0081504Y0277849D01*
X0081504Y0277849D02*
X0081223Y0278130D01*
X0081223Y0278130D02*
X0080942Y0278693D01*
X0080942Y0278693D02*
X0080942Y0280099D01*
X0080942Y0280099D02*
X0081223Y0280661D01*
X0081223Y0280661D02*
X0081504Y0280942D01*
X0081504Y0280942D02*
X0082067Y0281223D01*
X0082067Y0281223D02*
X0083473Y0281223D01*
X0083473Y0281223D02*
X0084035Y0280942D01*
X0084035Y0280942D02*
X0084316Y0280661D01*
X0084316Y0280661D02*
X0084598Y0280099D01*
X0084598Y0280099D02*
X0084598Y0278693D01*
X0084598Y0278693D02*
X0084316Y0278130D01*
X0084316Y0278130D02*
X0084035Y0277849D01*
X0078692Y0283192D02*
X0078692Y0286848D01*
X0078692Y0286848D02*
X0080942Y0284879D01*
X0080942Y0284879D02*
X0080942Y0285723D01*
X0080942Y0285723D02*
X0081223Y0286285D01*
X0081223Y0286285D02*
X0081504Y0286567D01*
X0081504Y0286567D02*
X0082067Y0286848D01*
X0082067Y0286848D02*
X0083473Y0286848D01*
X0083473Y0286848D02*
X0084035Y0286567D01*
X0084035Y0286567D02*
X0084316Y0286285D01*
X0084316Y0286285D02*
X0084598Y0285723D01*
X0084598Y0285723D02*
X0084598Y0284036D01*
X0084598Y0284036D02*
X0084316Y0283473D01*
X0084316Y0283473D02*
X0084035Y0283192D01*
X0063731Y0280942D02*
X0063731Y0278130D01*
X0063731Y0278130D02*
X0066544Y0277849D01*
X0066544Y0277849D02*
X0066262Y0278130D01*
X0066262Y0278130D02*
X0065981Y0278693D01*
X0065981Y0278693D02*
X0065981Y0280099D01*
X0065981Y0280099D02*
X0066262Y0280661D01*
X0066262Y0280661D02*
X0066544Y0280942D01*
X0066544Y0280942D02*
X0067106Y0281223D01*
X0067106Y0281223D02*
X0068512Y0281223D01*
X0068512Y0281223D02*
X0069075Y0280942D01*
X0069075Y0280942D02*
X0069356Y0280661D01*
X0069356Y0280661D02*
X0069637Y0280099D01*
X0069637Y0280099D02*
X0069637Y0278693D01*
X0069637Y0278693D02*
X0069356Y0278130D01*
X0069356Y0278130D02*
X0069075Y0277849D01*
X0065700Y0286285D02*
X0069637Y0286285D01*
X0063450Y0284879D02*
X0067668Y0283473D01*
X0067668Y0283473D02*
X0067668Y0287129D01*
X0025936Y0306252D02*
X0029873Y0306252D01*
X0023686Y0304846D02*
X0027905Y0303439D01*
X0027905Y0303439D02*
X0027905Y0307095D01*
X0026499Y0310189D02*
X0026217Y0309626D01*
X0026217Y0309626D02*
X0025936Y0309345D01*
X0025936Y0309345D02*
X0025374Y0309064D01*
X0025374Y0309064D02*
X0025093Y0309064D01*
X0025093Y0309064D02*
X0024530Y0309345D01*
X0024530Y0309345D02*
X0024249Y0309626D01*
X0024249Y0309626D02*
X0023968Y0310189D01*
X0023968Y0310189D02*
X0023968Y0311313D01*
X0023968Y0311313D02*
X0024249Y0311876D01*
X0024249Y0311876D02*
X0024530Y0312157D01*
X0024530Y0312157D02*
X0025093Y0312438D01*
X0025093Y0312438D02*
X0025374Y0312438D01*
X0025374Y0312438D02*
X0025936Y0312157D01*
X0025936Y0312157D02*
X0026217Y0311876D01*
X0026217Y0311876D02*
X0026499Y0311313D01*
X0026499Y0311313D02*
X0026499Y0310189D01*
X0026499Y0310189D02*
X0026780Y0309626D01*
X0026780Y0309626D02*
X0027061Y0309345D01*
X0027061Y0309345D02*
X0027623Y0309064D01*
X0027623Y0309064D02*
X0028748Y0309064D01*
X0028748Y0309064D02*
X0029311Y0309345D01*
X0029311Y0309345D02*
X0029592Y0309626D01*
X0029592Y0309626D02*
X0029873Y0310189D01*
X0029873Y0310189D02*
X0029873Y0311313D01*
X0029873Y0311313D02*
X0029592Y0311876D01*
X0029592Y0311876D02*
X0029311Y0312157D01*
X0029311Y0312157D02*
X0028748Y0312438D01*
X0028748Y0312438D02*
X0027623Y0312438D01*
X0027623Y0312438D02*
X0027061Y0312157D01*
X0027061Y0312157D02*
X0026780Y0311876D01*
X0026780Y0311876D02*
X0026499Y0311313D01*
X0315306Y0340279D02*
X0315306Y0336904D01*
X0315306Y0338591D02*
X0309401Y0338591D01*
X0309401Y0338591D02*
X0310244Y0338029D01*
X0310244Y0338029D02*
X0310807Y0337466D01*
X0310807Y0337466D02*
X0311088Y0336904D01*
X0309401Y0342247D02*
X0309401Y0345903D01*
X0309401Y0345903D02*
X0311650Y0343934D01*
X0311650Y0343934D02*
X0311650Y0344778D01*
X0311650Y0344778D02*
X0311932Y0345340D01*
X0311932Y0345340D02*
X0312213Y0345622D01*
X0312213Y0345622D02*
X0312775Y0345903D01*
X0312775Y0345903D02*
X0314181Y0345903D01*
X0314181Y0345903D02*
X0314744Y0345622D01*
X0314744Y0345622D02*
X0315025Y0345340D01*
X0315025Y0345340D02*
X0315306Y0344778D01*
X0315306Y0344778D02*
X0315306Y0343091D01*
X0315306Y0343091D02*
X0315025Y0342528D01*
X0315025Y0342528D02*
X0314744Y0342247D01*
X0191291Y0354058D02*
X0191291Y0350684D01*
X0191291Y0352371D02*
X0185385Y0352371D01*
X0185385Y0352371D02*
X0186229Y0351808D01*
X0186229Y0351808D02*
X0186791Y0351246D01*
X0186791Y0351246D02*
X0187072Y0350684D01*
X0185947Y0356308D02*
X0185666Y0356589D01*
X0185666Y0356589D02*
X0185385Y0357151D01*
X0185385Y0357151D02*
X0185385Y0358558D01*
X0185385Y0358558D02*
X0185666Y0359120D01*
X0185666Y0359120D02*
X0185947Y0359401D01*
X0185947Y0359401D02*
X0186510Y0359682D01*
X0186510Y0359682D02*
X0187072Y0359682D01*
X0187072Y0359682D02*
X0187916Y0359401D01*
X0187916Y0359401D02*
X0191291Y0356027D01*
X0191291Y0356027D02*
X0191291Y0359682D01*
X0240109Y0280942D02*
X0240109Y0278130D01*
X0240109Y0278130D02*
X0242922Y0277849D01*
X0242922Y0277849D02*
X0242640Y0278130D01*
X0242640Y0278130D02*
X0242359Y0278693D01*
X0242359Y0278693D02*
X0242359Y0280099D01*
X0242359Y0280099D02*
X0242640Y0280661D01*
X0242640Y0280661D02*
X0242922Y0280942D01*
X0242922Y0280942D02*
X0243484Y0281223D01*
X0243484Y0281223D02*
X0244890Y0281223D01*
X0244890Y0281223D02*
X0245453Y0280942D01*
X0245453Y0280942D02*
X0245734Y0280661D01*
X0245734Y0280661D02*
X0246015Y0280099D01*
X0246015Y0280099D02*
X0246015Y0278693D01*
X0246015Y0278693D02*
X0245734Y0278130D01*
X0245734Y0278130D02*
X0245453Y0277849D01*
X0240109Y0283192D02*
X0240109Y0286848D01*
X0240109Y0286848D02*
X0242359Y0284879D01*
X0242359Y0284879D02*
X0242359Y0285723D01*
X0242359Y0285723D02*
X0242640Y0286285D01*
X0242640Y0286285D02*
X0242922Y0286567D01*
X0242922Y0286567D02*
X0243484Y0286848D01*
X0243484Y0286848D02*
X0244890Y0286848D01*
X0244890Y0286848D02*
X0245453Y0286567D01*
X0245453Y0286567D02*
X0245734Y0286285D01*
X0245734Y0286285D02*
X0246015Y0285723D01*
X0246015Y0285723D02*
X0246015Y0284036D01*
X0246015Y0284036D02*
X0245734Y0283473D01*
X0245734Y0283473D02*
X0245453Y0283192D01*
X0195621Y0280942D02*
X0195621Y0278130D01*
X0195621Y0278130D02*
X0198433Y0277849D01*
X0198433Y0277849D02*
X0198152Y0278130D01*
X0198152Y0278130D02*
X0197871Y0278693D01*
X0197871Y0278693D02*
X0197871Y0280099D01*
X0197871Y0280099D02*
X0198152Y0280661D01*
X0198152Y0280661D02*
X0198433Y0280942D01*
X0198433Y0280942D02*
X0198996Y0281223D01*
X0198996Y0281223D02*
X0200402Y0281223D01*
X0200402Y0281223D02*
X0200964Y0280942D01*
X0200964Y0280942D02*
X0201246Y0280661D01*
X0201246Y0280661D02*
X0201527Y0280099D01*
X0201527Y0280099D02*
X0201527Y0278693D01*
X0201527Y0278693D02*
X0201246Y0278130D01*
X0201246Y0278130D02*
X0200964Y0277849D01*
X0195621Y0286285D02*
X0195621Y0285160D01*
X0195621Y0285160D02*
X0195902Y0284598D01*
X0195902Y0284598D02*
X0196184Y0284317D01*
X0196184Y0284317D02*
X0197027Y0283754D01*
X0197027Y0283754D02*
X0198152Y0283473D01*
X0198152Y0283473D02*
X0200402Y0283473D01*
X0200402Y0283473D02*
X0200964Y0283754D01*
X0200964Y0283754D02*
X0201246Y0284036D01*
X0201246Y0284036D02*
X0201527Y0284598D01*
X0201527Y0284598D02*
X0201527Y0285723D01*
X0201527Y0285723D02*
X0201246Y0286285D01*
X0201246Y0286285D02*
X0200964Y0286567D01*
X0200964Y0286567D02*
X0200402Y0286848D01*
X0200402Y0286848D02*
X0198996Y0286848D01*
X0198996Y0286848D02*
X0198433Y0286567D01*
X0198433Y0286567D02*
X0198152Y0286285D01*
X0198152Y0286285D02*
X0197871Y0285723D01*
X0197871Y0285723D02*
X0197871Y0284598D01*
X0197871Y0284598D02*
X0198152Y0284036D01*
X0198152Y0284036D02*
X0198433Y0283754D01*
X0198433Y0283754D02*
X0198996Y0283473D01*
X0315306Y0356870D02*
X0315306Y0353496D01*
X0315306Y0355183D02*
X0309401Y0355183D01*
X0309401Y0355183D02*
X0310244Y0354621D01*
X0310244Y0354621D02*
X0310807Y0354058D01*
X0310807Y0354058D02*
X0311088Y0353496D01*
X0311352Y0289651D02*
X0315289Y0289651D01*
X0309103Y0288245D02*
X0313321Y0286839D01*
X0313321Y0286839D02*
X0313321Y0290495D01*
X0315289Y0293026D02*
X0315289Y0294151D01*
X0315289Y0294151D02*
X0315008Y0294713D01*
X0315008Y0294713D02*
X0314727Y0294994D01*
X0314727Y0294994D02*
X0313883Y0295557D01*
X0313883Y0295557D02*
X0312759Y0295838D01*
X0312759Y0295838D02*
X0310509Y0295838D01*
X0310509Y0295838D02*
X0309946Y0295557D01*
X0309946Y0295557D02*
X0309665Y0295276D01*
X0309665Y0295276D02*
X0309384Y0294713D01*
X0309384Y0294713D02*
X0309384Y0293588D01*
X0309384Y0293588D02*
X0309665Y0293026D01*
X0309665Y0293026D02*
X0309946Y0292745D01*
X0309946Y0292745D02*
X0310509Y0292463D01*
X0310509Y0292463D02*
X0311915Y0292463D01*
X0311915Y0292463D02*
X0312477Y0292745D01*
X0312477Y0292745D02*
X0312759Y0293026D01*
X0312759Y0293026D02*
X0313040Y0293588D01*
X0313040Y0293588D02*
X0313040Y0294713D01*
X0313040Y0294713D02*
X0312759Y0295276D01*
X0312759Y0295276D02*
X0312477Y0295557D01*
X0312477Y0295557D02*
X0311915Y0295838D01*
X0309401Y0301190D02*
X0309401Y0304846D01*
X0309401Y0304846D02*
X0311650Y0302877D01*
X0311650Y0302877D02*
X0311650Y0303721D01*
X0311650Y0303721D02*
X0311932Y0304283D01*
X0311932Y0304283D02*
X0312213Y0304564D01*
X0312213Y0304564D02*
X0312775Y0304846D01*
X0312775Y0304846D02*
X0314181Y0304846D01*
X0314181Y0304846D02*
X0314744Y0304564D01*
X0314744Y0304564D02*
X0315025Y0304283D01*
X0315025Y0304283D02*
X0315306Y0303721D01*
X0315306Y0303721D02*
X0315306Y0302033D01*
X0315306Y0302033D02*
X0315025Y0301471D01*
X0315025Y0301471D02*
X0314744Y0301190D01*
X0309401Y0306814D02*
X0309401Y0310751D01*
X0309401Y0310751D02*
X0315306Y0308220D01*
X0029873Y0354058D02*
X0029873Y0350684D01*
X0029873Y0352371D02*
X0023968Y0352371D01*
X0023968Y0352371D02*
X0024811Y0351808D01*
X0024811Y0351808D02*
X0025374Y0351246D01*
X0025374Y0351246D02*
X0025655Y0350684D01*
X0024530Y0356308D02*
X0024249Y0356589D01*
X0024249Y0356589D02*
X0023968Y0357151D01*
X0023968Y0357151D02*
X0023968Y0358558D01*
X0023968Y0358558D02*
X0024249Y0359120D01*
X0024249Y0359120D02*
X0024530Y0359401D01*
X0024530Y0359401D02*
X0025093Y0359682D01*
X0025093Y0359682D02*
X0025655Y0359682D01*
X0025655Y0359682D02*
X0026499Y0359401D01*
X0026499Y0359401D02*
X0029873Y0356027D01*
X0029873Y0356027D02*
X0029873Y0359682D01*
X0139716Y0280267D02*
X0143653Y0280267D01*
X0137466Y0278861D02*
X0141684Y0277455D01*
X0141684Y0277455D02*
X0141684Y0281111D01*
X0143653Y0283642D02*
X0143653Y0284767D01*
X0143653Y0284767D02*
X0143372Y0285329D01*
X0143372Y0285329D02*
X0143090Y0285610D01*
X0143090Y0285610D02*
X0142247Y0286173D01*
X0142247Y0286173D02*
X0141122Y0286454D01*
X0141122Y0286454D02*
X0138872Y0286454D01*
X0138872Y0286454D02*
X0138310Y0286173D01*
X0138310Y0286173D02*
X0138028Y0285892D01*
X0138028Y0285892D02*
X0137747Y0285329D01*
X0137747Y0285329D02*
X0137747Y0284204D01*
X0137747Y0284204D02*
X0138028Y0283642D01*
X0138028Y0283642D02*
X0138310Y0283361D01*
X0138310Y0283361D02*
X0138872Y0283080D01*
X0138872Y0283080D02*
X0140278Y0283080D01*
X0140278Y0283080D02*
X0140841Y0283361D01*
X0140841Y0283361D02*
X0141122Y0283642D01*
X0141122Y0283642D02*
X0141403Y0284204D01*
X0141403Y0284204D02*
X0141403Y0285329D01*
X0141403Y0285329D02*
X0141122Y0285892D01*
X0141122Y0285892D02*
X0140841Y0286173D01*
X0140841Y0286173D02*
X0140278Y0286454D01*
X0185385Y0316938D02*
X0185385Y0320594D01*
X0185385Y0320594D02*
X0187635Y0318625D01*
X0187635Y0318625D02*
X0187635Y0319469D01*
X0187635Y0319469D02*
X0187916Y0320031D01*
X0187916Y0320031D02*
X0188197Y0320312D01*
X0188197Y0320312D02*
X0188760Y0320594D01*
X0188760Y0320594D02*
X0190166Y0320594D01*
X0190166Y0320594D02*
X0190728Y0320312D01*
X0190728Y0320312D02*
X0191009Y0320031D01*
X0191009Y0320031D02*
X0191291Y0319469D01*
X0191291Y0319469D02*
X0191291Y0317781D01*
X0191291Y0317781D02*
X0191009Y0317219D01*
X0191009Y0317219D02*
X0190728Y0316938D01*
X0185385Y0325655D02*
X0185385Y0324531D01*
X0185385Y0324531D02*
X0185666Y0323968D01*
X0185666Y0323968D02*
X0185947Y0323687D01*
X0185947Y0323687D02*
X0186791Y0323124D01*
X0186791Y0323124D02*
X0187916Y0322843D01*
X0187916Y0322843D02*
X0190166Y0322843D01*
X0190166Y0322843D02*
X0190728Y0323124D01*
X0190728Y0323124D02*
X0191009Y0323406D01*
X0191009Y0323406D02*
X0191291Y0323968D01*
X0191291Y0323968D02*
X0191291Y0325093D01*
X0191291Y0325093D02*
X0191009Y0325655D01*
X0191009Y0325655D02*
X0190728Y0325937D01*
X0190728Y0325937D02*
X0190166Y0326218D01*
X0190166Y0326218D02*
X0188760Y0326218D01*
X0188760Y0326218D02*
X0188197Y0325937D01*
X0188197Y0325937D02*
X0187916Y0325655D01*
X0187916Y0325655D02*
X0187635Y0325093D01*
X0187635Y0325093D02*
X0187635Y0323968D01*
X0187635Y0323968D02*
X0187916Y0323406D01*
X0187916Y0323406D02*
X0188197Y0323124D01*
X0188197Y0323124D02*
X0188760Y0322843D01*
D17*
X0134039Y0244134D02*
X0132610Y0243134D01*
X0134039Y0242420D02*
X0131039Y0242420D01*
X0131039Y0242420D02*
X0131039Y0243563D01*
X0131039Y0243563D02*
X0131182Y0243849D01*
X0131182Y0243849D02*
X0131325Y0243992D01*
X0131325Y0243992D02*
X0131610Y0244134D01*
X0131610Y0244134D02*
X0132039Y0244134D01*
X0132039Y0244134D02*
X0132325Y0243992D01*
X0132325Y0243992D02*
X0132468Y0243849D01*
X0132468Y0243849D02*
X0132610Y0243563D01*
X0132610Y0243563D02*
X0132610Y0242420D01*
X0134039Y0246992D02*
X0134039Y0245277D01*
X0134039Y0246134D02*
X0131039Y0246134D01*
X0131039Y0246134D02*
X0131468Y0245849D01*
X0131468Y0245849D02*
X0131753Y0245563D01*
X0131753Y0245563D02*
X0131896Y0245277D01*
X0131039Y0247992D02*
X0131039Y0249849D01*
X0131039Y0249849D02*
X0132182Y0248849D01*
X0132182Y0248849D02*
X0132182Y0249277D01*
X0132182Y0249277D02*
X0132325Y0249563D01*
X0132325Y0249563D02*
X0132468Y0249706D01*
X0132468Y0249706D02*
X0132753Y0249849D01*
X0132753Y0249849D02*
X0133468Y0249849D01*
X0133468Y0249849D02*
X0133753Y0249706D01*
X0133753Y0249706D02*
X0133896Y0249563D01*
X0133896Y0249563D02*
X0134039Y0249277D01*
X0134039Y0249277D02*
X0134039Y0248420D01*
X0134039Y0248420D02*
X0133896Y0248134D01*
X0133896Y0248134D02*
X0133753Y0247992D01*
X0027326Y0267756D02*
X0025898Y0266756D01*
X0027326Y0266042D02*
X0024326Y0266042D01*
X0024326Y0266042D02*
X0024326Y0267185D01*
X0024326Y0267185D02*
X0024469Y0267471D01*
X0024469Y0267471D02*
X0024612Y0267614D01*
X0024612Y0267614D02*
X0024898Y0267756D01*
X0024898Y0267756D02*
X0025326Y0267756D01*
X0025326Y0267756D02*
X0025612Y0267614D01*
X0025612Y0267614D02*
X0025755Y0267471D01*
X0025755Y0267471D02*
X0025898Y0267185D01*
X0025898Y0267185D02*
X0025898Y0266042D01*
X0027326Y0270614D02*
X0027326Y0268899D01*
X0027326Y0269756D02*
X0024326Y0269756D01*
X0024326Y0269756D02*
X0024755Y0269471D01*
X0024755Y0269471D02*
X0025041Y0269185D01*
X0025041Y0269185D02*
X0025184Y0268899D01*
X0027326Y0273471D02*
X0027326Y0271756D01*
X0027326Y0272614D02*
X0024326Y0272614D01*
X0024326Y0272614D02*
X0024755Y0272328D01*
X0024755Y0272328D02*
X0025041Y0272042D01*
X0025041Y0272042D02*
X0025184Y0271756D01*
X0122087Y0246670D02*
X0121087Y0248098D01*
X0120373Y0246670D02*
X0120373Y0249670D01*
X0120373Y0249670D02*
X0121516Y0249670D01*
X0121516Y0249670D02*
X0121801Y0249527D01*
X0121801Y0249527D02*
X0121944Y0249384D01*
X0121944Y0249384D02*
X0122087Y0249098D01*
X0122087Y0249098D02*
X0122087Y0248670D01*
X0122087Y0248670D02*
X0121944Y0248384D01*
X0121944Y0248384D02*
X0121801Y0248241D01*
X0121801Y0248241D02*
X0121516Y0248098D01*
X0121516Y0248098D02*
X0120373Y0248098D01*
X0124944Y0246670D02*
X0123230Y0246670D01*
X0124087Y0246670D02*
X0124087Y0249670D01*
X0124087Y0249670D02*
X0123801Y0249241D01*
X0123801Y0249241D02*
X0123516Y0248955D01*
X0123516Y0248955D02*
X0123230Y0248812D01*
X0127516Y0248670D02*
X0127516Y0246670D01*
X0126801Y0249812D02*
X0126087Y0247670D01*
X0126087Y0247670D02*
X0127944Y0247670D01*
X0207661Y0271863D02*
X0206661Y0271863D01*
X0206661Y0270292D02*
X0206661Y0273292D01*
X0206661Y0273292D02*
X0208090Y0273292D01*
X0209090Y0273006D02*
X0209233Y0273149D01*
X0209233Y0273149D02*
X0209519Y0273292D01*
X0209519Y0273292D02*
X0210233Y0273292D01*
X0210233Y0273292D02*
X0210519Y0273149D01*
X0210519Y0273149D02*
X0210661Y0273006D01*
X0210661Y0273006D02*
X0210804Y0272720D01*
X0210804Y0272720D02*
X0210804Y0272435D01*
X0210804Y0272435D02*
X0210661Y0272006D01*
X0210661Y0272006D02*
X0208947Y0270292D01*
X0208947Y0270292D02*
X0210804Y0270292D01*
X0109292Y0246670D02*
X0108292Y0248098D01*
X0107578Y0246670D02*
X0107578Y0249670D01*
X0107578Y0249670D02*
X0108720Y0249670D01*
X0108720Y0249670D02*
X0109006Y0249527D01*
X0109006Y0249527D02*
X0109149Y0249384D01*
X0109149Y0249384D02*
X0109292Y0249098D01*
X0109292Y0249098D02*
X0109292Y0248670D01*
X0109292Y0248670D02*
X0109149Y0248384D01*
X0109149Y0248384D02*
X0109006Y0248241D01*
X0109006Y0248241D02*
X0108720Y0248098D01*
X0108720Y0248098D02*
X0107578Y0248098D01*
X0112149Y0246670D02*
X0110435Y0246670D01*
X0111292Y0246670D02*
X0111292Y0249670D01*
X0111292Y0249670D02*
X0111006Y0249241D01*
X0111006Y0249241D02*
X0110720Y0248955D01*
X0110720Y0248955D02*
X0110435Y0248812D01*
X0114863Y0249670D02*
X0113435Y0249670D01*
X0113435Y0249670D02*
X0113292Y0248241D01*
X0113292Y0248241D02*
X0113435Y0248384D01*
X0113435Y0248384D02*
X0113720Y0248527D01*
X0113720Y0248527D02*
X0114435Y0248527D01*
X0114435Y0248527D02*
X0114720Y0248384D01*
X0114720Y0248384D02*
X0114863Y0248241D01*
X0114863Y0248241D02*
X0115006Y0247955D01*
X0115006Y0247955D02*
X0115006Y0247241D01*
X0115006Y0247241D02*
X0114863Y0246955D01*
X0114863Y0246955D02*
X0114720Y0246812D01*
X0114720Y0246812D02*
X0114435Y0246670D01*
X0114435Y0246670D02*
X0113720Y0246670D01*
X0113720Y0246670D02*
X0113435Y0246812D01*
X0113435Y0246812D02*
X0113292Y0246955D01*
X0262386Y0271863D02*
X0261386Y0271863D01*
X0261386Y0270292D02*
X0261386Y0273292D01*
X0261386Y0273292D02*
X0262814Y0273292D01*
X0265529Y0270292D02*
X0263814Y0270292D01*
X0264672Y0270292D02*
X0264672Y0273292D01*
X0264672Y0273292D02*
X0264386Y0272863D01*
X0264386Y0272863D02*
X0264100Y0272577D01*
X0264100Y0272577D02*
X0263814Y0272435D01*
X0197819Y0271863D02*
X0196819Y0271863D01*
X0196819Y0270292D02*
X0196819Y0273292D01*
X0196819Y0273292D02*
X0198247Y0273292D01*
X0199105Y0273292D02*
X0200962Y0273292D01*
X0200962Y0273292D02*
X0199962Y0272149D01*
X0199962Y0272149D02*
X0200390Y0272149D01*
X0200390Y0272149D02*
X0200676Y0272006D01*
X0200676Y0272006D02*
X0200819Y0271863D01*
X0200819Y0271863D02*
X0200962Y0271577D01*
X0200962Y0271577D02*
X0200962Y0270863D01*
X0200962Y0270863D02*
X0200819Y0270577D01*
X0200819Y0270577D02*
X0200676Y0270435D01*
X0200676Y0270435D02*
X0200390Y0270292D01*
X0200390Y0270292D02*
X0199533Y0270292D01*
X0199533Y0270292D02*
X0199247Y0270435D01*
X0199247Y0270435D02*
X0199105Y0270577D01*
X0251469Y0270292D02*
X0250469Y0271720D01*
X0249754Y0270292D02*
X0249754Y0273292D01*
X0249754Y0273292D02*
X0250897Y0273292D01*
X0250897Y0273292D02*
X0251183Y0273149D01*
X0251183Y0273149D02*
X0251326Y0273006D01*
X0251326Y0273006D02*
X0251469Y0272720D01*
X0251469Y0272720D02*
X0251469Y0272292D01*
X0251469Y0272292D02*
X0251326Y0272006D01*
X0251326Y0272006D02*
X0251183Y0271863D01*
X0251183Y0271863D02*
X0250897Y0271720D01*
X0250897Y0271720D02*
X0249754Y0271720D01*
X0254326Y0270292D02*
X0252611Y0270292D01*
X0253469Y0270292D02*
X0253469Y0273292D01*
X0253469Y0273292D02*
X0253183Y0272863D01*
X0253183Y0272863D02*
X0252897Y0272577D01*
X0252897Y0272577D02*
X0252611Y0272435D01*
X0147138Y0246670D02*
X0146138Y0248098D01*
X0145424Y0246670D02*
X0145424Y0249670D01*
X0145424Y0249670D02*
X0146566Y0249670D01*
X0146566Y0249670D02*
X0146852Y0249527D01*
X0146852Y0249527D02*
X0146995Y0249384D01*
X0146995Y0249384D02*
X0147138Y0249098D01*
X0147138Y0249098D02*
X0147138Y0248670D01*
X0147138Y0248670D02*
X0146995Y0248384D01*
X0146995Y0248384D02*
X0146852Y0248241D01*
X0146852Y0248241D02*
X0146566Y0248098D01*
X0146566Y0248098D02*
X0145424Y0248098D01*
X0148566Y0246670D02*
X0149138Y0246670D01*
X0149138Y0246670D02*
X0149424Y0246812D01*
X0149424Y0246812D02*
X0149566Y0246955D01*
X0149566Y0246955D02*
X0149852Y0247384D01*
X0149852Y0247384D02*
X0149995Y0247955D01*
X0149995Y0247955D02*
X0149995Y0249098D01*
X0149995Y0249098D02*
X0149852Y0249384D01*
X0149852Y0249384D02*
X0149709Y0249527D01*
X0149709Y0249527D02*
X0149424Y0249670D01*
X0149424Y0249670D02*
X0148852Y0249670D01*
X0148852Y0249670D02*
X0148566Y0249527D01*
X0148566Y0249527D02*
X0148424Y0249384D01*
X0148424Y0249384D02*
X0148281Y0249098D01*
X0148281Y0249098D02*
X0148281Y0248384D01*
X0148281Y0248384D02*
X0148424Y0248098D01*
X0148424Y0248098D02*
X0148566Y0247955D01*
X0148566Y0247955D02*
X0148852Y0247812D01*
X0148852Y0247812D02*
X0149424Y0247812D01*
X0149424Y0247812D02*
X0149709Y0247955D01*
X0149709Y0247955D02*
X0149852Y0248098D01*
X0149852Y0248098D02*
X0149995Y0248384D01*
X0302650Y0270292D02*
X0301650Y0271720D01*
X0300935Y0270292D02*
X0300935Y0273292D01*
X0300935Y0273292D02*
X0302078Y0273292D01*
X0302078Y0273292D02*
X0302364Y0273149D01*
X0302364Y0273149D02*
X0302507Y0273006D01*
X0302507Y0273006D02*
X0302650Y0272720D01*
X0302650Y0272720D02*
X0302650Y0272292D01*
X0302650Y0272292D02*
X0302507Y0272006D01*
X0302507Y0272006D02*
X0302364Y0271863D01*
X0302364Y0271863D02*
X0302078Y0271720D01*
X0302078Y0271720D02*
X0300935Y0271720D01*
X0305221Y0273292D02*
X0304650Y0273292D01*
X0304650Y0273292D02*
X0304364Y0273149D01*
X0304364Y0273149D02*
X0304221Y0273006D01*
X0304221Y0273006D02*
X0303935Y0272577D01*
X0303935Y0272577D02*
X0303792Y0272006D01*
X0303792Y0272006D02*
X0303792Y0270863D01*
X0303792Y0270863D02*
X0303935Y0270577D01*
X0303935Y0270577D02*
X0304078Y0270435D01*
X0304078Y0270435D02*
X0304364Y0270292D01*
X0304364Y0270292D02*
X0304935Y0270292D01*
X0304935Y0270292D02*
X0305221Y0270435D01*
X0305221Y0270435D02*
X0305364Y0270577D01*
X0305364Y0270577D02*
X0305507Y0270863D01*
X0305507Y0270863D02*
X0305507Y0271577D01*
X0305507Y0271577D02*
X0305364Y0271863D01*
X0305364Y0271863D02*
X0305221Y0272006D01*
X0305221Y0272006D02*
X0304935Y0272149D01*
X0304935Y0272149D02*
X0304364Y0272149D01*
X0304364Y0272149D02*
X0304078Y0272006D01*
X0304078Y0272006D02*
X0303935Y0271863D01*
X0303935Y0271863D02*
X0303792Y0271577D01*
X0280602Y0270292D02*
X0279602Y0271720D01*
X0278888Y0270292D02*
X0278888Y0273292D01*
X0278888Y0273292D02*
X0280031Y0273292D01*
X0280031Y0273292D02*
X0280317Y0273149D01*
X0280317Y0273149D02*
X0280460Y0273006D01*
X0280460Y0273006D02*
X0280602Y0272720D01*
X0280602Y0272720D02*
X0280602Y0272292D01*
X0280602Y0272292D02*
X0280460Y0272006D01*
X0280460Y0272006D02*
X0280317Y0271863D01*
X0280317Y0271863D02*
X0280031Y0271720D01*
X0280031Y0271720D02*
X0278888Y0271720D01*
X0283174Y0272292D02*
X0283174Y0270292D01*
X0282460Y0273435D02*
X0281745Y0271292D01*
X0281745Y0271292D02*
X0283602Y0271292D01*
X0288083Y0270292D02*
X0287083Y0271720D01*
X0286368Y0270292D02*
X0286368Y0273292D01*
X0286368Y0273292D02*
X0287511Y0273292D01*
X0287511Y0273292D02*
X0287797Y0273149D01*
X0287797Y0273149D02*
X0287940Y0273006D01*
X0287940Y0273006D02*
X0288083Y0272720D01*
X0288083Y0272720D02*
X0288083Y0272292D01*
X0288083Y0272292D02*
X0287940Y0272006D01*
X0287940Y0272006D02*
X0287797Y0271863D01*
X0287797Y0271863D02*
X0287511Y0271720D01*
X0287511Y0271720D02*
X0286368Y0271720D01*
X0289797Y0272006D02*
X0289511Y0272149D01*
X0289511Y0272149D02*
X0289368Y0272292D01*
X0289368Y0272292D02*
X0289226Y0272577D01*
X0289226Y0272577D02*
X0289226Y0272720D01*
X0289226Y0272720D02*
X0289368Y0273006D01*
X0289368Y0273006D02*
X0289511Y0273149D01*
X0289511Y0273149D02*
X0289797Y0273292D01*
X0289797Y0273292D02*
X0290368Y0273292D01*
X0290368Y0273292D02*
X0290654Y0273149D01*
X0290654Y0273149D02*
X0290797Y0273006D01*
X0290797Y0273006D02*
X0290940Y0272720D01*
X0290940Y0272720D02*
X0290940Y0272577D01*
X0290940Y0272577D02*
X0290797Y0272292D01*
X0290797Y0272292D02*
X0290654Y0272149D01*
X0290654Y0272149D02*
X0290368Y0272006D01*
X0290368Y0272006D02*
X0289797Y0272006D01*
X0289797Y0272006D02*
X0289511Y0271863D01*
X0289511Y0271863D02*
X0289368Y0271720D01*
X0289368Y0271720D02*
X0289226Y0271435D01*
X0289226Y0271435D02*
X0289226Y0270863D01*
X0289226Y0270863D02*
X0289368Y0270577D01*
X0289368Y0270577D02*
X0289511Y0270435D01*
X0289511Y0270435D02*
X0289797Y0270292D01*
X0289797Y0270292D02*
X0290368Y0270292D01*
X0290368Y0270292D02*
X0290654Y0270435D01*
X0290654Y0270435D02*
X0290797Y0270577D01*
X0290797Y0270577D02*
X0290940Y0270863D01*
X0290940Y0270863D02*
X0290940Y0271435D01*
X0290940Y0271435D02*
X0290797Y0271720D01*
X0290797Y0271720D02*
X0290654Y0271863D01*
X0290654Y0271863D02*
X0290368Y0272006D01*
X0137835Y0246670D02*
X0136835Y0248098D01*
X0136121Y0246670D02*
X0136121Y0249670D01*
X0136121Y0249670D02*
X0137264Y0249670D01*
X0137264Y0249670D02*
X0137549Y0249527D01*
X0137549Y0249527D02*
X0137692Y0249384D01*
X0137692Y0249384D02*
X0137835Y0249098D01*
X0137835Y0249098D02*
X0137835Y0248670D01*
X0137835Y0248670D02*
X0137692Y0248384D01*
X0137692Y0248384D02*
X0137549Y0248241D01*
X0137549Y0248241D02*
X0137264Y0248098D01*
X0137264Y0248098D02*
X0136121Y0248098D01*
X0140692Y0246670D02*
X0138978Y0246670D01*
X0139835Y0246670D02*
X0139835Y0249670D01*
X0139835Y0249670D02*
X0139549Y0249241D01*
X0139549Y0249241D02*
X0139264Y0248955D01*
X0139264Y0248955D02*
X0138978Y0248812D01*
X0142549Y0249670D02*
X0142835Y0249670D01*
X0142835Y0249670D02*
X0143121Y0249527D01*
X0143121Y0249527D02*
X0143264Y0249384D01*
X0143264Y0249384D02*
X0143407Y0249098D01*
X0143407Y0249098D02*
X0143549Y0248527D01*
X0143549Y0248527D02*
X0143549Y0247812D01*
X0143549Y0247812D02*
X0143407Y0247241D01*
X0143407Y0247241D02*
X0143264Y0246955D01*
X0143264Y0246955D02*
X0143121Y0246812D01*
X0143121Y0246812D02*
X0142835Y0246670D01*
X0142835Y0246670D02*
X0142549Y0246670D01*
X0142549Y0246670D02*
X0142264Y0246812D01*
X0142264Y0246812D02*
X0142121Y0246955D01*
X0142121Y0246955D02*
X0141978Y0247241D01*
X0141978Y0247241D02*
X0141835Y0247812D01*
X0141835Y0247812D02*
X0141835Y0248527D01*
X0141835Y0248527D02*
X0141978Y0249098D01*
X0141978Y0249098D02*
X0142121Y0249384D01*
X0142121Y0249384D02*
X0142264Y0249527D01*
X0142264Y0249527D02*
X0142549Y0249670D01*
X0295169Y0270292D02*
X0294169Y0271720D01*
X0293455Y0270292D02*
X0293455Y0273292D01*
X0293455Y0273292D02*
X0294598Y0273292D01*
X0294598Y0273292D02*
X0294884Y0273149D01*
X0294884Y0273149D02*
X0295026Y0273006D01*
X0295026Y0273006D02*
X0295169Y0272720D01*
X0295169Y0272720D02*
X0295169Y0272292D01*
X0295169Y0272292D02*
X0295026Y0272006D01*
X0295026Y0272006D02*
X0294884Y0271863D01*
X0294884Y0271863D02*
X0294598Y0271720D01*
X0294598Y0271720D02*
X0293455Y0271720D01*
X0296169Y0273292D02*
X0298169Y0273292D01*
X0298169Y0273292D02*
X0296884Y0270292D01*
X0094528Y0246670D02*
X0093528Y0248098D01*
X0092814Y0246670D02*
X0092814Y0249670D01*
X0092814Y0249670D02*
X0093957Y0249670D01*
X0093957Y0249670D02*
X0094242Y0249527D01*
X0094242Y0249527D02*
X0094385Y0249384D01*
X0094385Y0249384D02*
X0094528Y0249098D01*
X0094528Y0249098D02*
X0094528Y0248670D01*
X0094528Y0248670D02*
X0094385Y0248384D01*
X0094385Y0248384D02*
X0094242Y0248241D01*
X0094242Y0248241D02*
X0093957Y0248098D01*
X0093957Y0248098D02*
X0092814Y0248098D01*
X0097385Y0246670D02*
X0095671Y0246670D01*
X0096528Y0246670D02*
X0096528Y0249670D01*
X0096528Y0249670D02*
X0096242Y0249241D01*
X0096242Y0249241D02*
X0095957Y0248955D01*
X0095957Y0248955D02*
X0095671Y0248812D01*
X0099957Y0249670D02*
X0099385Y0249670D01*
X0099385Y0249670D02*
X0099100Y0249527D01*
X0099100Y0249527D02*
X0098957Y0249384D01*
X0098957Y0249384D02*
X0098671Y0248955D01*
X0098671Y0248955D02*
X0098528Y0248384D01*
X0098528Y0248384D02*
X0098528Y0247241D01*
X0098528Y0247241D02*
X0098671Y0246955D01*
X0098671Y0246955D02*
X0098814Y0246812D01*
X0098814Y0246812D02*
X0099100Y0246670D01*
X0099100Y0246670D02*
X0099671Y0246670D01*
X0099671Y0246670D02*
X0099957Y0246812D01*
X0099957Y0246812D02*
X0100100Y0246955D01*
X0100100Y0246955D02*
X0100242Y0247241D01*
X0100242Y0247241D02*
X0100242Y0247955D01*
X0100242Y0247955D02*
X0100100Y0248241D01*
X0100100Y0248241D02*
X0099957Y0248384D01*
X0099957Y0248384D02*
X0099671Y0248527D01*
X0099671Y0248527D02*
X0099100Y0248527D01*
X0099100Y0248527D02*
X0098814Y0248384D01*
X0098814Y0248384D02*
X0098671Y0248241D01*
X0098671Y0248241D02*
X0098528Y0247955D01*
X0227059Y0270292D02*
X0226059Y0271720D01*
X0225345Y0270292D02*
X0225345Y0273292D01*
X0225345Y0273292D02*
X0226488Y0273292D01*
X0226488Y0273292D02*
X0226773Y0273149D01*
X0226773Y0273149D02*
X0226916Y0273006D01*
X0226916Y0273006D02*
X0227059Y0272720D01*
X0227059Y0272720D02*
X0227059Y0272292D01*
X0227059Y0272292D02*
X0226916Y0272006D01*
X0226916Y0272006D02*
X0226773Y0271863D01*
X0226773Y0271863D02*
X0226488Y0271720D01*
X0226488Y0271720D02*
X0225345Y0271720D01*
X0229773Y0273292D02*
X0228345Y0273292D01*
X0228345Y0273292D02*
X0228202Y0271863D01*
X0228202Y0271863D02*
X0228345Y0272006D01*
X0228345Y0272006D02*
X0228630Y0272149D01*
X0228630Y0272149D02*
X0229345Y0272149D01*
X0229345Y0272149D02*
X0229630Y0272006D01*
X0229630Y0272006D02*
X0229773Y0271863D01*
X0229773Y0271863D02*
X0229916Y0271577D01*
X0229916Y0271577D02*
X0229916Y0270863D01*
X0229916Y0270863D02*
X0229773Y0270577D01*
X0229773Y0270577D02*
X0229630Y0270435D01*
X0229630Y0270435D02*
X0229345Y0270292D01*
X0229345Y0270292D02*
X0228630Y0270292D01*
X0228630Y0270292D02*
X0228345Y0270435D01*
X0228345Y0270435D02*
X0228202Y0270577D01*
X0237689Y0270292D02*
X0236689Y0271720D01*
X0235975Y0270292D02*
X0235975Y0273292D01*
X0235975Y0273292D02*
X0237118Y0273292D01*
X0237118Y0273292D02*
X0237403Y0273149D01*
X0237403Y0273149D02*
X0237546Y0273006D01*
X0237546Y0273006D02*
X0237689Y0272720D01*
X0237689Y0272720D02*
X0237689Y0272292D01*
X0237689Y0272292D02*
X0237546Y0272006D01*
X0237546Y0272006D02*
X0237403Y0271863D01*
X0237403Y0271863D02*
X0237118Y0271720D01*
X0237118Y0271720D02*
X0235975Y0271720D01*
X0238832Y0273006D02*
X0238975Y0273149D01*
X0238975Y0273149D02*
X0239260Y0273292D01*
X0239260Y0273292D02*
X0239975Y0273292D01*
X0239975Y0273292D02*
X0240260Y0273149D01*
X0240260Y0273149D02*
X0240403Y0273006D01*
X0240403Y0273006D02*
X0240546Y0272720D01*
X0240546Y0272720D02*
X0240546Y0272435D01*
X0240546Y0272435D02*
X0240403Y0272006D01*
X0240403Y0272006D02*
X0238689Y0270292D01*
X0238689Y0270292D02*
X0240546Y0270292D01*
X0217217Y0270292D02*
X0216217Y0271720D01*
X0215502Y0270292D02*
X0215502Y0273292D01*
X0215502Y0273292D02*
X0216645Y0273292D01*
X0216645Y0273292D02*
X0216931Y0273149D01*
X0216931Y0273149D02*
X0217074Y0273006D01*
X0217074Y0273006D02*
X0217217Y0272720D01*
X0217217Y0272720D02*
X0217217Y0272292D01*
X0217217Y0272292D02*
X0217074Y0272006D01*
X0217074Y0272006D02*
X0216931Y0271863D01*
X0216931Y0271863D02*
X0216645Y0271720D01*
X0216645Y0271720D02*
X0215502Y0271720D01*
X0218217Y0273292D02*
X0220074Y0273292D01*
X0220074Y0273292D02*
X0219074Y0272149D01*
X0219074Y0272149D02*
X0219502Y0272149D01*
X0219502Y0272149D02*
X0219788Y0272006D01*
X0219788Y0272006D02*
X0219931Y0271863D01*
X0219931Y0271863D02*
X0220074Y0271577D01*
X0220074Y0271577D02*
X0220074Y0270863D01*
X0220074Y0270863D02*
X0219931Y0270577D01*
X0219931Y0270577D02*
X0219788Y0270435D01*
X0219788Y0270435D02*
X0219502Y0270292D01*
X0219502Y0270292D02*
X0218645Y0270292D01*
X0218645Y0270292D02*
X0218359Y0270435D01*
X0218359Y0270435D02*
X0218217Y0270577D01*
X0282838Y0277599D02*
X0281410Y0276599D01*
X0282838Y0275885D02*
X0279838Y0275885D01*
X0279838Y0275885D02*
X0279838Y0277028D01*
X0279838Y0277028D02*
X0279981Y0277313D01*
X0279981Y0277313D02*
X0280124Y0277456D01*
X0280124Y0277456D02*
X0280410Y0277599D01*
X0280410Y0277599D02*
X0280838Y0277599D01*
X0280838Y0277599D02*
X0281124Y0277456D01*
X0281124Y0277456D02*
X0281267Y0277313D01*
X0281267Y0277313D02*
X0281410Y0277028D01*
X0281410Y0277028D02*
X0281410Y0275885D01*
X0279838Y0280313D02*
X0279838Y0278885D01*
X0279838Y0278885D02*
X0281267Y0278742D01*
X0281267Y0278742D02*
X0281124Y0278885D01*
X0281124Y0278885D02*
X0280981Y0279170D01*
X0280981Y0279170D02*
X0280981Y0279885D01*
X0280981Y0279885D02*
X0281124Y0280170D01*
X0281124Y0280170D02*
X0281267Y0280313D01*
X0281267Y0280313D02*
X0281553Y0280456D01*
X0281553Y0280456D02*
X0282267Y0280456D01*
X0282267Y0280456D02*
X0282553Y0280313D01*
X0282553Y0280313D02*
X0282695Y0280170D01*
X0282695Y0280170D02*
X0282838Y0279885D01*
X0282838Y0279885D02*
X0282838Y0279170D01*
X0282838Y0279170D02*
X0282695Y0278885D01*
X0282695Y0278885D02*
X0282553Y0278742D01*
X0280838Y0283028D02*
X0282838Y0283028D01*
X0279695Y0282313D02*
X0281838Y0281599D01*
X0281838Y0281599D02*
X0281838Y0283456D01*
D18*
X0000000Y0274474D02*
X0339764Y0274474D01*
X0367733Y0274474D02*
D19*
X0128740Y0263811D02*
X0128740Y0267811D01*
X0128740Y0255811D02*
X0128740Y0259811D01*
X0135039Y0267811D02*
X0135039Y0263811D01*
X0135039Y0259811D02*
X0135039Y0255811D01*
D20*
X0128726Y0268046D02*
G75*
G02*
X0135039Y0268012I0003163J0001265D01*
G01*
X0135039Y0255610D02*
G75*
G02*
X0128734Y0255594I-003150J-001299D01*
G01*
D19*
X0033744Y0272835D02*
X0037744Y0272835D01*
X0037744Y0266535D02*
X0033744Y0266535D01*
X0041744Y0272835D02*
X0045744Y0272835D01*
X0045744Y0266535D02*
X0041744Y0266535D01*
D20*
X0033509Y0266522D02*
G75*
G02*
X0033543Y0272835I-001265J0003163D01*
G01*
X0045945Y0272835D02*
G75*
G02*
X0045961Y0266529I0001299J-003150D01*
G01*
D19*
X0120866Y0263811D02*
X0120866Y0267811D01*
X0120866Y0255811D02*
X0120866Y0259811D01*
X0127165Y0267811D02*
X0127165Y0263811D01*
X0127165Y0259811D02*
X0127165Y0255811D01*
D20*
X0120852Y0268046D02*
G75*
G02*
X0127165Y0268012I0003163J0001265D01*
G01*
X0127165Y0255610D02*
G75*
G02*
X0120860Y0255594I-003150J-001299D01*
G01*
D19*
X0083465Y0263811D02*
X0083465Y0267811D01*
X0083465Y0255811D02*
X0083465Y0259811D01*
X0089764Y0267811D02*
X0089764Y0263811D01*
X0089764Y0259811D02*
X0089764Y0255811D01*
D20*
X0083451Y0268046D02*
G75*
G02*
X0089764Y0268012I0003163J0001265D01*
G01*
X0089764Y0255610D02*
G75*
G02*
X0083458Y0255594I-003150J-001299D01*
G01*
X0204724Y0265354D02*
X0204724Y0246260D01*
X0212598Y0265354D02*
X0212598Y0246260D01*
X0204724Y0265551D02*
G75*
G02*
X0212598Y0265551I0003937J0000000D01*
G01*
X0212598Y0246260D02*
G75*
G02*
X0204724Y0246260I-003937J0000000D01*
G01*
D19*
X0108071Y0263811D02*
X0108071Y0267811D01*
X0108071Y0255811D02*
X0108071Y0259811D01*
X0114370Y0267811D02*
X0114370Y0263811D01*
X0114370Y0259811D02*
X0114370Y0255811D01*
D20*
X0108057Y0268046D02*
G75*
G02*
X0114370Y0268012I0003163J0001265D01*
G01*
X0114370Y0255610D02*
G75*
G02*
X0108064Y0255594I-003150J-001299D01*
G01*
X0265354Y0267323D02*
X0265354Y0248228D01*
X0273228Y0267323D02*
X0273228Y0248228D01*
X0265354Y0267520D02*
G75*
G02*
X0273228Y0267520I0003937J0000000D01*
G01*
X0273228Y0248228D02*
G75*
G02*
X0265354Y0248228I-003937J0000000D01*
G01*
X0194882Y0265354D02*
X0194882Y0246260D01*
X0202756Y0265354D02*
X0202756Y0246260D01*
X0194882Y0265551D02*
G75*
G02*
X0202756Y0265551I0003937J0000000D01*
G01*
X0202756Y0246260D02*
G75*
G02*
X0194882Y0246260I-003937J0000000D01*
G01*
D19*
X0248819Y0259874D02*
X0248819Y0263874D01*
X0248819Y0251874D02*
X0248819Y0255874D01*
X0255118Y0263874D02*
X0255118Y0259874D01*
X0255118Y0255874D02*
X0255118Y0251874D01*
D20*
X0248805Y0264109D02*
G75*
G02*
X0255118Y0264075I0003163J0001265D01*
G01*
X0255118Y0251673D02*
G75*
G02*
X0248812Y0251657I-003150J-001299D01*
G01*
D19*
X0144488Y0263811D02*
X0144488Y0267811D01*
X0144488Y0255811D02*
X0144488Y0259811D01*
X0150787Y0267811D02*
X0150787Y0263811D01*
X0150787Y0259811D02*
X0150787Y0255811D01*
D20*
X0144474Y0268046D02*
G75*
G02*
X0150787Y0268012I0003163J0001265D01*
G01*
X0150787Y0255610D02*
G75*
G02*
X0144482Y0255594I-003150J-001299D01*
G01*
D19*
X0300000Y0259874D02*
X0300000Y0263874D01*
X0300000Y0251874D02*
X0300000Y0255874D01*
X0306299Y0263874D02*
X0306299Y0259874D01*
X0306299Y0255874D02*
X0306299Y0251874D01*
D20*
X0299986Y0264109D02*
G75*
G02*
X0306299Y0264075I0003163J0001265D01*
G01*
X0306299Y0251673D02*
G75*
G02*
X0299994Y0251657I-003150J-001299D01*
G01*
D19*
X0277953Y0259874D02*
X0277953Y0263874D01*
X0277953Y0251874D02*
X0277953Y0255874D01*
X0284252Y0263874D02*
X0284252Y0259874D01*
X0284252Y0255874D02*
X0284252Y0251874D01*
D20*
X0277939Y0264109D02*
G75*
G02*
X0284252Y0264075I0003163J0001265D01*
G01*
X0284252Y0251673D02*
G75*
G02*
X0277946Y0251657I-003150J-001299D01*
G01*
D19*
X0285433Y0259874D02*
X0285433Y0263874D01*
X0285433Y0251874D02*
X0285433Y0255874D01*
X0291732Y0263874D02*
X0291732Y0259874D01*
X0291732Y0255874D02*
X0291732Y0251874D01*
D20*
X0285419Y0264109D02*
G75*
G02*
X0291732Y0264075I0003163J0001265D01*
G01*
X0291732Y0251673D02*
G75*
G02*
X0285427Y0251657I-003150J-001299D01*
G01*
D19*
X0136614Y0263811D02*
X0136614Y0267811D01*
X0136614Y0255811D02*
X0136614Y0259811D01*
X0142913Y0267811D02*
X0142913Y0263811D01*
X0142913Y0259811D02*
X0142913Y0255811D01*
D20*
X0136600Y0268046D02*
G75*
G02*
X0142913Y0268012I0003163J0001265D01*
G01*
X0142913Y0255610D02*
G75*
G02*
X0136608Y0255594I-003150J-001299D01*
G01*
D19*
X0292520Y0259874D02*
X0292520Y0263874D01*
X0292520Y0251874D02*
X0292520Y0255874D01*
X0298819Y0263874D02*
X0298819Y0259874D01*
X0298819Y0255874D02*
X0298819Y0251874D01*
D20*
X0292506Y0264109D02*
G75*
G02*
X0298819Y0264075I0003163J0001265D01*
G01*
X0298819Y0251673D02*
G75*
G02*
X0292513Y0251657I-003150J-001299D01*
G01*
D19*
X0093307Y0263811D02*
X0093307Y0267811D01*
X0093307Y0255811D02*
X0093307Y0259811D01*
X0099606Y0267811D02*
X0099606Y0263811D01*
X0099606Y0259811D02*
X0099606Y0255811D01*
D20*
X0093293Y0268046D02*
G75*
G02*
X0099606Y0268012I0003163J0001265D01*
G01*
X0099606Y0255610D02*
G75*
G02*
X0093301Y0255594I-003150J-001299D01*
G01*
D19*
X0224409Y0259874D02*
X0224409Y0263874D01*
X0224409Y0251874D02*
X0224409Y0255874D01*
X0230709Y0263874D02*
X0230709Y0259874D01*
X0230709Y0255874D02*
X0230709Y0251874D01*
D20*
X0224396Y0264109D02*
G75*
G02*
X0230709Y0264075I0003163J0001265D01*
G01*
X0230709Y0251673D02*
G75*
G02*
X0224403Y0251657I-003150J-001299D01*
G01*
D19*
X0235039Y0259874D02*
X0235039Y0263874D01*
X0235039Y0251874D02*
X0235039Y0255874D01*
X0241339Y0263874D02*
X0241339Y0259874D01*
X0241339Y0255874D02*
X0241339Y0251874D01*
D20*
X0235026Y0264109D02*
G75*
G02*
X0241339Y0264075I0003163J0001265D01*
G01*
X0241339Y0251673D02*
G75*
G02*
X0235033Y0251657I-003150J-001299D01*
G01*
D19*
X0214567Y0259874D02*
X0214567Y0263874D01*
X0214567Y0251874D02*
X0214567Y0255874D01*
X0220866Y0263874D02*
X0220866Y0259874D01*
X0220866Y0255874D02*
X0220866Y0251874D01*
D20*
X0214553Y0264109D02*
G75*
G02*
X0220866Y0264075I0003163J0001265D01*
G01*
X0220866Y0251673D02*
G75*
G02*
X0214560Y0251657I-003150J-001299D01*
G01*
D19*
X0289256Y0276378D02*
X0293256Y0276378D01*
X0293256Y0282677D02*
X0289256Y0282677D01*
X0297256Y0276378D02*
X0301256Y0276378D01*
X0301256Y0282677D02*
X0297256Y0282677D01*
D20*
X0289055Y0276378D02*
G75*
G02*
X0289039Y0282684I-001299J0003150D01*
G01*
X0301491Y0282691D02*
G75*
G02*
X0301457Y0276378I0001265J-003163D01*
G01*
M02*
