G04 #@! TF.GenerationSoftware,KiCad,Pcbnew,8.0.6-8.0.6-0~ubuntu22.04.1*
G04 #@! TF.CreationDate,2024-11-30T08:22:39+00:00*
G04 #@! TF.ProjectId,hellen-112-17,68656c6c-656e-42d3-9131-322d31372e6b,B*
G04 #@! TF.SameCoordinates,Original*
G04 #@! TF.FileFunction,Copper,L1,Top*
G04 #@! TF.FilePolarity,Positive*
%FSLAX46Y46*%
G04 Gerber Fmt 4.6, Leading zero omitted, Abs format (unit mm)*
G04 Created by KiCad (PCBNEW 8.0.6-8.0.6-0~ubuntu22.04.1) date 2024-11-30 08:22:39*
%MOMM*%
%LPD*%
G01*
G04 APERTURE LIST*
G04 #@! TA.AperFunction,ComponentPad*
%ADD10C,1.500000*%
G04 #@! TD*
G04 #@! TA.AperFunction,ComponentPad*
%ADD11C,1.524000*%
G04 #@! TD*
G04 #@! TA.AperFunction,ComponentPad*
%ADD12C,0.600000*%
G04 #@! TD*
G04 #@! TA.AperFunction,SMDPad,CuDef*
%ADD13R,3.700000X0.200000*%
G04 #@! TD*
G04 #@! TA.AperFunction,SMDPad,CuDef*
%ADD14R,0.400000X0.200000*%
G04 #@! TD*
G04 #@! TA.AperFunction,SMDPad,CuDef*
%ADD15R,1.600000X0.200000*%
G04 #@! TD*
G04 #@! TA.AperFunction,SMDPad,CuDef*
%ADD16R,9.700000X0.200000*%
G04 #@! TD*
G04 #@! TA.AperFunction,SMDPad,CuDef*
%ADD17R,2.300000X0.200000*%
G04 #@! TD*
G04 #@! TA.AperFunction,SMDPad,CuDef*
%ADD18R,0.200000X1.400000*%
G04 #@! TD*
G04 #@! TA.AperFunction,SMDPad,CuDef*
%ADD19R,0.200000X6.400000*%
G04 #@! TD*
G04 #@! TA.AperFunction,SMDPad,CuDef*
%ADD20R,0.200000X1.700000*%
G04 #@! TD*
G04 #@! TA.AperFunction,SMDPad,CuDef*
%ADD21R,0.200000X3.300000*%
G04 #@! TD*
G04 #@! TA.AperFunction,SMDPad,CuDef*
%ADD22R,7.000000X0.200000*%
G04 #@! TD*
G04 #@! TA.AperFunction,SMDPad,CuDef*
%ADD23R,3.300000X0.200000*%
G04 #@! TD*
G04 #@! TA.AperFunction,SMDPad,CuDef*
%ADD24R,6.300000X0.200000*%
G04 #@! TD*
G04 #@! TA.AperFunction,ViaPad*
%ADD25C,0.800000*%
G04 #@! TD*
G04 #@! TA.AperFunction,Conductor*
%ADD26C,0.200000*%
G04 #@! TD*
G04 #@! TA.AperFunction,Conductor*
%ADD27C,0.500000*%
G04 #@! TD*
G04 #@! TA.AperFunction,Conductor*
%ADD28C,1.000000*%
G04 #@! TD*
G04 APERTURE END LIST*
D10*
G04 #@! TO.P,J1,1,1A*
G04 #@! TO.N,/OUT_LS_101*
X77404267Y89716479D03*
G04 #@! TO.P,J1,2,2A*
G04 #@! TO.N,/OUT_LS_102*
X74904267Y89716479D03*
G04 #@! TO.P,J1,3,3A*
G04 #@! TO.N,GNDA*
X72404267Y89716479D03*
G04 #@! TO.P,J1,4,4A*
X69904267Y89716479D03*
G04 #@! TO.P,J1,5,5A*
X67404267Y89716479D03*
G04 #@! TO.P,J1,6,6A*
X64904267Y89716479D03*
G04 #@! TO.P,J1,7,7A*
G04 #@! TO.N,Net-(J1-7A)*
X62404267Y89716479D03*
G04 #@! TO.P,J1,8,8A*
G04 #@! TO.N,Net-(J1-8A)*
X59904267Y89716479D03*
G04 #@! TO.P,J1,9,9A*
G04 #@! TO.N,/IN_AV_109*
X57404267Y89716479D03*
G04 #@! TO.P,J1,10,10A*
G04 #@! TO.N,/IN_AV_110*
X54904267Y89716479D03*
G04 #@! TO.P,J1,11,11A*
G04 #@! TO.N,Net-(J1-11A)*
X52404267Y89716479D03*
G04 #@! TO.P,J1,12,12A*
G04 #@! TO.N,/IN_AV_112*
X49904267Y89716479D03*
G04 #@! TO.P,J1,13,13A*
G04 #@! TO.N,/IN_DIGITAL_113*
X77404267Y87216479D03*
G04 #@! TO.P,J1,14,14A*
G04 #@! TO.N,Net-(J1-14A)*
X74904267Y87216479D03*
G04 #@! TO.P,J1,15,15A*
G04 #@! TO.N,/OUT_MAIN_RELAY*
X72404267Y87216479D03*
G04 #@! TO.P,J1,16,16A*
G04 #@! TO.N,Net-(J1-16A)*
X69904267Y87216479D03*
G04 #@! TO.P,J1,17,17A*
G04 #@! TO.N,unconnected-(J1-17A-Pad17)*
X67404267Y87216479D03*
G04 #@! TO.P,J1,18,18A*
G04 #@! TO.N,unconnected-(J1-18A-Pad18)*
X64904267Y87216479D03*
G04 #@! TO.P,J1,19,19A*
G04 #@! TO.N,/IN_AV_119*
X62404267Y87216479D03*
G04 #@! TO.P,J1,20,20A*
G04 #@! TO.N,/IN_DIGITAL_120*
X59904267Y87216479D03*
G04 #@! TO.P,J1,21,21A*
G04 #@! TO.N,Net-(J1-21A)*
X57404267Y87216479D03*
G04 #@! TO.P,J1,22,22A*
G04 #@! TO.N,unconnected-(J1-22A-Pad22)*
X54904267Y87216479D03*
G04 #@! TO.P,J1,23,23A*
G04 #@! TO.N,/IN_DIGITAL_123*
X52404267Y87216479D03*
G04 #@! TO.P,J1,24,24A*
G04 #@! TO.N,unconnected-(J1-24A-Pad24)*
X49904267Y87216479D03*
G04 #@! TO.P,J1,25,25A*
G04 #@! TO.N,Net-(J1-25A)*
X77404267Y81216479D03*
G04 #@! TO.P,J1,26,26A*
G04 #@! TO.N,Net-(J1-26A)*
X74904267Y81216479D03*
G04 #@! TO.P,J1,27,27A*
G04 #@! TO.N,unconnected-(J1-27A-Pad27)*
X72404267Y81216479D03*
G04 #@! TO.P,J1,28,28A*
G04 #@! TO.N,/OUT_TACH*
X69904267Y81216479D03*
G04 #@! TO.P,J1,29,29A*
G04 #@! TO.N,/OUT_FUEL_CONSUMPTION*
X67404267Y81216479D03*
G04 #@! TO.P,J1,30,30A*
G04 #@! TO.N,unconnected-(J1-30A-Pad30)*
X64904267Y81216479D03*
G04 #@! TO.P,J1,31,31A*
G04 #@! TO.N,/OUT_AC_RELAY*
X62404267Y81216479D03*
G04 #@! TO.P,J1,32,32A*
G04 #@! TO.N,/CAN+*
X59904267Y81216479D03*
G04 #@! TO.P,J1,33,33A*
G04 #@! TO.N,unconnected-(J1-33A-Pad33)*
X57404267Y81216479D03*
G04 #@! TO.P,J1,34,34A*
G04 #@! TO.N,/IN_DIGITAL_134_HS*
X54904267Y81216479D03*
G04 #@! TO.P,J1,35,35A*
G04 #@! TO.N,/IN_DIGITAL_135_HS*
X52404267Y81216479D03*
G04 #@! TO.P,J1,36,36A*
G04 #@! TO.N,/IN_DIGITAL_136_HS*
X49904267Y81216479D03*
G04 #@! TO.P,J1,37,37A*
G04 #@! TO.N,Net-(J1-37A)*
X77404267Y78716479D03*
G04 #@! TO.P,J1,38,38A*
G04 #@! TO.N,Net-(J1-38A)*
X74904267Y78716479D03*
G04 #@! TO.P,J1,39,39A*
G04 #@! TO.N,unconnected-(J1-39A-Pad39)*
X72404267Y78716479D03*
G04 #@! TO.P,J1,40,40A*
G04 #@! TO.N,/OUT_RELAY_140*
X69904267Y78716479D03*
G04 #@! TO.P,J1,41,41A*
G04 #@! TO.N,/OUT_FAN_RELAY*
X67404267Y78716479D03*
G04 #@! TO.P,J1,42,42A*
G04 #@! TO.N,/OUT_FUEL_PUMP_RELAY*
X64904267Y78716479D03*
G04 #@! TO.P,J1,43,43A*
G04 #@! TO.N,unconnected-(J1-43A-Pad43)*
X62404267Y78716479D03*
G04 #@! TO.P,J1,44,44A*
G04 #@! TO.N,/CAN-*
X59904267Y78716479D03*
G04 #@! TO.P,J1,45,45A*
G04 #@! TO.N,unconnected-(J1-45A-Pad45)*
X57404267Y78716479D03*
G04 #@! TO.P,J1,46,46A*
G04 #@! TO.N,unconnected-(J1-46A-Pad46)*
X54904267Y78716479D03*
G04 #@! TO.P,J1,47,47A*
G04 #@! TO.N,/IN_DIGITAL_147_HS*
X52404267Y78716479D03*
G04 #@! TO.P,J1,48,48A*
G04 #@! TO.N,unconnected-(J1-48A-Pad48)*
X49904267Y78716479D03*
G04 #@! TO.P,J1,49,49A*
G04 #@! TO.N,unconnected-(J1-49A-Pad49)*
X76779267Y74716479D03*
G04 #@! TO.P,J1,50,50A*
G04 #@! TO.N,unconnected-(J1-50A-Pad50)*
X73029267Y74716479D03*
G04 #@! TO.P,J1,51,51A*
G04 #@! TO.N,/OUT_RELAY_151*
X69279267Y74716479D03*
G04 #@! TO.P,J1,52,52A*
G04 #@! TO.N,/OUT_RELAY_152*
X65529267Y74716479D03*
G04 #@! TO.P,J1,53,53A*
G04 #@! TO.N,GND*
X61779267Y74716479D03*
G04 #@! TO.P,J1,54,54A*
X58029267Y74716479D03*
G04 #@! TO.P,J1,55,55A*
G04 #@! TO.N,Net-(J1-55A)*
X54279267Y74716479D03*
G04 #@! TO.P,J1,56,56A*
G04 #@! TO.N,Net-(J1-56A)*
X50529267Y74716479D03*
G04 #@! TO.P,J1,57,1B*
G04 #@! TO.N,/IN_CRANK-*
X36404267Y89716479D03*
G04 #@! TO.P,J1,58,2B*
G04 #@! TO.N,unconnected-(J1-2B-Pad58)*
X33904267Y89716479D03*
G04 #@! TO.P,J1,59,3B*
G04 #@! TO.N,/IN_TPS1*
X31404267Y89716479D03*
G04 #@! TO.P,J1,60,4B*
G04 #@! TO.N,GNDA*
X28904267Y89716479D03*
G04 #@! TO.P,J1,61,5B*
X26404267Y89716479D03*
G04 #@! TO.P,J1,62,6B*
X23904267Y89716479D03*
G04 #@! TO.P,J1,63,7B*
X21404267Y89716479D03*
G04 #@! TO.P,J1,64,8B*
X18904267Y89716479D03*
G04 #@! TO.P,J1,65,9B*
G04 #@! TO.N,unconnected-(J1-9B-Pad65)*
X16404267Y89716479D03*
G04 #@! TO.P,J1,66,10B*
G04 #@! TO.N,+5VP*
X13904267Y89716479D03*
G04 #@! TO.P,J1,67,11B*
G04 #@! TO.N,unconnected-(J1-11B-Pad67)*
X11404267Y89716479D03*
G04 #@! TO.P,J1,68,12B*
G04 #@! TO.N,unconnected-(J1-12B-Pad68)*
X8904267Y89716479D03*
G04 #@! TO.P,J1,69,13B*
G04 #@! TO.N,/IN_CRANK+*
X36404267Y87216479D03*
G04 #@! TO.P,J1,70,14B*
G04 #@! TO.N,unconnected-(J1-14B-Pad70)*
X33904267Y87216479D03*
G04 #@! TO.P,J1,71,15B*
G04 #@! TO.N,/IN_CLT*
X31404267Y87216479D03*
G04 #@! TO.P,J1,72,16B*
G04 #@! TO.N,unconnected-(J1-16B-Pad72)*
X28904267Y87216479D03*
G04 #@! TO.P,J1,73,17B*
G04 #@! TO.N,unconnected-(J1-17B-Pad73)*
X26404267Y87216479D03*
G04 #@! TO.P,J1,74,18B*
G04 #@! TO.N,unconnected-(J1-18B-Pad74)*
X23904267Y87216479D03*
G04 #@! TO.P,J1,75,19B*
G04 #@! TO.N,/IN_MAP*
X21404267Y87216479D03*
G04 #@! TO.P,J1,76,20B*
G04 #@! TO.N,/IN_TPS2*
X18904267Y87216479D03*
G04 #@! TO.P,J1,77,21B*
G04 #@! TO.N,unconnected-(J1-21B-Pad77)*
X16404267Y87216479D03*
G04 #@! TO.P,J1,78,22B*
G04 #@! TO.N,unconnected-(J1-22B-Pad78)*
X13904267Y87216479D03*
G04 #@! TO.P,J1,79,23B*
G04 #@! TO.N,Net-(J1-23B)*
X11404267Y87216479D03*
G04 #@! TO.P,J1,80,24B*
G04 #@! TO.N,unconnected-(J1-24B-Pad80)*
X8904267Y87216479D03*
G04 #@! TO.P,J1,81,25B*
G04 #@! TO.N,unconnected-(J1-25B-Pad81)*
X36404267Y81216479D03*
G04 #@! TO.P,J1,82,26B*
G04 #@! TO.N,unconnected-(J1-26B-Pad82)*
X33904267Y81216479D03*
G04 #@! TO.P,J1,83,27B*
G04 #@! TO.N,/IN_IAT*
X31404267Y81216479D03*
G04 #@! TO.P,J1,84,28B*
G04 #@! TO.N,unconnected-(J1-28B-Pad84)*
X28904267Y81216479D03*
G04 #@! TO.P,J1,85,29B*
G04 #@! TO.N,unconnected-(J1-29B-Pad85)*
X26404267Y81216479D03*
G04 #@! TO.P,J1,86,30B*
G04 #@! TO.N,unconnected-(J1-30B-Pad86)*
X23904267Y81216479D03*
G04 #@! TO.P,J1,87,31B*
G04 #@! TO.N,/IN_CAM*
X21404267Y81216479D03*
G04 #@! TO.P,J1,88,32B*
G04 #@! TO.N,/IN_VSS*
X18904267Y81216479D03*
G04 #@! TO.P,J1,89,33B*
G04 #@! TO.N,Net-(J1-33B)*
X16404267Y81216479D03*
G04 #@! TO.P,J1,90,34B*
G04 #@! TO.N,unconnected-(J1-34B-Pad90)*
X13904267Y81216479D03*
G04 #@! TO.P,J1,91,35B*
G04 #@! TO.N,/OUT_LS_235*
X11404267Y81216479D03*
G04 #@! TO.P,J1,92,36B*
G04 #@! TO.N,unconnected-(J1-36B-Pad92)*
X8904267Y81216479D03*
G04 #@! TO.P,J1,93,37B*
G04 #@! TO.N,Net-(J1-37B)*
X36404267Y78716479D03*
G04 #@! TO.P,J1,94,38B*
G04 #@! TO.N,Net-(J1-38B)*
X33904267Y78716479D03*
G04 #@! TO.P,J1,95,39B*
G04 #@! TO.N,unconnected-(J1-39B-Pad95)*
X31404267Y78716479D03*
G04 #@! TO.P,J1,96,40B*
G04 #@! TO.N,unconnected-(J1-40B-Pad96)*
X28904267Y78716479D03*
G04 #@! TO.P,J1,97,41B*
G04 #@! TO.N,unconnected-(J1-41B-Pad97)*
X26404267Y78716479D03*
G04 #@! TO.P,J1,98,42B*
G04 #@! TO.N,/OUT_INJ2*
X23904267Y78716479D03*
G04 #@! TO.P,J1,99,43B*
G04 #@! TO.N,/OUT_INJ3*
X21404267Y78716479D03*
G04 #@! TO.P,J1,100,44B*
G04 #@! TO.N,/OUT_INJ1*
X18904267Y78716479D03*
G04 #@! TO.P,J1,101,45B*
G04 #@! TO.N,/OUT_INJ4*
X16404267Y78716479D03*
G04 #@! TO.P,J1,102,46B*
G04 #@! TO.N,/OUT_LS_246*
X13904267Y78716479D03*
G04 #@! TO.P,J1,103,47B*
G04 #@! TO.N,GNDA*
X11404267Y78716479D03*
G04 #@! TO.P,J1,104,48B*
G04 #@! TO.N,unconnected-(J1-48B-Pad104)*
X8904267Y78716479D03*
G04 #@! TO.P,J1,105,49B*
G04 #@! TO.N,unconnected-(J1-49B-Pad105)*
X35779267Y74716479D03*
G04 #@! TO.P,J1,106,50B*
G04 #@! TO.N,GND*
X32029267Y74716479D03*
G04 #@! TO.P,J1,107,51B*
G04 #@! TO.N,Net-(J1-51B)*
X28279267Y74716479D03*
G04 #@! TO.P,J1,108,52B*
G04 #@! TO.N,Net-(J1-52B)*
X24529267Y74716479D03*
G04 #@! TO.P,J1,109,53B*
G04 #@! TO.N,/OUT_IGN2*
X20779267Y74716479D03*
G04 #@! TO.P,J1,110,54B*
G04 #@! TO.N,/OUT_IGN3*
X17029267Y74716479D03*
G04 #@! TO.P,J1,111,55B*
G04 #@! TO.N,/OUT_IGN4*
X13279267Y74716479D03*
G04 #@! TO.P,J1,112,56B*
G04 #@! TO.N,/OUT_IGN1*
X9529267Y74716479D03*
G04 #@! TD*
D11*
G04 #@! TO.P,R13,1,1*
G04 #@! TO.N,Net-(J1-37B)*
X33500000Y68405000D03*
G04 #@! TA.AperFunction,SMDPad,CuDef*
G36*
G01*
X32875000Y67950001D02*
X34125000Y67950001D01*
G75*
G02*
X34225000Y67850001I0J-100000D01*
G01*
X34225000Y67050001D01*
G75*
G02*
X34125000Y66950001I-100000J0D01*
G01*
X32875000Y66950001D01*
G75*
G02*
X32775000Y67050001I0J100000D01*
G01*
X32775000Y67850001D01*
G75*
G02*
X32875000Y67950001I100000J0D01*
G01*
G37*
G04 #@! TD.AperFunction*
G04 #@! TO.P,R13,2,2*
G04 #@! TO.N,unconnected-(R13-Pad2)*
G04 #@! TA.AperFunction,SMDPad,CuDef*
G36*
G01*
X32875000Y66049979D02*
X34125000Y66049979D01*
G75*
G02*
X34225000Y65949979I0J-100000D01*
G01*
X34225000Y65149979D01*
G75*
G02*
X34125000Y65049979I-100000J0D01*
G01*
X32875000Y65049979D01*
G75*
G02*
X32775000Y65149979I0J100000D01*
G01*
X32775000Y65949979D01*
G75*
G02*
X32875000Y66049979I100000J0D01*
G01*
G37*
G04 #@! TD.AperFunction*
X33500000Y64595000D03*
G04 #@! TD*
G04 #@! TO.P,R11,1,1*
G04 #@! TO.N,Net-(J1-23B)*
X8190000Y68500000D03*
G04 #@! TA.AperFunction,SMDPad,CuDef*
G36*
G01*
X8644999Y67875000D02*
X8644999Y69125000D01*
G75*
G02*
X8744999Y69225000I100000J0D01*
G01*
X9544999Y69225000D01*
G75*
G02*
X9644999Y69125000I0J-100000D01*
G01*
X9644999Y67875000D01*
G75*
G02*
X9544999Y67775000I-100000J0D01*
G01*
X8744999Y67775000D01*
G75*
G02*
X8644999Y67875000I0J100000D01*
G01*
G37*
G04 #@! TD.AperFunction*
G04 #@! TO.P,R11,2,2*
G04 #@! TO.N,+5VP*
G04 #@! TA.AperFunction,SMDPad,CuDef*
G36*
G01*
X10545021Y67875000D02*
X10545021Y69125000D01*
G75*
G02*
X10645021Y69225000I100000J0D01*
G01*
X11445021Y69225000D01*
G75*
G02*
X11545021Y69125000I0J-100000D01*
G01*
X11545021Y67875000D01*
G75*
G02*
X11445021Y67775000I-100000J0D01*
G01*
X10645021Y67775000D01*
G75*
G02*
X10545021Y67875000I0J100000D01*
G01*
G37*
G04 #@! TD.AperFunction*
X12000000Y68500000D03*
G04 #@! TD*
G04 #@! TO.P,R14,1,1*
G04 #@! TO.N,Net-(J1-38B)*
X31500000Y68405000D03*
G04 #@! TA.AperFunction,SMDPad,CuDef*
G36*
G01*
X30875000Y67950001D02*
X32125000Y67950001D01*
G75*
G02*
X32225000Y67850001I0J-100000D01*
G01*
X32225000Y67050001D01*
G75*
G02*
X32125000Y66950001I-100000J0D01*
G01*
X30875000Y66950001D01*
G75*
G02*
X30775000Y67050001I0J100000D01*
G01*
X30775000Y67850001D01*
G75*
G02*
X30875000Y67950001I100000J0D01*
G01*
G37*
G04 #@! TD.AperFunction*
G04 #@! TO.P,R14,2,2*
G04 #@! TO.N,GNDA*
G04 #@! TA.AperFunction,SMDPad,CuDef*
G36*
G01*
X30875000Y66049979D02*
X32125000Y66049979D01*
G75*
G02*
X32225000Y65949979I0J-100000D01*
G01*
X32225000Y65149979D01*
G75*
G02*
X32125000Y65049979I-100000J0D01*
G01*
X30875000Y65049979D01*
G75*
G02*
X30775000Y65149979I0J100000D01*
G01*
X30775000Y65949979D01*
G75*
G02*
X30875000Y66049979I100000J0D01*
G01*
G37*
G04 #@! TD.AperFunction*
X31500000Y64595000D03*
G04 #@! TD*
G04 #@! TO.P,R12,1,1*
G04 #@! TO.N,Net-(J1-33B)*
X22000000Y68405000D03*
G04 #@! TA.AperFunction,SMDPad,CuDef*
G36*
G01*
X21375000Y67950001D02*
X22625000Y67950001D01*
G75*
G02*
X22725000Y67850001I0J-100000D01*
G01*
X22725000Y67050001D01*
G75*
G02*
X22625000Y66950001I-100000J0D01*
G01*
X21375000Y66950001D01*
G75*
G02*
X21275000Y67050001I0J100000D01*
G01*
X21275000Y67850001D01*
G75*
G02*
X21375000Y67950001I100000J0D01*
G01*
G37*
G04 #@! TD.AperFunction*
G04 #@! TO.P,R12,2,2*
G04 #@! TO.N,unconnected-(R12-Pad2)*
G04 #@! TA.AperFunction,SMDPad,CuDef*
G36*
G01*
X21375000Y66049979D02*
X22625000Y66049979D01*
G75*
G02*
X22725000Y65949979I0J-100000D01*
G01*
X22725000Y65149979D01*
G75*
G02*
X22625000Y65049979I-100000J0D01*
G01*
X21375000Y65049979D01*
G75*
G02*
X21275000Y65149979I0J100000D01*
G01*
X21275000Y65949979D01*
G75*
G02*
X21375000Y66049979I100000J0D01*
G01*
G37*
G04 #@! TD.AperFunction*
X22000000Y64595000D03*
G04 #@! TD*
G04 #@! TO.P,F2,1,1*
G04 #@! TO.N,Net-(J1-55A)*
X53000000Y67450000D03*
G04 #@! TA.AperFunction,SMDPad,CuDef*
G36*
G01*
X52100000Y66105010D02*
X52100000Y66795010D01*
G75*
G02*
X52330000Y67025010I230000J0D01*
G01*
X53670000Y67025010D01*
G75*
G02*
X53900000Y66795010I0J-230000D01*
G01*
X53900000Y66105010D01*
G75*
G02*
X53670000Y65875010I-230000J0D01*
G01*
X52330000Y65875010D01*
G75*
G02*
X52100000Y66105010I0J230000D01*
G01*
G37*
G04 #@! TD.AperFunction*
G04 #@! TO.P,F2,2,2*
G04 #@! TO.N,+12V_RAW*
G04 #@! TA.AperFunction,SMDPad,CuDef*
G36*
G01*
X52100000Y63204990D02*
X52100000Y63894990D01*
G75*
G02*
X52330000Y64124990I230000J0D01*
G01*
X53670000Y64124990D01*
G75*
G02*
X53900000Y63894990I0J-230000D01*
G01*
X53900000Y63204990D01*
G75*
G02*
X53670000Y62974990I-230000J0D01*
G01*
X52330000Y62974990D01*
G75*
G02*
X52100000Y63204990I0J230000D01*
G01*
G37*
G04 #@! TD.AperFunction*
X53000000Y62550000D03*
G04 #@! TD*
G04 #@! TO.P,R15,1,1*
G04 #@! TO.N,Net-(J1-51B)*
X28250000Y68405000D03*
G04 #@! TA.AperFunction,SMDPad,CuDef*
G36*
G01*
X27625000Y67950001D02*
X28875000Y67950001D01*
G75*
G02*
X28975000Y67850001I0J-100000D01*
G01*
X28975000Y67050001D01*
G75*
G02*
X28875000Y66950001I-100000J0D01*
G01*
X27625000Y66950001D01*
G75*
G02*
X27525000Y67050001I0J100000D01*
G01*
X27525000Y67850001D01*
G75*
G02*
X27625000Y67950001I100000J0D01*
G01*
G37*
G04 #@! TD.AperFunction*
G04 #@! TO.P,R15,2,2*
G04 #@! TO.N,/OUT_ETB+*
G04 #@! TA.AperFunction,SMDPad,CuDef*
G36*
G01*
X27625000Y66049979D02*
X28875000Y66049979D01*
G75*
G02*
X28975000Y65949979I0J-100000D01*
G01*
X28975000Y65149979D01*
G75*
G02*
X28875000Y65049979I-100000J0D01*
G01*
X27625000Y65049979D01*
G75*
G02*
X27525000Y65149979I0J100000D01*
G01*
X27525000Y65949979D01*
G75*
G02*
X27625000Y66049979I100000J0D01*
G01*
G37*
G04 #@! TD.AperFunction*
X28250000Y64595000D03*
G04 #@! TD*
G04 #@! TO.P,F1,1,1*
G04 #@! TO.N,Net-(J1-16A)*
X68400000Y67950000D03*
G04 #@! TA.AperFunction,SMDPad,CuDef*
G36*
G01*
X67500000Y66605010D02*
X67500000Y67295010D01*
G75*
G02*
X67730000Y67525010I230000J0D01*
G01*
X69070000Y67525010D01*
G75*
G02*
X69300000Y67295010I0J-230000D01*
G01*
X69300000Y66605010D01*
G75*
G02*
X69070000Y66375010I-230000J0D01*
G01*
X67730000Y66375010D01*
G75*
G02*
X67500000Y66605010I0J230000D01*
G01*
G37*
G04 #@! TD.AperFunction*
G04 #@! TO.P,F1,2,2*
G04 #@! TO.N,/IN_VIGN*
G04 #@! TA.AperFunction,SMDPad,CuDef*
G36*
G01*
X67500000Y63704990D02*
X67500000Y64394990D01*
G75*
G02*
X67730000Y64624990I230000J0D01*
G01*
X69070000Y64624990D01*
G75*
G02*
X69300000Y64394990I0J-230000D01*
G01*
X69300000Y63704990D01*
G75*
G02*
X69070000Y63474990I-230000J0D01*
G01*
X67730000Y63474990D01*
G75*
G02*
X67500000Y63704990I0J230000D01*
G01*
G37*
G04 #@! TD.AperFunction*
X68400000Y63050000D03*
G04 #@! TD*
G04 #@! TO.P,F3,1,1*
G04 #@! TO.N,Net-(J1-56A)*
X50500000Y67450000D03*
G04 #@! TA.AperFunction,SMDPad,CuDef*
G36*
G01*
X49600000Y66105010D02*
X49600000Y66795010D01*
G75*
G02*
X49830000Y67025010I230000J0D01*
G01*
X51170000Y67025010D01*
G75*
G02*
X51400000Y66795010I0J-230000D01*
G01*
X51400000Y66105010D01*
G75*
G02*
X51170000Y65875010I-230000J0D01*
G01*
X49830000Y65875010D01*
G75*
G02*
X49600000Y66105010I0J230000D01*
G01*
G37*
G04 #@! TD.AperFunction*
G04 #@! TO.P,F3,2,2*
G04 #@! TO.N,+12V_RAW*
G04 #@! TA.AperFunction,SMDPad,CuDef*
G36*
G01*
X49600000Y63204990D02*
X49600000Y63894990D01*
G75*
G02*
X49830000Y64124990I230000J0D01*
G01*
X51170000Y64124990D01*
G75*
G02*
X51400000Y63894990I0J-230000D01*
G01*
X51400000Y63204990D01*
G75*
G02*
X51170000Y62974990I-230000J0D01*
G01*
X49830000Y62974990D01*
G75*
G02*
X49600000Y63204990I0J230000D01*
G01*
G37*
G04 #@! TD.AperFunction*
X50500000Y62550000D03*
G04 #@! TD*
G04 #@! TO.P,R1,1,1*
G04 #@! TO.N,Net-(J1-7A)*
X64000000Y67405000D03*
G04 #@! TA.AperFunction,SMDPad,CuDef*
G36*
G01*
X63375000Y66950001D02*
X64625000Y66950001D01*
G75*
G02*
X64725000Y66850001I0J-100000D01*
G01*
X64725000Y66050001D01*
G75*
G02*
X64625000Y65950001I-100000J0D01*
G01*
X63375000Y65950001D01*
G75*
G02*
X63275000Y66050001I0J100000D01*
G01*
X63275000Y66850001D01*
G75*
G02*
X63375000Y66950001I100000J0D01*
G01*
G37*
G04 #@! TD.AperFunction*
G04 #@! TO.P,R1,2,2*
G04 #@! TO.N,/IN_AV_107*
G04 #@! TA.AperFunction,SMDPad,CuDef*
G36*
G01*
X63375000Y65049979D02*
X64625000Y65049979D01*
G75*
G02*
X64725000Y64949979I0J-100000D01*
G01*
X64725000Y64149979D01*
G75*
G02*
X64625000Y64049979I-100000J0D01*
G01*
X63375000Y64049979D01*
G75*
G02*
X63275000Y64149979I0J100000D01*
G01*
X63275000Y64949979D01*
G75*
G02*
X63375000Y65049979I100000J0D01*
G01*
G37*
G04 #@! TD.AperFunction*
X64000000Y63595000D03*
G04 #@! TD*
G04 #@! TO.P,R9,1,1*
G04 #@! TO.N,/IN_CRANK-*
X37500000Y68405000D03*
G04 #@! TA.AperFunction,SMDPad,CuDef*
G36*
G01*
X36875000Y67950001D02*
X38125000Y67950001D01*
G75*
G02*
X38225000Y67850001I0J-100000D01*
G01*
X38225000Y67050001D01*
G75*
G02*
X38125000Y66950001I-100000J0D01*
G01*
X36875000Y66950001D01*
G75*
G02*
X36775000Y67050001I0J100000D01*
G01*
X36775000Y67850001D01*
G75*
G02*
X36875000Y67950001I100000J0D01*
G01*
G37*
G04 #@! TD.AperFunction*
G04 #@! TO.P,R9,2,2*
G04 #@! TO.N,unconnected-(R9-Pad2)*
G04 #@! TA.AperFunction,SMDPad,CuDef*
G36*
G01*
X36875000Y66049979D02*
X38125000Y66049979D01*
G75*
G02*
X38225000Y65949979I0J-100000D01*
G01*
X38225000Y65149979D01*
G75*
G02*
X38125000Y65049979I-100000J0D01*
G01*
X36875000Y65049979D01*
G75*
G02*
X36775000Y65149979I0J100000D01*
G01*
X36775000Y65949979D01*
G75*
G02*
X36875000Y66049979I100000J0D01*
G01*
G37*
G04 #@! TD.AperFunction*
X37500000Y64595000D03*
G04 #@! TD*
G04 #@! TO.P,R6,1,1*
G04 #@! TO.N,Net-(J1-25A)*
X77000000Y67405000D03*
G04 #@! TA.AperFunction,SMDPad,CuDef*
G36*
G01*
X76375000Y66950001D02*
X77625000Y66950001D01*
G75*
G02*
X77725000Y66850001I0J-100000D01*
G01*
X77725000Y66050001D01*
G75*
G02*
X77625000Y65950001I-100000J0D01*
G01*
X76375000Y65950001D01*
G75*
G02*
X76275000Y66050001I0J100000D01*
G01*
X76275000Y66850001D01*
G75*
G02*
X76375000Y66950001I100000J0D01*
G01*
G37*
G04 #@! TD.AperFunction*
G04 #@! TO.P,R6,2,2*
G04 #@! TO.N,+5VP*
G04 #@! TA.AperFunction,SMDPad,CuDef*
G36*
G01*
X76375000Y65049979D02*
X77625000Y65049979D01*
G75*
G02*
X77725000Y64949979I0J-100000D01*
G01*
X77725000Y64149979D01*
G75*
G02*
X77625000Y64049979I-100000J0D01*
G01*
X76375000Y64049979D01*
G75*
G02*
X76275000Y64149979I0J100000D01*
G01*
X76275000Y64949979D01*
G75*
G02*
X76375000Y65049979I100000J0D01*
G01*
G37*
G04 #@! TD.AperFunction*
X77000000Y63595000D03*
G04 #@! TD*
G04 #@! TO.P,R4,1,1*
G04 #@! TO.N,Net-(J1-14A)*
X71400000Y67405000D03*
G04 #@! TA.AperFunction,SMDPad,CuDef*
G36*
G01*
X70775000Y66950001D02*
X72025000Y66950001D01*
G75*
G02*
X72125000Y66850001I0J-100000D01*
G01*
X72125000Y66050001D01*
G75*
G02*
X72025000Y65950001I-100000J0D01*
G01*
X70775000Y65950001D01*
G75*
G02*
X70675000Y66050001I0J100000D01*
G01*
X70675000Y66850001D01*
G75*
G02*
X70775000Y66950001I100000J0D01*
G01*
G37*
G04 #@! TD.AperFunction*
G04 #@! TO.P,R4,2,2*
G04 #@! TO.N,/IN_PPS2*
G04 #@! TA.AperFunction,SMDPad,CuDef*
G36*
G01*
X70775000Y65049979D02*
X72025000Y65049979D01*
G75*
G02*
X72125000Y64949979I0J-100000D01*
G01*
X72125000Y64149979D01*
G75*
G02*
X72025000Y64049979I-100000J0D01*
G01*
X70775000Y64049979D01*
G75*
G02*
X70675000Y64149979I0J100000D01*
G01*
X70675000Y64949979D01*
G75*
G02*
X70775000Y65049979I100000J0D01*
G01*
G37*
G04 #@! TD.AperFunction*
X71400000Y63595000D03*
G04 #@! TD*
G04 #@! TO.P,R8,1,1*
G04 #@! TO.N,Net-(J1-38A)*
X73300000Y67405000D03*
G04 #@! TA.AperFunction,SMDPad,CuDef*
G36*
G01*
X72675000Y66950001D02*
X73925000Y66950001D01*
G75*
G02*
X74025000Y66850001I0J-100000D01*
G01*
X74025000Y66050001D01*
G75*
G02*
X73925000Y65950001I-100000J0D01*
G01*
X72675000Y65950001D01*
G75*
G02*
X72575000Y66050001I0J100000D01*
G01*
X72575000Y66850001D01*
G75*
G02*
X72675000Y66950001I100000J0D01*
G01*
G37*
G04 #@! TD.AperFunction*
G04 #@! TO.P,R8,2,2*
G04 #@! TO.N,+5VP*
G04 #@! TA.AperFunction,SMDPad,CuDef*
G36*
G01*
X72675000Y65049979D02*
X73925000Y65049979D01*
G75*
G02*
X74025000Y64949979I0J-100000D01*
G01*
X74025000Y64149979D01*
G75*
G02*
X73925000Y64049979I-100000J0D01*
G01*
X72675000Y64049979D01*
G75*
G02*
X72575000Y64149979I0J100000D01*
G01*
X72575000Y64949979D01*
G75*
G02*
X72675000Y65049979I100000J0D01*
G01*
G37*
G04 #@! TD.AperFunction*
X73300000Y63595000D03*
G04 #@! TD*
G04 #@! TO.P,R10,1,1*
G04 #@! TO.N,/IN_CRANK+*
X35500000Y68405000D03*
G04 #@! TA.AperFunction,SMDPad,CuDef*
G36*
G01*
X34875000Y67950001D02*
X36125000Y67950001D01*
G75*
G02*
X36225000Y67850001I0J-100000D01*
G01*
X36225000Y67050001D01*
G75*
G02*
X36125000Y66950001I-100000J0D01*
G01*
X34875000Y66950001D01*
G75*
G02*
X34775000Y67050001I0J100000D01*
G01*
X34775000Y67850001D01*
G75*
G02*
X34875000Y67950001I100000J0D01*
G01*
G37*
G04 #@! TD.AperFunction*
G04 #@! TO.P,R10,2,2*
G04 #@! TO.N,unconnected-(R10-Pad2)*
G04 #@! TA.AperFunction,SMDPad,CuDef*
G36*
G01*
X34875000Y66049979D02*
X36125000Y66049979D01*
G75*
G02*
X36225000Y65949979I0J-100000D01*
G01*
X36225000Y65149979D01*
G75*
G02*
X36125000Y65049979I-100000J0D01*
G01*
X34875000Y65049979D01*
G75*
G02*
X34775000Y65149979I0J100000D01*
G01*
X34775000Y65949979D01*
G75*
G02*
X34875000Y66049979I100000J0D01*
G01*
G37*
G04 #@! TD.AperFunction*
X35500000Y64595000D03*
G04 #@! TD*
G04 #@! TO.P,R7,1,1*
G04 #@! TO.N,Net-(J1-26A)*
X75100000Y67405000D03*
G04 #@! TA.AperFunction,SMDPad,CuDef*
G36*
G01*
X74475000Y66950001D02*
X75725000Y66950001D01*
G75*
G02*
X75825000Y66850001I0J-100000D01*
G01*
X75825000Y66050001D01*
G75*
G02*
X75725000Y65950001I-100000J0D01*
G01*
X74475000Y65950001D01*
G75*
G02*
X74375000Y66050001I0J100000D01*
G01*
X74375000Y66850001D01*
G75*
G02*
X74475000Y66950001I100000J0D01*
G01*
G37*
G04 #@! TD.AperFunction*
G04 #@! TO.P,R7,2,2*
G04 #@! TO.N,+5VP*
G04 #@! TA.AperFunction,SMDPad,CuDef*
G36*
G01*
X74475000Y65049979D02*
X75725000Y65049979D01*
G75*
G02*
X75825000Y64949979I0J-100000D01*
G01*
X75825000Y64149979D01*
G75*
G02*
X75725000Y64049979I-100000J0D01*
G01*
X74475000Y64049979D01*
G75*
G02*
X74375000Y64149979I0J100000D01*
G01*
X74375000Y64949979D01*
G75*
G02*
X74475000Y65049979I100000J0D01*
G01*
G37*
G04 #@! TD.AperFunction*
X75100000Y63595000D03*
G04 #@! TD*
D12*
G04 #@! TO.P,M1,E1,V5A_SWITCHABLE*
G04 #@! TO.N,unconnected-(M1-V5A_SWITCHABLE-PadE1)*
X54575005Y45324995D03*
G04 #@! TO.P,M1,E2,GNDA*
G04 #@! TO.N,unconnected-(M1-GNDA-PadE2)*
X50275005Y45325005D03*
G04 #@! TO.P,M1,E3,I2C_SCL_(PB10)*
G04 #@! TO.N,unconnected-(M1-I2C_SCL_(PB10)-PadE3)*
X49475015Y45325005D03*
G04 #@! TO.P,M1,E4,I2C_SDA_(PB11)*
G04 #@! TO.N,unconnected-(M1-I2C_SDA_(PB11)-PadE4)*
X48675005Y45325005D03*
G04 #@! TO.P,M1,E5,IN_VIGN_(PA5)*
G04 #@! TO.N,unconnected-(M1-IN_VIGN_(PA5)-PadE5)*
X47875005Y45325005D03*
G04 #@! TO.P,M1,E6,SPI2_CS_/_CAN2_RX_(PB12)*
G04 #@! TO.N,unconnected-(M1-SPI2_CS_{slash}_CAN2_RX_(PB12)-PadE6)*
X47075005Y45325005D03*
G04 #@! TO.P,M1,E7,SPI2_SCK_/_CAN2_TX_(PB13)*
G04 #@! TO.N,unconnected-(M1-SPI2_SCK_{slash}_CAN2_TX_(PB13)-PadE7)*
X46275005Y45325005D03*
G04 #@! TO.P,M1,E8,SPI2_MISO_(PB14)*
G04 #@! TO.N,unconnected-(M1-SPI2_MISO_(PB14)-PadE8)*
X45475005Y45325005D03*
G04 #@! TO.P,M1,E9,SPI2_MOSI_(PB15)*
G04 #@! TO.N,unconnected-(M1-SPI2_MOSI_(PB15)-PadE9)*
X44675005Y45325005D03*
G04 #@! TO.P,M1,E10,OUT_INJ8_(PD12)*
G04 #@! TO.N,unconnected-(M1-OUT_INJ8_(PD12)-PadE10)*
X43875005Y45325005D03*
G04 #@! TO.P,M1,E11,OUT_INJ7_(PD15)*
G04 #@! TO.N,unconnected-(M1-OUT_INJ7_(PD15)-PadE11)*
X43075005Y45325005D03*
G04 #@! TO.P,M1,E12,OUT_INJ6_(PA8)*
G04 #@! TO.N,unconnected-(M1-OUT_INJ6_(PA8)-PadE12)*
X42275005Y45325005D03*
G04 #@! TO.P,M1,E13,OUT_INJ5_(PD2)*
G04 #@! TO.N,/IN_DIGITAL_135_HS*
X41475005Y45325005D03*
G04 #@! TO.P,M1,E14,OUT_INJ4_(PD10)*
G04 #@! TO.N,/IN_DIGITAL_134_HS*
X40675005Y45325005D03*
G04 #@! TO.P,M1,E15,OUT_INJ3_(PD11)*
G04 #@! TO.N,/CAN+*
X39875005Y45325005D03*
G04 #@! TO.P,M1,E16,OUT_INJ2_(PA9)*
G04 #@! TO.N,/OUT_AC_RELAY*
X39075015Y45324995D03*
G04 #@! TO.P,M1,E17,OUT_INJ1_(PD3)*
G04 #@! TO.N,/OUT_TACH*
X38275005Y45325005D03*
G04 #@! TO.P,M1,E18,OUT_PWM1_(PD13)*
G04 #@! TO.N,unconnected-(M1-OUT_PWM1_(PD13)-PadE18)*
X36875005Y45325005D03*
G04 #@! TO.P,M1,E19,OUT_PWM2_(PC6)*
G04 #@! TO.N,unconnected-(M1-OUT_PWM2_(PC6)-PadE19)*
X36075015Y45325005D03*
G04 #@! TO.P,M1,E20,OUT_PWM3_(PC7)*
G04 #@! TO.N,unconnected-(M1-OUT_PWM3_(PC7)-PadE20)*
X35275015Y45325005D03*
G04 #@! TO.P,M1,E21,OUT_PWM4_(PC8)*
G04 #@! TO.N,unconnected-(M1-OUT_PWM4_(PC8)-PadE21)*
X34475015Y45325005D03*
G04 #@! TO.P,M1,E22,OUT_PWM5_(PC9)*
G04 #@! TO.N,unconnected-(M1-OUT_PWM5_(PC9)-PadE22)*
X33675015Y45325005D03*
G04 #@! TO.P,M1,E23,OUT_PWM6_(PD14)*
G04 #@! TO.N,unconnected-(M1-OUT_PWM6_(PD14)-PadE23)*
X32875005Y45325005D03*
D13*
G04 #@! TO.P,M1,G,GND*
G04 #@! TO.N,unconnected-(M1-GND-PadG)*
X28025015Y11724995D03*
D14*
X31075005Y11724995D03*
D13*
X34125015Y11724995D03*
D15*
X38575005Y11724995D03*
D16*
X52225005Y11724995D03*
D17*
X60225005Y11724995D03*
D18*
X61275015Y13525005D03*
D19*
X25475015Y15624995D03*
D20*
X25475015Y21674995D03*
D21*
X25475015Y25174995D03*
D18*
X25475015Y34924995D03*
D19*
X61275015Y42424995D03*
D22*
X28874995Y45525005D03*
D14*
X37575015Y45525005D03*
D23*
X52425015Y45525005D03*
D24*
X58225015Y45525005D03*
D12*
G04 #@! TO.P,M1,N1,VBUS*
G04 #@! TO.N,unconnected-(M1-VBUS-PadN1)*
X25675005Y44925005D03*
G04 #@! TO.P,M1,N2,USBM_(PA11)*
G04 #@! TO.N,unconnected-(M1-USBM_(PA11)-PadN2)*
X25675005Y44125005D03*
G04 #@! TO.P,M1,N3,USBP_(PA12)*
G04 #@! TO.N,unconnected-(M1-USBP_(PA12)-PadN3)*
X25675005Y43325005D03*
G04 #@! TO.P,M1,N4,USBID_(PA10)*
G04 #@! TO.N,unconnected-(M1-USBID_(PA10)-PadN4)*
X25675005Y42524995D03*
G04 #@! TO.P,M1,N5,SWDIO_(PA13)*
G04 #@! TO.N,unconnected-(M1-SWDIO_(PA13)-PadN5)*
X25675005Y41725005D03*
G04 #@! TO.P,M1,N6,SWCLK_(PA14)*
G04 #@! TO.N,unconnected-(M1-SWCLK_(PA14)-PadN6)*
X25675005Y40925005D03*
G04 #@! TO.P,M1,N7,nReset*
G04 #@! TO.N,unconnected-(M1-nReset-PadN7)*
X25675005Y40125005D03*
G04 #@! TO.P,M1,N8,SWO_(PB3)*
G04 #@! TO.N,unconnected-(M1-SWO_(PB3)-PadN8)*
X25675005Y39324995D03*
G04 #@! TO.P,M1,N9,SPI3_CS_(PA15)*
G04 #@! TO.N,unconnected-(M1-SPI3_CS_(PA15)-PadN9)*
X25675015Y38525005D03*
G04 #@! TO.P,M1,N10,SPI3_SCK_(PC10)*
G04 #@! TO.N,unconnected-(M1-SPI3_SCK_(PC10)-PadN10)*
X25675015Y37725005D03*
G04 #@! TO.P,M1,N11,SPI3_MISO_(PC11)*
G04 #@! TO.N,unconnected-(M1-SPI3_MISO_(PC11)-PadN11)*
X25675015Y36925005D03*
G04 #@! TO.P,M1,N12,SPI3_MOSI_(PC12)*
G04 #@! TO.N,unconnected-(M1-SPI3_MOSI_(PC12)-PadN12)*
X25675015Y36125005D03*
G04 #@! TO.P,M1,N13,UART2_TX_(PD5)*
G04 #@! TO.N,unconnected-(M1-UART2_TX_(PD5)-PadN13)*
X25675015Y33724995D03*
G04 #@! TO.P,M1,N14,UART2_RX_(PD6)*
G04 #@! TO.N,unconnected-(M1-UART2_RX_(PD6)-PadN14)*
X25675015Y32924995D03*
G04 #@! TO.P,M1,N14a,LED_GREEN*
G04 #@! TO.N,unconnected-(M1-LED_GREEN-PadN14a)*
X25675005Y32125005D03*
G04 #@! TO.P,M1,N14b,LED_YELLOW*
G04 #@! TO.N,unconnected-(M1-LED_YELLOW-PadN14b)*
X25675005Y31324995D03*
G04 #@! TO.P,M1,N15,V33_SWITCHABLE*
G04 #@! TO.N,unconnected-(M1-V33_SWITCHABLE-PadN15)*
X25675005Y30524995D03*
G04 #@! TO.P,M1,N16,BOOT0*
G04 #@! TO.N,unconnected-(M1-BOOT0-PadN16)*
X25675005Y29724995D03*
G04 #@! TO.P,M1,N17,VBAT*
G04 #@! TO.N,unconnected-(M1-VBAT-PadN17)*
X25675005Y28924995D03*
G04 #@! TO.P,M1,N18,UART8_RX_(PE0)*
G04 #@! TO.N,unconnected-(M1-UART8_RX_(PE0)-PadN18)*
X25675015Y28124995D03*
G04 #@! TO.P,M1,N19,UART8_TX_(PE1)*
G04 #@! TO.N,unconnected-(M1-UART8_TX_(PE1)-PadN19)*
X25675015Y27324995D03*
G04 #@! TO.P,M1,N20,OUT_PWR_EN_(PE10)*
G04 #@! TO.N,unconnected-(M1-OUT_PWR_EN_(PE10)-PadN20)*
X25675015Y23024995D03*
G04 #@! TO.P,M1,N21,V33*
G04 #@! TO.N,unconnected-(M1-V33-PadN21)*
X25675015Y20324995D03*
G04 #@! TO.P,M1,N22,VCC*
G04 #@! TO.N,unconnected-(M1-VCC-PadN22)*
X25675015Y19325005D03*
G04 #@! TO.P,M1,N23,V33*
G04 #@! TO.N,unconnected-(M1-V33-PadN23)*
X25675015Y11924995D03*
G04 #@! TO.P,M1,S1,IN_D4_(PE15)*
G04 #@! TO.N,unconnected-(M1-IN_D4_(PE15)-PadS1)*
X61075015Y38725015D03*
G04 #@! TO.P,M1,S2,IN_D3_(PE14)*
G04 #@! TO.N,unconnected-(M1-IN_D3_(PE14)-PadS2)*
X61075015Y37525005D03*
G04 #@! TO.P,M1,S3,IN_D2_(PE13)*
G04 #@! TO.N,unconnected-(M1-IN_D2_(PE13)-PadS3)*
X61075015Y36325005D03*
G04 #@! TO.P,M1,S4,IN_D1_(PE12)*
G04 #@! TO.N,unconnected-(M1-IN_D1_(PE12)-PadS4)*
X61075015Y35125005D03*
G04 #@! TO.P,M1,S5,VREF2*
G04 #@! TO.N,unconnected-(M1-VREF2-PadS5)*
X61075015Y33925005D03*
G04 #@! TO.P,M1,S6,IN_AUX4_(PC5)*
G04 #@! TO.N,unconnected-(M1-IN_AUX4_(PC5)-PadS6)*
X61075015Y32725005D03*
G04 #@! TO.P,M1,S7,IN_AUX3_(PA7)*
G04 #@! TO.N,unconnected-(M1-IN_AUX3_(PA7)-PadS7)*
X61075015Y31525005D03*
G04 #@! TO.P,M1,S8,IN_AUX2_(PC4/PE9)*
G04 #@! TO.N,unconnected-(M1-IN_AUX2_(PC4{slash}PE9)-PadS8)*
X61075015Y30325005D03*
G04 #@! TO.P,M1,S9,IN_AUX1_(PB0)*
G04 #@! TO.N,unconnected-(M1-IN_AUX1_(PB0)-PadS9)*
X61075015Y29125005D03*
G04 #@! TO.P,M1,S10,IN_O2S2_(PA1)*
G04 #@! TO.N,unconnected-(M1-IN_O2S2_(PA1)-PadS10)*
X61075015Y27925005D03*
G04 #@! TO.P,M1,S11,IN_O2S_/_CAN_WAKEUP_(PA0)*
G04 #@! TO.N,unconnected-(M1-IN_O2S_{slash}_CAN_WAKEUP_(PA0)-PadS11)*
X61075015Y26725005D03*
G04 #@! TO.P,M1,S12,IN_MAP2_(PC1)*
G04 #@! TO.N,unconnected-(M1-IN_MAP2_(PC1)-PadS12)*
X61075015Y25525005D03*
G04 #@! TO.P,M1,S13,IN_MAP1_(PC0)*
G04 #@! TO.N,unconnected-(M1-IN_MAP1_(PC0)-PadS13)*
X61075015Y24325005D03*
G04 #@! TO.P,M1,S14,IN_CRANK_(PB1)*
G04 #@! TO.N,unconnected-(M1-IN_CRANK_(PB1)-PadS14)*
X61075015Y23125005D03*
G04 #@! TO.P,M1,S15,IN_KNOCK_(PA2)*
G04 #@! TO.N,unconnected-(M1-IN_KNOCK_(PA2)-PadS15)*
X61075015Y21925005D03*
G04 #@! TO.P,M1,S16,IN_CAM_(PA6)*
G04 #@! TO.N,unconnected-(M1-IN_CAM_(PA6)-PadS16)*
X61075015Y20725005D03*
G04 #@! TO.P,M1,S17,IN_VSS_(PE11)*
G04 #@! TO.N,unconnected-(M1-IN_VSS_(PE11)-PadS17)*
X61075015Y19525005D03*
G04 #@! TO.P,M1,S18,IN_TPS_(PA4)*
G04 #@! TO.N,unconnected-(M1-IN_TPS_(PA4)-PadS18)*
X61075015Y18324995D03*
G04 #@! TO.P,M1,S19,IN_PPS_(PA3)*
G04 #@! TO.N,unconnected-(M1-IN_PPS_(PA3)-PadS19)*
X61075015Y17124995D03*
G04 #@! TO.P,M1,S20,IN_IAT_(PC3)*
G04 #@! TO.N,unconnected-(M1-IN_IAT_(PC3)-PadS20)*
X61075015Y15924995D03*
G04 #@! TO.P,M1,S21,IN_CLT_(PC2)*
G04 #@! TO.N,unconnected-(M1-IN_CLT_(PC2)-PadS21)*
X61075015Y14724995D03*
G04 #@! TO.P,M1,S22,VREF1*
G04 #@! TO.N,unconnected-(M1-VREF1-PadS22)*
X61075015Y12324995D03*
G04 #@! TO.P,M1,W1,GNDA*
G04 #@! TO.N,unconnected-(M1-GNDA-PadW1)*
X58575005Y11924995D03*
G04 #@! TO.P,M1,W2,V5A_SWITCHABLE*
G04 #@! TO.N,unconnected-(M1-V5A_SWITCHABLE-PadW2)*
X57575005Y11924995D03*
G04 #@! TO.P,M1,W3,IGN8_(PE6)*
G04 #@! TO.N,unconnected-(M1-IGN8_(PE6)-PadW3)*
X46875015Y11924995D03*
G04 #@! TO.P,M1,W4,IGN7_(PB9)*
G04 #@! TO.N,unconnected-(M1-IGN7_(PB9)-PadW4)*
X45875005Y11924995D03*
G04 #@! TO.P,M1,W5,IGN6_(PB8)*
G04 #@! TO.N,unconnected-(M1-IGN6_(PB8)-PadW5)*
X44875015Y11924995D03*
G04 #@! TO.P,M1,W6,IGN5_(PE2)*
G04 #@! TO.N,unconnected-(M1-IGN5_(PE2)-PadW6)*
X43875015Y11924995D03*
G04 #@! TO.P,M1,W7,IGN4_(PE3)*
G04 #@! TO.N,unconnected-(M1-IGN4_(PE3)-PadW7)*
X42875015Y11924995D03*
G04 #@! TO.P,M1,W8,IGN3_(PE4)*
G04 #@! TO.N,unconnected-(M1-IGN3_(PE4)-PadW8)*
X41875015Y11924995D03*
G04 #@! TO.P,M1,W9,IGN2_(PE5)*
G04 #@! TO.N,unconnected-(M1-IGN2_(PE5)-PadW9)*
X40875015Y11924995D03*
G04 #@! TO.P,M1,W10,IGN1_(PC13)*
G04 #@! TO.N,unconnected-(M1-IGN1_(PC13)-PadW10)*
X39875015Y11924995D03*
G04 #@! TO.P,M1,W11,CANH*
G04 #@! TO.N,unconnected-(M1-CANH-PadW11)*
X37275015Y11924995D03*
G04 #@! TO.P,M1,W12,CANL*
G04 #@! TO.N,unconnected-(M1-CANL-PadW12)*
X36475015Y11924995D03*
G04 #@! TO.P,M1,W13,V33_REF*
G04 #@! TO.N,unconnected-(M1-V33_REF-PadW13)*
X31775005Y11924995D03*
G04 #@! TO.P,M1,W14,V5A_SWITCHABLE*
G04 #@! TO.N,unconnected-(M1-V5A_SWITCHABLE-PadW14)*
X30375015Y11924995D03*
G04 #@! TD*
D11*
G04 #@! TO.P,R16,1,1*
G04 #@! TO.N,Net-(J1-52B)*
X24500000Y68405000D03*
G04 #@! TA.AperFunction,SMDPad,CuDef*
G36*
G01*
X23875000Y67950001D02*
X25125000Y67950001D01*
G75*
G02*
X25225000Y67850001I0J-100000D01*
G01*
X25225000Y67050001D01*
G75*
G02*
X25125000Y66950001I-100000J0D01*
G01*
X23875000Y66950001D01*
G75*
G02*
X23775000Y67050001I0J100000D01*
G01*
X23775000Y67850001D01*
G75*
G02*
X23875000Y67950001I100000J0D01*
G01*
G37*
G04 #@! TD.AperFunction*
G04 #@! TO.P,R16,2,2*
G04 #@! TO.N,/OUT_ETB-*
G04 #@! TA.AperFunction,SMDPad,CuDef*
G36*
G01*
X23875000Y66049979D02*
X25125000Y66049979D01*
G75*
G02*
X25225000Y65949979I0J-100000D01*
G01*
X25225000Y65149979D01*
G75*
G02*
X25125000Y65049979I-100000J0D01*
G01*
X23875000Y65049979D01*
G75*
G02*
X23775000Y65149979I0J100000D01*
G01*
X23775000Y65949979D01*
G75*
G02*
X23875000Y66049979I100000J0D01*
G01*
G37*
G04 #@! TD.AperFunction*
X24500000Y64595000D03*
G04 #@! TD*
G04 #@! TO.P,R5,1,1*
G04 #@! TO.N,Net-(J1-21A)*
X57800000Y67405000D03*
G04 #@! TA.AperFunction,SMDPad,CuDef*
G36*
G01*
X57175000Y66950001D02*
X58425000Y66950001D01*
G75*
G02*
X58525000Y66850001I0J-100000D01*
G01*
X58525000Y66050001D01*
G75*
G02*
X58425000Y65950001I-100000J0D01*
G01*
X57175000Y65950001D01*
G75*
G02*
X57075000Y66050001I0J100000D01*
G01*
X57075000Y66850001D01*
G75*
G02*
X57175000Y66950001I100000J0D01*
G01*
G37*
G04 #@! TD.AperFunction*
G04 #@! TO.P,R5,2,2*
G04 #@! TO.N,/IN_PPS1*
G04 #@! TA.AperFunction,SMDPad,CuDef*
G36*
G01*
X57175000Y65049979D02*
X58425000Y65049979D01*
G75*
G02*
X58525000Y64949979I0J-100000D01*
G01*
X58525000Y64149979D01*
G75*
G02*
X58425000Y64049979I-100000J0D01*
G01*
X57175000Y64049979D01*
G75*
G02*
X57075000Y64149979I0J100000D01*
G01*
X57075000Y64949979D01*
G75*
G02*
X57175000Y65049979I100000J0D01*
G01*
G37*
G04 #@! TD.AperFunction*
X57800000Y63595000D03*
G04 #@! TD*
G04 #@! TO.P,R2,1,1*
G04 #@! TO.N,Net-(J1-8A)*
X60500000Y67405000D03*
G04 #@! TA.AperFunction,SMDPad,CuDef*
G36*
G01*
X59875000Y66950001D02*
X61125000Y66950001D01*
G75*
G02*
X61225000Y66850001I0J-100000D01*
G01*
X61225000Y66050001D01*
G75*
G02*
X61125000Y65950001I-100000J0D01*
G01*
X59875000Y65950001D01*
G75*
G02*
X59775000Y66050001I0J100000D01*
G01*
X59775000Y66850001D01*
G75*
G02*
X59875000Y66950001I100000J0D01*
G01*
G37*
G04 #@! TD.AperFunction*
G04 #@! TO.P,R2,2,2*
G04 #@! TO.N,GND*
G04 #@! TA.AperFunction,SMDPad,CuDef*
G36*
G01*
X59875000Y65049979D02*
X61125000Y65049979D01*
G75*
G02*
X61225000Y64949979I0J-100000D01*
G01*
X61225000Y64149979D01*
G75*
G02*
X61125000Y64049979I-100000J0D01*
G01*
X59875000Y64049979D01*
G75*
G02*
X59775000Y64149979I0J100000D01*
G01*
X59775000Y64949979D01*
G75*
G02*
X59875000Y65049979I100000J0D01*
G01*
G37*
G04 #@! TD.AperFunction*
X60500000Y63595000D03*
G04 #@! TD*
G04 #@! TO.P,R3,1,1*
G04 #@! TO.N,Net-(J1-11A)*
X55300000Y67405000D03*
G04 #@! TA.AperFunction,SMDPad,CuDef*
G36*
G01*
X54675000Y66950001D02*
X55925000Y66950001D01*
G75*
G02*
X56025000Y66850001I0J-100000D01*
G01*
X56025000Y66050001D01*
G75*
G02*
X55925000Y65950001I-100000J0D01*
G01*
X54675000Y65950001D01*
G75*
G02*
X54575000Y66050001I0J100000D01*
G01*
X54575000Y66850001D01*
G75*
G02*
X54675000Y66950001I100000J0D01*
G01*
G37*
G04 #@! TD.AperFunction*
G04 #@! TO.P,R3,2,2*
G04 #@! TO.N,/IN_AV_111*
G04 #@! TA.AperFunction,SMDPad,CuDef*
G36*
G01*
X54675000Y65049979D02*
X55925000Y65049979D01*
G75*
G02*
X56025000Y64949979I0J-100000D01*
G01*
X56025000Y64149979D01*
G75*
G02*
X55925000Y64049979I-100000J0D01*
G01*
X54675000Y64049979D01*
G75*
G02*
X54575000Y64149979I0J100000D01*
G01*
X54575000Y64949979D01*
G75*
G02*
X54675000Y65049979I100000J0D01*
G01*
G37*
G04 #@! TD.AperFunction*
X55300000Y63595000D03*
G04 #@! TD*
G04 #@! TO.P,R54,1,1*
G04 #@! TO.N,Net-(J1-37A)*
X73090000Y71000000D03*
G04 #@! TO.P,R54,2,2*
G04 #@! TO.N,+5VP*
X76900000Y71000000D03*
G04 #@! TD*
D25*
G04 #@! TO.N,*
X42190446Y77065868D03*
X40341487Y73053162D03*
X43999046Y82000000D03*
X44863732Y70377949D03*
X46290001Y66215332D03*
X5800000Y80000000D03*
X46189486Y77065715D03*
X44147637Y71002219D03*
X44710475Y90200000D03*
X48000000Y70500000D03*
X34300000Y82700000D03*
X42139935Y68950001D03*
X45048311Y77018386D03*
X44458205Y69518849D03*
X34099500Y63418082D03*
X43698955Y74558230D03*
X62300000Y61699500D03*
X53708605Y65326466D03*
X45000000Y68100000D03*
X42350002Y67650001D03*
X41200000Y77100000D03*
X42200001Y70250001D03*
G04 #@! TO.N,/OUT_RELAY_151*
X76934280Y73339960D03*
G04 #@! TO.N,/OUT_FUEL_CONSUMPTION*
X59650000Y82500000D03*
G04 #@! TO.N,+5VP*
X39750000Y64770710D03*
G04 #@! TO.N,/OUT_TACH*
X67500923Y82512382D03*
G04 #@! TO.N,/OUT_AC_RELAY*
X68000000Y80000000D03*
G04 #@! TO.N,/IN_DIGITAL_113*
X77050000Y77000000D03*
X61200000Y77100000D03*
G04 #@! TO.N,/IN_DIGITAL_123*
X46187517Y86566912D03*
G04 #@! TO.N,/IN_DIGITAL_134_HS*
X40076262Y83298679D03*
G04 #@! TO.N,/IN_DIGITAL_135_HS*
X43097539Y83343646D03*
G04 #@! TO.N,/IN_DIGITAL_136_HS*
X41587104Y83322729D03*
G04 #@! TO.N,/IN_DIGITAL_147_HS*
X46999046Y82000000D03*
G04 #@! TO.N,GND*
X45500000Y85000000D03*
X27500000Y95800000D03*
X31600000Y76800000D03*
X28500000Y76600000D03*
X72600000Y95700000D03*
X26400000Y70200000D03*
X41000000Y85000000D03*
X8900000Y95100000D03*
X41300000Y95800000D03*
X39500000Y85000000D03*
X20061597Y66138403D03*
X74700000Y69000000D03*
X19000000Y76400000D03*
X41215816Y71699270D03*
X23200000Y76700000D03*
X14300000Y83800000D03*
X11400000Y84500000D03*
X53400000Y85200000D03*
X47197139Y74960087D03*
X43500000Y72500000D03*
X57700000Y84300000D03*
X46024421Y71718010D03*
X43300000Y65500000D03*
X76800000Y69200000D03*
X42500000Y85000000D03*
X19300000Y95500000D03*
X48000000Y76100000D03*
X66700000Y84400000D03*
X45646107Y74982425D03*
X35300000Y70700000D03*
X29000000Y84800000D03*
X36700000Y84200000D03*
X32300000Y84800000D03*
X85000000Y73600000D03*
X14200000Y76900000D03*
X63875843Y95776435D03*
X43700000Y67300000D03*
X20000000Y67700000D03*
X7500000Y84200000D03*
X51100000Y95900000D03*
X5200000Y89500000D03*
X65852260Y60984573D03*
X44000000Y85000000D03*
X84315716Y86365045D03*
X78899878Y95376860D03*
X7800000Y76700000D03*
X84100000Y80700000D03*
X18000000Y84700000D03*
X76800000Y72400000D03*
X48600000Y66500000D03*
X75500000Y61300000D03*
X41844771Y74818900D03*
X75100000Y84000000D03*
X77400000Y84400000D03*
X52400000Y76500000D03*
X36600000Y76600000D03*
X47000000Y85000000D03*
X20900000Y70500000D03*
G04 #@! TO.N,+12V_RAW*
X71500000Y61300000D03*
G04 #@! TO.N,Net-(J1-37A)*
X73900000Y77800000D03*
G04 #@! TO.N,/IN_AV_111*
X82325350Y61492537D03*
G04 #@! TO.N,/IN_PPS1*
X82362001Y63000000D03*
G04 #@! TD*
D26*
G04 #@! TO.N,*
X37689738Y63000000D02*
X39100000Y64410262D01*
X35805021Y63000000D02*
X37689738Y63000000D01*
X48000000Y70500000D02*
X47873807Y70373807D01*
X39100000Y65300000D02*
X41450001Y67650001D01*
X33650000Y62968582D02*
X34099500Y63418082D01*
X44867874Y70373807D02*
X44863732Y70377949D01*
X47873807Y70373807D02*
X44867874Y70373807D01*
X46057404Y77065715D02*
X43698955Y74707266D01*
X46189486Y77065715D02*
X46057404Y77065715D01*
X43698955Y74707266D02*
X43698955Y74558230D01*
X34100000Y61294979D02*
X35805021Y63000000D01*
X41450001Y67650001D02*
X42350002Y67650001D01*
X42190446Y77065868D02*
X40341487Y75216909D01*
X39100000Y64410262D02*
X39100000Y65300000D01*
X40341487Y75216909D02*
X40341487Y73053162D01*
G04 #@! TO.N,unconnected-(J1-27A-Pad27)*
X72404267Y81216479D02*
X71000000Y79812212D01*
X71000000Y79812212D02*
X71000000Y78397998D01*
X71810660Y62250000D02*
X72250000Y61810660D01*
X70388000Y63172660D02*
X71310660Y62250000D01*
X71310660Y62250000D02*
X71810660Y62250000D01*
X72250000Y61810660D02*
X72250000Y60989340D01*
X72250000Y60989340D02*
X71250000Y59989340D01*
X71000000Y78397998D02*
X70388000Y77785998D01*
X70388000Y77785998D02*
X70388000Y63172660D01*
G04 #@! TO.N,+5VP*
X15404267Y88216479D02*
X13904267Y89716479D01*
X78050000Y69850000D02*
X78050000Y65599979D01*
X76900000Y71000000D02*
X78050000Y69850000D01*
X39750000Y64565288D02*
X39750000Y64770710D01*
X15404267Y71904267D02*
X15404267Y88216479D01*
X77000000Y64549979D02*
X73300000Y64549979D01*
X35625001Y61635662D02*
X36639339Y62650000D01*
X12000000Y68500000D02*
X15404267Y71904267D01*
X37834712Y62650000D02*
X39750000Y64565288D01*
X78050000Y65599979D02*
X77000000Y64549979D01*
X36639339Y62650000D02*
X37834712Y62650000D01*
G04 #@! TO.N,unconnected-(R13-Pad2)*
X33300000Y64395000D02*
X33500000Y64595000D01*
D27*
G04 #@! TO.N,/OUT_LS_101*
X78554267Y88566479D02*
X77404267Y89716479D01*
X78554267Y60484267D02*
X78554267Y88566479D01*
G04 #@! TO.N,/OUT_LS_102*
X79300000Y59610348D02*
X79300000Y89447092D01*
X77880613Y90866479D02*
X76054267Y90866479D01*
X76054267Y90866479D02*
X74904267Y89716479D01*
X79300000Y89447092D02*
X77880613Y90866479D01*
D26*
G04 #@! TO.N,/IN_DIGITAL_123*
X51404267Y86216479D02*
X46537950Y86216479D01*
X52404267Y87216479D02*
X51404267Y86216479D01*
X46537950Y86216479D02*
X46187517Y86566912D01*
G04 #@! TO.N,/IN_DIGITAL_134_HS*
X40076262Y83298679D02*
X40807515Y84029932D01*
X40675005Y61955766D02*
X45650000Y66930761D01*
X45650000Y68707815D02*
X45488966Y68868849D01*
X45488966Y68868849D02*
X44188966Y68868849D01*
X40807515Y84029932D02*
X52090814Y84029932D01*
X40675005Y45325005D02*
X40675005Y61955766D01*
X43497637Y71502363D02*
X42596838Y72403162D01*
X52090814Y84029932D02*
X54904267Y81216479D01*
X44188966Y68868849D02*
X43497637Y69560178D01*
X42596838Y72403162D02*
X40072248Y72403162D01*
X43497637Y69560178D02*
X43497637Y71502363D01*
X39500000Y72975410D02*
X39500000Y82722417D01*
X39500000Y82722417D02*
X40076262Y83298679D01*
X40072248Y72403162D02*
X39500000Y72975410D01*
X45650000Y66930761D02*
X45650000Y68707815D01*
G04 #@! TO.N,/IN_DIGITAL_135_HS*
X49250000Y64595585D02*
X49250000Y76250000D01*
X45119088Y75632425D02*
X44493331Y75006668D01*
X41475005Y45325005D02*
X41475005Y56820590D01*
X53404267Y79130693D02*
X49191314Y83343646D01*
X43097539Y83343646D02*
X43176413Y83264772D01*
X52818481Y77716479D02*
X53404267Y78302265D01*
X47363328Y77716479D02*
X52818481Y77716479D01*
X49250000Y76250000D02*
X48703524Y76796476D01*
X43000000Y74337946D02*
X43000000Y82079807D01*
X53404267Y78302265D02*
X53404267Y79130693D01*
X47079397Y76796476D02*
X45915346Y75632425D01*
X45915346Y75632425D02*
X45119088Y75632425D01*
X43000000Y82079807D02*
X47363328Y77716479D01*
X43429716Y73908230D02*
X43000000Y74337946D01*
X41475005Y56820590D02*
X49250000Y64595585D01*
X50355974Y83264772D02*
X52404267Y81216479D01*
X48703524Y76796476D02*
X47079397Y76796476D01*
X44493331Y74433367D02*
X43968194Y73908230D01*
X43968194Y73908230D02*
X43429716Y73908230D01*
X49191314Y83343646D02*
X43097539Y83343646D01*
X44493331Y75006668D02*
X44493331Y74433367D01*
X43176413Y83264772D02*
X50355974Y83264772D01*
G04 #@! TO.N,/IN_DIGITAL_136_HS*
X48470746Y82650000D02*
X49904267Y81216479D01*
X42295061Y82614772D02*
X43323057Y82614772D01*
X43358285Y82650000D02*
X48470746Y82650000D01*
X43323057Y82614772D02*
X43358285Y82650000D01*
X41587104Y83322729D02*
X42295061Y82614772D01*
G04 #@! TO.N,/IN_DIGITAL_147_HS*
X51404267Y79716479D02*
X49282567Y79716479D01*
X49282567Y79716479D02*
X46999046Y82000000D01*
X52404267Y78716479D02*
X51404267Y79716479D01*
D27*
G04 #@! TO.N,Net-(J1-16A)*
X68754267Y80377104D02*
X68754267Y86066479D01*
X68754267Y86066479D02*
X69904267Y87216479D01*
X68754267Y79622896D02*
X68800000Y79668629D01*
X68400000Y67950000D02*
X67738001Y68611999D01*
X68800000Y80331371D02*
X68754267Y80377104D01*
X68754267Y78254267D02*
X68754267Y79622896D01*
X68800000Y79668629D02*
X68800000Y80331371D01*
X67738001Y77238001D02*
X68754267Y78254267D01*
X67738001Y68611999D02*
X67738001Y77238001D01*
G04 #@! TO.N,/OUT_LS_235*
X78149851Y91516479D02*
X17016479Y91516479D01*
X17000000Y91500000D02*
X14000000Y91500000D01*
X80000000Y89666330D02*
X78149851Y91516479D01*
X12554267Y90054267D02*
X12554267Y82366479D01*
X80000000Y60200000D02*
X80000000Y89666330D01*
X17016479Y91516479D02*
X17000000Y91500000D01*
X12554267Y82366479D02*
X11404267Y81216479D01*
X14000000Y91500000D02*
X12554267Y90054267D01*
D28*
G04 #@! TO.N,Net-(J1-55A)*
X53000000Y73437212D02*
X54279267Y74716479D01*
X53000000Y67450000D02*
X53000000Y73437212D01*
D26*
G04 #@! TO.N,GNDA*
X63654267Y90966479D02*
X30154267Y90966479D01*
X30404267Y88216479D02*
X28904267Y89716479D01*
X64904267Y89716479D02*
X63654267Y90966479D01*
X64904267Y89716479D02*
X72404267Y89716479D01*
X30404267Y65690733D02*
X30404267Y88216479D01*
X31500000Y64595000D02*
X30404267Y65690733D01*
X30154267Y90966479D02*
X28904267Y89716479D01*
X28904267Y89716479D02*
X18904267Y89716479D01*
D28*
G04 #@! TO.N,Net-(J1-56A)*
X50500000Y74687212D02*
X50529267Y74716479D01*
X50500000Y67450000D02*
X50500000Y74687212D01*
D27*
G04 #@! TO.N,/OUT_LS_246*
X10254267Y90392825D02*
X10254267Y80540133D01*
X12754267Y79866479D02*
X13904267Y78716479D01*
X12361442Y92500000D02*
X10254267Y90392825D01*
X10254267Y80540133D02*
X10927921Y79866479D01*
X10927921Y79866479D02*
X12754267Y79866479D01*
X78085568Y92500000D02*
X12361442Y92500000D01*
X80700000Y60700000D02*
X80700000Y89885568D01*
X80700000Y89885568D02*
X78085568Y92500000D01*
D26*
G04 #@! TO.N,Net-(J1-7A)*
X63404267Y68000733D02*
X63404267Y88716479D01*
X64000000Y67405000D02*
X63404267Y68000733D01*
X63404267Y88716479D02*
X62404267Y89716479D01*
D28*
G04 #@! TO.N,+12V_RAW*
X67353130Y62100000D02*
X68153130Y61300000D01*
X66484925Y62100000D02*
X67353130Y62100000D01*
X54475001Y60575002D02*
X54475001Y61074999D01*
X68153130Y61300000D02*
X71500000Y61300000D01*
X62101870Y63200000D02*
X62398130Y63200000D01*
X53000000Y62550000D02*
X50500000Y62550000D01*
X54475001Y60575002D02*
X56082999Y62183000D01*
X50500000Y62550000D02*
X49738001Y63311999D01*
X62398130Y63200000D02*
X63498130Y62100000D01*
X49738001Y63311999D02*
X49027074Y63311999D01*
X65115075Y62100000D02*
X65365075Y62350000D01*
X61084870Y62183000D02*
X62101870Y63200000D01*
X56082999Y62183000D02*
X61084870Y62183000D01*
X66234925Y62350000D02*
X66484925Y62100000D01*
X65365075Y62350000D02*
X66234925Y62350000D01*
X63498130Y62100000D02*
X65115075Y62100000D01*
X54475001Y61074999D02*
X53000000Y62550000D01*
D26*
G04 #@! TO.N,Net-(J1-8A)*
X60500000Y76706532D02*
X58904267Y78302265D01*
X60500000Y67405000D02*
X60500000Y76706532D01*
X58904267Y88716479D02*
X59904267Y89716479D01*
X58904267Y78302265D02*
X58904267Y88716479D01*
G04 #@! TO.N,Net-(J1-11A)*
X53404267Y87095733D02*
X53404267Y88716479D01*
X55300000Y67405000D02*
X56054267Y68159267D01*
X56054267Y84445733D02*
X53404267Y87095733D01*
X56054267Y68159267D02*
X56054267Y84445733D01*
X53404267Y88716479D02*
X52404267Y89716479D01*
G04 #@! TO.N,Net-(J1-37A)*
X74100000Y77600000D02*
X73900000Y77800000D01*
X74100000Y72010000D02*
X74100000Y75400000D01*
X73090000Y71000000D02*
X74100000Y72010000D01*
X74100000Y75400000D02*
X74100000Y77600000D01*
G04 #@! TO.N,Net-(J1-14A)*
X72818481Y80216479D02*
X73404267Y80802265D01*
X73404267Y85716479D02*
X74904267Y87216479D01*
X73404267Y80802265D02*
X73404267Y85716479D01*
X72490053Y80216479D02*
X72818481Y80216479D01*
X71400000Y79126426D02*
X72490053Y80216479D01*
X71400000Y67405000D02*
X71400000Y79126426D01*
G04 #@! TO.N,Net-(J1-21A)*
X56404267Y68500733D02*
X56404267Y86216479D01*
X57500000Y67405000D02*
X56404267Y68500733D01*
X56404267Y86216479D02*
X57404267Y87216479D01*
G04 #@! TO.N,Net-(J1-25A)*
X75779267Y68625733D02*
X75779267Y76779267D01*
X77000000Y67405000D02*
X75779267Y68625733D01*
X76404267Y80216479D02*
X77404267Y81216479D01*
X76404267Y77404267D02*
X76404267Y80216479D01*
X75779267Y76779267D02*
X76404267Y77404267D01*
G04 #@! TO.N,Net-(J1-26A)*
X75429267Y67734267D02*
X75429267Y76929267D01*
X75100000Y67405000D02*
X75429267Y67734267D01*
X75429267Y76929267D02*
X76000000Y77500000D01*
X76000000Y77500000D02*
X76000000Y80120746D01*
X76000000Y80120746D02*
X74904267Y81216479D01*
G04 #@! TO.N,Net-(J1-38A)*
X74904267Y70295734D02*
X74904267Y78716479D01*
X73300000Y67405000D02*
X73300000Y68691467D01*
X73300000Y68691467D02*
X74904267Y70295734D01*
G04 #@! TO.N,Net-(J1-33B)*
X17500000Y76013513D02*
X17500000Y80120746D01*
X17500000Y80120746D02*
X16404267Y81216479D01*
X22000000Y71513513D02*
X17500000Y76013513D01*
X22000000Y68405000D02*
X22000000Y71513513D01*
G04 #@! TO.N,Net-(J1-37B)*
X33500000Y75812212D02*
X36404267Y78716479D01*
X33500000Y68405000D02*
X33500000Y75812212D01*
G04 #@! TO.N,Net-(J1-38B)*
X33150000Y77962212D02*
X33904267Y78716479D01*
X31500000Y68405000D02*
X33150000Y70055000D01*
X33150000Y70055000D02*
X33150000Y77962212D01*
D28*
G04 #@! TO.N,Net-(J1-51B)*
X28250000Y74687212D02*
X28279267Y74716479D01*
X28250000Y68405000D02*
X28250000Y74687212D01*
G04 #@! TO.N,Net-(J1-52B)*
X24500000Y68405000D02*
X24500000Y74687212D01*
X24500000Y74687212D02*
X24529267Y74716479D01*
D26*
G04 #@! TO.N,/IN_CRANK-*
X38261999Y87858747D02*
X36404267Y89716479D01*
X38261999Y69166999D02*
X38261999Y87858747D01*
X37500000Y68405000D02*
X38261999Y69166999D01*
G04 #@! TO.N,/IN_CRANK+*
X35500000Y68405000D02*
X37654267Y70559267D01*
X37654267Y85966479D02*
X36404267Y87216479D01*
X37654267Y70559267D02*
X37654267Y85966479D01*
G04 #@! TD*
M02*
