G04 #@! TF.GenerationSoftware,KiCad,Pcbnew,8.0.6-8.0.6-0~ubuntu22.04.1*
G04 #@! TF.CreationDate,2024-11-30T06:57:09+00:00*
G04 #@! TF.ProjectId,hellen-112-17,68656c6c-656e-42d3-9131-322d31372e6b,B*
G04 #@! TF.SameCoordinates,Original*
G04 #@! TF.FileFunction,Legend,Top*
G04 #@! TF.FilePolarity,Positive*
%FSLAX46Y46*%
G04 Gerber Fmt 4.6, Leading zero omitted, Abs format (unit mm)*
G04 Created by KiCad (PCBNEW 8.0.6-8.0.6-0~ubuntu22.04.1) date 2024-11-30 06:57:09*
%MOMM*%
%LPD*%
G01*
G04 APERTURE LIST*
%ADD10C,0.200000*%
%ADD11C,0.127000*%
%ADD12C,0.150000*%
%ADD13C,0.099060*%
%ADD14C,0.120000*%
G04 APERTURE END LIST*
D10*
X72187795Y71359337D02*
X72187795Y70645051D01*
X72187795Y70645051D02*
X72902081Y70573623D01*
X72902081Y70573623D02*
X72830652Y70645051D01*
X72830652Y70645051D02*
X72759224Y70787908D01*
X72759224Y70787908D02*
X72759224Y71145051D01*
X72759224Y71145051D02*
X72830652Y71287908D01*
X72830652Y71287908D02*
X72902081Y71359337D01*
X72902081Y71359337D02*
X73044938Y71430766D01*
X73044938Y71430766D02*
X73402081Y71430766D01*
X73402081Y71430766D02*
X73544938Y71359337D01*
X73544938Y71359337D02*
X73616367Y71287908D01*
X73616367Y71287908D02*
X73687795Y71145051D01*
X73687795Y71145051D02*
X73687795Y70787908D01*
X73687795Y70787908D02*
X73616367Y70645051D01*
X73616367Y70645051D02*
X73544938Y70573623D01*
X72187795Y72359337D02*
X72187795Y72502194D01*
X72187795Y72502194D02*
X72259224Y72645051D01*
X72259224Y72645051D02*
X72330652Y72716479D01*
X72330652Y72716479D02*
X72473509Y72787908D01*
X72473509Y72787908D02*
X72759224Y72859337D01*
X72759224Y72859337D02*
X73116367Y72859337D01*
X73116367Y72859337D02*
X73402081Y72787908D01*
X73402081Y72787908D02*
X73544938Y72716479D01*
X73544938Y72716479D02*
X73616367Y72645051D01*
X73616367Y72645051D02*
X73687795Y72502194D01*
X73687795Y72502194D02*
X73687795Y72359337D01*
X73687795Y72359337D02*
X73616367Y72216479D01*
X73616367Y72216479D02*
X73544938Y72145051D01*
X73544938Y72145051D02*
X73402081Y72073622D01*
X73402081Y72073622D02*
X73116367Y72002194D01*
X73116367Y72002194D02*
X72759224Y72002194D01*
X72759224Y72002194D02*
X72473509Y72073622D01*
X72473509Y72073622D02*
X72330652Y72145051D01*
X72330652Y72145051D02*
X72259224Y72216479D01*
X72259224Y72216479D02*
X72187795Y72359337D01*
X27587795Y71359337D02*
X27587795Y70645051D01*
X27587795Y70645051D02*
X28302081Y70573623D01*
X28302081Y70573623D02*
X28230652Y70645051D01*
X28230652Y70645051D02*
X28159224Y70787908D01*
X28159224Y70787908D02*
X28159224Y71145051D01*
X28159224Y71145051D02*
X28230652Y71287908D01*
X28230652Y71287908D02*
X28302081Y71359337D01*
X28302081Y71359337D02*
X28444938Y71430766D01*
X28444938Y71430766D02*
X28802081Y71430766D01*
X28802081Y71430766D02*
X28944938Y71359337D01*
X28944938Y71359337D02*
X29016367Y71287908D01*
X29016367Y71287908D02*
X29087795Y71145051D01*
X29087795Y71145051D02*
X29087795Y70787908D01*
X29087795Y70787908D02*
X29016367Y70645051D01*
X29016367Y70645051D02*
X28944938Y70573623D01*
X29087795Y72859337D02*
X29087795Y72002194D01*
X29087795Y72430765D02*
X27587795Y72430765D01*
X27587795Y72430765D02*
X27802081Y72287908D01*
X27802081Y72287908D02*
X27944938Y72145051D01*
X27944938Y72145051D02*
X28016367Y72002194D01*
X78730652Y81073623D02*
X78659224Y81145051D01*
X78659224Y81145051D02*
X78587795Y81287908D01*
X78587795Y81287908D02*
X78587795Y81645051D01*
X78587795Y81645051D02*
X78659224Y81787908D01*
X78659224Y81787908D02*
X78730652Y81859337D01*
X78730652Y81859337D02*
X78873509Y81930766D01*
X78873509Y81930766D02*
X79016367Y81930766D01*
X79016367Y81930766D02*
X79230652Y81859337D01*
X79230652Y81859337D02*
X80087795Y81002194D01*
X80087795Y81002194D02*
X80087795Y81930766D01*
X78587795Y83287908D02*
X78587795Y82573622D01*
X78587795Y82573622D02*
X79302081Y82502194D01*
X79302081Y82502194D02*
X79230652Y82573622D01*
X79230652Y82573622D02*
X79159224Y82716479D01*
X79159224Y82716479D02*
X79159224Y83073622D01*
X79159224Y83073622D02*
X79230652Y83216479D01*
X79230652Y83216479D02*
X79302081Y83287908D01*
X79302081Y83287908D02*
X79444938Y83359337D01*
X79444938Y83359337D02*
X79802081Y83359337D01*
X79802081Y83359337D02*
X79944938Y83287908D01*
X79944938Y83287908D02*
X80016367Y83216479D01*
X80016367Y83216479D02*
X80087795Y83073622D01*
X80087795Y83073622D02*
X80087795Y82716479D01*
X80087795Y82716479D02*
X80016367Y82573622D01*
X80016367Y82573622D02*
X79944938Y82502194D01*
X8687795Y71359337D02*
X8687795Y70645051D01*
X8687795Y70645051D02*
X9402081Y70573623D01*
X9402081Y70573623D02*
X9330652Y70645051D01*
X9330652Y70645051D02*
X9259224Y70787908D01*
X9259224Y70787908D02*
X9259224Y71145051D01*
X9259224Y71145051D02*
X9330652Y71287908D01*
X9330652Y71287908D02*
X9402081Y71359337D01*
X9402081Y71359337D02*
X9544938Y71430766D01*
X9544938Y71430766D02*
X9902081Y71430766D01*
X9902081Y71430766D02*
X10044938Y71359337D01*
X10044938Y71359337D02*
X10116367Y71287908D01*
X10116367Y71287908D02*
X10187795Y71145051D01*
X10187795Y71145051D02*
X10187795Y70787908D01*
X10187795Y70787908D02*
X10116367Y70645051D01*
X10116367Y70645051D02*
X10044938Y70573623D01*
X8687795Y72716479D02*
X8687795Y72430765D01*
X8687795Y72430765D02*
X8759224Y72287908D01*
X8759224Y72287908D02*
X8830652Y72216479D01*
X8830652Y72216479D02*
X9044938Y72073622D01*
X9044938Y72073622D02*
X9330652Y72002194D01*
X9330652Y72002194D02*
X9902081Y72002194D01*
X9902081Y72002194D02*
X10044938Y72073622D01*
X10044938Y72073622D02*
X10116367Y72145051D01*
X10116367Y72145051D02*
X10187795Y72287908D01*
X10187795Y72287908D02*
X10187795Y72573622D01*
X10187795Y72573622D02*
X10116367Y72716479D01*
X10116367Y72716479D02*
X10044938Y72787908D01*
X10044938Y72787908D02*
X9902081Y72859337D01*
X9902081Y72859337D02*
X9544938Y72859337D01*
X9544938Y72859337D02*
X9402081Y72787908D01*
X9402081Y72787908D02*
X9330652Y72716479D01*
X9330652Y72716479D02*
X9259224Y72573622D01*
X9259224Y72573622D02*
X9259224Y72287908D01*
X9259224Y72287908D02*
X9330652Y72145051D01*
X9330652Y72145051D02*
X9402081Y72073622D01*
X9402081Y72073622D02*
X9544938Y72002194D01*
X12487795Y71359337D02*
X12487795Y70645051D01*
X12487795Y70645051D02*
X13202081Y70573623D01*
X13202081Y70573623D02*
X13130652Y70645051D01*
X13130652Y70645051D02*
X13059224Y70787908D01*
X13059224Y70787908D02*
X13059224Y71145051D01*
X13059224Y71145051D02*
X13130652Y71287908D01*
X13130652Y71287908D02*
X13202081Y71359337D01*
X13202081Y71359337D02*
X13344938Y71430766D01*
X13344938Y71430766D02*
X13702081Y71430766D01*
X13702081Y71430766D02*
X13844938Y71359337D01*
X13844938Y71359337D02*
X13916367Y71287908D01*
X13916367Y71287908D02*
X13987795Y71145051D01*
X13987795Y71145051D02*
X13987795Y70787908D01*
X13987795Y70787908D02*
X13916367Y70645051D01*
X13916367Y70645051D02*
X13844938Y70573623D01*
X12487795Y72787908D02*
X12487795Y72073622D01*
X12487795Y72073622D02*
X13202081Y72002194D01*
X13202081Y72002194D02*
X13130652Y72073622D01*
X13130652Y72073622D02*
X13059224Y72216479D01*
X13059224Y72216479D02*
X13059224Y72573622D01*
X13059224Y72573622D02*
X13130652Y72716479D01*
X13130652Y72716479D02*
X13202081Y72787908D01*
X13202081Y72787908D02*
X13344938Y72859337D01*
X13344938Y72859337D02*
X13702081Y72859337D01*
X13702081Y72859337D02*
X13844938Y72787908D01*
X13844938Y72787908D02*
X13916367Y72716479D01*
X13916367Y72716479D02*
X13987795Y72573622D01*
X13987795Y72573622D02*
X13987795Y72216479D01*
X13987795Y72216479D02*
X13916367Y72073622D01*
X13916367Y72073622D02*
X13844938Y72002194D01*
X47230652Y85573623D02*
X47159224Y85645051D01*
X47159224Y85645051D02*
X47087795Y85787908D01*
X47087795Y85787908D02*
X47087795Y86145051D01*
X47087795Y86145051D02*
X47159224Y86287908D01*
X47159224Y86287908D02*
X47230652Y86359337D01*
X47230652Y86359337D02*
X47373509Y86430766D01*
X47373509Y86430766D02*
X47516367Y86430766D01*
X47516367Y86430766D02*
X47730652Y86359337D01*
X47730652Y86359337D02*
X48587795Y85502194D01*
X48587795Y85502194D02*
X48587795Y86430766D01*
X47587795Y87716479D02*
X48587795Y87716479D01*
X47016367Y87359337D02*
X48087795Y87002194D01*
X48087795Y87002194D02*
X48087795Y87930765D01*
X39087795Y86430766D02*
X39087795Y85573623D01*
X39087795Y86002194D02*
X37587795Y86002194D01*
X37587795Y86002194D02*
X37802081Y85859337D01*
X37802081Y85859337D02*
X37944938Y85716480D01*
X37944938Y85716480D02*
X38016367Y85573623D01*
X37587795Y86930765D02*
X37587795Y87859337D01*
X37587795Y87859337D02*
X38159224Y87359337D01*
X38159224Y87359337D02*
X38159224Y87573622D01*
X38159224Y87573622D02*
X38230652Y87716479D01*
X38230652Y87716479D02*
X38302081Y87787908D01*
X38302081Y87787908D02*
X38444938Y87859337D01*
X38444938Y87859337D02*
X38802081Y87859337D01*
X38802081Y87859337D02*
X38944938Y87787908D01*
X38944938Y87787908D02*
X39016367Y87716479D01*
X39016367Y87716479D02*
X39087795Y87573622D01*
X39087795Y87573622D02*
X39087795Y87145051D01*
X39087795Y87145051D02*
X39016367Y87002194D01*
X39016367Y87002194D02*
X38944938Y86930765D01*
X37587795Y76502194D02*
X37587795Y77430766D01*
X37587795Y77430766D02*
X38159224Y76930766D01*
X38159224Y76930766D02*
X38159224Y77145051D01*
X38159224Y77145051D02*
X38230652Y77287908D01*
X38230652Y77287908D02*
X38302081Y77359337D01*
X38302081Y77359337D02*
X38444938Y77430766D01*
X38444938Y77430766D02*
X38802081Y77430766D01*
X38802081Y77430766D02*
X38944938Y77359337D01*
X38944938Y77359337D02*
X39016367Y77287908D01*
X39016367Y77287908D02*
X39087795Y77145051D01*
X39087795Y77145051D02*
X39087795Y76716480D01*
X39087795Y76716480D02*
X39016367Y76573623D01*
X39016367Y76573623D02*
X38944938Y76502194D01*
X37587795Y77930765D02*
X37587795Y78930765D01*
X37587795Y78930765D02*
X39087795Y78287908D01*
X31187795Y71359337D02*
X31187795Y70645051D01*
X31187795Y70645051D02*
X31902081Y70573623D01*
X31902081Y70573623D02*
X31830652Y70645051D01*
X31830652Y70645051D02*
X31759224Y70787908D01*
X31759224Y70787908D02*
X31759224Y71145051D01*
X31759224Y71145051D02*
X31830652Y71287908D01*
X31830652Y71287908D02*
X31902081Y71359337D01*
X31902081Y71359337D02*
X32044938Y71430766D01*
X32044938Y71430766D02*
X32402081Y71430766D01*
X32402081Y71430766D02*
X32544938Y71359337D01*
X32544938Y71359337D02*
X32616367Y71287908D01*
X32616367Y71287908D02*
X32687795Y71145051D01*
X32687795Y71145051D02*
X32687795Y70787908D01*
X32687795Y70787908D02*
X32616367Y70645051D01*
X32616367Y70645051D02*
X32544938Y70573623D01*
X31187795Y72359337D02*
X31187795Y72502194D01*
X31187795Y72502194D02*
X31259224Y72645051D01*
X31259224Y72645051D02*
X31330652Y72716479D01*
X31330652Y72716479D02*
X31473509Y72787908D01*
X31473509Y72787908D02*
X31759224Y72859337D01*
X31759224Y72859337D02*
X32116367Y72859337D01*
X32116367Y72859337D02*
X32402081Y72787908D01*
X32402081Y72787908D02*
X32544938Y72716479D01*
X32544938Y72716479D02*
X32616367Y72645051D01*
X32616367Y72645051D02*
X32687795Y72502194D01*
X32687795Y72502194D02*
X32687795Y72359337D01*
X32687795Y72359337D02*
X32616367Y72216479D01*
X32616367Y72216479D02*
X32544938Y72145051D01*
X32544938Y72145051D02*
X32402081Y72073622D01*
X32402081Y72073622D02*
X32116367Y72002194D01*
X32116367Y72002194D02*
X31759224Y72002194D01*
X31759224Y72002194D02*
X31473509Y72073622D01*
X31473509Y72073622D02*
X31330652Y72145051D01*
X31330652Y72145051D02*
X31259224Y72216479D01*
X31259224Y72216479D02*
X31187795Y72359337D01*
X47587795Y77787908D02*
X48587795Y77787908D01*
X47016367Y77430766D02*
X48087795Y77073623D01*
X48087795Y77073623D02*
X48087795Y78002194D01*
X47730652Y78787908D02*
X47659224Y78645051D01*
X47659224Y78645051D02*
X47587795Y78573622D01*
X47587795Y78573622D02*
X47444938Y78502194D01*
X47444938Y78502194D02*
X47373509Y78502194D01*
X47373509Y78502194D02*
X47230652Y78573622D01*
X47230652Y78573622D02*
X47159224Y78645051D01*
X47159224Y78645051D02*
X47087795Y78787908D01*
X47087795Y78787908D02*
X47087795Y79073622D01*
X47087795Y79073622D02*
X47159224Y79216479D01*
X47159224Y79216479D02*
X47230652Y79287908D01*
X47230652Y79287908D02*
X47373509Y79359337D01*
X47373509Y79359337D02*
X47444938Y79359337D01*
X47444938Y79359337D02*
X47587795Y79287908D01*
X47587795Y79287908D02*
X47659224Y79216479D01*
X47659224Y79216479D02*
X47730652Y79073622D01*
X47730652Y79073622D02*
X47730652Y78787908D01*
X47730652Y78787908D02*
X47802081Y78645051D01*
X47802081Y78645051D02*
X47873509Y78573622D01*
X47873509Y78573622D02*
X48016367Y78502194D01*
X48016367Y78502194D02*
X48302081Y78502194D01*
X48302081Y78502194D02*
X48444938Y78573622D01*
X48444938Y78573622D02*
X48516367Y78645051D01*
X48516367Y78645051D02*
X48587795Y78787908D01*
X48587795Y78787908D02*
X48587795Y79073622D01*
X48587795Y79073622D02*
X48516367Y79216479D01*
X48516367Y79216479D02*
X48444938Y79287908D01*
X48444938Y79287908D02*
X48302081Y79359337D01*
X48302081Y79359337D02*
X48016367Y79359337D01*
X48016367Y79359337D02*
X47873509Y79287908D01*
X47873509Y79287908D02*
X47802081Y79216479D01*
X47802081Y79216479D02*
X47730652Y79073622D01*
X64687795Y71359337D02*
X64687795Y70645051D01*
X64687795Y70645051D02*
X65402081Y70573623D01*
X65402081Y70573623D02*
X65330652Y70645051D01*
X65330652Y70645051D02*
X65259224Y70787908D01*
X65259224Y70787908D02*
X65259224Y71145051D01*
X65259224Y71145051D02*
X65330652Y71287908D01*
X65330652Y71287908D02*
X65402081Y71359337D01*
X65402081Y71359337D02*
X65544938Y71430766D01*
X65544938Y71430766D02*
X65902081Y71430766D01*
X65902081Y71430766D02*
X66044938Y71359337D01*
X66044938Y71359337D02*
X66116367Y71287908D01*
X66116367Y71287908D02*
X66187795Y71145051D01*
X66187795Y71145051D02*
X66187795Y70787908D01*
X66187795Y70787908D02*
X66116367Y70645051D01*
X66116367Y70645051D02*
X66044938Y70573623D01*
X64830652Y72002194D02*
X64759224Y72073622D01*
X64759224Y72073622D02*
X64687795Y72216479D01*
X64687795Y72216479D02*
X64687795Y72573622D01*
X64687795Y72573622D02*
X64759224Y72716479D01*
X64759224Y72716479D02*
X64830652Y72787908D01*
X64830652Y72787908D02*
X64973509Y72859337D01*
X64973509Y72859337D02*
X65116367Y72859337D01*
X65116367Y72859337D02*
X65330652Y72787908D01*
X65330652Y72787908D02*
X66187795Y71930765D01*
X66187795Y71930765D02*
X66187795Y72859337D01*
X68587795Y71359337D02*
X68587795Y70645051D01*
X68587795Y70645051D02*
X69302081Y70573623D01*
X69302081Y70573623D02*
X69230652Y70645051D01*
X69230652Y70645051D02*
X69159224Y70787908D01*
X69159224Y70787908D02*
X69159224Y71145051D01*
X69159224Y71145051D02*
X69230652Y71287908D01*
X69230652Y71287908D02*
X69302081Y71359337D01*
X69302081Y71359337D02*
X69444938Y71430766D01*
X69444938Y71430766D02*
X69802081Y71430766D01*
X69802081Y71430766D02*
X69944938Y71359337D01*
X69944938Y71359337D02*
X70016367Y71287908D01*
X70016367Y71287908D02*
X70087795Y71145051D01*
X70087795Y71145051D02*
X70087795Y70787908D01*
X70087795Y70787908D02*
X70016367Y70645051D01*
X70016367Y70645051D02*
X69944938Y70573623D01*
X70087795Y72859337D02*
X70087795Y72002194D01*
X70087795Y72430765D02*
X68587795Y72430765D01*
X68587795Y72430765D02*
X68802081Y72287908D01*
X68802081Y72287908D02*
X68944938Y72145051D01*
X68944938Y72145051D02*
X69016367Y72002194D01*
X6230652Y85573623D02*
X6159224Y85645051D01*
X6159224Y85645051D02*
X6087795Y85787908D01*
X6087795Y85787908D02*
X6087795Y86145051D01*
X6087795Y86145051D02*
X6159224Y86287908D01*
X6159224Y86287908D02*
X6230652Y86359337D01*
X6230652Y86359337D02*
X6373509Y86430766D01*
X6373509Y86430766D02*
X6516367Y86430766D01*
X6516367Y86430766D02*
X6730652Y86359337D01*
X6730652Y86359337D02*
X7587795Y85502194D01*
X7587795Y85502194D02*
X7587795Y86430766D01*
X6587795Y87716479D02*
X7587795Y87716479D01*
X6016367Y87359337D02*
X7087795Y87002194D01*
X7087795Y87002194D02*
X7087795Y87930765D01*
X57187795Y71359337D02*
X57187795Y70645051D01*
X57187795Y70645051D02*
X57902081Y70573623D01*
X57902081Y70573623D02*
X57830652Y70645051D01*
X57830652Y70645051D02*
X57759224Y70787908D01*
X57759224Y70787908D02*
X57759224Y71145051D01*
X57759224Y71145051D02*
X57830652Y71287908D01*
X57830652Y71287908D02*
X57902081Y71359337D01*
X57902081Y71359337D02*
X58044938Y71430766D01*
X58044938Y71430766D02*
X58402081Y71430766D01*
X58402081Y71430766D02*
X58544938Y71359337D01*
X58544938Y71359337D02*
X58616367Y71287908D01*
X58616367Y71287908D02*
X58687795Y71145051D01*
X58687795Y71145051D02*
X58687795Y70787908D01*
X58687795Y70787908D02*
X58616367Y70645051D01*
X58616367Y70645051D02*
X58544938Y70573623D01*
X57687795Y72716479D02*
X58687795Y72716479D01*
X57116367Y72359337D02*
X58187795Y72002194D01*
X58187795Y72002194D02*
X58187795Y72930765D01*
X37730652Y81073623D02*
X37659224Y81145051D01*
X37659224Y81145051D02*
X37587795Y81287908D01*
X37587795Y81287908D02*
X37587795Y81645051D01*
X37587795Y81645051D02*
X37659224Y81787908D01*
X37659224Y81787908D02*
X37730652Y81859337D01*
X37730652Y81859337D02*
X37873509Y81930766D01*
X37873509Y81930766D02*
X38016367Y81930766D01*
X38016367Y81930766D02*
X38230652Y81859337D01*
X38230652Y81859337D02*
X39087795Y81002194D01*
X39087795Y81002194D02*
X39087795Y81930766D01*
X37587795Y83287908D02*
X37587795Y82573622D01*
X37587795Y82573622D02*
X38302081Y82502194D01*
X38302081Y82502194D02*
X38230652Y82573622D01*
X38230652Y82573622D02*
X38159224Y82716479D01*
X38159224Y82716479D02*
X38159224Y83073622D01*
X38159224Y83073622D02*
X38230652Y83216479D01*
X38230652Y83216479D02*
X38302081Y83287908D01*
X38302081Y83287908D02*
X38444938Y83359337D01*
X38444938Y83359337D02*
X38802081Y83359337D01*
X38802081Y83359337D02*
X38944938Y83287908D01*
X38944938Y83287908D02*
X39016367Y83216479D01*
X39016367Y83216479D02*
X39087795Y83073622D01*
X39087795Y83073622D02*
X39087795Y82716479D01*
X39087795Y82716479D02*
X39016367Y82573622D01*
X39016367Y82573622D02*
X38944938Y82502194D01*
X53487795Y71359337D02*
X53487795Y70645051D01*
X53487795Y70645051D02*
X54202081Y70573623D01*
X54202081Y70573623D02*
X54130652Y70645051D01*
X54130652Y70645051D02*
X54059224Y70787908D01*
X54059224Y70787908D02*
X54059224Y71145051D01*
X54059224Y71145051D02*
X54130652Y71287908D01*
X54130652Y71287908D02*
X54202081Y71359337D01*
X54202081Y71359337D02*
X54344938Y71430766D01*
X54344938Y71430766D02*
X54702081Y71430766D01*
X54702081Y71430766D02*
X54844938Y71359337D01*
X54844938Y71359337D02*
X54916367Y71287908D01*
X54916367Y71287908D02*
X54987795Y71145051D01*
X54987795Y71145051D02*
X54987795Y70787908D01*
X54987795Y70787908D02*
X54916367Y70645051D01*
X54916367Y70645051D02*
X54844938Y70573623D01*
X53487795Y72787908D02*
X53487795Y72073622D01*
X53487795Y72073622D02*
X54202081Y72002194D01*
X54202081Y72002194D02*
X54130652Y72073622D01*
X54130652Y72073622D02*
X54059224Y72216479D01*
X54059224Y72216479D02*
X54059224Y72573622D01*
X54059224Y72573622D02*
X54130652Y72716479D01*
X54130652Y72716479D02*
X54202081Y72787908D01*
X54202081Y72787908D02*
X54344938Y72859337D01*
X54344938Y72859337D02*
X54702081Y72859337D01*
X54702081Y72859337D02*
X54844938Y72787908D01*
X54844938Y72787908D02*
X54916367Y72716479D01*
X54916367Y72716479D02*
X54987795Y72573622D01*
X54987795Y72573622D02*
X54987795Y72216479D01*
X54987795Y72216479D02*
X54916367Y72073622D01*
X54916367Y72073622D02*
X54844938Y72002194D01*
X23687795Y71359337D02*
X23687795Y70645051D01*
X23687795Y70645051D02*
X24402081Y70573623D01*
X24402081Y70573623D02*
X24330652Y70645051D01*
X24330652Y70645051D02*
X24259224Y70787908D01*
X24259224Y70787908D02*
X24259224Y71145051D01*
X24259224Y71145051D02*
X24330652Y71287908D01*
X24330652Y71287908D02*
X24402081Y71359337D01*
X24402081Y71359337D02*
X24544938Y71430766D01*
X24544938Y71430766D02*
X24902081Y71430766D01*
X24902081Y71430766D02*
X25044938Y71359337D01*
X25044938Y71359337D02*
X25116367Y71287908D01*
X25116367Y71287908D02*
X25187795Y71145051D01*
X25187795Y71145051D02*
X25187795Y70787908D01*
X25187795Y70787908D02*
X25116367Y70645051D01*
X25116367Y70645051D02*
X25044938Y70573623D01*
X23830652Y72002194D02*
X23759224Y72073622D01*
X23759224Y72073622D02*
X23687795Y72216479D01*
X23687795Y72216479D02*
X23687795Y72573622D01*
X23687795Y72573622D02*
X23759224Y72716479D01*
X23759224Y72716479D02*
X23830652Y72787908D01*
X23830652Y72787908D02*
X23973509Y72859337D01*
X23973509Y72859337D02*
X24116367Y72859337D01*
X24116367Y72859337D02*
X24330652Y72787908D01*
X24330652Y72787908D02*
X25187795Y71930765D01*
X25187795Y71930765D02*
X25187795Y72859337D01*
X6087795Y80502194D02*
X6087795Y81430766D01*
X6087795Y81430766D02*
X6659224Y80930766D01*
X6659224Y80930766D02*
X6659224Y81145051D01*
X6659224Y81145051D02*
X6730652Y81287908D01*
X6730652Y81287908D02*
X6802081Y81359337D01*
X6802081Y81359337D02*
X6944938Y81430766D01*
X6944938Y81430766D02*
X7302081Y81430766D01*
X7302081Y81430766D02*
X7444938Y81359337D01*
X7444938Y81359337D02*
X7516367Y81287908D01*
X7516367Y81287908D02*
X7587795Y81145051D01*
X7587795Y81145051D02*
X7587795Y80716480D01*
X7587795Y80716480D02*
X7516367Y80573623D01*
X7516367Y80573623D02*
X7444938Y80502194D01*
X6087795Y82716479D02*
X6087795Y82430765D01*
X6087795Y82430765D02*
X6159224Y82287908D01*
X6159224Y82287908D02*
X6230652Y82216479D01*
X6230652Y82216479D02*
X6444938Y82073622D01*
X6444938Y82073622D02*
X6730652Y82002194D01*
X6730652Y82002194D02*
X7302081Y82002194D01*
X7302081Y82002194D02*
X7444938Y82073622D01*
X7444938Y82073622D02*
X7516367Y82145051D01*
X7516367Y82145051D02*
X7587795Y82287908D01*
X7587795Y82287908D02*
X7587795Y82573622D01*
X7587795Y82573622D02*
X7516367Y82716479D01*
X7516367Y82716479D02*
X7444938Y82787908D01*
X7444938Y82787908D02*
X7302081Y82859337D01*
X7302081Y82859337D02*
X6944938Y82859337D01*
X6944938Y82859337D02*
X6802081Y82787908D01*
X6802081Y82787908D02*
X6730652Y82716479D01*
X6730652Y82716479D02*
X6659224Y82573622D01*
X6659224Y82573622D02*
X6659224Y82287908D01*
X6659224Y82287908D02*
X6730652Y82145051D01*
X6730652Y82145051D02*
X6802081Y82073622D01*
X6802081Y82073622D02*
X6944938Y82002194D01*
X39087795Y90645052D02*
X39087795Y89787909D01*
X39087795Y90216480D02*
X37587795Y90216480D01*
X37587795Y90216480D02*
X37802081Y90073623D01*
X37802081Y90073623D02*
X37944938Y89930766D01*
X37944938Y89930766D02*
X38016367Y89787909D01*
X19987795Y71359337D02*
X19987795Y70645051D01*
X19987795Y70645051D02*
X20702081Y70573623D01*
X20702081Y70573623D02*
X20630652Y70645051D01*
X20630652Y70645051D02*
X20559224Y70787908D01*
X20559224Y70787908D02*
X20559224Y71145051D01*
X20559224Y71145051D02*
X20630652Y71287908D01*
X20630652Y71287908D02*
X20702081Y71359337D01*
X20702081Y71359337D02*
X20844938Y71430766D01*
X20844938Y71430766D02*
X21202081Y71430766D01*
X21202081Y71430766D02*
X21344938Y71359337D01*
X21344938Y71359337D02*
X21416367Y71287908D01*
X21416367Y71287908D02*
X21487795Y71145051D01*
X21487795Y71145051D02*
X21487795Y70787908D01*
X21487795Y70787908D02*
X21416367Y70645051D01*
X21416367Y70645051D02*
X21344938Y70573623D01*
X19987795Y71930765D02*
X19987795Y72859337D01*
X19987795Y72859337D02*
X20559224Y72359337D01*
X20559224Y72359337D02*
X20559224Y72573622D01*
X20559224Y72573622D02*
X20630652Y72716479D01*
X20630652Y72716479D02*
X20702081Y72787908D01*
X20702081Y72787908D02*
X20844938Y72859337D01*
X20844938Y72859337D02*
X21202081Y72859337D01*
X21202081Y72859337D02*
X21344938Y72787908D01*
X21344938Y72787908D02*
X21416367Y72716479D01*
X21416367Y72716479D02*
X21487795Y72573622D01*
X21487795Y72573622D02*
X21487795Y72145051D01*
X21487795Y72145051D02*
X21416367Y72002194D01*
X21416367Y72002194D02*
X21344938Y71930765D01*
X16187795Y71359337D02*
X16187795Y70645051D01*
X16187795Y70645051D02*
X16902081Y70573623D01*
X16902081Y70573623D02*
X16830652Y70645051D01*
X16830652Y70645051D02*
X16759224Y70787908D01*
X16759224Y70787908D02*
X16759224Y71145051D01*
X16759224Y71145051D02*
X16830652Y71287908D01*
X16830652Y71287908D02*
X16902081Y71359337D01*
X16902081Y71359337D02*
X17044938Y71430766D01*
X17044938Y71430766D02*
X17402081Y71430766D01*
X17402081Y71430766D02*
X17544938Y71359337D01*
X17544938Y71359337D02*
X17616367Y71287908D01*
X17616367Y71287908D02*
X17687795Y71145051D01*
X17687795Y71145051D02*
X17687795Y70787908D01*
X17687795Y70787908D02*
X17616367Y70645051D01*
X17616367Y70645051D02*
X17544938Y70573623D01*
X16687795Y72716479D02*
X17687795Y72716479D01*
X16116367Y72359337D02*
X17187795Y72002194D01*
X17187795Y72002194D02*
X17187795Y72930765D01*
X6587795Y77787908D02*
X7587795Y77787908D01*
X6016367Y77430766D02*
X7087795Y77073623D01*
X7087795Y77073623D02*
X7087795Y78002194D01*
X6730652Y78787908D02*
X6659224Y78645051D01*
X6659224Y78645051D02*
X6587795Y78573622D01*
X6587795Y78573622D02*
X6444938Y78502194D01*
X6444938Y78502194D02*
X6373509Y78502194D01*
X6373509Y78502194D02*
X6230652Y78573622D01*
X6230652Y78573622D02*
X6159224Y78645051D01*
X6159224Y78645051D02*
X6087795Y78787908D01*
X6087795Y78787908D02*
X6087795Y79073622D01*
X6087795Y79073622D02*
X6159224Y79216479D01*
X6159224Y79216479D02*
X6230652Y79287908D01*
X6230652Y79287908D02*
X6373509Y79359337D01*
X6373509Y79359337D02*
X6444938Y79359337D01*
X6444938Y79359337D02*
X6587795Y79287908D01*
X6587795Y79287908D02*
X6659224Y79216479D01*
X6659224Y79216479D02*
X6730652Y79073622D01*
X6730652Y79073622D02*
X6730652Y78787908D01*
X6730652Y78787908D02*
X6802081Y78645051D01*
X6802081Y78645051D02*
X6873509Y78573622D01*
X6873509Y78573622D02*
X7016367Y78502194D01*
X7016367Y78502194D02*
X7302081Y78502194D01*
X7302081Y78502194D02*
X7444938Y78573622D01*
X7444938Y78573622D02*
X7516367Y78645051D01*
X7516367Y78645051D02*
X7587795Y78787908D01*
X7587795Y78787908D02*
X7587795Y79073622D01*
X7587795Y79073622D02*
X7516367Y79216479D01*
X7516367Y79216479D02*
X7444938Y79287908D01*
X7444938Y79287908D02*
X7302081Y79359337D01*
X7302081Y79359337D02*
X7016367Y79359337D01*
X7016367Y79359337D02*
X6873509Y79287908D01*
X6873509Y79287908D02*
X6802081Y79216479D01*
X6802081Y79216479D02*
X6730652Y79073622D01*
X80087795Y86430766D02*
X80087795Y85573623D01*
X80087795Y86002194D02*
X78587795Y86002194D01*
X78587795Y86002194D02*
X78802081Y85859337D01*
X78802081Y85859337D02*
X78944938Y85716480D01*
X78944938Y85716480D02*
X79016367Y85573623D01*
X78587795Y86930765D02*
X78587795Y87859337D01*
X78587795Y87859337D02*
X79159224Y87359337D01*
X79159224Y87359337D02*
X79159224Y87573622D01*
X79159224Y87573622D02*
X79230652Y87716479D01*
X79230652Y87716479D02*
X79302081Y87787908D01*
X79302081Y87787908D02*
X79444938Y87859337D01*
X79444938Y87859337D02*
X79802081Y87859337D01*
X79802081Y87859337D02*
X79944938Y87787908D01*
X79944938Y87787908D02*
X80016367Y87716479D01*
X80016367Y87716479D02*
X80087795Y87573622D01*
X80087795Y87573622D02*
X80087795Y87145051D01*
X80087795Y87145051D02*
X80016367Y87002194D01*
X80016367Y87002194D02*
X79944938Y86930765D01*
X48587795Y89930766D02*
X48587795Y89073623D01*
X48587795Y89502194D02*
X47087795Y89502194D01*
X47087795Y89502194D02*
X47302081Y89359337D01*
X47302081Y89359337D02*
X47444938Y89216480D01*
X47444938Y89216480D02*
X47516367Y89073623D01*
X47230652Y90502194D02*
X47159224Y90573622D01*
X47159224Y90573622D02*
X47087795Y90716479D01*
X47087795Y90716479D02*
X47087795Y91073622D01*
X47087795Y91073622D02*
X47159224Y91216479D01*
X47159224Y91216479D02*
X47230652Y91287908D01*
X47230652Y91287908D02*
X47373509Y91359337D01*
X47373509Y91359337D02*
X47516367Y91359337D01*
X47516367Y91359337D02*
X47730652Y91287908D01*
X47730652Y91287908D02*
X48587795Y90430765D01*
X48587795Y90430765D02*
X48587795Y91359337D01*
X60987795Y71359337D02*
X60987795Y70645051D01*
X60987795Y70645051D02*
X61702081Y70573623D01*
X61702081Y70573623D02*
X61630652Y70645051D01*
X61630652Y70645051D02*
X61559224Y70787908D01*
X61559224Y70787908D02*
X61559224Y71145051D01*
X61559224Y71145051D02*
X61630652Y71287908D01*
X61630652Y71287908D02*
X61702081Y71359337D01*
X61702081Y71359337D02*
X61844938Y71430766D01*
X61844938Y71430766D02*
X62202081Y71430766D01*
X62202081Y71430766D02*
X62344938Y71359337D01*
X62344938Y71359337D02*
X62416367Y71287908D01*
X62416367Y71287908D02*
X62487795Y71145051D01*
X62487795Y71145051D02*
X62487795Y70787908D01*
X62487795Y70787908D02*
X62416367Y70645051D01*
X62416367Y70645051D02*
X62344938Y70573623D01*
X60987795Y71930765D02*
X60987795Y72859337D01*
X60987795Y72859337D02*
X61559224Y72359337D01*
X61559224Y72359337D02*
X61559224Y72573622D01*
X61559224Y72573622D02*
X61630652Y72716479D01*
X61630652Y72716479D02*
X61702081Y72787908D01*
X61702081Y72787908D02*
X61844938Y72859337D01*
X61844938Y72859337D02*
X62202081Y72859337D01*
X62202081Y72859337D02*
X62344938Y72787908D01*
X62344938Y72787908D02*
X62416367Y72716479D01*
X62416367Y72716479D02*
X62487795Y72573622D01*
X62487795Y72573622D02*
X62487795Y72145051D01*
X62487795Y72145051D02*
X62416367Y72002194D01*
X62416367Y72002194D02*
X62344938Y71930765D01*
X49687795Y71359337D02*
X49687795Y70645051D01*
X49687795Y70645051D02*
X50402081Y70573623D01*
X50402081Y70573623D02*
X50330652Y70645051D01*
X50330652Y70645051D02*
X50259224Y70787908D01*
X50259224Y70787908D02*
X50259224Y71145051D01*
X50259224Y71145051D02*
X50330652Y71287908D01*
X50330652Y71287908D02*
X50402081Y71359337D01*
X50402081Y71359337D02*
X50544938Y71430766D01*
X50544938Y71430766D02*
X50902081Y71430766D01*
X50902081Y71430766D02*
X51044938Y71359337D01*
X51044938Y71359337D02*
X51116367Y71287908D01*
X51116367Y71287908D02*
X51187795Y71145051D01*
X51187795Y71145051D02*
X51187795Y70787908D01*
X51187795Y70787908D02*
X51116367Y70645051D01*
X51116367Y70645051D02*
X51044938Y70573623D01*
X49687795Y72716479D02*
X49687795Y72430765D01*
X49687795Y72430765D02*
X49759224Y72287908D01*
X49759224Y72287908D02*
X49830652Y72216479D01*
X49830652Y72216479D02*
X50044938Y72073622D01*
X50044938Y72073622D02*
X50330652Y72002194D01*
X50330652Y72002194D02*
X50902081Y72002194D01*
X50902081Y72002194D02*
X51044938Y72073622D01*
X51044938Y72073622D02*
X51116367Y72145051D01*
X51116367Y72145051D02*
X51187795Y72287908D01*
X51187795Y72287908D02*
X51187795Y72573622D01*
X51187795Y72573622D02*
X51116367Y72716479D01*
X51116367Y72716479D02*
X51044938Y72787908D01*
X51044938Y72787908D02*
X50902081Y72859337D01*
X50902081Y72859337D02*
X50544938Y72859337D01*
X50544938Y72859337D02*
X50402081Y72787908D01*
X50402081Y72787908D02*
X50330652Y72716479D01*
X50330652Y72716479D02*
X50259224Y72573622D01*
X50259224Y72573622D02*
X50259224Y72287908D01*
X50259224Y72287908D02*
X50330652Y72145051D01*
X50330652Y72145051D02*
X50402081Y72073622D01*
X50402081Y72073622D02*
X50544938Y72002194D01*
X80087795Y90645052D02*
X80087795Y89787909D01*
X80087795Y90216480D02*
X78587795Y90216480D01*
X78587795Y90216480D02*
X78802081Y90073623D01*
X78802081Y90073623D02*
X78944938Y89930766D01*
X78944938Y89930766D02*
X79016367Y89787909D01*
X79083528Y73571429D02*
X80083528Y73571429D01*
X78512100Y73214287D02*
X79583528Y72857144D01*
X79583528Y72857144D02*
X79583528Y73785715D01*
X80083528Y74428572D02*
X80083528Y74714286D01*
X80083528Y74714286D02*
X80012100Y74857143D01*
X80012100Y74857143D02*
X79940671Y74928572D01*
X79940671Y74928572D02*
X79726385Y75071429D01*
X79726385Y75071429D02*
X79440671Y75142858D01*
X79440671Y75142858D02*
X78869242Y75142858D01*
X78869242Y75142858D02*
X78726385Y75071429D01*
X78726385Y75071429D02*
X78654957Y75000000D01*
X78654957Y75000000D02*
X78583528Y74857143D01*
X78583528Y74857143D02*
X78583528Y74571429D01*
X78583528Y74571429D02*
X78654957Y74428572D01*
X78654957Y74428572D02*
X78726385Y74357143D01*
X78726385Y74357143D02*
X78869242Y74285715D01*
X78869242Y74285715D02*
X79226385Y74285715D01*
X79226385Y74285715D02*
X79369242Y74357143D01*
X79369242Y74357143D02*
X79440671Y74428572D01*
X79440671Y74428572D02*
X79512100Y74571429D01*
X79512100Y74571429D02*
X79512100Y74857143D01*
X79512100Y74857143D02*
X79440671Y75000000D01*
X79440671Y75000000D02*
X79369242Y75071429D01*
X79369242Y75071429D02*
X79226385Y75142858D01*
X78587795Y76502194D02*
X78587795Y77430766D01*
X78587795Y77430766D02*
X79159224Y76930766D01*
X79159224Y76930766D02*
X79159224Y77145051D01*
X79159224Y77145051D02*
X79230652Y77287908D01*
X79230652Y77287908D02*
X79302081Y77359337D01*
X79302081Y77359337D02*
X79444938Y77430766D01*
X79444938Y77430766D02*
X79802081Y77430766D01*
X79802081Y77430766D02*
X79944938Y77359337D01*
X79944938Y77359337D02*
X80016367Y77287908D01*
X80016367Y77287908D02*
X80087795Y77145051D01*
X80087795Y77145051D02*
X80087795Y76716480D01*
X80087795Y76716480D02*
X80016367Y76573623D01*
X80016367Y76573623D02*
X79944938Y76502194D01*
X78587795Y77930765D02*
X78587795Y78930765D01*
X78587795Y78930765D02*
X80087795Y78287908D01*
X7587795Y89930766D02*
X7587795Y89073623D01*
X7587795Y89502194D02*
X6087795Y89502194D01*
X6087795Y89502194D02*
X6302081Y89359337D01*
X6302081Y89359337D02*
X6444938Y89216480D01*
X6444938Y89216480D02*
X6516367Y89073623D01*
X6230652Y90502194D02*
X6159224Y90573622D01*
X6159224Y90573622D02*
X6087795Y90716479D01*
X6087795Y90716479D02*
X6087795Y91073622D01*
X6087795Y91073622D02*
X6159224Y91216479D01*
X6159224Y91216479D02*
X6230652Y91287908D01*
X6230652Y91287908D02*
X6373509Y91359337D01*
X6373509Y91359337D02*
X6516367Y91359337D01*
X6516367Y91359337D02*
X6730652Y91287908D01*
X6730652Y91287908D02*
X7587795Y90430765D01*
X7587795Y90430765D02*
X7587795Y91359337D01*
X35487795Y71187908D02*
X36487795Y71187908D01*
X34916367Y70830766D02*
X35987795Y70473623D01*
X35987795Y70473623D02*
X35987795Y71402194D01*
X36487795Y72045051D02*
X36487795Y72330765D01*
X36487795Y72330765D02*
X36416367Y72473622D01*
X36416367Y72473622D02*
X36344938Y72545051D01*
X36344938Y72545051D02*
X36130652Y72687908D01*
X36130652Y72687908D02*
X35844938Y72759337D01*
X35844938Y72759337D02*
X35273509Y72759337D01*
X35273509Y72759337D02*
X35130652Y72687908D01*
X35130652Y72687908D02*
X35059224Y72616479D01*
X35059224Y72616479D02*
X34987795Y72473622D01*
X34987795Y72473622D02*
X34987795Y72187908D01*
X34987795Y72187908D02*
X35059224Y72045051D01*
X35059224Y72045051D02*
X35130652Y71973622D01*
X35130652Y71973622D02*
X35273509Y71902194D01*
X35273509Y71902194D02*
X35630652Y71902194D01*
X35630652Y71902194D02*
X35773509Y71973622D01*
X35773509Y71973622D02*
X35844938Y72045051D01*
X35844938Y72045051D02*
X35916367Y72187908D01*
X35916367Y72187908D02*
X35916367Y72473622D01*
X35916367Y72473622D02*
X35844938Y72616479D01*
X35844938Y72616479D02*
X35773509Y72687908D01*
X35773509Y72687908D02*
X35630652Y72759337D01*
X47087795Y80502194D02*
X47087795Y81430766D01*
X47087795Y81430766D02*
X47659224Y80930766D01*
X47659224Y80930766D02*
X47659224Y81145051D01*
X47659224Y81145051D02*
X47730652Y81287908D01*
X47730652Y81287908D02*
X47802081Y81359337D01*
X47802081Y81359337D02*
X47944938Y81430766D01*
X47944938Y81430766D02*
X48302081Y81430766D01*
X48302081Y81430766D02*
X48444938Y81359337D01*
X48444938Y81359337D02*
X48516367Y81287908D01*
X48516367Y81287908D02*
X48587795Y81145051D01*
X48587795Y81145051D02*
X48587795Y80716480D01*
X48587795Y80716480D02*
X48516367Y80573623D01*
X48516367Y80573623D02*
X48444938Y80502194D01*
X47087795Y82716479D02*
X47087795Y82430765D01*
X47087795Y82430765D02*
X47159224Y82287908D01*
X47159224Y82287908D02*
X47230652Y82216479D01*
X47230652Y82216479D02*
X47444938Y82073622D01*
X47444938Y82073622D02*
X47730652Y82002194D01*
X47730652Y82002194D02*
X48302081Y82002194D01*
X48302081Y82002194D02*
X48444938Y82073622D01*
X48444938Y82073622D02*
X48516367Y82145051D01*
X48516367Y82145051D02*
X48587795Y82287908D01*
X48587795Y82287908D02*
X48587795Y82573622D01*
X48587795Y82573622D02*
X48516367Y82716479D01*
X48516367Y82716479D02*
X48444938Y82787908D01*
X48444938Y82787908D02*
X48302081Y82859337D01*
X48302081Y82859337D02*
X47944938Y82859337D01*
X47944938Y82859337D02*
X47802081Y82787908D01*
X47802081Y82787908D02*
X47730652Y82716479D01*
X47730652Y82716479D02*
X47659224Y82573622D01*
X47659224Y82573622D02*
X47659224Y82287908D01*
X47659224Y82287908D02*
X47730652Y82145051D01*
X47730652Y82145051D02*
X47802081Y82073622D01*
X47802081Y82073622D02*
X47944938Y82002194D01*
D11*
X34045911Y62010144D02*
X33683054Y61756144D01*
X34045911Y61574715D02*
X33283911Y61574715D01*
X33283911Y61574715D02*
X33283911Y61865001D01*
X33283911Y61865001D02*
X33320197Y61937572D01*
X33320197Y61937572D02*
X33356483Y61973858D01*
X33356483Y61973858D02*
X33429054Y62010144D01*
X33429054Y62010144D02*
X33537911Y62010144D01*
X33537911Y62010144D02*
X33610483Y61973858D01*
X33610483Y61973858D02*
X33646768Y61937572D01*
X33646768Y61937572D02*
X33683054Y61865001D01*
X33683054Y61865001D02*
X33683054Y61574715D01*
X34045911Y62735858D02*
X34045911Y62300429D01*
X34045911Y62518144D02*
X33283911Y62518144D01*
X33283911Y62518144D02*
X33392768Y62445572D01*
X33392768Y62445572D02*
X33465340Y62373001D01*
X33465340Y62373001D02*
X33501626Y62300429D01*
X33283911Y62989858D02*
X33283911Y63461572D01*
X33283911Y63461572D02*
X33574197Y63207572D01*
X33574197Y63207572D02*
X33574197Y63316429D01*
X33574197Y63316429D02*
X33610483Y63389000D01*
X33610483Y63389000D02*
X33646768Y63425286D01*
X33646768Y63425286D02*
X33719340Y63461572D01*
X33719340Y63461572D02*
X33900768Y63461572D01*
X33900768Y63461572D02*
X33973340Y63425286D01*
X33973340Y63425286D02*
X34009626Y63389000D01*
X34009626Y63389000D02*
X34045911Y63316429D01*
X34045911Y63316429D02*
X34045911Y63098715D01*
X34045911Y63098715D02*
X34009626Y63026143D01*
X34009626Y63026143D02*
X33973340Y62989858D01*
X6940911Y68010144D02*
X6578054Y67756144D01*
X6940911Y67574715D02*
X6178911Y67574715D01*
X6178911Y67574715D02*
X6178911Y67865001D01*
X6178911Y67865001D02*
X6215197Y67937572D01*
X6215197Y67937572D02*
X6251483Y67973858D01*
X6251483Y67973858D02*
X6324054Y68010144D01*
X6324054Y68010144D02*
X6432911Y68010144D01*
X6432911Y68010144D02*
X6505483Y67973858D01*
X6505483Y67973858D02*
X6541768Y67937572D01*
X6541768Y67937572D02*
X6578054Y67865001D01*
X6578054Y67865001D02*
X6578054Y67574715D01*
X6940911Y68735858D02*
X6940911Y68300429D01*
X6940911Y68518144D02*
X6178911Y68518144D01*
X6178911Y68518144D02*
X6287768Y68445572D01*
X6287768Y68445572D02*
X6360340Y68373001D01*
X6360340Y68373001D02*
X6396626Y68300429D01*
X6940911Y69461572D02*
X6940911Y69026143D01*
X6940911Y69243858D02*
X6178911Y69243858D01*
X6178911Y69243858D02*
X6287768Y69171286D01*
X6287768Y69171286D02*
X6360340Y69098715D01*
X6360340Y69098715D02*
X6396626Y69026143D01*
X31010143Y62654089D02*
X30756143Y63016946D01*
X30574714Y62654089D02*
X30574714Y63416089D01*
X30574714Y63416089D02*
X30865000Y63416089D01*
X30865000Y63416089D02*
X30937571Y63379803D01*
X30937571Y63379803D02*
X30973857Y63343517D01*
X30973857Y63343517D02*
X31010143Y63270946D01*
X31010143Y63270946D02*
X31010143Y63162089D01*
X31010143Y63162089D02*
X30973857Y63089517D01*
X30973857Y63089517D02*
X30937571Y63053232D01*
X30937571Y63053232D02*
X30865000Y63016946D01*
X30865000Y63016946D02*
X30574714Y63016946D01*
X31735857Y62654089D02*
X31300428Y62654089D01*
X31518143Y62654089D02*
X31518143Y63416089D01*
X31518143Y63416089D02*
X31445571Y63307232D01*
X31445571Y63307232D02*
X31373000Y63234660D01*
X31373000Y63234660D02*
X31300428Y63198374D01*
X32389000Y63162089D02*
X32389000Y62654089D01*
X32207571Y63452374D02*
X32026142Y62908089D01*
X32026142Y62908089D02*
X32497857Y62908089D01*
X52746000Y69053232D02*
X52492000Y69053232D01*
X52492000Y68654089D02*
X52492000Y69416089D01*
X52492000Y69416089D02*
X52854857Y69416089D01*
X53108857Y69343517D02*
X53145143Y69379803D01*
X53145143Y69379803D02*
X53217715Y69416089D01*
X53217715Y69416089D02*
X53399143Y69416089D01*
X53399143Y69416089D02*
X53471715Y69379803D01*
X53471715Y69379803D02*
X53508000Y69343517D01*
X53508000Y69343517D02*
X53544286Y69270946D01*
X53544286Y69270946D02*
X53544286Y69198374D01*
X53544286Y69198374D02*
X53508000Y69089517D01*
X53508000Y69089517D02*
X53072572Y68654089D01*
X53072572Y68654089D02*
X53544286Y68654089D01*
X27760143Y62654089D02*
X27506143Y63016946D01*
X27324714Y62654089D02*
X27324714Y63416089D01*
X27324714Y63416089D02*
X27615000Y63416089D01*
X27615000Y63416089D02*
X27687571Y63379803D01*
X27687571Y63379803D02*
X27723857Y63343517D01*
X27723857Y63343517D02*
X27760143Y63270946D01*
X27760143Y63270946D02*
X27760143Y63162089D01*
X27760143Y63162089D02*
X27723857Y63089517D01*
X27723857Y63089517D02*
X27687571Y63053232D01*
X27687571Y63053232D02*
X27615000Y63016946D01*
X27615000Y63016946D02*
X27324714Y63016946D01*
X28485857Y62654089D02*
X28050428Y62654089D01*
X28268143Y62654089D02*
X28268143Y63416089D01*
X28268143Y63416089D02*
X28195571Y63307232D01*
X28195571Y63307232D02*
X28123000Y63234660D01*
X28123000Y63234660D02*
X28050428Y63198374D01*
X29175285Y63416089D02*
X28812428Y63416089D01*
X28812428Y63416089D02*
X28776142Y63053232D01*
X28776142Y63053232D02*
X28812428Y63089517D01*
X28812428Y63089517D02*
X28885000Y63125803D01*
X28885000Y63125803D02*
X29066428Y63125803D01*
X29066428Y63125803D02*
X29139000Y63089517D01*
X29139000Y63089517D02*
X29175285Y63053232D01*
X29175285Y63053232D02*
X29211571Y62980660D01*
X29211571Y62980660D02*
X29211571Y62799232D01*
X29211571Y62799232D02*
X29175285Y62726660D01*
X29175285Y62726660D02*
X29139000Y62690374D01*
X29139000Y62690374D02*
X29066428Y62654089D01*
X29066428Y62654089D02*
X28885000Y62654089D01*
X28885000Y62654089D02*
X28812428Y62690374D01*
X28812428Y62690374D02*
X28776142Y62726660D01*
X66646000Y69053232D02*
X66392000Y69053232D01*
X66392000Y68654089D02*
X66392000Y69416089D01*
X66392000Y69416089D02*
X66754857Y69416089D01*
X67444286Y68654089D02*
X67008857Y68654089D01*
X67226572Y68654089D02*
X67226572Y69416089D01*
X67226572Y69416089D02*
X67154000Y69307232D01*
X67154000Y69307232D02*
X67081429Y69234660D01*
X67081429Y69234660D02*
X67008857Y69198374D01*
X50246000Y69053232D02*
X49992000Y69053232D01*
X49992000Y68654089D02*
X49992000Y69416089D01*
X49992000Y69416089D02*
X50354857Y69416089D01*
X50572572Y69416089D02*
X51044286Y69416089D01*
X51044286Y69416089D02*
X50790286Y69125803D01*
X50790286Y69125803D02*
X50899143Y69125803D01*
X50899143Y69125803D02*
X50971715Y69089517D01*
X50971715Y69089517D02*
X51008000Y69053232D01*
X51008000Y69053232D02*
X51044286Y68980660D01*
X51044286Y68980660D02*
X51044286Y68799232D01*
X51044286Y68799232D02*
X51008000Y68726660D01*
X51008000Y68726660D02*
X50971715Y68690374D01*
X50971715Y68690374D02*
X50899143Y68654089D01*
X50899143Y68654089D02*
X50681429Y68654089D01*
X50681429Y68654089D02*
X50608857Y68690374D01*
X50608857Y68690374D02*
X50572572Y68726660D01*
X63873000Y68654089D02*
X63619000Y69016946D01*
X63437571Y68654089D02*
X63437571Y69416089D01*
X63437571Y69416089D02*
X63727857Y69416089D01*
X63727857Y69416089D02*
X63800428Y69379803D01*
X63800428Y69379803D02*
X63836714Y69343517D01*
X63836714Y69343517D02*
X63873000Y69270946D01*
X63873000Y69270946D02*
X63873000Y69162089D01*
X63873000Y69162089D02*
X63836714Y69089517D01*
X63836714Y69089517D02*
X63800428Y69053232D01*
X63800428Y69053232D02*
X63727857Y69016946D01*
X63727857Y69016946D02*
X63437571Y69016946D01*
X64598714Y68654089D02*
X64163285Y68654089D01*
X64381000Y68654089D02*
X64381000Y69416089D01*
X64381000Y69416089D02*
X64308428Y69307232D01*
X64308428Y69307232D02*
X64235857Y69234660D01*
X64235857Y69234660D02*
X64163285Y69198374D01*
X37373000Y62654089D02*
X37119000Y63016946D01*
X36937571Y62654089D02*
X36937571Y63416089D01*
X36937571Y63416089D02*
X37227857Y63416089D01*
X37227857Y63416089D02*
X37300428Y63379803D01*
X37300428Y63379803D02*
X37336714Y63343517D01*
X37336714Y63343517D02*
X37373000Y63270946D01*
X37373000Y63270946D02*
X37373000Y63162089D01*
X37373000Y63162089D02*
X37336714Y63089517D01*
X37336714Y63089517D02*
X37300428Y63053232D01*
X37300428Y63053232D02*
X37227857Y63016946D01*
X37227857Y63016946D02*
X36937571Y63016946D01*
X37735857Y62654089D02*
X37881000Y62654089D01*
X37881000Y62654089D02*
X37953571Y62690374D01*
X37953571Y62690374D02*
X37989857Y62726660D01*
X37989857Y62726660D02*
X38062428Y62835517D01*
X38062428Y62835517D02*
X38098714Y62980660D01*
X38098714Y62980660D02*
X38098714Y63270946D01*
X38098714Y63270946D02*
X38062428Y63343517D01*
X38062428Y63343517D02*
X38026143Y63379803D01*
X38026143Y63379803D02*
X37953571Y63416089D01*
X37953571Y63416089D02*
X37808428Y63416089D01*
X37808428Y63416089D02*
X37735857Y63379803D01*
X37735857Y63379803D02*
X37699571Y63343517D01*
X37699571Y63343517D02*
X37663285Y63270946D01*
X37663285Y63270946D02*
X37663285Y63089517D01*
X37663285Y63089517D02*
X37699571Y63016946D01*
X37699571Y63016946D02*
X37735857Y62980660D01*
X37735857Y62980660D02*
X37808428Y62944374D01*
X37808428Y62944374D02*
X37953571Y62944374D01*
X37953571Y62944374D02*
X38026143Y62980660D01*
X38026143Y62980660D02*
X38062428Y63016946D01*
X38062428Y63016946D02*
X38098714Y63089517D01*
X76873000Y68654089D02*
X76619000Y69016946D01*
X76437571Y68654089D02*
X76437571Y69416089D01*
X76437571Y69416089D02*
X76727857Y69416089D01*
X76727857Y69416089D02*
X76800428Y69379803D01*
X76800428Y69379803D02*
X76836714Y69343517D01*
X76836714Y69343517D02*
X76873000Y69270946D01*
X76873000Y69270946D02*
X76873000Y69162089D01*
X76873000Y69162089D02*
X76836714Y69089517D01*
X76836714Y69089517D02*
X76800428Y69053232D01*
X76800428Y69053232D02*
X76727857Y69016946D01*
X76727857Y69016946D02*
X76437571Y69016946D01*
X77526143Y69416089D02*
X77381000Y69416089D01*
X77381000Y69416089D02*
X77308428Y69379803D01*
X77308428Y69379803D02*
X77272143Y69343517D01*
X77272143Y69343517D02*
X77199571Y69234660D01*
X77199571Y69234660D02*
X77163285Y69089517D01*
X77163285Y69089517D02*
X77163285Y68799232D01*
X77163285Y68799232D02*
X77199571Y68726660D01*
X77199571Y68726660D02*
X77235857Y68690374D01*
X77235857Y68690374D02*
X77308428Y68654089D01*
X77308428Y68654089D02*
X77453571Y68654089D01*
X77453571Y68654089D02*
X77526143Y68690374D01*
X77526143Y68690374D02*
X77562428Y68726660D01*
X77562428Y68726660D02*
X77598714Y68799232D01*
X77598714Y68799232D02*
X77598714Y68980660D01*
X77598714Y68980660D02*
X77562428Y69053232D01*
X77562428Y69053232D02*
X77526143Y69089517D01*
X77526143Y69089517D02*
X77453571Y69125803D01*
X77453571Y69125803D02*
X77308428Y69125803D01*
X77308428Y69125803D02*
X77235857Y69089517D01*
X77235857Y69089517D02*
X77199571Y69053232D01*
X77199571Y69053232D02*
X77163285Y68980660D01*
X71273000Y68654089D02*
X71019000Y69016946D01*
X70837571Y68654089D02*
X70837571Y69416089D01*
X70837571Y69416089D02*
X71127857Y69416089D01*
X71127857Y69416089D02*
X71200428Y69379803D01*
X71200428Y69379803D02*
X71236714Y69343517D01*
X71236714Y69343517D02*
X71273000Y69270946D01*
X71273000Y69270946D02*
X71273000Y69162089D01*
X71273000Y69162089D02*
X71236714Y69089517D01*
X71236714Y69089517D02*
X71200428Y69053232D01*
X71200428Y69053232D02*
X71127857Y69016946D01*
X71127857Y69016946D02*
X70837571Y69016946D01*
X71926143Y69162089D02*
X71926143Y68654089D01*
X71744714Y69452374D02*
X71563285Y68908089D01*
X71563285Y68908089D02*
X72035000Y68908089D01*
X73173000Y68654089D02*
X72919000Y69016946D01*
X72737571Y68654089D02*
X72737571Y69416089D01*
X72737571Y69416089D02*
X73027857Y69416089D01*
X73027857Y69416089D02*
X73100428Y69379803D01*
X73100428Y69379803D02*
X73136714Y69343517D01*
X73136714Y69343517D02*
X73173000Y69270946D01*
X73173000Y69270946D02*
X73173000Y69162089D01*
X73173000Y69162089D02*
X73136714Y69089517D01*
X73136714Y69089517D02*
X73100428Y69053232D01*
X73100428Y69053232D02*
X73027857Y69016946D01*
X73027857Y69016946D02*
X72737571Y69016946D01*
X73608428Y69089517D02*
X73535857Y69125803D01*
X73535857Y69125803D02*
X73499571Y69162089D01*
X73499571Y69162089D02*
X73463285Y69234660D01*
X73463285Y69234660D02*
X73463285Y69270946D01*
X73463285Y69270946D02*
X73499571Y69343517D01*
X73499571Y69343517D02*
X73535857Y69379803D01*
X73535857Y69379803D02*
X73608428Y69416089D01*
X73608428Y69416089D02*
X73753571Y69416089D01*
X73753571Y69416089D02*
X73826143Y69379803D01*
X73826143Y69379803D02*
X73862428Y69343517D01*
X73862428Y69343517D02*
X73898714Y69270946D01*
X73898714Y69270946D02*
X73898714Y69234660D01*
X73898714Y69234660D02*
X73862428Y69162089D01*
X73862428Y69162089D02*
X73826143Y69125803D01*
X73826143Y69125803D02*
X73753571Y69089517D01*
X73753571Y69089517D02*
X73608428Y69089517D01*
X73608428Y69089517D02*
X73535857Y69053232D01*
X73535857Y69053232D02*
X73499571Y69016946D01*
X73499571Y69016946D02*
X73463285Y68944374D01*
X73463285Y68944374D02*
X73463285Y68799232D01*
X73463285Y68799232D02*
X73499571Y68726660D01*
X73499571Y68726660D02*
X73535857Y68690374D01*
X73535857Y68690374D02*
X73608428Y68654089D01*
X73608428Y68654089D02*
X73753571Y68654089D01*
X73753571Y68654089D02*
X73826143Y68690374D01*
X73826143Y68690374D02*
X73862428Y68726660D01*
X73862428Y68726660D02*
X73898714Y68799232D01*
X73898714Y68799232D02*
X73898714Y68944374D01*
X73898714Y68944374D02*
X73862428Y69016946D01*
X73862428Y69016946D02*
X73826143Y69053232D01*
X73826143Y69053232D02*
X73753571Y69089517D01*
X35010143Y62654089D02*
X34756143Y63016946D01*
X34574714Y62654089D02*
X34574714Y63416089D01*
X34574714Y63416089D02*
X34865000Y63416089D01*
X34865000Y63416089D02*
X34937571Y63379803D01*
X34937571Y63379803D02*
X34973857Y63343517D01*
X34973857Y63343517D02*
X35010143Y63270946D01*
X35010143Y63270946D02*
X35010143Y63162089D01*
X35010143Y63162089D02*
X34973857Y63089517D01*
X34973857Y63089517D02*
X34937571Y63053232D01*
X34937571Y63053232D02*
X34865000Y63016946D01*
X34865000Y63016946D02*
X34574714Y63016946D01*
X35735857Y62654089D02*
X35300428Y62654089D01*
X35518143Y62654089D02*
X35518143Y63416089D01*
X35518143Y63416089D02*
X35445571Y63307232D01*
X35445571Y63307232D02*
X35373000Y63234660D01*
X35373000Y63234660D02*
X35300428Y63198374D01*
X36207571Y63416089D02*
X36280142Y63416089D01*
X36280142Y63416089D02*
X36352714Y63379803D01*
X36352714Y63379803D02*
X36389000Y63343517D01*
X36389000Y63343517D02*
X36425285Y63270946D01*
X36425285Y63270946D02*
X36461571Y63125803D01*
X36461571Y63125803D02*
X36461571Y62944374D01*
X36461571Y62944374D02*
X36425285Y62799232D01*
X36425285Y62799232D02*
X36389000Y62726660D01*
X36389000Y62726660D02*
X36352714Y62690374D01*
X36352714Y62690374D02*
X36280142Y62654089D01*
X36280142Y62654089D02*
X36207571Y62654089D01*
X36207571Y62654089D02*
X36135000Y62690374D01*
X36135000Y62690374D02*
X36098714Y62726660D01*
X36098714Y62726660D02*
X36062428Y62799232D01*
X36062428Y62799232D02*
X36026142Y62944374D01*
X36026142Y62944374D02*
X36026142Y63125803D01*
X36026142Y63125803D02*
X36062428Y63270946D01*
X36062428Y63270946D02*
X36098714Y63343517D01*
X36098714Y63343517D02*
X36135000Y63379803D01*
X36135000Y63379803D02*
X36207571Y63416089D01*
X74973000Y68654089D02*
X74719000Y69016946D01*
X74537571Y68654089D02*
X74537571Y69416089D01*
X74537571Y69416089D02*
X74827857Y69416089D01*
X74827857Y69416089D02*
X74900428Y69379803D01*
X74900428Y69379803D02*
X74936714Y69343517D01*
X74936714Y69343517D02*
X74973000Y69270946D01*
X74973000Y69270946D02*
X74973000Y69162089D01*
X74973000Y69162089D02*
X74936714Y69089517D01*
X74936714Y69089517D02*
X74900428Y69053232D01*
X74900428Y69053232D02*
X74827857Y69016946D01*
X74827857Y69016946D02*
X74537571Y69016946D01*
X75227000Y69416089D02*
X75735000Y69416089D01*
X75735000Y69416089D02*
X75408428Y68654089D01*
X24010143Y62654089D02*
X23756143Y63016946D01*
X23574714Y62654089D02*
X23574714Y63416089D01*
X23574714Y63416089D02*
X23865000Y63416089D01*
X23865000Y63416089D02*
X23937571Y63379803D01*
X23937571Y63379803D02*
X23973857Y63343517D01*
X23973857Y63343517D02*
X24010143Y63270946D01*
X24010143Y63270946D02*
X24010143Y63162089D01*
X24010143Y63162089D02*
X23973857Y63089517D01*
X23973857Y63089517D02*
X23937571Y63053232D01*
X23937571Y63053232D02*
X23865000Y63016946D01*
X23865000Y63016946D02*
X23574714Y63016946D01*
X24735857Y62654089D02*
X24300428Y62654089D01*
X24518143Y62654089D02*
X24518143Y63416089D01*
X24518143Y63416089D02*
X24445571Y63307232D01*
X24445571Y63307232D02*
X24373000Y63234660D01*
X24373000Y63234660D02*
X24300428Y63198374D01*
X25389000Y63416089D02*
X25243857Y63416089D01*
X25243857Y63416089D02*
X25171285Y63379803D01*
X25171285Y63379803D02*
X25135000Y63343517D01*
X25135000Y63343517D02*
X25062428Y63234660D01*
X25062428Y63234660D02*
X25026142Y63089517D01*
X25026142Y63089517D02*
X25026142Y62799232D01*
X25026142Y62799232D02*
X25062428Y62726660D01*
X25062428Y62726660D02*
X25098714Y62690374D01*
X25098714Y62690374D02*
X25171285Y62654089D01*
X25171285Y62654089D02*
X25316428Y62654089D01*
X25316428Y62654089D02*
X25389000Y62690374D01*
X25389000Y62690374D02*
X25425285Y62726660D01*
X25425285Y62726660D02*
X25461571Y62799232D01*
X25461571Y62799232D02*
X25461571Y62980660D01*
X25461571Y62980660D02*
X25425285Y63053232D01*
X25425285Y63053232D02*
X25389000Y63089517D01*
X25389000Y63089517D02*
X25316428Y63125803D01*
X25316428Y63125803D02*
X25171285Y63125803D01*
X25171285Y63125803D02*
X25098714Y63089517D01*
X25098714Y63089517D02*
X25062428Y63053232D01*
X25062428Y63053232D02*
X25026142Y62980660D01*
X57673000Y68654089D02*
X57419000Y69016946D01*
X57237571Y68654089D02*
X57237571Y69416089D01*
X57237571Y69416089D02*
X57527857Y69416089D01*
X57527857Y69416089D02*
X57600428Y69379803D01*
X57600428Y69379803D02*
X57636714Y69343517D01*
X57636714Y69343517D02*
X57673000Y69270946D01*
X57673000Y69270946D02*
X57673000Y69162089D01*
X57673000Y69162089D02*
X57636714Y69089517D01*
X57636714Y69089517D02*
X57600428Y69053232D01*
X57600428Y69053232D02*
X57527857Y69016946D01*
X57527857Y69016946D02*
X57237571Y69016946D01*
X58362428Y69416089D02*
X57999571Y69416089D01*
X57999571Y69416089D02*
X57963285Y69053232D01*
X57963285Y69053232D02*
X57999571Y69089517D01*
X57999571Y69089517D02*
X58072143Y69125803D01*
X58072143Y69125803D02*
X58253571Y69125803D01*
X58253571Y69125803D02*
X58326143Y69089517D01*
X58326143Y69089517D02*
X58362428Y69053232D01*
X58362428Y69053232D02*
X58398714Y68980660D01*
X58398714Y68980660D02*
X58398714Y68799232D01*
X58398714Y68799232D02*
X58362428Y68726660D01*
X58362428Y68726660D02*
X58326143Y68690374D01*
X58326143Y68690374D02*
X58253571Y68654089D01*
X58253571Y68654089D02*
X58072143Y68654089D01*
X58072143Y68654089D02*
X57999571Y68690374D01*
X57999571Y68690374D02*
X57963285Y68726660D01*
X60373000Y68654089D02*
X60119000Y69016946D01*
X59937571Y68654089D02*
X59937571Y69416089D01*
X59937571Y69416089D02*
X60227857Y69416089D01*
X60227857Y69416089D02*
X60300428Y69379803D01*
X60300428Y69379803D02*
X60336714Y69343517D01*
X60336714Y69343517D02*
X60373000Y69270946D01*
X60373000Y69270946D02*
X60373000Y69162089D01*
X60373000Y69162089D02*
X60336714Y69089517D01*
X60336714Y69089517D02*
X60300428Y69053232D01*
X60300428Y69053232D02*
X60227857Y69016946D01*
X60227857Y69016946D02*
X59937571Y69016946D01*
X60663285Y69343517D02*
X60699571Y69379803D01*
X60699571Y69379803D02*
X60772143Y69416089D01*
X60772143Y69416089D02*
X60953571Y69416089D01*
X60953571Y69416089D02*
X61026143Y69379803D01*
X61026143Y69379803D02*
X61062428Y69343517D01*
X61062428Y69343517D02*
X61098714Y69270946D01*
X61098714Y69270946D02*
X61098714Y69198374D01*
X61098714Y69198374D02*
X61062428Y69089517D01*
X61062428Y69089517D02*
X60627000Y68654089D01*
X60627000Y68654089D02*
X61098714Y68654089D01*
X55173000Y68654089D02*
X54919000Y69016946D01*
X54737571Y68654089D02*
X54737571Y69416089D01*
X54737571Y69416089D02*
X55027857Y69416089D01*
X55027857Y69416089D02*
X55100428Y69379803D01*
X55100428Y69379803D02*
X55136714Y69343517D01*
X55136714Y69343517D02*
X55173000Y69270946D01*
X55173000Y69270946D02*
X55173000Y69162089D01*
X55173000Y69162089D02*
X55136714Y69089517D01*
X55136714Y69089517D02*
X55100428Y69053232D01*
X55100428Y69053232D02*
X55027857Y69016946D01*
X55027857Y69016946D02*
X54737571Y69016946D01*
X55427000Y69416089D02*
X55898714Y69416089D01*
X55898714Y69416089D02*
X55644714Y69125803D01*
X55644714Y69125803D02*
X55753571Y69125803D01*
X55753571Y69125803D02*
X55826143Y69089517D01*
X55826143Y69089517D02*
X55862428Y69053232D01*
X55862428Y69053232D02*
X55898714Y68980660D01*
X55898714Y68980660D02*
X55898714Y68799232D01*
X55898714Y68799232D02*
X55862428Y68726660D01*
X55862428Y68726660D02*
X55826143Y68690374D01*
X55826143Y68690374D02*
X55753571Y68654089D01*
X55753571Y68654089D02*
X55535857Y68654089D01*
X55535857Y68654089D02*
X55463285Y68690374D01*
X55463285Y68690374D02*
X55427000Y68726660D01*
X71840911Y70510144D02*
X71478054Y70256144D01*
X71840911Y70074715D02*
X71078911Y70074715D01*
X71078911Y70074715D02*
X71078911Y70365001D01*
X71078911Y70365001D02*
X71115197Y70437572D01*
X71115197Y70437572D02*
X71151483Y70473858D01*
X71151483Y70473858D02*
X71224054Y70510144D01*
X71224054Y70510144D02*
X71332911Y70510144D01*
X71332911Y70510144D02*
X71405483Y70473858D01*
X71405483Y70473858D02*
X71441768Y70437572D01*
X71441768Y70437572D02*
X71478054Y70365001D01*
X71478054Y70365001D02*
X71478054Y70074715D01*
X71078911Y71199572D02*
X71078911Y70836715D01*
X71078911Y70836715D02*
X71441768Y70800429D01*
X71441768Y70800429D02*
X71405483Y70836715D01*
X71405483Y70836715D02*
X71369197Y70909286D01*
X71369197Y70909286D02*
X71369197Y71090715D01*
X71369197Y71090715D02*
X71405483Y71163286D01*
X71405483Y71163286D02*
X71441768Y71199572D01*
X71441768Y71199572D02*
X71514340Y71235858D01*
X71514340Y71235858D02*
X71695768Y71235858D01*
X71695768Y71235858D02*
X71768340Y71199572D01*
X71768340Y71199572D02*
X71804626Y71163286D01*
X71804626Y71163286D02*
X71840911Y71090715D01*
X71840911Y71090715D02*
X71840911Y70909286D01*
X71840911Y70909286D02*
X71804626Y70836715D01*
X71804626Y70836715D02*
X71768340Y70800429D01*
X71332911Y71889000D02*
X71840911Y71889000D01*
X71042626Y71707572D02*
X71586911Y71526143D01*
X71586911Y71526143D02*
X71586911Y71997858D01*
D12*
G04 #@! TO.C,J1*
X-8595733Y88216479D02*
X-8595733Y69716479D01*
X-8595733Y69716479D02*
X93404267Y69716479D01*
X93404267Y69716479D02*
X93404267Y88716479D01*
D13*
G04 #@! TO.C,R13*
X32700000Y67008000D02*
X32700000Y68024000D01*
X32700000Y64976000D02*
X32700000Y65992000D01*
X34300000Y68024000D02*
X34300000Y67008000D01*
X34300000Y65992000D02*
X34300000Y64976000D01*
D14*
X32696505Y68083602D02*
G75*
G02*
X34300000Y68075000I803495J321398D01*
G01*
X34300000Y64925000D02*
G75*
G02*
X32698362Y64921000I-800000J-330000D01*
G01*
D13*
G04 #@! TO.C,R11*
X8571000Y69300000D02*
X9587000Y69300000D01*
X9587000Y67700000D02*
X8571000Y67700000D01*
X10603000Y69300000D02*
X11619000Y69300000D01*
X11619000Y67700000D02*
X10603000Y67700000D01*
D14*
X8511398Y67696505D02*
G75*
G02*
X8520000Y69300000I-321398J803495D01*
G01*
X11670000Y69300000D02*
G75*
G02*
X11674000Y67698362I330000J-800000D01*
G01*
D13*
G04 #@! TO.C,R14*
X30700000Y67008000D02*
X30700000Y68024000D01*
X30700000Y64976000D02*
X30700000Y65992000D01*
X32300000Y68024000D02*
X32300000Y67008000D01*
X32300000Y65992000D02*
X32300000Y64976000D01*
D14*
X30696505Y68083602D02*
G75*
G02*
X32300000Y68075000I803495J321398D01*
G01*
X32300000Y64925000D02*
G75*
G02*
X30698362Y64921000I-800000J-330000D01*
G01*
D13*
G04 #@! TO.C,R12*
X21200000Y67008000D02*
X21200000Y68024000D01*
X21200000Y64976000D02*
X21200000Y65992000D01*
X22800000Y68024000D02*
X22800000Y67008000D01*
X22800000Y65992000D02*
X22800000Y64976000D01*
D14*
X21196505Y68083602D02*
G75*
G02*
X22800000Y68075000I803495J321398D01*
G01*
X22800000Y64925000D02*
G75*
G02*
X21198362Y64921000I-800000J-330000D01*
G01*
G04 #@! TO.C,F2*
X52000000Y67400000D02*
X52000000Y62550000D01*
X54000000Y67400000D02*
X54000000Y62550000D01*
X52000000Y67450000D02*
G75*
G02*
X54000000Y67450000I1000000J0D01*
G01*
X54000000Y62550000D02*
G75*
G02*
X52000000Y62550000I-1000000J0D01*
G01*
D13*
G04 #@! TO.C,R15*
X27450000Y67008000D02*
X27450000Y68024000D01*
X27450000Y64976000D02*
X27450000Y65992000D01*
X29050000Y68024000D02*
X29050000Y67008000D01*
X29050000Y65992000D02*
X29050000Y64976000D01*
D14*
X27446505Y68083602D02*
G75*
G02*
X29050000Y68075000I803495J321398D01*
G01*
X29050000Y64925000D02*
G75*
G02*
X27448362Y64921000I-800000J-330000D01*
G01*
G04 #@! TO.C,F1*
X67400000Y67900000D02*
X67400000Y63050000D01*
X69400000Y67900000D02*
X69400000Y63050000D01*
X67400000Y67950000D02*
G75*
G02*
X69400000Y67950000I1000000J0D01*
G01*
X69400000Y63050000D02*
G75*
G02*
X67400000Y63050000I-1000000J0D01*
G01*
G04 #@! TO.C,F3*
X49500000Y67400000D02*
X49500000Y62550000D01*
X51500000Y67400000D02*
X51500000Y62550000D01*
X49500000Y67450000D02*
G75*
G02*
X51500000Y67450000I1000000J0D01*
G01*
X51500000Y62550000D02*
G75*
G02*
X49500000Y62550000I-1000000J0D01*
G01*
D13*
G04 #@! TO.C,R1*
X63200000Y66008000D02*
X63200000Y67024000D01*
X63200000Y63976000D02*
X63200000Y64992000D01*
X64800000Y67024000D02*
X64800000Y66008000D01*
X64800000Y64992000D02*
X64800000Y63976000D01*
D14*
X63196505Y67083602D02*
G75*
G02*
X64800000Y67075000I803495J321398D01*
G01*
X64800000Y63925000D02*
G75*
G02*
X63198362Y63921000I-800000J-330000D01*
G01*
D13*
G04 #@! TO.C,R9*
X36700000Y67008000D02*
X36700000Y68024000D01*
X36700000Y64976000D02*
X36700000Y65992000D01*
X38300000Y68024000D02*
X38300000Y67008000D01*
X38300000Y65992000D02*
X38300000Y64976000D01*
D14*
X36696505Y68083602D02*
G75*
G02*
X38300000Y68075000I803495J321398D01*
G01*
X38300000Y64925000D02*
G75*
G02*
X36698362Y64921000I-800000J-330000D01*
G01*
D13*
G04 #@! TO.C,R6*
X76200000Y66008000D02*
X76200000Y67024000D01*
X76200000Y63976000D02*
X76200000Y64992000D01*
X77800000Y67024000D02*
X77800000Y66008000D01*
X77800000Y64992000D02*
X77800000Y63976000D01*
D14*
X76196505Y67083602D02*
G75*
G02*
X77800000Y67075000I803495J321398D01*
G01*
X77800000Y63925000D02*
G75*
G02*
X76198362Y63921000I-800000J-330000D01*
G01*
D13*
G04 #@! TO.C,R4*
X70600000Y66008000D02*
X70600000Y67024000D01*
X70600000Y63976000D02*
X70600000Y64992000D01*
X72200000Y67024000D02*
X72200000Y66008000D01*
X72200000Y64992000D02*
X72200000Y63976000D01*
D14*
X70596505Y67083602D02*
G75*
G02*
X72200000Y67075000I803495J321398D01*
G01*
X72200000Y63925000D02*
G75*
G02*
X70598362Y63921000I-800000J-330000D01*
G01*
D13*
G04 #@! TO.C,R8*
X72500000Y66008000D02*
X72500000Y67024000D01*
X72500000Y63976000D02*
X72500000Y64992000D01*
X74100000Y67024000D02*
X74100000Y66008000D01*
X74100000Y64992000D02*
X74100000Y63976000D01*
D14*
X72496505Y67083602D02*
G75*
G02*
X74100000Y67075000I803495J321398D01*
G01*
X74100000Y63925000D02*
G75*
G02*
X72498362Y63921000I-800000J-330000D01*
G01*
D13*
G04 #@! TO.C,R10*
X34700000Y67008000D02*
X34700000Y68024000D01*
X34700000Y64976000D02*
X34700000Y65992000D01*
X36300000Y68024000D02*
X36300000Y67008000D01*
X36300000Y65992000D02*
X36300000Y64976000D01*
D14*
X34696505Y68083602D02*
G75*
G02*
X36300000Y68075000I803495J321398D01*
G01*
X36300000Y64925000D02*
G75*
G02*
X34698362Y64921000I-800000J-330000D01*
G01*
D13*
G04 #@! TO.C,R7*
X74300000Y66008000D02*
X74300000Y67024000D01*
X74300000Y63976000D02*
X74300000Y64992000D01*
X75900000Y67024000D02*
X75900000Y66008000D01*
X75900000Y64992000D02*
X75900000Y63976000D01*
D14*
X74296505Y67083602D02*
G75*
G02*
X75900000Y67075000I803495J321398D01*
G01*
X75900000Y63925000D02*
G75*
G02*
X74298362Y63921000I-800000J-330000D01*
G01*
D13*
G04 #@! TO.C,R16*
X23700000Y67008000D02*
X23700000Y68024000D01*
X23700000Y64976000D02*
X23700000Y65992000D01*
X25300000Y68024000D02*
X25300000Y67008000D01*
X25300000Y65992000D02*
X25300000Y64976000D01*
D14*
X23696505Y68083602D02*
G75*
G02*
X25300000Y68075000I803495J321398D01*
G01*
X25300000Y64925000D02*
G75*
G02*
X23698362Y64921000I-800000J-330000D01*
G01*
D13*
G04 #@! TO.C,R5*
X57000000Y66008000D02*
X57000000Y67024000D01*
X57000000Y63976000D02*
X57000000Y64992000D01*
X58600000Y67024000D02*
X58600000Y66008000D01*
X58600000Y64992000D02*
X58600000Y63976000D01*
D14*
X56996505Y67083602D02*
G75*
G02*
X58600000Y67075000I803495J321398D01*
G01*
X58600000Y63925000D02*
G75*
G02*
X56998362Y63921000I-800000J-330000D01*
G01*
D13*
G04 #@! TO.C,R2*
X59700000Y66008000D02*
X59700000Y67024000D01*
X59700000Y63976000D02*
X59700000Y64992000D01*
X61300000Y67024000D02*
X61300000Y66008000D01*
X61300000Y64992000D02*
X61300000Y63976000D01*
D14*
X59696505Y67083602D02*
G75*
G02*
X61300000Y67075000I803495J321398D01*
G01*
X61300000Y63925000D02*
G75*
G02*
X59698362Y63921000I-800000J-330000D01*
G01*
D13*
G04 #@! TO.C,R3*
X54500000Y66008000D02*
X54500000Y67024000D01*
X54500000Y63976000D02*
X54500000Y64992000D01*
X56100000Y67024000D02*
X56100000Y66008000D01*
X56100000Y64992000D02*
X56100000Y63976000D01*
D14*
X54496505Y67083602D02*
G75*
G02*
X56100000Y67075000I803495J321398D01*
G01*
X56100000Y63925000D02*
G75*
G02*
X54498362Y63921000I-800000J-330000D01*
G01*
D13*
G04 #@! TO.C,R54*
X73471000Y70200000D02*
X74487000Y70200000D01*
X74487000Y71800000D02*
X73471000Y71800000D01*
X75503000Y70200000D02*
X76519000Y70200000D01*
X76519000Y71800000D02*
X75503000Y71800000D01*
D14*
X73420000Y70200000D02*
G75*
G02*
X73416000Y71801638I-330000J800000D01*
G01*
X76578602Y71803495D02*
G75*
G02*
X76570000Y70200000I321398J-803495D01*
G01*
G04 #@! TD*
M02*
