G04 #@! TF.GenerationSoftware,KiCad,Pcbnew,8.0.6-8.0.6-0~ubuntu22.04.1*
G04 #@! TF.CreationDate,2024-11-30T07:07:21+00:00*
G04 #@! TF.ProjectId,hellen-112-17,68656c6c-656e-42d3-9131-322d31372e6b,B*
G04 #@! TF.SameCoordinates,Original*
G04 #@! TF.FileFunction,Soldermask,Bot*
G04 #@! TF.FilePolarity,Negative*
%FSLAX46Y46*%
G04 Gerber Fmt 4.6, Leading zero omitted, Abs format (unit mm)*
G04 Created by KiCad (PCBNEW 8.0.6-8.0.6-0~ubuntu22.04.1) date 2024-11-30 07:07:21*
%MOMM*%
%LPD*%
G01*
G04 APERTURE LIST*
%ADD10C,2.100000*%
%ADD11C,1.500000*%
%ADD12C,1.524000*%
G04 APERTURE END LIST*
D10*
G04 #@! TO.C,J1*
X2154267Y84016479D03*
X84154267Y84016479D03*
D11*
X77404267Y89716479D03*
X74904267Y89716479D03*
X72404267Y89716479D03*
X69904267Y89716479D03*
X67404267Y89716479D03*
X64904267Y89716479D03*
X62404267Y89716479D03*
X59904267Y89716479D03*
X57404267Y89716479D03*
X54904267Y89716479D03*
X52404267Y89716479D03*
X49904267Y89716479D03*
X77404267Y87216479D03*
X74904267Y87216479D03*
X72404267Y87216479D03*
X69904267Y87216479D03*
X67404267Y87216479D03*
X64904267Y87216479D03*
X62404267Y87216479D03*
X59904267Y87216479D03*
X57404267Y87216479D03*
X54904267Y87216479D03*
X52404267Y87216479D03*
X49904267Y87216479D03*
X77404267Y81216479D03*
X74904267Y81216479D03*
X72404267Y81216479D03*
X69904267Y81216479D03*
X67404267Y81216479D03*
X64904267Y81216479D03*
X62404267Y81216479D03*
X59904267Y81216479D03*
X57404267Y81216479D03*
X54904267Y81216479D03*
X52404267Y81216479D03*
X49904267Y81216479D03*
X77404267Y78716479D03*
X74904267Y78716479D03*
X72404267Y78716479D03*
X69904267Y78716479D03*
X67404267Y78716479D03*
X64904267Y78716479D03*
X62404267Y78716479D03*
X59904267Y78716479D03*
X57404267Y78716479D03*
X54904267Y78716479D03*
X52404267Y78716479D03*
X49904267Y78716479D03*
X76779267Y74716479D03*
X73029267Y74716479D03*
X69279267Y74716479D03*
X65529267Y74716479D03*
X61779267Y74716479D03*
X58029267Y74716479D03*
X54279267Y74716479D03*
X50529267Y74716479D03*
X36404267Y89716479D03*
X33904267Y89716479D03*
X31404267Y89716479D03*
X28904267Y89716479D03*
X26404267Y89716479D03*
X23904267Y89716479D03*
X21404267Y89716479D03*
X18904267Y89716479D03*
X16404267Y89716479D03*
X13904267Y89716479D03*
X11404267Y89716479D03*
X8904267Y89716479D03*
X36404267Y87216479D03*
X33904267Y87216479D03*
X31404267Y87216479D03*
X28904267Y87216479D03*
X26404267Y87216479D03*
X23904267Y87216479D03*
X21404267Y87216479D03*
X18904267Y87216479D03*
X16404267Y87216479D03*
X13904267Y87216479D03*
X11404267Y87216479D03*
X8904267Y87216479D03*
X36404267Y81216479D03*
X33904267Y81216479D03*
X31404267Y81216479D03*
X28904267Y81216479D03*
X26404267Y81216479D03*
X23904267Y81216479D03*
X21404267Y81216479D03*
X18904267Y81216479D03*
X16404267Y81216479D03*
X13904267Y81216479D03*
X11404267Y81216479D03*
X8904267Y81216479D03*
X36404267Y78716479D03*
X33904267Y78716479D03*
X31404267Y78716479D03*
X28904267Y78716479D03*
X26404267Y78716479D03*
X23904267Y78716479D03*
X21404267Y78716479D03*
X18904267Y78716479D03*
X16404267Y78716479D03*
X13904267Y78716479D03*
X11404267Y78716479D03*
X8904267Y78716479D03*
X35779267Y74716479D03*
X32029267Y74716479D03*
X28279267Y74716479D03*
X24529267Y74716479D03*
X20779267Y74716479D03*
X17029267Y74716479D03*
X13279267Y74716479D03*
X9529267Y74716479D03*
G04 #@! TD*
D12*
G04 #@! TO.C,R13*
X33500000Y68405000D03*
X33500000Y64595000D03*
G04 #@! TD*
G04 #@! TO.C,R11*
X8190000Y68500000D03*
X12000000Y68500000D03*
G04 #@! TD*
G04 #@! TO.C,R14*
X31500000Y68405000D03*
X31500000Y64595000D03*
G04 #@! TD*
G04 #@! TO.C,R12*
X22000000Y68405000D03*
X22000000Y64595000D03*
G04 #@! TD*
G04 #@! TO.C,F2*
X53000000Y67450000D03*
X53000000Y62550000D03*
G04 #@! TD*
G04 #@! TO.C,R15*
X28250000Y68405000D03*
X28250000Y64595000D03*
G04 #@! TD*
G04 #@! TO.C,F1*
X68400000Y67950000D03*
X68400000Y63050000D03*
G04 #@! TD*
G04 #@! TO.C,F3*
X50500000Y67450000D03*
X50500000Y62550000D03*
G04 #@! TD*
G04 #@! TO.C,R1*
X64000000Y67405000D03*
X64000000Y63595000D03*
G04 #@! TD*
G04 #@! TO.C,R9*
X37500000Y68405000D03*
X37500000Y64595000D03*
G04 #@! TD*
G04 #@! TO.C,R6*
X77000000Y67405000D03*
X77000000Y63595000D03*
G04 #@! TD*
G04 #@! TO.C,R4*
X71400000Y67405000D03*
X71400000Y63595000D03*
G04 #@! TD*
G04 #@! TO.C,R8*
X73300000Y67405000D03*
X73300000Y63595000D03*
G04 #@! TD*
G04 #@! TO.C,R10*
X35500000Y68405000D03*
X35500000Y64595000D03*
G04 #@! TD*
G04 #@! TO.C,R7*
X75100000Y67405000D03*
X75100000Y63595000D03*
G04 #@! TD*
G04 #@! TO.C,R16*
X24500000Y68405000D03*
X24500000Y64595000D03*
G04 #@! TD*
G04 #@! TO.C,R5*
X57800000Y67405000D03*
X57800000Y63595000D03*
G04 #@! TD*
G04 #@! TO.C,R2*
X60500000Y67405000D03*
X60500000Y63595000D03*
G04 #@! TD*
G04 #@! TO.C,R3*
X55300000Y67405000D03*
X55300000Y63595000D03*
G04 #@! TD*
G04 #@! TO.C,R54*
X73090000Y71000000D03*
G36*
G01*
X73544999Y70375000D02*
X73544999Y71625000D01*
G75*
G02*
X73644999Y71725000I100000J0D01*
G01*
X74444999Y71725000D01*
G75*
G02*
X74544999Y71625000I0J-100000D01*
G01*
X74544999Y70375000D01*
G75*
G02*
X74444999Y70275000I-100000J0D01*
G01*
X73644999Y70275000D01*
G75*
G02*
X73544999Y70375000I0J100000D01*
G01*
G37*
G36*
G01*
X75445021Y70375000D02*
X75445021Y71625000D01*
G75*
G02*
X75545021Y71725000I100000J0D01*
G01*
X76345021Y71725000D01*
G75*
G02*
X76445021Y71625000I0J-100000D01*
G01*
X76445021Y70375000D01*
G75*
G02*
X76345021Y70275000I-100000J0D01*
G01*
X75545021Y70275000D01*
G75*
G02*
X75445021Y70375000I0J100000D01*
G01*
G37*
X76900000Y71000000D03*
G04 #@! TD*
M02*
