M48
; DRILL file {KiCad 8.0.6-8.0.6-0~ubuntu22.04.1} date 2024-11-30T08:22:39+0000
; FORMAT={2:4/ absolute / inch / suppress leading zeros}
; #@! TF.CreationDate,2024-11-30T08:22:39+00:00
; #@! TF.GenerationSoftware,Kicad,Pcbnew,8.0.6-8.0.6-0~ubuntu22.04.1
; #@! TF.FileFunction,MixedPlating,1,4
FMAT,2
INCH,TZ
; #@! TA.AperFunction,Plated,PTH,ComponentDrill
T1C0.0118
; #@! TA.AperFunction,Plated,PTH,ViaDrill
T2C0.0157
; #@! TA.AperFunction,Plated,PTH,ComponentDrill
T3C0.0320
; #@! TA.AperFunction,Plated,PTH,ComponentDrill
T4C0.0394
; #@! TA.AperFunction,NonPlated,NPTH,ComponentDrill
T5C0.0827
%
G90
G05
T1
X10108Y17687
X10108Y17372
X10108Y17057
X10108Y16742
X10108Y16427
X10108Y16112
X10108Y15797
X10108Y15482
X10108Y12648
X10108Y12333
X10108Y12018
X10108Y11703
X10108Y11388
X10108Y15167
X10108Y14852
X10108Y14537
X10108Y14222
X10108Y13278
X10108Y12963
X10108Y11073
X10108Y10758
X10108Y9065
X10108Y8002
X10108Y7608
X10108Y4695
X11959Y4695
X12510Y4695
X12943Y17844
X13258Y17844
X13573Y17844
X13888Y17844
X14203Y17844
X14360Y4695
X14518Y17844
X14675Y4695
X15069Y17844
X15384Y17844
X15699Y17844
X15699Y4695
X16014Y17844
X16093Y4695
X16329Y17844
X16486Y4695
X16644Y17844
X16880Y4695
X16959Y17844
X17274Y17844
X17274Y4695
X17589Y17844
X17667Y4695
X17904Y17844
X18061Y4695
X18219Y17844
X18455Y4695
X18533Y17844
X18848Y17844
X19163Y17844
X19478Y17844
X19793Y17844
X21486Y17844
X22667Y4695
X23061Y4695
X24045Y15246
X24045Y14774
X24045Y14301
X24045Y13829
X24045Y13356
X24045Y12884
X24045Y12411
X24045Y11939
X24045Y11467
X24045Y10994
X24045Y10522
X24045Y10049
X24045Y9577
X24045Y9104
X24045Y8632
X24045Y8159
X24045Y7687
X24045Y7215
X24045Y6742
X24045Y6270
X24045Y5797
X24045Y4852
T2
X2047Y35236
X2283Y31496
X2953Y33150
X3071Y30197
X3504Y37441
X4488Y33268
X5591Y30276
X5630Y32992
X7087Y33346
X7480Y30079
X7598Y37598
X7874Y26654
X7898Y26039
X8228Y27756
X9134Y30197
X10394Y27638
X10827Y37717
X11220Y30157
X11417Y33386
X12441Y30236
X12717Y33386
X13425Y24968
X13504Y32559
X13898Y27835
X14409Y30157
X14449Y33150
X15551Y33465
X15650Y25500
X15778Y32795
X15882Y28761
X16142Y33465
X16220Y30354
X16227Y28228
X16260Y37717
X16373Y32804
X16474Y29456
X16591Y27146
X16610Y30341
X16614Y27657
X16673Y26634
X16732Y33465
X16968Y32812
X17047Y25787
X17126Y28543
X17204Y29354
X17205Y26496
X17322Y32283
X17323Y33465
X17381Y27954
X17503Y27370
X17603Y35512
X17663Y27708
X17717Y26811
X17736Y30322
X17913Y33465
X17971Y29521
X18120Y28235
X18184Y34081
X18185Y30341
X18224Y26069
X18504Y32283
X18504Y33465
X18582Y29512
X18898Y29961
X18898Y27756
X19134Y26181
X20118Y37756
X20630Y30118
X21024Y33543
X21145Y25719
X22717Y33189
X23484Y32480
X24094Y30354
X24528Y24291
X25148Y37707
X25926Y24010
X26260Y33228
X26575Y32485
X26772Y31496
X28150Y24134
X28583Y37677
X29094Y30630
X29409Y27165
X29567Y33071
X29724Y24134
X30236Y28504
X30236Y27244
X30289Y28874
X30335Y30315
X30472Y33228
X31063Y37550
X32412Y24210
X32426Y24803
X33110Y31772
X33195Y34002
X33465Y28976
T3
X3224Y26969
X4724Y26969
X8661Y26931
X8661Y25431
X9646Y26931
X9646Y25431
X11122Y26931
X11122Y25431
X12402Y26931
X12402Y25431
X13189Y26931
X13189Y25431
X13976Y26931
X13976Y25431
X14764Y26931
X14764Y25431
X19882Y26555
X19882Y24626
X20866Y26555
X20866Y24626
X21772Y26537
X21772Y25037
X22756Y26537
X22756Y25037
X23819Y26537
X23819Y25037
X25197Y26537
X25197Y25037
X26929Y26752
X26929Y24823
X28110Y26537
X28110Y25037
X28776Y27953
X28858Y26537
X28858Y25037
X29567Y26537
X29567Y25037
X30276Y27953
X30315Y26537
X30315Y25037
T4
X3506Y35321
X3506Y34337
X3506Y31975
X3506Y30991
X3752Y29416
X4490Y35321
X4490Y34337
X4490Y31975
X4490Y30991
X5228Y29416
X5474Y35321
X5474Y34337
X5474Y31975
X5474Y30991
X6458Y35321
X6458Y34337
X6458Y31975
X6458Y30991
X6704Y29416
X7443Y35321
X7443Y34337
X7443Y31975
X7443Y30991
X8181Y29416
X8427Y35321
X8427Y34337
X8427Y31975
X8427Y30991
X9411Y35321
X9411Y34337
X9411Y31975
X9411Y30991
X9657Y29416
X10395Y35321
X10395Y34337
X10395Y31975
X10395Y30991
X11134Y29416
X11380Y35321
X11380Y34337
X11380Y31975
X11380Y30991
X12364Y35321
X12364Y34337
X12364Y31975
X12364Y30991
X12610Y29416
X13348Y35321
X13348Y34337
X13348Y31975
X13348Y30991
X14086Y29416
X14332Y35321
X14332Y34337
X14332Y31975
X14332Y30991
X19647Y35321
X19647Y34337
X19647Y31975
X19647Y30991
X19893Y29416
X20632Y35321
X20632Y34337
X20632Y31975
X20632Y30991
X21370Y29416
X21616Y35321
X21616Y34337
X21616Y31975
X21616Y30991
X22600Y35321
X22600Y34337
X22600Y31975
X22600Y30991
X22846Y29416
X23584Y35321
X23584Y34337
X23584Y31975
X23584Y30991
X24323Y29416
X24569Y35321
X24569Y34337
X24569Y31975
X24569Y30991
X25553Y35321
X25553Y34337
X25553Y31975
X25553Y30991
X25799Y29416
X26537Y35321
X26537Y34337
X26537Y31975
X26537Y30991
X27275Y29416
X27521Y35321
X27521Y34337
X27521Y31975
X27521Y30991
X28506Y35321
X28506Y34337
X28506Y31975
X28506Y30991
X28752Y29416
X29490Y35321
X29490Y34337
X29490Y31975
X29490Y30991
X30228Y29416
X30474Y35321
X30474Y34337
X30474Y31975
X30474Y30991
T5
X848Y33077
X33132Y33077
M30
