G75*
G70*
%OFA0B0*%
%FSLAX25Y25*%
%IPPOS*%
%LPD*%
%AMOC8*
5,1,8,0,0,1.08239X$1,22.5*
%
%AMM100*
21,1,0.035830,0.026770,-0.000000,0.000000,90.000000*
21,1,0.029130,0.033470,-0.000000,0.000000,90.000000*
1,1,0.006690,0.013390,0.014570*
1,1,0.006690,0.013390,-0.014570*
1,1,0.006690,-0.013390,-0.014570*
1,1,0.006690,-0.013390,0.014570*
%
%AMM101*
21,1,0.027560,0.049610,-0.000000,0.000000,90.000000*
21,1,0.022050,0.055120,-0.000000,0.000000,90.000000*
1,1,0.005510,0.024800,0.011020*
1,1,0.005510,0.024800,-0.011020*
1,1,0.005510,-0.024800,-0.011020*
1,1,0.005510,-0.024800,0.011020*
%
%AMM102*
21,1,0.070870,0.036220,-0.000000,0.000000,180.000000*
21,1,0.061810,0.045280,-0.000000,0.000000,180.000000*
1,1,0.009060,-0.030910,0.018110*
1,1,0.009060,0.030910,0.018110*
1,1,0.009060,0.030910,-0.018110*
1,1,0.009060,-0.030910,-0.018110*
%
%AMM103*
21,1,0.027560,0.030710,-0.000000,0.000000,180.000000*
21,1,0.022050,0.036220,-0.000000,0.000000,180.000000*
1,1,0.005510,-0.011020,0.015350*
1,1,0.005510,0.011020,0.015350*
1,1,0.005510,0.011020,-0.015350*
1,1,0.005510,-0.011020,-0.015350*
%
%AMM59*
21,1,0.025590,0.026380,-0.000000,0.000000,0.000000*
21,1,0.020470,0.031500,-0.000000,0.000000,0.000000*
1,1,0.005120,0.010240,-0.013190*
1,1,0.005120,-0.010240,-0.013190*
1,1,0.005120,-0.010240,0.013190*
1,1,0.005120,0.010240,0.013190*
%
%AMM60*
21,1,0.017720,0.027950,-0.000000,0.000000,0.000000*
21,1,0.014170,0.031500,-0.000000,0.000000,0.000000*
1,1,0.003540,0.007090,-0.013980*
1,1,0.003540,-0.007090,-0.013980*
1,1,0.003540,-0.007090,0.013980*
1,1,0.003540,0.007090,0.013980*
%
%AMM63*
21,1,0.027560,0.018900,-0.000000,0.000000,180.000000*
21,1,0.022840,0.023620,-0.000000,0.000000,180.000000*
1,1,0.004720,-0.011420,0.009450*
1,1,0.004720,0.011420,0.009450*
1,1,0.004720,0.011420,-0.009450*
1,1,0.004720,-0.011420,-0.009450*
%
%AMM65*
21,1,0.027560,0.018900,-0.000000,0.000000,270.000000*
21,1,0.022840,0.023620,-0.000000,0.000000,270.000000*
1,1,0.004720,-0.009450,-0.011420*
1,1,0.004720,-0.009450,0.011420*
1,1,0.004720,0.009450,0.011420*
1,1,0.004720,0.009450,-0.011420*
%
%AMM67*
21,1,0.035430,0.030320,-0.000000,0.000000,0.000000*
21,1,0.028350,0.037400,-0.000000,0.000000,0.000000*
1,1,0.007090,0.014170,-0.015160*
1,1,0.007090,-0.014170,-0.015160*
1,1,0.007090,-0.014170,0.015160*
1,1,0.007090,0.014170,0.015160*
%
%AMM70*
21,1,0.027560,0.030710,-0.000000,0.000000,90.000000*
21,1,0.022050,0.036220,-0.000000,0.000000,90.000000*
1,1,0.005510,0.015350,0.011020*
1,1,0.005510,0.015350,-0.011020*
1,1,0.005510,-0.015350,-0.011020*
1,1,0.005510,-0.015350,0.011020*
%
%AMM91*
21,1,0.033470,0.026770,-0.000000,0.000000,180.000000*
21,1,0.026770,0.033470,-0.000000,0.000000,180.000000*
1,1,0.006690,-0.013390,0.013390*
1,1,0.006690,0.013390,0.013390*
1,1,0.006690,0.013390,-0.013390*
1,1,0.006690,-0.013390,-0.013390*
%
%AMM92*
21,1,0.025590,0.026380,-0.000000,0.000000,90.000000*
21,1,0.020470,0.031500,-0.000000,0.000000,90.000000*
1,1,0.005120,0.013190,0.010240*
1,1,0.005120,0.013190,-0.010240*
1,1,0.005120,-0.013190,-0.010240*
1,1,0.005120,-0.013190,0.010240*
%
%AMM93*
21,1,0.017720,0.027950,-0.000000,0.000000,90.000000*
21,1,0.014170,0.031500,-0.000000,0.000000,90.000000*
1,1,0.003540,0.013980,0.007090*
1,1,0.003540,0.013980,-0.007090*
1,1,0.003540,-0.013980,-0.007090*
1,1,0.003540,-0.013980,0.007090*
%
%AMM94*
21,1,0.033470,0.026770,-0.000000,0.000000,90.000000*
21,1,0.026770,0.033470,-0.000000,0.000000,90.000000*
1,1,0.006690,0.013390,0.013390*
1,1,0.006690,0.013390,-0.013390*
1,1,0.006690,-0.013390,-0.013390*
1,1,0.006690,-0.013390,0.013390*
%
%AMM95*
21,1,0.078740,0.045670,-0.000000,0.000000,270.000000*
21,1,0.067320,0.057090,-0.000000,0.000000,270.000000*
1,1,0.011420,-0.022840,-0.033660*
1,1,0.011420,-0.022840,0.033660*
1,1,0.011420,0.022840,0.033660*
1,1,0.011420,0.022840,-0.033660*
%
%AMM96*
21,1,0.059060,0.020470,-0.000000,0.000000,270.000000*
21,1,0.053940,0.025590,-0.000000,0.000000,270.000000*
1,1,0.005120,-0.010240,-0.026970*
1,1,0.005120,-0.010240,0.026970*
1,1,0.005120,0.010240,0.026970*
1,1,0.005120,0.010240,-0.026970*
%
%AMM97*
21,1,0.035430,0.030320,-0.000000,0.000000,270.000000*
21,1,0.028350,0.037400,-0.000000,0.000000,270.000000*
1,1,0.007090,-0.015160,-0.014170*
1,1,0.007090,-0.015160,0.014170*
1,1,0.007090,0.015160,0.014170*
1,1,0.007090,0.015160,-0.014170*
%
%AMM98*
21,1,0.012600,0.028980,-0.000000,0.000000,270.000000*
21,1,0.010080,0.031500,-0.000000,0.000000,270.000000*
1,1,0.002520,-0.014490,-0.005040*
1,1,0.002520,-0.014490,0.005040*
1,1,0.002520,0.014490,0.005040*
1,1,0.002520,0.014490,-0.005040*
%
%AMM99*
21,1,0.070870,0.036220,-0.000000,0.000000,90.000000*
21,1,0.061810,0.045280,-0.000000,0.000000,90.000000*
1,1,0.009060,0.018110,0.030910*
1,1,0.009060,0.018110,-0.030910*
1,1,0.009060,-0.018110,-0.030910*
1,1,0.009060,-0.018110,0.030910*
%
%ADD116R,0.01378X0.01476*%
%ADD123R,0.01476X0.01378*%
%ADD13R,0.14567X0.00787*%
%ADD14R,0.01575X0.00787*%
%ADD147M59*%
%ADD148M60*%
%ADD15R,0.06299X0.00787*%
%ADD152M63*%
%ADD154M65*%
%ADD156M67*%
%ADD16R,0.38189X0.00787*%
%ADD160M70*%
%ADD17R,0.09055X0.00787*%
%ADD18R,0.00787X0.05512*%
%ADD183M91*%
%ADD184M92*%
%ADD185M93*%
%ADD186M94*%
%ADD187M95*%
%ADD188M96*%
%ADD189M97*%
%ADD19R,0.00787X0.25197*%
%ADD190M98*%
%ADD191O,0.00984X0.04961*%
%ADD192M99*%
%ADD193M100*%
%ADD194R,0.06693X0.09449*%
%ADD195M101*%
%ADD196R,0.04331X0.03937*%
%ADD197M102*%
%ADD198M103*%
%ADD20R,0.00787X0.06693*%
%ADD21R,0.00787X0.12992*%
%ADD22R,0.27559X0.00787*%
%ADD23R,0.12992X0.00787*%
%ADD24R,0.24803X0.00787*%
X0000000Y0000000D02*
%LPD*%
G01*
G36*
G01*
X0289547Y0277067D02*
X0289547Y0281988D01*
G75*
G02*
X0289941Y0282382I0000394J0000000D01*
G01*
X0293091Y0282382D01*
G75*
G02*
X0293484Y0281988I0000000J-000394D01*
G01*
X0293484Y0277067D01*
G75*
G02*
X0293091Y0276673I-000394J0000000D01*
G01*
X0289941Y0276673D01*
G75*
G02*
X0289547Y0277067I0000000J0000394D01*
G01*
G37*
G36*
G01*
X0297028Y0277067D02*
X0297028Y0281988D01*
G75*
G02*
X0297421Y0282382I0000394J0000000D01*
G01*
X0300571Y0282382D01*
G75*
G02*
X0300965Y0281988I0000000J-000394D01*
G01*
X0300965Y0277067D01*
G75*
G02*
X0300571Y0276673I-000394J0000000D01*
G01*
X0297421Y0276673D01*
G75*
G02*
X0297028Y0277067I0000000J0000394D01*
G01*
G37*
X0241634Y0045768D02*
G01*
G75*
D21*
X0100295Y0099115D02*
D03*
D20*
X0100295Y0085335D02*
D03*
D23*
X0206398Y0179233D02*
D03*
D18*
X0100295Y0137500D02*
D03*
X0241240Y0053248D02*
D03*
D19*
X0241240Y0167028D02*
D03*
X0100295Y0061516D02*
D03*
D16*
X0205610Y0046162D02*
D03*
D17*
X0237106Y0046162D02*
D03*
D15*
X0151870Y0046162D02*
D03*
D24*
X0229232Y0179233D02*
D03*
D22*
X0113681Y0179233D02*
D03*
D13*
X0134351Y0046162D02*
D03*
X0110335Y0046162D02*
D03*
D14*
X0122343Y0046162D02*
D03*
X0147933Y0179233D02*
D03*
D147*
X0156595Y0097737D02*
D03*
X0181890Y0097737D02*
D03*
X0166634Y0097737D02*
D03*
X0171850Y0097737D02*
D03*
X0141339Y0090650D02*
D03*
X0141339Y0097737D02*
D03*
X0151378Y0097737D02*
D03*
X0151378Y0090650D02*
D03*
X0181890Y0090650D02*
D03*
X0171850Y0090650D02*
D03*
X0166634Y0090650D02*
D03*
X0156595Y0090650D02*
D03*
D148*
X0160040Y0097737D02*
D03*
X0175295Y0097737D02*
D03*
X0163189Y0097737D02*
D03*
X0178445Y0097737D02*
D03*
X0147933Y0097737D02*
D03*
X0144784Y0097737D02*
D03*
X0144784Y0090650D02*
D03*
X0147933Y0090650D02*
D03*
X0175295Y0090650D02*
D03*
X0178445Y0090650D02*
D03*
X0160040Y0090650D02*
D03*
X0163189Y0090650D02*
D03*
D152*
X0103445Y0099705D02*
D03*
X0103445Y0095768D02*
D03*
X0106988Y0094193D02*
D03*
X0106988Y0090256D02*
D03*
X0124311Y0102067D02*
D03*
X0124311Y0098130D02*
D03*
X0182013Y0130720D02*
D03*
X0182013Y0126783D02*
D03*
X0182013Y0122524D02*
D03*
X0182013Y0118587D02*
D03*
X0149546Y0079202D02*
D03*
X0149546Y0075265D02*
D03*
X0153269Y0079202D02*
D03*
X0153269Y0075265D02*
D03*
X0116437Y0076786D02*
D03*
X0116437Y0080723D02*
D03*
X0105504Y0165420D02*
D03*
X0105743Y0129672D02*
D03*
X0182013Y0144587D02*
D03*
X0127855Y0112303D02*
D03*
X0132185Y0112303D02*
D03*
X0136404Y0108873D02*
D03*
X0136349Y0097596D02*
D03*
X0166009Y0118012D02*
D03*
X0174494Y0105286D02*
D03*
X0204360Y0170203D02*
D03*
X0186516Y0144587D02*
D03*
X0103445Y0103642D02*
D03*
X0136440Y0090256D02*
D03*
X0135042Y0068603D02*
D03*
X0135042Y0054538D02*
D03*
X0139272Y0068603D02*
D03*
X0139272Y0054538D02*
D03*
X0186180Y0094241D02*
D03*
X0188091Y0049705D02*
D03*
X0127855Y0116240D02*
D03*
X0166009Y0114075D02*
D03*
X0170497Y0114075D02*
D03*
X0170497Y0118012D02*
D03*
X0190453Y0172146D02*
D03*
X0190453Y0168209D02*
D03*
X0204360Y0166266D02*
D03*
X0133536Y0080821D02*
D03*
X0133536Y0076884D02*
D03*
X0135042Y0050600D02*
D03*
X0136440Y0094193D02*
D03*
X0174494Y0109223D02*
D03*
X0136349Y0101533D02*
D03*
X0136404Y0104936D02*
D03*
X0139272Y0064666D02*
D03*
X0186180Y0090304D02*
D03*
X0188091Y0053642D02*
D03*
X0105743Y0125735D02*
D03*
X0103445Y0099705D02*
D03*
X0128469Y0072933D02*
D03*
X0128469Y0068996D02*
D03*
X0135042Y0064666D02*
D03*
X0186516Y0148524D02*
D03*
X0182013Y0148524D02*
D03*
X0132185Y0116240D02*
D03*
X0105504Y0161483D02*
D03*
X0105504Y0152167D02*
D03*
X0105504Y0156104D02*
D03*
X0139272Y0058475D02*
D03*
X0184154Y0049705D02*
D03*
X0184154Y0053642D02*
D03*
X0171752Y0049705D02*
D03*
X0171752Y0053642D02*
D03*
X0167618Y0049705D02*
D03*
X0167618Y0053642D02*
D03*
X0159350Y0049705D02*
D03*
X0159350Y0053642D02*
D03*
X0163484Y0049705D02*
D03*
X0163484Y0053642D02*
D03*
X0155217Y0049705D02*
D03*
X0155217Y0053642D02*
D03*
X0175886Y0049705D02*
D03*
X0175886Y0053642D02*
D03*
X0180020Y0049705D02*
D03*
X0180020Y0053642D02*
D03*
D154*
X0152658Y0104695D02*
D03*
X0148425Y0104695D02*
D03*
X0236516Y0150099D02*
D03*
X0236516Y0145374D02*
D03*
X0236516Y0140650D02*
D03*
X0236516Y0135926D02*
D03*
X0108169Y0065847D02*
D03*
X0108169Y0069981D02*
D03*
X0200390Y0161161D02*
D03*
X0196453Y0161161D02*
D03*
X0109351Y0050232D02*
D03*
X0113287Y0050232D02*
D03*
X0144488Y0104695D02*
D03*
X0156595Y0104695D02*
D03*
X0200886Y0156989D02*
D03*
X0196949Y0156989D02*
D03*
X0228662Y0132216D02*
D03*
X0224725Y0132216D02*
D03*
X0224725Y0135926D02*
D03*
X0228662Y0135926D02*
D03*
X0214075Y0135926D02*
D03*
X0218012Y0135926D02*
D03*
X0232579Y0135926D02*
D03*
X0232579Y0140650D02*
D03*
X0232579Y0150099D02*
D03*
X0232579Y0145374D02*
D03*
X0199385Y0051267D02*
D03*
X0195448Y0051267D02*
D03*
X0196358Y0101477D02*
D03*
X0200295Y0101477D02*
D03*
X0206595Y0101477D02*
D03*
X0210532Y0101477D02*
D03*
X0196358Y0073524D02*
D03*
X0200295Y0073524D02*
D03*
X0221752Y0096949D02*
D03*
X0217815Y0096949D02*
D03*
X0221752Y0067619D02*
D03*
X0217815Y0067619D02*
D03*
X0221752Y0054823D02*
D03*
X0217815Y0054823D02*
D03*
X0228662Y0071715D02*
D03*
X0232599Y0071715D02*
D03*
X0229036Y0050099D02*
D03*
X0225099Y0050099D02*
D03*
X0232185Y0050296D02*
D03*
X0236122Y0050296D02*
D03*
X0120877Y0050232D02*
D03*
X0116940Y0050232D02*
D03*
X0104232Y0065847D02*
D03*
X0104232Y0069981D02*
D03*
X0217815Y0073721D02*
D03*
X0221752Y0073721D02*
D03*
X0217815Y0078051D02*
D03*
X0221752Y0078051D02*
D03*
X0217815Y0086516D02*
D03*
X0221752Y0086516D02*
D03*
X0232599Y0090682D02*
D03*
X0228662Y0090682D02*
D03*
X0200295Y0129429D02*
D03*
X0196358Y0129429D02*
D03*
X0217815Y0059154D02*
D03*
X0221752Y0059154D02*
D03*
X0232599Y0109525D02*
D03*
X0228662Y0109525D02*
D03*
X0217815Y0105414D02*
D03*
X0221752Y0105414D02*
D03*
X0217815Y0092619D02*
D03*
X0221752Y0092619D02*
D03*
X0232599Y0128505D02*
D03*
X0228662Y0128505D02*
D03*
X0217815Y0124312D02*
D03*
X0221752Y0124312D02*
D03*
X0217815Y0115847D02*
D03*
X0221752Y0115847D02*
D03*
X0217815Y0111516D02*
D03*
X0221752Y0111516D02*
D03*
X0214075Y0129293D02*
D03*
X0218012Y0129293D02*
D03*
D156*
X0111378Y0085325D02*
D03*
X0120853Y0077585D02*
D03*
X0144223Y0059252D02*
D03*
D160*
X0112795Y0132973D02*
D03*
X0112795Y0126673D02*
D03*
X0111417Y0096359D02*
D03*
X0111417Y0090059D02*
D03*
X0116043Y0096359D02*
D03*
X0116043Y0090059D02*
D03*
D156*
X0147964Y0068504D02*
D03*
X0128333Y0077585D02*
D03*
X0124593Y0086837D02*
D03*
X0103898Y0085325D02*
D03*
X0107638Y0076073D02*
D03*
X0151704Y0059252D02*
D03*
D183*
X0121240Y0093799D02*
D03*
X0127461Y0093799D02*
D03*
D184*
X0192028Y0123229D02*
D03*
X0199114Y0123229D02*
D03*
X0199114Y0113189D02*
D03*
X0192028Y0113189D02*
D03*
X0199114Y0095276D02*
D03*
X0199114Y0067323D02*
D03*
X0203051Y0085237D02*
D03*
X0228248Y0140355D02*
D03*
X0221162Y0140355D02*
D03*
X0221162Y0150394D02*
D03*
X0228248Y0150394D02*
D03*
X0210138Y0057284D02*
D03*
X0203051Y0057284D02*
D03*
X0203051Y0067323D02*
D03*
X0210138Y0067323D02*
D03*
X0192028Y0067323D02*
D03*
X0199114Y0057284D02*
D03*
X0192028Y0057284D02*
D03*
X0210138Y0085237D02*
D03*
X0203051Y0095276D02*
D03*
X0210138Y0095276D02*
D03*
X0192028Y0095276D02*
D03*
X0199114Y0085237D02*
D03*
X0192028Y0085237D02*
D03*
X0233957Y0086221D02*
D03*
X0226870Y0086221D02*
D03*
X0226870Y0076181D02*
D03*
X0233957Y0076181D02*
D03*
X0233957Y0067323D02*
D03*
X0226870Y0067323D02*
D03*
X0226870Y0057284D02*
D03*
X0233957Y0057284D02*
D03*
X0233957Y0105119D02*
D03*
X0226870Y0105119D02*
D03*
X0226870Y0095079D02*
D03*
X0233957Y0095079D02*
D03*
X0233957Y0124016D02*
D03*
X0226870Y0124016D02*
D03*
X0226870Y0113977D02*
D03*
X0233957Y0113977D02*
D03*
X0210138Y0123229D02*
D03*
X0203051Y0123229D02*
D03*
X0203051Y0113189D02*
D03*
X0210138Y0113189D02*
D03*
X0210138Y0150788D02*
D03*
X0203051Y0150788D02*
D03*
X0203051Y0140748D02*
D03*
X0210138Y0140748D02*
D03*
X0192028Y0140748D02*
D03*
X0199114Y0140748D02*
D03*
X0199114Y0150788D02*
D03*
X0192028Y0150788D02*
D03*
D185*
X0199114Y0116634D02*
D03*
X0199114Y0119784D02*
D03*
X0192028Y0119784D02*
D03*
X0192028Y0116634D02*
D03*
X0199114Y0091831D02*
D03*
X0199114Y0063878D02*
D03*
X0203051Y0088681D02*
D03*
X0221162Y0146949D02*
D03*
X0221162Y0143800D02*
D03*
X0228248Y0143800D02*
D03*
X0228248Y0146949D02*
D03*
X0203051Y0063878D02*
D03*
X0203051Y0060729D02*
D03*
X0210138Y0060729D02*
D03*
X0210138Y0063878D02*
D03*
X0199114Y0060729D02*
D03*
X0192028Y0063878D02*
D03*
X0192028Y0060729D02*
D03*
X0203051Y0091831D02*
D03*
X0210138Y0088681D02*
D03*
X0210138Y0091831D02*
D03*
X0199114Y0088682D02*
D03*
X0192028Y0091831D02*
D03*
X0192028Y0088682D02*
D03*
X0233957Y0082776D02*
D03*
X0233957Y0079626D02*
D03*
X0226870Y0079626D02*
D03*
X0226870Y0082776D02*
D03*
X0233957Y0063879D02*
D03*
X0233957Y0060729D02*
D03*
X0226870Y0060729D02*
D03*
X0226870Y0063879D02*
D03*
X0233957Y0101674D02*
D03*
X0233957Y0098524D02*
D03*
X0226870Y0098524D02*
D03*
X0226870Y0101674D02*
D03*
X0233957Y0120571D02*
D03*
X0233957Y0117422D02*
D03*
X0226870Y0117422D02*
D03*
X0226870Y0120571D02*
D03*
X0210138Y0119784D02*
D03*
X0210138Y0116634D02*
D03*
X0203051Y0116634D02*
D03*
X0203051Y0119784D02*
D03*
X0210138Y0147343D02*
D03*
X0210138Y0144193D02*
D03*
X0203051Y0144193D02*
D03*
X0203051Y0147343D02*
D03*
X0192028Y0144193D02*
D03*
X0192028Y0147343D02*
D03*
X0199114Y0147343D02*
D03*
X0199114Y0144193D02*
D03*
D186*
X0114764Y0155571D02*
D03*
X0109774Y0155571D02*
D03*
X0109774Y0149351D02*
D03*
X0114764Y0149351D02*
D03*
D187*
X0121654Y0168209D02*
D03*
X0121654Y0135532D02*
D03*
X0175787Y0168209D02*
D03*
X0175787Y0135532D02*
D03*
D188*
X0139685Y0157973D02*
D03*
X0131024Y0157973D02*
D03*
X0135354Y0157973D02*
D03*
X0144016Y0157973D02*
D03*
X0148347Y0157973D02*
D03*
X0152677Y0157973D02*
D03*
X0157008Y0157973D02*
D03*
X0161339Y0157973D02*
D03*
D189*
X0220295Y0176280D02*
D03*
X0220295Y0163076D02*
D03*
X0228327Y0168799D02*
D03*
X0228327Y0155596D02*
D03*
X0211043Y0172540D02*
D03*
X0211043Y0159336D02*
D03*
X0237579Y0159336D02*
D03*
X0122658Y0071162D02*
D03*
X0113406Y0067422D02*
D03*
X0237579Y0172540D02*
D03*
D123*
X0194522Y0170203D02*
D03*
X0194522Y0166266D02*
D03*
X0200526Y0170203D02*
D03*
X0200526Y0168235D02*
D03*
X0194522Y0168235D02*
D03*
X0200526Y0166266D02*
D03*
D190*
X0137874Y0079638D02*
D03*
X0137874Y0074520D02*
D03*
X0137874Y0077079D02*
D03*
X0145355Y0079638D02*
D03*
X0145355Y0074520D02*
D03*
D191*
X0157382Y0082855D02*
D03*
X0159941Y0059863D02*
D03*
X0157382Y0059863D02*
D03*
X0180413Y0082855D02*
D03*
X0182972Y0059863D02*
D03*
X0185532Y0059863D02*
D03*
X0180413Y0059863D02*
D03*
X0177854Y0059863D02*
D03*
X0175295Y0059863D02*
D03*
X0172736Y0059863D02*
D03*
X0170177Y0059863D02*
D03*
X0167618Y0059863D02*
D03*
X0165059Y0059863D02*
D03*
X0162500Y0059863D02*
D03*
X0185532Y0082855D02*
D03*
X0182972Y0082855D02*
D03*
X0177854Y0082855D02*
D03*
X0175295Y0082855D02*
D03*
X0172736Y0082855D02*
D03*
X0170177Y0082855D02*
D03*
X0167618Y0082855D02*
D03*
X0165059Y0082855D02*
D03*
X0162500Y0082855D02*
D03*
X0159941Y0082855D02*
D03*
D192*
X0119795Y0056792D02*
D03*
X0108377Y0056792D02*
D03*
D193*
X0117660Y0114882D02*
D03*
X0117660Y0101890D02*
D03*
X0128860Y0050805D02*
D03*
X0128860Y0063797D02*
D03*
D194*
X0143065Y0113657D02*
D03*
X0157632Y0113657D02*
D03*
D116*
X0198508Y0165233D02*
D03*
X0196540Y0165233D02*
D03*
X0196540Y0171237D02*
D03*
X0198508Y0171237D02*
D03*
D195*
X0130542Y0100246D02*
D03*
X0130542Y0106151D02*
D03*
D189*
X0220295Y0168799D02*
D03*
X0220295Y0155596D02*
D03*
X0228327Y0163076D02*
D03*
X0122658Y0063681D02*
D03*
X0228327Y0176280D02*
D03*
D196*
X0181201Y0103049D02*
D03*
X0181201Y0109742D02*
D03*
D197*
X0107664Y0119410D02*
D03*
X0107664Y0107993D02*
D03*
D198*
X0142028Y0050493D02*
D03*
X0148327Y0050493D02*
D03*
M02*
