M48
INCH,TZ
T01C0.013750
T02C0.031750
T03C0.039200
T04C0.082700
%
T01
X10108Y17687
X10108Y17372
X10108Y17057
X10108Y16742
X10108Y16427
X10108Y16112
X10108Y15797
X10108Y15482
X10108Y12648
X10108Y12333
X10108Y12018
X10108Y11703
X10108Y11388
X10108Y15167
X10108Y14852
X10108Y14537
X10108Y14222
X10108Y13278
X10108Y12963
X10108Y11073
X10108Y10758
X10108Y9065
X10108Y8002
X10108Y7608
X10108Y4695
X11959Y4695
X12510Y4695
X12943Y17844
X13258Y17844
X13573Y17844
X13888Y17844
X14203Y17844
X14360Y4695
X14518Y17844
X14675Y4695
X15069Y17844
X15384Y17844
X15699Y17844
X15699Y4695
X16014Y17844
X16093Y4695
X16329Y17844
X16486Y4695
X16644Y17844
X16880Y4695
X16959Y17844
X17274Y17844
X17274Y4695
X17589Y17844
X17667Y4695
X17904Y17844
X18061Y4695
X18219Y17844
X18455Y4695
X18533Y17844
X18848Y17844
X19163Y17844
X19478Y17844
X19793Y17844
X21486Y17844
X22667Y4695
X23061Y4695
X24045Y15246
X24045Y14774
X24045Y14301
X24045Y13829
X24045Y13356
X24045Y12884
X24045Y12411
X24045Y11939
X24045Y11467
X24045Y10994
X24045Y10522
X24045Y10049
X24045Y9577
X24045Y9104
X24045Y8632
X24045Y8159
X24045Y7687
X24045Y7215
X24045Y6742
X24045Y6270
X24045Y5797
X24045Y4852
X2047Y35236
X2283Y31496
X2953Y33150
X3071Y30197
X3504Y37441
X4488Y33268
X5591Y30276
X5630Y32992
X7087Y33346
X7480Y30079
X7598Y37598
X7874Y26654
X7898Y26039
X8228Y27756
X9134Y30197
X10394Y27638
X10827Y37717
X11220Y30157
X11417Y33386
X12441Y30236
X12717Y33386
X13425Y24968
X13504Y32559
X13898Y27835
X14409Y30157
X14449Y33150
X15551Y33465
X15650Y25500
X15778Y32795
X15882Y28761
X16142Y33465
X16220Y30354
X16227Y28228
X16260Y37717
X16373Y32804
X16474Y29456
X16591Y27146
X16610Y30341
X16614Y27657
X16673Y26634
X16732Y33465
X16968Y32812
X17047Y25787
X17126Y28543
X17204Y29354
X17205Y26496
X17322Y32283
X17323Y33465
X17381Y27954
X17503Y27370
X17603Y35512
X17663Y27708
X17717Y26811
X17736Y30322
X17913Y33465
X17971Y29521
X18120Y28235
X18184Y34081
X18185Y30341
X18224Y26069
X18504Y32283
X18504Y33465
X18582Y29512
X18898Y29961
X18898Y27756
X19134Y26181
X20118Y37756
X20630Y30118
X21024Y33543
X21145Y25719
X22717Y33189
X23484Y32480
X24094Y30354
X24528Y24291
X25148Y37707
X25926Y24010
X26260Y33228
X26575Y32485
X26772Y31496
X28150Y24134
X28583Y37677
X29094Y30630
X29409Y27165
X29567Y33071
X29724Y24134
X30236Y28504
X30236Y27244
X30289Y28874
X30335Y30315
X30472Y33228
X31063Y37550
X32412Y24210
X32426Y24803
X33110Y31772
X33195Y34002
X33465Y28976
X24045Y4853
X24014Y5329
X23824Y5561
X24045Y5797
X23844Y6034
X24045Y6270
X23844Y6506
X24045Y6742
X23844Y6979
X24045Y7215
X23844Y7451
X24045Y7687
X23844Y7923
X24045Y8160
X23844Y8396
X24045Y8632
X23844Y8868
X24045Y9105
X23844Y9341
X24045Y9577
X23844Y9813
X24045Y10049
X23844Y10286
X24045Y10522
X23844Y10758
X24045Y10994
X23844Y11231
X24045Y11467
X23844Y11703
X24045Y11939
X23844Y12175
X24045Y12412
X23844Y12648
X24045Y12884
X23844Y13120
X24045Y13357
X23844Y13593
X24045Y13829
X23844Y14065
X24045Y14301
X23844Y14538
X24045Y14774
X23844Y15010
X24045Y15246
X23887Y15561
X23352Y15554
X23158Y15127
X23148Y14676
X23141Y14234
X23143Y13761
X22096Y13256
X22096Y12946
X22569Y12699
X22366Y12101
X22357Y11805
X22086Y11962
X21404Y12079
X21136Y11824
X20595Y11727
X20595Y12166
X20715Y12626
X20383Y12626
X20088Y12626
X19797Y12620
X19113Y12950
X19117Y13495
X18549Y13341
X18612Y12727
X17782Y12520
X17588Y12294
X17711Y11938
X17316Y11617
X17052Y11149
X17037Y10512
X17687Y10077
X17713Y9408
X18260Y9398
X18133Y8690
X17334Y8735
X16569Y8709
X15759Y8687
X15285Y8376
X14997Y8403
X14960Y8686
X14645Y8387
X13937Y8387
X13612Y8396
X13228Y8387
X12894Y8706
X13031Y9114
X13327Y9117
X12671Y9046
X12386Y9038
X12474Y9550
X11991Y9768
X12147Y10025
X12450Y10476
X12564Y10900
X12471Y11657
X13520Y11594
X13508Y11217
X13986Y10587
X14037Y10183
X14519Y10133
X14817Y10165
X15102Y10178
X15050Y10467
X15938Y10305
X15941Y9440
X15655Y9449
X15404Y9315
X16221Y9388
X17158Y9390
X17025Y7693
X17311Y7693
X17735Y7711
X18043Y7711
X18332Y7711
X19072Y7935
X19167Y8215
X19562Y8527
X19882Y8229
X20448Y8229
X20734Y8222
X21395Y8313
X22140Y8110
X22372Y8278
X22407Y7978
X22571Y7353
X22571Y7057
X22366Y6431
X22366Y6145
X22083Y6309
X21407Y6413
X21138Y6254
X20561Y6074
X20561Y6550
X20715Y7036
X20383Y7036
X20088Y7036
X19797Y7029
X19575Y6266
X19198Y6270
X19190Y5467
X19524Y5494
X19092Y5199
X19049Y4720
X18454Y4695
X18061Y4695
X17667Y4695
X17273Y4695
X16880Y4695
X16486Y4695
X16092Y4695
X15698Y4695
X15069Y4734
X14675Y4695
X14360Y4695
X13986Y4695
X13503Y4823
X13139Y4734
X12509Y4695
X12399Y4979
X11958Y4695
X10796Y4716
X10108Y4695
X10132Y7247
X10108Y7608
X10108Y8002
X10108Y9065
X10340Y9376
X10793Y9597
X10838Y9942
X10802Y10340
X11327Y10187
X11423Y10631
X11693Y10724
X11330Y10927
X10108Y11073
X10108Y10758
X10147Y10246
X10108Y11388
X10108Y11703
X10108Y12018
X10108Y12333
X10108Y12648
X10108Y12963
X10108Y13278
X10305Y13632
X10108Y14223
X10108Y14538
X10108Y14853
X10108Y15168
X10108Y15483
X10108Y15797
X10108Y16112
X10108Y16427
X10108Y16742
X10108Y17057
X10108Y17372
X10108Y17687
X10974Y17392
X10930Y17019
X11215Y17017
X10974Y16644
X11427Y15877
X11958Y16152
X12421Y16122
X13012Y16493
X13251Y16337
X13543Y16565
X13970Y16782
X13968Y16341
X14652Y16243
X14941Y16759
X14387Y17035
X14517Y17845
X14202Y17845
X13887Y17845
X13572Y17845
X13257Y17845
X12943Y17845
X12855Y17488
X12611Y17705
X11909Y17396
X10523Y15851
X10396Y14741
X11631Y14425
X12479Y14351
X12479Y14645
X12479Y14936
X13257Y14695
X13159Y14397
X13465Y14437
X13848Y14538
X14104Y14730
X14502Y14536
X14728Y14296
X15265Y14498
X15733Y14621
X15635Y14245
X16336Y14258
X16994Y14108
X17208Y14302
X17412Y14506
X17614Y14708
X17785Y15010
X18139Y15443
X18533Y15079
X18691Y14183
X19162Y14580
X19575Y14589
X19547Y14070
X19763Y13780
X20336Y13780
X20722Y13817
X20588Y14421
X20595Y14921
X20703Y15368
X20383Y15382
X20095Y15377
X19797Y15376
X19113Y15706
X19084Y16112
X19013Y16481
X18292Y16521
X17824Y16034
X16888Y16392
X16368Y16427
X16147Y16609
X15833Y16299
X15596Y17046
X15698Y17845
X15383Y17845
X15069Y17845
X14791Y17706
X16013Y17845
X16328Y17845
X16643Y17845
X16958Y17845
X17273Y17845
X17588Y17845
X17903Y17845
X18218Y17845
X18533Y17845
X18848Y17845
X19163Y17845
X19478Y17845
X19793Y17845
X20407Y17326
X21013Y17766
X21486Y17845
X22084Y17274
X22403Y17274
X22721Y17274
X23039Y17274
X23358Y17274
X23684Y16910
X23727Y17628
X22896Y16032
X22317Y16165
X21407Y15601
X21818Y15049
X21807Y14702
X21807Y14385
X21807Y14039
X21407Y13238
X21141Y14581
X20722Y11022
X20323Y11024
X19884Y11024
X19500Y11106
X19522Y11833
X19240Y11782
X19108Y10640
X19100Y10316
X18608Y10294
X18984Y9835
X19717Y9813
X20088Y9836
X20383Y9823
X20883Y9813
X20620Y9518
X20575Y8849
X21117Y9049
X21993Y8978
X22573Y9209
X22366Y9919
X22366Y10211
X22076Y10069
X21407Y10192
X22527Y10838
X22578Y11166
X19569Y9171
X19163Y8972
X19113Y7359
X18494Y6825
X17733Y6825
X16972Y6825
X16210Y6826
X16322Y7693
X16035Y7693
X15582Y7670
X15621Y7370
X15156Y6545
X14767Y6546
X14246Y6526
X13186Y6714
X13376Y5719
X13671Y5845
X14102Y7702
X14546Y7705
X14265Y8726
X13950Y9388
X11958Y8553
X11910Y8110
X11059Y8153
X11378Y7690
X11040Y7025
X10595Y7255
X11913Y6944
X11690Y6504
X11095Y9318
X11256Y12325
X10949Y12396
X11535Y12185
X11639Y12658
X11610Y13489
X11285Y13681
X12672Y13433
X12955Y13491
X13773Y13063
X13976Y12855
X14300Y13045
X14347Y13403
X14531Y12852
X15674Y12646
X15903Y12423
X16586Y12377
X16597Y12086
X16805Y12573
X17394Y12642
X16805Y13242
X16801Y13671
X16801Y14705
X16859Y15286
X16250Y15049
X15441Y15071
X14950Y15089
X14567Y15346
X14322Y15199
X13760Y15255
X13459Y15199
X13376Y12530
X17741Y10925
X16609Y7693
X20295Y5433
X20760Y5471
X21082Y5189
X21121Y4698
X21673Y5296
X21985Y5030
X22667Y4695
X23061Y4695
X23646Y4715
X23454Y5286
X22571Y5483
X19763Y4823
X18806Y17241
T02
X3224Y26969
X4724Y26969
X8661Y26931
X8661Y25431
X9646Y26931
X9646Y25431
X11122Y26931
X11122Y25431
X12402Y26931
X12402Y25431
X13189Y26931
X13189Y25431
X13976Y26931
X13976Y25431
X14764Y26931
X14764Y25431
X19882Y26555
X19882Y24626
X20866Y26555
X20866Y24626
X21772Y26537
X21772Y25037
X22756Y26537
X22756Y25037
X23819Y26537
X23819Y25037
X25197Y26537
X25197Y25037
X26929Y26752
X26929Y24823
X28110Y26537
X28110Y25037
X28776Y27953
X28858Y26537
X28858Y25037
X29567Y26537
X29567Y25037
X30276Y27953
X30315Y26537
X30315Y25037
X18750Y10790
X18750Y12368
X18750Y13790
T03
X3506Y35321
X3506Y34337
X3506Y31975
X3506Y30991
X3752Y29416
X4490Y35321
X4490Y34337
X4490Y31975
X4490Y30991
X5228Y29416
X5474Y35321
X5474Y34337
X5474Y31975
X5474Y30991
X6458Y35321
X6458Y34337
X6458Y31975
X6458Y30991
X6704Y29416
X7443Y35321
X7443Y34337
X7443Y31975
X7443Y30991
X8181Y29416
X8427Y35321
X8427Y34337
X8427Y31975
X8427Y30991
X9411Y35321
X9411Y34337
X9411Y31975
X9411Y30991
X9657Y29416
X10395Y35321
X10395Y34337
X10395Y31975
X10395Y30991
X11134Y29416
X11380Y35321
X11380Y34337
X11380Y31975
X11380Y30991
X12364Y35321
X12364Y34337
X12364Y31975
X12364Y30991
X12610Y29416
X13348Y35321
X13348Y34337
X13348Y31975
X13348Y30991
X14086Y29416
X14332Y35321
X14332Y34337
X14332Y31975
X14332Y30991
X19647Y35321
X19647Y34337
X19647Y31975
X19647Y30991
X19893Y29416
X20632Y35321
X20632Y34337
X20632Y31975
X20632Y30991
X21370Y29416
X21616Y35321
X21616Y34337
X21616Y31975
X21616Y30991
X22600Y35321
X22600Y34337
X22600Y31975
X22600Y30991
X22846Y29416
X23584Y35321
X23584Y34337
X23584Y31975
X23584Y30991
X24323Y29416
X24569Y35321
X24569Y34337
X24569Y31975
X24569Y30991
X25553Y35321
X25553Y34337
X25553Y31975
X25553Y30991
X25799Y29416
X26537Y35321
X26537Y34337
X26537Y31975
X26537Y30991
X27275Y29416
X27521Y35321
X27521Y34337
X27521Y31975
X27521Y30991
X28506Y35321
X28506Y34337
X28506Y31975
X28506Y30991
X28752Y29416
X29490Y35321
X29490Y34337
X29490Y31975
X29490Y30991
X30228Y29416
X30474Y35321
X30474Y34337
X30474Y31975
X30474Y30991
X10423Y5010
X11394Y14089
X10594Y14089
X10994Y16089
T04
X848Y33077
X33132Y33077
M30
